<?xml version="1.0" standalone="no"?>
<!DOCTYPE svg PUBLIC "-//W3C//DTD SVG 20010904//EN"
 "http://www.w3.org/TR/2001/REC-SVG-20010904/DTD/svg10.dtd">
<svg version="1.0" xmlns="http://www.w3.org/2000/svg"
 width="760.000000pt" height="760.000000pt" viewBox="0 0 760.000000 760.000000"
 preserveAspectRatio="xMidYMid meet">
<metadata>
Created by potrace 1.14, written by Peter Selinger 2001-2017
</metadata>
<g transform="translate(0.000000,760.000000) scale(0.100000,-0.100000)"
fill="#000000" stroke="none">
<path d="M4392 7570 c-23 -17 -45 -30 -47 -30 -3 0 -13 -7 -22 -15 -10 -8 -52
-39 -93 -70 -117 -86 -240 -185 -302 -243 -20 -19 -41 -31 -46 -28 -6 3 -32
36 -58 73 -53 74 -101 125 -155 166 l-35 26 -35 -18 c-96 -52 -257 -175 -314
-241 l-40 -46 -55 35 c-30 20 -56 39 -58 44 -2 4 -8 7 -13 7 -5 0 -28 12 -51
26 -67 42 -265 144 -280 144 -31 0 -93 -121 -102 -200 -2 -25 -5 -45 -6 -45
-1 0 -3 -7 -5 -15 -1 -8 -10 -41 -20 -73 -15 -52 -19 -57 -38 -51 -38 12 -91
25 -122 29 -141 19 -511 26 -525 10 -9 -11 -52 -195 -64 -279 -4 -21 -8 -41
-10 -45 -2 -3 -6 -29 -10 -58 -11 -93 -24 -102 -107 -71 -69 26 -157 48 -190
48 -22 0 -31 -8 -48 -46 -55 -116 -97 -237 -107 -307 -6 -49 -16 -129 -19
-162 -2 -16 -3 -32 -4 -35 -1 -3 -45 -6 -98 -6 -125 0 -260 -11 -373 -30 -41
-7 -70 -11 -89 -13 -10 -1 -12 -12 -8 -48 10 -84 17 -106 62 -183 57 -98 89
-170 78 -179 -4 -4 -44 -21 -88 -36 -44 -16 -153 -64 -243 -107 -90 -43 -167
-78 -172 -78 -22 0 23 -196 97 -425 20 -60 35 -110 34 -110 -1 0 7 -18 18 -40
10 -22 19 -41 18 -41 -1 -1 -65 -25 -142 -54 -125 -47 -261 -108 -352 -157
-18 -10 -33 -25 -33 -34 0 -34 122 -189 148 -189 6 0 12 -3 14 -7 2 -5 23 -24
48 -44 25 -20 67 -58 93 -83 l48 -47 -38 -26 c-21 -14 -40 -29 -43 -32 -3 -4
-15 -14 -26 -22 -69 -47 -324 -289 -324 -308 0 -15 73 -50 117 -56 21 -2 56
-7 78 -11 22 -3 54 -8 70 -10 59 -9 141 -36 182 -60 40 -23 42 -27 37 -60 -14
-92 -106 -254 -205 -364 -17 -19 -43 -51 -58 -70 -14 -19 -28 -37 -31 -40 -3
-3 -16 -19 -28 -36 l-22 -32 33 -24 c34 -26 168 -88 203 -94 91 -17 342 -90
357 -104 5 -4 -4 -27 -19 -51 -16 -24 -34 -53 -40 -64 -6 -11 -31 -54 -56 -95
-108 -181 -201 -364 -196 -388 6 -32 127 -54 243 -46 179 13 316 13 321 0 3
-7 -21 -66 -52 -132 -84 -179 -154 -357 -157 -400 -2 -33 2 -40 27 -52 87 -43
459 -165 499 -164 27 1 21 -31 -29 -136 -77 -165 -111 -293 -79 -306 14 -5
255 0 345 8 30 2 91 7 135 11 145 11 169 13 228 20 l58 7 -6 -103 c-13 -233
-14 -425 -2 -475 11 -46 14 -49 42 -46 58 7 216 52 307 88 83 32 108 43 183
75 64 27 98 38 104 35 3 -2 19 -30 36 -61 51 -99 233 -315 265 -315 23 0 66
51 95 113 28 61 62 109 97 137 l26 20 52 -93 c29 -50 56 -94 60 -97 3 -3 9
-12 12 -20 12 -32 159 -220 172 -220 31 0 155 122 229 224 102 143 223 300
232 302 6 2 27 -19 48 -45 21 -27 52 -64 70 -84 18 -19 61 -68 97 -108 36 -40
76 -86 90 -101 14 -15 66 -70 115 -123 104 -109 87 -110 190 10 33 38 68 79
78 90 17 19 180 227 210 269 13 17 18 13 88 -56 82 -81 131 -118 231 -170 62
-33 68 -35 82 -19 8 9 17 32 21 51 3 19 7 46 10 60 2 14 7 61 10 105 3 44 8
91 10 105 2 14 7 48 11 75 7 60 12 89 14 93 4 3 7 20 9 37 2 32 32 11 117 -82
136 -147 187 -189 239 -195 26 -3 29 2 52 62 22 58 98 335 110 399 15 86 19
96 39 93 10 -2 39 -7 64 -11 98 -18 268 -34 365 -33 128 0 118 -5 111 50 -7
54 -14 89 -50 222 -24 92 -35 146 -41 203 -2 25 0 27 39 28 22 0 50 2 61 3 11
2 43 6 70 9 28 4 61 9 75 12 14 2 41 6 60 9 19 3 71 12 114 21 93 18 123 23
195 35 29 5 56 12 59 14 2 3 -11 18 -29 33 -91 75 -239 237 -239 262 0 6 -4
11 -9 11 -27 0 -76 185 -60 228 7 18 15 20 82 16 40 -2 127 -18 193 -36 108
-29 132 -32 271 -32 102 -1 156 3 164 11 8 8 -6 54 -59 185 -98 242 -136 332
-143 338 -13 11 -18 57 -6 57 32 0 128 35 165 61 24 16 85 70 137 122 l95 93
-17 26 c-19 30 -227 304 -246 323 -6 7 -32 40 -57 73 -25 33 -51 65 -59 71
-27 21 -2 40 95 72 105 34 195 86 263 152 l41 40 -40 60 c-22 32 -40 62 -40
65 0 4 -13 25 -28 48 -16 23 -32 49 -36 57 -21 45 -81 133 -136 199 l-51 62
23 19 c13 10 34 25 48 32 14 7 31 19 38 26 7 6 17 12 20 12 8 0 85 73 122 116
46 53 72 95 67 108 -7 17 -86 55 -337 159 -113 47 -222 94 -243 104 l-37 19
28 21 c46 34 105 61 173 78 113 29 201 92 246 178 9 17 18 39 19 47 2 10 -59
55 -167 125 -192 125 -208 135 -304 183 -38 19 -72 36 -73 38 -2 1 40 76 94
166 141 236 181 338 137 352 -21 6 -71 15 -128 22 -39 6 -251 5 -450 0 -113
-3 -128 0 -121 23 5 17 11 69 22 181 12 130 7 330 -9 341 -25 17 -116 -4 -197
-45 -47 -24 -96 -46 -111 -49 -23 -6 -26 -3 -37 40 -20 75 -199 420 -251 484
-18 22 -20 23 -58 8 -31 -13 -183 -116 -203 -138 -27 -30 -217 -143 -224 -133
-4 7 -10 50 -21 162 -3 30 -10 73 -16 95 -5 22 -12 50 -14 62 -7 32 -62 178
-80 213 -18 34 -22 35 -67 15 -18 -8 -89 -37 -158 -65 -69 -28 -155 -67 -193
-86 -37 -19 -71 -33 -76 -30 -5 3 -32 65 -61 138 -79 199 -153 339 -178 338
-4 0 -26 -14 -50 -30z m70 -157 c25 -54 63 -138 83 -188 20 -49 52 -118 71
-152 l35 -62 52 23 c212 96 368 165 404 179 l42 16 10 -32 c13 -42 29 -136 36
-217 3 -36 7 -78 10 -95 11 -67 15 -91 21 -115 3 -14 7 -36 10 -50 9 -44 15
-60 25 -60 5 0 53 22 107 50 158 81 160 82 316 194 30 21 59 35 65 32 19 -12
158 -306 198 -418 26 -75 43 -108 54 -108 40 0 252 73 280 97 35 29 38 17 33
-124 -2 -75 -6 -148 -9 -162 -2 -14 -7 -73 -10 -132 -6 -90 -4 -107 9 -112 8
-3 166 -5 350 -5 185 1 338 -1 341 -4 7 -7 -37 -97 -101 -205 -58 -97 -146
-273 -138 -273 4 0 1 -6 -5 -14 -14 -17 -9 -21 84 -71 142 -76 181 -99 248
-139 38 -22 99 -57 138 -77 l69 -36 -47 -48 c-49 -48 -106 -82 -178 -105 -22
-7 -49 -17 -60 -23 -11 -6 -25 -12 -32 -13 -21 -4 -123 -76 -138 -98 -14 -20
-13 -23 17 -48 18 -15 39 -28 46 -28 6 0 12 -4 12 -10 0 -5 4 -10 9 -10 5 0
42 -19 83 -43 72 -42 179 -96 268 -134 25 -11 75 -33 113 -49 37 -15 67 -32
67 -35 0 -11 -68 -62 -160 -120 -106 -67 -160 -110 -160 -127 0 -8 43 -80 97
-160 104 -159 203 -319 203 -329 0 -4 7 -14 16 -24 15 -16 13 -19 -28 -40 -69
-37 -208 -98 -208 -92 0 3 -6 1 -12 -5 -7 -5 -48 -24 -90 -42 -43 -17 -78 -35
-78 -40 0 -7 127 -189 140 -200 4 -4 51 -62 143 -180 86 -110 107 -141 107
-154 0 -9 -4 -16 -8 -16 -4 0 -28 -18 -52 -40 -25 -22 -50 -44 -56 -49 -13
-11 -175 -75 -233 -92 -70 -21 -75 0 69 -319 62 -137 120 -273 120 -281 0 -12
-166 -4 -225 11 -27 6 -57 13 -65 15 -8 2 -27 8 -42 14 -16 6 -28 9 -28 6 0
-2 -13 0 -29 5 -62 17 -262 32 -280 20 -17 -10 -30 -106 -27 -195 2 -77 7 -99
34 -155 38 -78 88 -136 160 -184 l53 -35 -38 -10 c-21 -5 -65 -12 -98 -16 -32
-4 -66 -8 -75 -10 -28 -5 -95 -15 -145 -21 -27 -3 -59 -8 -70 -10 -11 -2 -40
-6 -65 -9 -61 -7 -105 -20 -104 -31 1 -5 5 -43 9 -83 3 -41 8 -77 10 -80 1 -4
6 -26 9 -51 10 -70 15 -100 32 -165 9 -33 18 -75 21 -94 l5 -34 -49 8 c-26 4
-64 9 -83 11 -19 2 -46 6 -60 9 -14 2 -40 7 -57 10 -44 7 -83 14 -113 20 -91
19 -162 27 -169 19 -5 -5 -17 -45 -26 -89 -9 -44 -19 -89 -21 -100 -3 -11 -7
-31 -10 -45 -3 -13 -12 -56 -20 -95 -9 -38 -17 -79 -20 -90 -20 -98 -29 -125
-40 -125 -8 0 -61 47 -118 104 -107 107 -244 212 -258 198 -16 -16 -84 -309
-93 -401 -17 -183 -18 -184 -72 -139 -22 19 -73 67 -114 108 -89 90 -165 153
-178 148 -10 -3 -110 -126 -286 -352 -49 -63 -95 -115 -101 -116 -17 0 -139
133 -272 298 -19 22 -41 50 -50 60 -10 11 -37 46 -61 78 -25 33 -62 74 -84 92
-46 37 -30 46 -132 -73 -33 -38 -62 -72 -65 -75 -15 -14 -116 -149 -185 -245
-43 -60 -82 -114 -86 -119 -12 -14 -37 19 -175 236 -70 109 -130 198 -135 198
-19 0 -210 -196 -221 -227 -7 -18 -17 -33 -23 -33 -5 0 -33 30 -61 68 -71 94
-86 117 -129 197 -61 113 -52 109 -158 70 -51 -18 -183 -70 -295 -115 -112
-45 -207 -79 -210 -75 -7 7 -7 168 0 425 6 217 12 203 -81 196 -42 -4 -89 -8
-106 -10 -16 -2 -66 -7 -110 -11 -44 -4 -82 -9 -85 -10 -3 -2 -43 -6 -90 -10
-47 -4 -92 -9 -101 -10 -9 -2 -56 -6 -104 -10 l-88 -7 7 33 c7 41 8 42 34 101
35 76 61 138 63 146 1 4 3 12 5 17 10 33 27 104 30 127 4 31 21 24 -196 78
-69 17 -177 47 -241 67 l-117 36 10 36 c13 45 49 132 98 236 20 44 49 105 64
136 46 99 68 172 54 181 -16 10 -82 29 -123 35 -16 2 -43 8 -60 12 -63 16
-138 12 -255 -14 -67 -15 -123 -25 -126 -23 -2 2 6 22 17 44 45 83 94 173 152
274 129 225 157 275 157 283 0 19 -341 140 -460 163 -14 3 -50 12 -82 20 l-56
16 19 47 c11 25 34 62 52 81 155 168 235 300 252 420 6 45 6 45 -37 70 -59 35
-225 109 -276 125 -23 7 -64 14 -115 19 -15 2 -30 6 -33 9 -6 6 94 88 283 231
118 88 141 111 134 124 -14 26 -208 215 -281 273 -36 29 -65 57 -65 63 0 6 20
21 45 33 49 24 376 155 425 170 24 8 29 15 27 34 -5 35 -51 194 -139 477 -19
63 -33 115 -31 116 16 14 211 99 323 143 216 83 216 83 209 107 -17 61 -90
232 -125 291 -22 38 -36 72 -32 76 11 11 107 18 312 25 97 3 185 6 196 8 23 3
29 20 75 221 32 138 94 324 112 336 12 8 79 -5 167 -30 36 -11 85 -22 108 -26
45 -7 42 -11 58 73 2 13 6 31 9 40 3 9 8 33 11 52 3 19 11 55 16 80 6 25 12
54 14 65 7 43 26 141 31 158 6 19 -9 19 258 2 43 -3 82 -7 85 -9 3 -2 31 -7
61 -11 30 -3 74 -11 98 -16 23 -5 59 -12 80 -15 20 -3 40 -8 44 -10 16 -10 38
32 73 142 20 64 39 131 42 148 2 17 9 48 14 69 l10 37 47 -26 c26 -15 121 -70
212 -124 91 -53 175 -102 188 -109 20 -11 29 -5 113 76 51 48 97 93 103 98 23
22 151 117 163 122 13 5 81 -59 118 -111 46 -65 121 -155 133 -160 10 -4 162
108 182 135 9 12 355 299 361 299 3 0 26 -44 51 -97z"/>
<path d="M2635 6686 c-90 -41 -105 -149 -30 -214 31 -28 40 -31 87 -27 45 3
57 8 85 39 31 33 38 59 33 111 -7 72 -105 123 -175 91z"/>
<path d="M3828 6655 c-2 -2 -55 -6 -118 -10 -63 -3 -128 -8 -145 -9 -16 -2
-59 -6 -95 -10 -108 -11 -176 -22 -265 -46 -22 -6 -51 -13 -64 -16 -13 -3 -31
-9 -40 -13 -9 -5 -18 -9 -21 -9 -28 -2 -132 -51 -275 -130 -197 -109 -276
-143 -475 -207 -96 -32 -202 -68 -235 -81 -71 -29 -161 -94 -207 -150 -53 -64
-125 -131 -162 -148 -25 -12 -42 -31 -61 -70 -14 -29 -65 -100 -112 -157 -47
-57 -98 -122 -112 -144 -14 -22 -29 -42 -33 -45 -8 -6 -75 -140 -108 -215 -12
-27 -29 -66 -38 -85 -9 -19 -17 -37 -17 -40 0 -3 -15 -39 -32 -80 -17 -41 -43
-115 -58 -165 -15 -49 -48 -155 -73 -235 -48 -156 -106 -379 -116 -451 -3 -24
-9 -64 -12 -89 -3 -25 -7 -56 -10 -70 -22 -136 -21 -551 1 -630 3 -8 7 -32 9
-52 15 -113 70 -294 133 -430 l35 -76 -21 -30 c-59 -83 1 -202 101 -202 41 0
52 -12 97 -100 50 -96 133 -218 190 -277 28 -28 94 -87 148 -131 121 -98 199
-182 212 -228 11 -40 134 -195 218 -276 60 -56 185 -152 238 -182 17 -9 46
-26 65 -38 117 -70 432 -207 535 -232 6 -1 42 -12 80 -23 115 -35 251 -64 370
-79 22 -3 51 -7 65 -10 24 -4 107 -8 410 -20 308 -12 391 -5 599 50 47 13 55
13 68 0 71 -70 187 -40 213 56 9 34 15 38 107 74 118 46 219 89 293 126 73 36
194 102 200 109 7 8 38 27 77 47 18 9 37 22 44 30 6 8 16 14 22 14 16 0 131
102 178 159 24 29 51 61 59 70 9 9 35 40 59 69 34 41 48 51 63 46 34 -10 84 5
117 36 17 17 31 34 32 38 0 4 3 20 5 35 3 16 0 44 -6 62 -10 30 -8 40 18 87
17 29 35 71 42 93 7 22 31 58 54 81 23 23 48 54 56 70 68 130 186 315 283 439
36 48 100 169 138 265 27 70 59 180 52 180 -3 0 1 7 8 17 8 9 12 17 10 17 -4
1 5 71 15 119 18 90 26 615 11 747 -18 158 -43 300 -71 395 -22 79 -127 377
-180 515 -76 196 -223 441 -376 625 -42 50 -252 258 -304 300 -27 22 -54 45
-60 50 -25 23 -156 116 -216 154 -93 58 -264 144 -500 253 -304 141 -387 171
-546 202 -43 8 -90 18 -103 20 -13 3 -49 8 -80 11 -31 4 -68 8 -83 11 -14 2
-64 6 -110 9 -45 3 -106 7 -135 9 -29 2 -53 2 -55 1z m202 -99 c299 -21 491
-68 738 -182 41 -19 75 -34 77 -34 2 0 43 -18 92 -41 48 -22 104 -48 123 -56
79 -36 238 -114 279 -139 232 -135 554 -417 687 -600 10 -14 33 -45 50 -68 84
-113 182 -300 259 -496 20 -52 43 -108 50 -125 43 -98 68 -176 89 -286 2 -13
14 -64 25 -114 24 -100 27 -113 35 -170 3 -22 8 -51 11 -65 15 -77 23 -581 11
-735 -22 -269 -98 -473 -269 -712 -52 -72 -116 -173 -142 -225 -51 -98 -89
-158 -125 -196 -12 -13 -42 -60 -67 -105 -65 -118 -87 -145 -115 -140 -33 6
-88 -28 -110 -68 -15 -27 -18 -45 -13 -87 4 -28 2 -52 -2 -52 -5 0 -34 -33
-64 -72 -60 -81 -216 -238 -235 -238 -7 0 -14 -4 -16 -9 -12 -34 -382 -229
-590 -311 l-107 -42 -51 25 c-43 22 -56 24 -88 15 -45 -12 -76 -39 -93 -81
-16 -39 -21 -43 -87 -62 -124 -37 -273 -46 -482 -31 -52 4 -168 9 -257 11 -88
3 -181 7 -205 10 -23 3 -62 8 -85 10 -61 7 -231 43 -310 66 -37 11 -82 24
-100 28 -64 17 -262 95 -369 146 -136 64 -230 118 -315 182 -73 54 -259 239
-276 275 -6 12 -24 53 -41 89 -18 40 -49 85 -79 115 -51 51 -69 66 -193 162
-119 93 -207 205 -309 395 -37 69 -40 81 -32 116 14 65 -39 151 -92 151 -19 0
-36 28 -80 130 -51 121 -111 316 -101 332 3 5 2 8 -3 8 -4 0 -8 10 -9 23 0 12
-4 47 -8 77 -13 91 -16 130 -16 235 1 111 6 216 14 267 2 18 8 60 12 93 3 33
7 67 9 75 6 35 16 97 19 125 11 86 39 191 109 415 26 80 58 183 73 230 29 95
24 82 128 315 90 199 140 279 249 400 10 11 44 61 75 110 31 50 70 101 86 115
17 13 78 72 136 130 111 112 159 143 275 180 39 12 77 25 85 28 8 3 20 6 25 8
30 8 173 56 190 64 11 5 49 21 85 35 68 28 257 121 276 136 51 41 268 133 364
153 121 26 157 33 230 41 30 3 69 8 85 10 17 2 84 7 150 10 66 4 121 7 122 8
3 3 127 -1 213 -7z"/>
<path d="M4104 6411 c-18 -11 -35 -24 -38 -29 -3 -6 -54 -11 -114 -11 -105 -1
-181 -4 -332 -17 -86 -7 -123 -11 -235 -28 -151 -23 -246 -54 -435 -144 -63
-30 -169 -76 -235 -103 -185 -77 -195 -81 -274 -122 -97 -50 -199 -128 -287
-219 -55 -58 -89 -83 -159 -118 -65 -33 -108 -63 -155 -110 -66 -66 -88 -103
-151 -255 -33 -78 -45 -102 -165 -315 -33 -58 -77 -144 -98 -193 -22 -48 -45
-92 -53 -98 -7 -6 -13 -16 -13 -21 0 -6 -8 -22 -19 -36 -10 -15 -22 -45 -26
-67 -5 -22 -9 -45 -10 -51 -2 -6 -6 -37 -9 -70 -8 -69 -26 -200 -33 -229 -2
-11 -6 -36 -9 -55 -2 -19 -13 -69 -24 -110 -14 -56 -17 -98 -14 -165 2 -49 6
-135 9 -190 9 -190 15 -237 50 -397 19 -86 110 -305 142 -340 9 -10 12 -18 8
-18 -4 0 -1 -8 7 -17 8 -10 43 -65 77 -123 80 -134 72 -121 126 -215 79 -139
94 -165 157 -258 112 -167 181 -252 328 -398 158 -157 282 -247 465 -337 88
-43 101 -53 103 -77 6 -79 111 -131 182 -90 14 8 31 17 38 21 7 4 79 -15 159
-41 204 -67 263 -74 538 -69 127 2 264 6 305 9 139 8 225 15 245 19 11 2 47 7
80 11 144 16 318 63 450 121 22 10 45 18 50 20 30 5 295 145 426 224 383 231
548 368 679 562 58 86 178 316 240 458 18 41 45 102 60 135 61 133 103 248
114 305 2 14 9 45 15 70 5 25 13 61 16 80 3 19 15 72 26 116 27 109 29 121 36
179 13 104 5 277 -22 447 -4 24 -8 54 -10 68 -2 14 -6 43 -10 66 -5 34 -2 48
19 79 51 74 31 156 -46 194 l-43 20 -32 118 c-18 65 -40 152 -48 193 -37 168
-48 196 -158 379 -15 25 -39 69 -53 96 -34 65 -51 97 -64 115 -5 8 -24 38 -42
65 -81 124 -177 224 -328 338 -52 40 -96 75 -98 80 -2 4 -8 7 -13 7 -6 0 -33
17 -62 38 -207 152 -485 282 -777 366 -30 8 -88 25 -129 37 -41 11 -86 22
-100 23 -16 1 -44 20 -71 47 -53 53 -103 63 -156 30z m-54 -158 c22 -50 57
-75 110 -79 44 -3 99 27 115 63 12 29 34 26 215 -26 402 -116 526 -178 930
-462 188 -132 313 -272 427 -479 59 -107 87 -155 120 -208 56 -87 94 -192 107
-297 3 -22 10 -55 15 -73 5 -18 10 -36 11 -40 1 -11 20 -85 26 -102 3 -8 5
-16 5 -17 0 -2 6 -18 14 -37 14 -33 14 -36 -10 -62 -37 -40 -47 -88 -28 -135
16 -40 59 -79 86 -79 19 0 25 -8 31 -46 13 -80 16 -103 32 -289 13 -156 11
-252 -9 -341 -10 -49 -22 -109 -26 -134 -48 -284 -281 -865 -443 -1104 -55
-81 -184 -209 -283 -281 -428 -314 -866 -536 -1141 -579 -22 -4 -46 -8 -54
-11 -8 -2 -40 -6 -70 -10 -30 -3 -71 -8 -90 -10 -19 -3 -73 -8 -120 -11 -47
-3 -105 -8 -130 -10 -25 -2 -155 -6 -290 -8 -266 -5 -323 1 -512 60 -124 38
-145 49 -151 83 -7 35 -61 90 -90 92 -55 4 -82 -1 -107 -20 l-28 -20 -109 54
c-59 31 -149 85 -200 121 -84 60 -253 218 -345 321 -65 73 -176 222 -209 281
-17 31 -42 73 -54 92 -118 186 -302 496 -335 564 -63 134 -112 294 -133 436
-25 168 -26 441 -2 556 2 11 12 57 23 104 32 134 70 368 63 382 -1 2 7 28 17
58 11 30 20 57 21 60 1 3 4 16 8 29 10 39 104 226 175 346 65 113 113 208 164
329 42 99 93 151 228 231 90 53 139 90 215 166 113 110 188 158 354 226 61 25
126 52 144 59 17 8 34 14 37 14 4 0 85 38 181 85 147 72 338 147 363 144 4 -1
9 0 12 1 11 4 47 10 90 14 192 20 244 24 370 31 63 4 116 8 117 9 1 1 30 2 63
1 l61 0 19 -42z"/>
<path d="M3578 6085 c-2 -2 -31 -6 -64 -9 -74 -7 -130 -15 -164 -22 -14 -3
-38 -8 -55 -10 -46 -6 -195 -54 -234 -76 -20 -11 -58 -33 -86 -48 -51 -29 -93
-45 -198 -74 -32 -9 -70 -22 -85 -28 -15 -6 -29 -12 -32 -13 -44 -11 -197
-110 -283 -183 -40 -34 -280 -273 -328 -327 -81 -91 -173 -225 -215 -310 -39
-80 -88 -215 -78 -215 2 0 -1 -11 -6 -26 -6 -14 -12 -39 -15 -57 -7 -38 -6
-37 -41 -43 -99 -18 -141 -128 -80 -209 27 -34 27 -37 13 -68 -19 -40 -63
-193 -77 -267 -23 -121 -28 -249 -16 -430 5 -63 9 -127 10 -142 0 -16 3 -28 6
-28 3 0 5 -10 6 -22 0 -13 4 -41 8 -63 4 -22 9 -65 11 -95 17 -223 26 -264 86
-365 23 -39 82 -149 132 -245 92 -179 135 -251 197 -330 59 -76 198 -207 297
-281 133 -100 446 -305 528 -346 113 -57 502 -193 595 -208 25 -4 54 -9 65
-11 36 -8 499 0 610 10 239 22 378 61 620 177 174 83 468 254 521 303 7 6 33
29 59 51 26 22 81 81 123 130 68 81 216 233 304 310 52 46 93 104 138 193 42
84 88 205 96 251 5 23 40 189 49 230 2 9 20 75 40 146 20 72 38 147 41 168 3
21 7 45 8 53 1 9 -1 41 -6 72 -5 32 -10 161 -12 287 -4 250 -6 272 -41 450
-78 391 -234 638 -714 1130 -124 127 -210 201 -316 272 -65 44 -242 132 -315
156 -25 9 -75 27 -112 40 -38 14 -68 23 -68 21 0 -2 -17 3 -37 10 -37 14 -142
39 -213 51 -19 3 -46 7 -60 10 -14 3 -47 8 -75 11 -27 3 -68 8 -90 11 -43 5
-442 12 -447 8z m477 -88 c17 -3 55 -8 86 -11 54 -6 70 -9 129 -21 14 -2 36
-6 50 -9 14 -2 45 -9 70 -16 25 -7 50 -13 55 -14 141 -31 409 -153 550 -250
89 -61 211 -172 374 -340 140 -145 211 -226 302 -346 35 -47 67 -86 72 -88 4
-2 7 -7 7 -12 0 -5 16 -35 35 -67 19 -32 51 -96 70 -143 20 -47 40 -94 45
-105 11 -25 61 -221 66 -255 7 -59 14 -107 19 -130 17 -82 22 -418 11 -635 -7
-136 -7 -134 -36 -235 -12 -41 -23 -86 -26 -100 -18 -97 -68 -279 -92 -341
-68 -171 -98 -224 -158 -280 -123 -115 -273 -270 -351 -361 -90 -106 -143
-147 -349 -271 -229 -139 -431 -236 -581 -278 -124 -34 -166 -42 -353 -64 -25
-3 -160 -8 -301 -12 -271 -6 -343 0 -449 38 -30 11 -63 22 -72 24 -68 15 -251
86 -343 134 -123 63 -412 248 -550 352 -96 72 -220 192 -282 274 -21 27 -44
56 -50 63 -7 7 -13 20 -13 28 0 8 -4 14 -8 14 -8 0 -72 122 -110 210 -11 25
-46 90 -79 145 -79 133 -103 188 -102 227 1 44 -10 262 -16 315 -3 23 -12 68
-20 100 -9 32 -17 69 -19 83 -3 14 -8 45 -11 70 -24 150 11 400 87 622 19 54
30 72 62 93 21 14 40 24 42 22 2 -2 -5 -27 -16 -56 -49 -135 -63 -262 -63
-571 0 -270 3 -302 42 -405 26 -71 90 -264 95 -290 7 -29 39 -127 58 -175 26
-65 52 -103 130 -188 32 -34 66 -75 75 -90 10 -15 20 -29 24 -32 3 -3 30 -45
59 -95 125 -214 159 -249 385 -400 253 -169 474 -264 720 -310 11 -2 31 -6 45
-10 197 -44 569 -53 775 -20 17 3 44 7 60 10 17 3 33 5 37 6 4 0 22 5 40 10
33 10 56 16 93 23 50 10 250 88 334 130 122 61 261 155 332 226 8 8 58 53 110
100 165 148 342 333 395 410 92 134 172 313 238 530 48 160 55 224 50 490 -2
135 -6 268 -9 295 -12 122 -16 160 -26 208 -6 29 -12 57 -13 62 -2 6 -6 28
-11 49 -4 21 -16 62 -27 90 -11 28 -21 56 -22 61 -4 12 -12 32 -70 162 -52
120 -267 452 -309 480 -16 10 -46 41 -68 68 -165 207 -425 397 -685 502 -53
21 -305 101 -344 108 -12 2 -29 6 -38 9 -9 3 -33 7 -52 10 -19 3 -46 8 -60 11
-58 13 -196 20 -360 19 -185 -1 -231 -5 -344 -30 -39 -8 -81 -17 -93 -20 -109
-22 -412 -163 -585 -271 -21 -13 -40 -23 -43 -23 -9 0 -150 -94 -153 -102 -2
-5 -10 -8 -17 -8 -7 0 -15 -3 -17 -7 -1 -5 -25 -26 -53 -48 -73 -59 -208 -196
-257 -262 -24 -32 -49 -64 -56 -71 -6 -7 -12 -17 -12 -22 0 -5 -6 -15 -13 -22
-29 -30 -212 -360 -206 -370 1 -2 -8 -23 -21 -48 l-23 -45 -10 35 c-5 19 -13
40 -17 45 -9 11 17 152 45 243 56 186 232 422 497 667 193 179 227 201 418
265 127 42 221 79 230 90 11 13 148 79 195 93 76 24 190 45 285 53 47 3 86 8
88 9 6 5 444 -2 477 -8z m-45 -222 c30 -5 62 -9 70 -10 46 -6 105 -17 111 -20
3 -2 19 -7 36 -9 167 -30 533 -175 648 -258 133 -96 206 -159 331 -283 211
-210 326 -384 446 -675 22 -52 41 -102 43 -110 2 -8 10 -33 18 -55 29 -82 39
-176 53 -505 12 -309 9 -365 -33 -525 -8 -33 -16 -67 -18 -75 -2 -8 -20 -60
-40 -115 -19 -55 -37 -104 -39 -110 -9 -34 -100 -215 -107 -215 -5 0 -9 -5 -9
-11 0 -43 -197 -259 -420 -461 -121 -109 -129 -116 -190 -162 -30 -22 -57 -44
-60 -47 -12 -15 -194 -113 -268 -144 -92 -39 -228 -83 -281 -91 -20 -3 -39 -8
-42 -10 -4 -2 -24 -6 -45 -10 -22 -3 -50 -7 -64 -10 -173 -30 -515 -23 -730
16 -87 16 -110 21 -215 50 -22 6 -47 12 -55 14 -8 3 -53 20 -100 39 -186 76
-313 146 -504 280 -66 46 -149 135 -192 203 -24 39 -44 74 -44 78 0 22 -118
183 -180 246 -86 88 -109 127 -150 260 -18 58 -36 114 -40 125 -36 87 -108
323 -118 385 -3 19 -6 127 -6 240 0 244 8 341 40 463 9 34 17 69 19 77 3 15
57 169 79 225 66 170 266 465 421 621 117 118 283 236 495 351 41 22 91 49
110 60 29 16 84 40 215 93 24 10 87 30 97 30 4 1 26 7 48 15 22 8 43 14 45 14
3 -1 24 3 48 7 66 12 68 12 147 19 41 4 76 8 77 9 7 6 306 -2 353 -9z"/>
<path d="M3788 5655 c-2 -2 -26 -6 -54 -9 -27 -2 -61 -7 -74 -10 -14 -3 -41
-8 -60 -11 -19 -2 -46 -7 -60 -10 -26 -5 -74 -12 -130 -19 -19 -3 -57 -7 -85
-11 -27 -3 -72 -13 -100 -22 -93 -30 -538 -257 -581 -298 -6 -5 -40 -35 -75
-65 -128 -112 -176 -171 -264 -325 -32 -55 -81 -134 -110 -175 -62 -88 -100
-163 -154 -298 -36 -90 -78 -234 -79 -272 0 -8 -6 -42 -12 -75 -20 -98 -17
-296 5 -363 4 -12 13 -126 19 -257 5 -98 20 -141 96 -268 12 -21 24 -50 26
-65 5 -45 20 -95 39 -132 25 -50 136 -197 230 -306 10 -12 22 -27 111 -139 72
-90 164 -175 243 -225 40 -25 107 -68 149 -96 131 -87 159 -100 361 -165 115
-37 179 -54 241 -65 14 -3 30 -6 37 -9 31 -11 171 -20 298 -20 319 1 465 40
810 216 220 112 233 120 320 194 54 47 145 115 206 155 59 38 120 116 164 208
26 53 71 133 100 177 29 44 66 105 82 135 32 59 96 239 109 305 10 52 11 55
14 58 1 1 4 13 5 27 2 14 10 63 17 110 26 161 14 439 -27 649 -5 29 -34 131
-42 151 -3 8 -7 20 -9 25 -13 54 -85 239 -121 314 -77 160 -170 281 -303 396
-19 17 -53 53 -74 80 -86 109 -131 143 -228 174 -21 7 -66 33 -100 58 -61 45
-151 93 -175 93 -7 0 -52 18 -100 39 -75 33 -258 93 -328 107 -11 2 -47 13
-80 23 -42 13 -90 19 -157 19 -53 0 -98 -1 -100 -3z m160 -59 c24 -3 74 -14
110 -25 61 -17 99 -27 142 -36 46 -10 254 -84 337 -121 17 -8 36 -14 41 -14 6
0 46 -24 89 -53 68 -46 161 -97 179 -97 41 0 389 -345 467 -463 29 -45 61 -98
70 -117 57 -126 79 -187 139 -380 32 -106 42 -153 44 -220 1 -47 6 -112 11
-145 26 -180 -12 -504 -82 -711 -37 -106 -103 -234 -167 -319 -29 -39 -58 -82
-64 -95 -76 -166 -87 -180 -189 -250 -27 -19 -59 -42 -70 -51 -26 -22 -177
-146 -191 -158 -5 -4 -30 -19 -55 -33 -24 -14 -69 -40 -99 -58 -99 -59 -317
-160 -358 -166 -8 -2 -21 -6 -30 -10 -9 -4 -22 -8 -29 -10 -6 -1 -27 -7 -45
-13 -89 -29 -197 -39 -388 -36 -107 2 -215 6 -240 9 -92 13 -239 48 -360 88
-169 55 -202 71 -252 116 -24 22 -81 59 -126 83 -131 69 -209 140 -358 325
-18 21 -46 55 -63 74 -70 78 -180 217 -202 255 -42 74 -49 92 -67 166 -11 41
-30 97 -44 124 -43 85 -51 125 -53 256 -1 70 -5 131 -9 137 -21 34 -29 319
-12 422 31 192 98 371 189 508 64 98 98 154 172 286 69 123 95 159 179 242 99
99 171 146 397 262 233 118 312 150 390 157 35 3 80 8 99 10 19 2 87 15 152
29 64 14 151 28 194 31 43 4 80 8 82 10 2 2 9 2 15 0 7 -2 31 -6 55 -9z"/>
</g>
</svg>
