<svg width="677" height="681" fill="none" xmlns="http://www.w3.org/2000/svg"><path d="M394.886 680.072c-.795 0-34.187-36.125-45.715-50.684l-.298-.398c-6.709 7.404-14.311 18.236-21.119 27.976-7.105 10.136-20.124 22.062-21.416 20.571-9.541-11.031-18.236-24.248-25.938-39.354-7.503 5.466-9.541 10.335-11.379 14.658-1.64 3.827-3.33 7.802-8.398 10.237-1.739.844-10.435-10.137-13.913-14.411-4.919-6.012-9.938-12.223-12.919-20.472-7.106 2.783-15.255 6.162-23.206 9.491-12.82 5.366-32.944 10.733-33.54 8.845-3.031-10.038-2.038-24.348-1.044-38.212.447-6.36.894-12.422.944-17.888-21.665 2.931-70.013 5.863-70.112 3.925-.597-8.795 3.279-16.845 7.006-24.596 2.286-4.721 4.621-9.541 6.012-14.659-12.273-1.441-50.932-15.354-50.683-17.292 1.391-10.832 18.931-46.361 20.87-50.833-10.485-1.987-21.367-.497-30.262.746-8.596 1.192-22.907-2.684-22.261-4.522 4.621-12.671 20.671-39.603 29.764-53.765-9.043-3.925-20.621-6.559-31.006-8.944-10.137-2.335-24.2-10.037-23.205-11.727 2.534-4.174 6.161-8.447 10.037-12.969 8.894-10.385 18.882-22.162 21.168-38.41-8.745-6.609-18.485-7.802-27.081-8.845-7.156-.895-13.367-1.64-17.143-5.615-1.342-1.391 25.292-26.485 38.808-35.379-6.162-6.858-13.317-12.324-19.28-16.845-6.112-4.671-14.062-16.15-12.472-17.292 11.578-8.05 29.118-14.361 44.572-19.876l3.18-1.143c-6.56-14.311-17.59-54.61-15.752-55.355 3.926-1.59 8.845-3.975 14.063-6.509 10.633-5.218 22.559-10.982 32.944-13.466-2.733-8.348-6.609-14.311-9.839-19.28-3.13-4.82-5.515-17.441-3.627-17.839 14.46-2.733 34.137-4.969 51.28-4.025.447-13.466 2.435-24.497 6.211-33.689 2.236-5.466 6.261-16.746 8.149-16.597 10.236.348 15.404 3.627 22.013 5.764 1.839.596 2.385-.845 4.919-.149 3.181-18.932 6.212-34.087 8.448-41.988.546-1.888 17.54-.994 25.54-.745 11.677.397 24.746.795 34.982 4.82 3.379-9.143 4.323-15.404 5.118-20.522.746-4.87 6.907-16 8.646-15.156 12.025 5.864 28.87 14.51 41.044 23.702 6.907-9.192 15.156-14.907 21.864-19.528 3.876-2.683 12.522-8.944 14.062-7.801 9.491 7.205 12.124 10.932 16.895 17.74 1.341 1.937 2.931 4.123 4.869 6.757 16-15.006 49.79-39.95 51.032-38.46 5.963 7.155 10.683 18.932 15.205 30.31 1.938 4.82 3.777 9.492 5.665 13.566 10.882-6.41 22.857-11.031 31.801-14.51 4.373-1.689 8.1-3.13 10.485-4.322 1.739-.845 10.832 22.51 11.826 33.938.497 5.863 1.044 11.826 2.037 17.49 9.74-4.273 17.988-10.633 24.796-15.85 6.658-5.118 11.925-9.193 16.994-10.386 1.937-.447 9.341 13.963 13.118 20.87 5.366 9.79 10.932 19.926 12.621 29.019 7.851-1.739 11.975-4.571 15.652-7.105 3.379-2.386 15.156-3.429 15.305-1.491 1.242 14.857.447 31.205-2.336 48.497 10.733.448 23.305-.099 34.535-.596 12.671-.547 31.106 2.137 30.858 4.075-1.243 8.745-7.752 19.329-14.063 29.615-3.528 5.714-6.857 11.18-9.192 16.05 11.727 4.273 24.894 13.217 35.627 20.522 5.814 3.925 11.28 7.652 13.914 8.695 1.788.696-5.914 18.286-22.709 21.466-7.602 1.441-14.758 5.119-19.578 9.392 9.392 4.671 20.522 9.193 30.46 13.267 11.827 4.82 21.168 8.646 25.641 11.727 1.59 1.093-10.634 16.596-17.442 20.721-3.975 2.435-8.049 4.869-11.776 8.05 8.646 8.447 15.751 20.671 21.565 30.758 3.23 5.565 6.261 10.782 8.199 12.77 1.342 1.391-14.41 14.36-22.559 16.547-4.87 1.341-9.839 2.683-14.957 5.267 2.932 3.727 6.012 7.652 9.093 11.528 11.628 14.609 22.56 28.423 26.585 35.031.596.945-8.597 9.292-11.827 12.522-5.416 5.416-11.975 11.976-25.342 13.019 8.597 18.187 18.932 44.771 21.466 51.529.696 1.838-23.453 4.074-36.571-.547-9.243-3.23-21.069-4.522-28.224-4.373-5.864 24.05 32.348 49.839 30.658 50.138-27.727 4.869-49.59 9.49-61.566 9.49.845 8.895 3.23 17.64 5.317 25.491 2.137 7.901 3.826 14.162 3.528 18.783-.149 1.938-34.385.646-50.783-3.776-3.975 22.261-12.77 51.826-14.708 51.379-8.497-2.137-14.858-9.342-20.969-16.249-3.777-4.323-7.702-8.745-12.025-11.925-2.733 9.093-3.727 20.273-4.621 29.516-.895 9.54-1.591 17.093-3.777 21.217-.894 1.74-19.628-8.795-25.491-15.155-2.882-3.131-5.863-6.36-9.491-9.69-12.869 18.535-34.733 43.38-35.776 43.38m-45.765-60.225l5.764 5.069c9.64 12.224 28.92 36.522 39.603 46.41 6.857-8.099 33.938-43.479 34.932-43.628 1.044-.149 12.423 9.839 16.05 13.765 4.72 5.118 8.845 9.59 14.807 13.167.796-3.726 1.292-9.242 1.839-15.006 1.043-11.13 7.652-37.367 8.597-37.715.944-.347 15.453 10.038 20.72 16 4.621 5.268 9.044 10.237 13.963 12.771 2.634-10.087 10.584-50.137 11.429-50.684.844-.547 34.087 6.758 48.149 7.404-.497-3.429-1.689-7.901-3.031-12.87-2.385-8.894-5.515-32.994-4.77-33.69.745-.745 30.559-4.273 54.162-8.099-19.13-10.534-27.926-27.131-21.019-51.678.398-1.391 23.752.1 34.833 3.975 9.491 3.33 19.727 3.429 26.435 2.833-4.273-11.131-23.205-51.429-22.559-52.473.695-1.093 23.354-7.006 29.019-12.671 2.584-2.534 5.167-5.168 8.447-7.056-5.019-7.205-14.559-19.18-23.801-30.808-4.025-5.068-12.622-16.745-12.473-17.739.199-.994 34.138-13.863 39.007-17.888-2.037-2.833-4.273-6.758-6.957-11.33-6.211-10.733-24-36.224-23.254-36.969 5.118-5.068 10.633-8.447 16-11.677 5.416-3.28 10.236-6.211 13.814-10.385-4.87-2.485-12.771-5.715-20.97-9.094-11.627-4.77-37.118-20.074-36.522-20.919 5.615-8.249 16-11.876 26.038-15.305 7.801-2.683 13.019-8.397 16.497-12.77-3.131-1.789-4.82-1.342-9.441-4.522-10.932-7.453-39.305-21.764-39.752-22.658-.448-.895 6.608-16.299 11.18-23.703 4.969-8.099 10.037-16.397 12.174-23.105-5.367-.249-13.714.099-22.46.497-12.869.546-41.342-.199-41.988-1.044-.646-.795 3.329-35.031 2.534-49.342-1.291.596-2.584 1.49-4.223 2.633-4.373 3.032-24.448 8.895-25.243 8.249-.795-.646-8-22.51-13.516-32.597-3.13-5.714-6.161-11.23-8.099-16.05-3.131 1.64-6.957 4.572-11.23 7.852-8.05 6.21-32.696 18.782-33.591 18.285-.894-.496-4.273-17.49-4.919-25.043-.845-9.79-1.64-19.131-4.72-26.535-2.236.944-4.87 1.938-7.752 3.081-9.64 3.727-35.926 16.696-36.92 16.447-.993-.248-7.354-13.118-9.888-19.578-3.727-9.39-7.553-19.03-11.925-25.49-10.187 8-47.206 40.1-48.249 40.05-1.044-.1-8.199-8.944-10.137-11.678-4.025-5.714-6.261-8.894-12.82-14.161-2.236 1.988-4.969 3.876-8.05 6.012-6.957 4.82-23.702 22.212-24.696 22.36-.994.15-32.795-19.676-42.187-24.297-.795 2.385-1.192 4.919-1.64 8.05-.894 5.813-8.099 27.378-9.043 27.726-.994.348-26.087-5.515-38.411-5.913-6.906-.199-13.515-.447-19.18-1.342-2.236 8.895-8.845 43.926-9.689 44.473-.845.547-10.783-1.838-13.516-2.733-5.466-1.739-8.497-2.733-15.404-3.18-.845 3.429-2.435 7.304-4.323 11.926-4.124 10.037-9.093 37.963-9.839 38.708-.745.696-34.981.398-49.044 2.683.994 2.236 2.584 4.622 4.373 7.404 3.975 6.062 11.975 27.181 11.38 28.025-.547.845-25.79 9.541-37.417 15.205-4.025 1.988-7.901 3.876-11.38 5.367.646 1.988 1.342 4.273 2.137 6.808 3.528 11.528 15.006 48.248 14.013 48.596 0 0-35.727 12.771-46.46 19.33 2.335 2.285 5.664 4.869 9.391 7.702 7.106 5.416 24.05 23.006 23.851 24-.149 1.043-29.416 21.565-39.255 30.758 2.484.745 5.814 1.193 9.441 1.64 9.64 1.192 33.79 13.665 33.69 14.857-1.938 19.528-15.404 32.05-24.845 43.081-2.584 3.031-3.33 7.156-5.317 9.889 3.926 1.391 9.988 2.782 16.348 4.223 12.274 2.833 37.963 12.622 38.212 13.615.248.994-23.851 40.547-30.162 54.659 3.379.1 16.348-3.577 21.168-4.273 10.783-1.491 30.758 4.472 31.205 5.367.447.944-5.267 14.907-8.497 21.466-5.366 10.882-10.882 22.062-12.87 31.205 2.883.795 6.41 2.037 10.585 3.478 10.335 3.578 39.006 9.789 39.602 10.634.646.795-3.677 16.944-6.757 23.304-2.882 5.963-5.615 11.678-6.212 17.342 13.168-.894 67.927-7.453 68.722-6.807.795.646.993 17.193.397 25.342-.845 11.528-1.689 23.354-.099 32 5.714-1.988 14.956-5.863 24.596-9.888 9.342-3.926 29.119-11.28 30.013-10.783.894.497 9.143 17.242 14.559 23.901 2.634 3.279 5.367 6.609 7.752 10.335.745-1.043 1.391-2.434 2.186-4.372 2.286-5.317 19.479-20.92 20.472-20.671.994.298 17.69 29.615 26.535 40.398 3.23-3.777 7.901-10.435 12.472-16.994 7.951-11.379 26.386-32.995 27.33-32.995" fill="#CE8F29"/><path d="M157.218 268.436c5.317 3.578 6.708 10.783 3.18 16.1-3.578 5.317-10.783 6.758-16.05 3.18-5.317-3.578-6.758-10.783-3.18-16.1 3.578-5.316 10.783-6.757 16.099-3.18m87.704-185.137c5.317 3.577 6.757 10.782 3.18 16.1-3.578 5.316-10.783 6.757-16.05 3.179-5.317-3.577-6.758-10.782-3.18-16.1 3.577-5.316 10.783-6.757 16.099-3.18m319.209 200.695c5.317 3.577 6.758 10.782 3.18 16.099-3.577 5.317-10.782 6.758-16.049 3.18-5.317-3.577-6.758-10.782-3.181-16.099 3.578-5.317 10.783-6.758 16.1-3.18m-34.783 216.8c5.316 3.578 6.757 10.783 3.18 16.1-3.578 5.317-10.783 6.758-16.05 3.18-5.317-3.578-6.758-10.783-3.18-16.1 3.577-5.317 10.782-6.758 16.099-3.18m-112.895 75.43c5.317 3.578 6.758 10.783 3.18 16.1-3.577 5.317-10.783 6.758-16.05 3.18-5.316-3.578-6.757-10.783-3.18-16.1 3.578-5.316 10.783-6.757 16.1-3.18m-160.152-35.484c5.317 3.578 6.758 10.783 3.18 16.1-3.578 5.317-10.783 6.758-16.05 3.18-5.317-3.578-6.758-10.783-3.18-16.1 3.578-5.317 10.783-6.758 16.1-3.18M111.453 433.46c5.317 3.577 6.758 10.782 3.18 16.099s-10.783 6.758-16.05 3.18c-5.317-3.577-6.758-10.782-3.18-16.099s10.783-6.758 16.1-3.18m266.984-325.912c5.317 3.578 6.758 10.783 3.181 16.1-3.578 5.317-10.783 6.758-16.051 3.18-5.316-3.578-6.757-10.783-3.18-16.099 3.578-5.317 10.783-6.758 16.1-3.181" fill="#CE8F29"/><path d="M596.825 344.517c.547-15.752-.795-32.149-4.025-50.087-2.484-13.715-7.304-26.833-11.925-39.554-1.789-4.869-3.628-9.888-5.317-14.857-1.988-5.913-4.522-11.975-7.752-18.634-11.776-24.248-27.677-45.565-47.155-63.454-17.541-16.099-34.982-28.224-53.368-37.068-11.826-5.715-23.9-11.28-35.627-16.696l-.298-.149c-15.007-6.957-26.932-11.032-38.56-13.268-9.441-1.788-19.429-3.577-29.367-4.223-2.136-.15-4.273-.298-6.41-.497-6.062-.497-12.273-.994-18.484-.547-2.634.199-5.267.398-7.901.547-8.497.596-17.243 1.192-25.839 2.335-21.118 2.833-37.416 8.05-51.181 16.448-2.981 1.838-6.161 3.577-9.192 5.217l-2.783 1.491c-16 8.845-33.292 14.36-48.149 18.534-12.82 3.628-22.609 10.236-29.964 20.174-3.229 4.423-7.205 7.752-11.826 9.988h-.149c-1.391.745-2.981 1.54-3.677 3.329-2.385 6.559-6.907 11.826-11.329 16.945-.646.795-1.342 1.54-1.988 2.335-8.547 10.137-14.062 18.584-17.888 27.479a657.282 657.282 0 01-3.826 8.695c-5.665 12.721-11.479 25.839-14.61 39.752-.049.298-.198.597-.297.895-.05.198-.15.347-.2.546l-.596 1.789c-6.062 18.684-12.372 38.013-14.708 58.137-1.987 16.845-3.776 36.721-1.59 56.548 2.286 20.919 7.603 39.155 16.249 55.702 6.907 13.168 13.068 24.795 18.882 35.528 6.36 11.727 13.714 20.87 22.609 27.926l2.733 2.187c5.615 4.472 11.379 9.043 16.398 14.36 2.733 2.882 4.869 5.367 5.615 8.994.397 1.938 1.59 3.727 2.484 4.919 8.696 11.031 16.398 19.876 25.988 27.131 11.131 8.447 23.553 15.752 36.969 21.715 34.187 15.254 66.684 22.658 99.331 22.658h1.242c4.373 0 8.795.249 13.118.497l2.683.149c5.019.298 10.187.547 15.454.547 5.267 0 10.833-.249 16.348-1.044 8.05-1.143 16.497-3.13 25.789-6.012 31.206-9.739 54.262-19.678 74.734-32.249l.149-.099c8.895-5.417 18.037-11.032 25.044-19.23 8.546-10.038 16.199-19.181 23.354-28.075 6.062-7.503 11.727-15.007 13.913-24.348.249-.994.845-2.236 1.64-2.783 4.621-3.131 7.205-7.801 9.64-12.323a78.841 78.841 0 011.987-3.478c1.143-1.889 2.236-3.827 3.33-5.715 3.627-6.36 7.403-12.969 12.174-18.733 15.255-18.584 24.1-41.094 26.932-68.672 1.043-10.236 1.391-20.919 1.043-31.702m-9.789 37.616c-2.236 14.956-5.416 25.987-10.236 35.776-3.577 7.255-7.901 14.063-13.217 20.87-4.771 6.062-8.597 12.075-11.727 18.336l-.448.944c-3.627 7.255-7.403 14.758-13.465 20.522-1.243 1.192-2.087 2.882-2.882 4.621-5.864 12.621-14.311 23.205-23.156 33.839-.696.894-1.441 1.739-2.186 2.584-1.441 1.64-2.982 3.379-4.274 5.217-8.348 11.976-19.826 21.814-36.025 30.957-23.802 13.416-49.292 23.851-78.063 31.901-12.124 3.379-25.292 4.373-39.156 2.982-10.087-1.044-20.273-1.193-28.025-1.243-24.05-.099-48.795-5.018-75.678-15.006-18.683-6.957-33.044-14.162-45.168-22.609-9.988-6.957-19.18-15.752-27.33-26.087-1.192-1.491-1.937-2.882-2.335-4.472-1.838-6.758-5.963-12.771-12.522-18.336l-.894-.745c-3.031-2.584-6.162-5.218-9.491-7.504-11.826-8.099-21.218-19.23-29.566-35.031a2203.819 2203.819 0 00-13.813-25.64c-11.032-20.323-17.392-42.286-18.783-65.293-1.143-18.186 1.143-35.727 3.975-55.156 2.087-14.211 6.013-29.267 12.472-47.404.149-.348.249-.745.398-1.093.397-1.143.845-2.286 1.093-3.478 3.429-15.056 9.988-29.218 16.298-42.883l3.28-7.155c4.373-9.69 11.031-17.789 16.298-23.752 3.329-3.776 6.261-8.05 9.044-13.118 2.534-4.671 5.118-8.298 9.242-10.882 4.025-2.485 7.106-6.212 9.888-9.789 5.764-7.305 13.466-12.472 23.553-15.752 2.833-.944 5.665-1.789 8.547-2.683 6.311-1.938 12.82-3.975 19.131-6.46 10.037-3.925 23.155-9.441 35.329-16.944 11.827-7.255 25.69-12.125 42.485-14.907 10.634-1.74 21.963-2.833 35.678-3.479 3.478-.149 7.006-.248 10.484-.248 15.355 0 30.659 1.59 45.566 4.72 13.267 2.783 25.74 7.951 37.268 13.069 5.416 2.385 10.782 4.87 16.149 7.304 5.217 2.386 10.435 4.721 15.652 7.056 17.342 7.752 34.137 18.833 51.38 33.839 10.335 8.994 18.981 17.889 26.484 27.181 10.535 13.068 19.23 27.926 26.485 45.416 2.534 6.063 4.969 12.224 7.354 18.237 1.69 4.223 3.379 8.497 5.069 12.72 1.043 2.634 1.54 5.417 1.987 8.149.249 1.342.447 2.783.795 4.125.596 2.584 1.193 5.217 1.789 7.801 1.64 6.857 3.329 14.013 4.422 21.118 2.038 13.317 2.386 26.485 2.187 42.137v7.802c0 9.242.099 18.783-1.292 28.025" fill="#CE8F29"/><path d="M567.161 323.644c-1.739-16.547-4.423-30.063-8.448-42.585-3.776-11.826-6.559-22.658-8.546-33.193-1.491-8-4.224-14.907-8.448-21.168-3.428-5.167-6.708-10.832-9.987-17.341-8.597-17.094-20.075-31.305-34.088-42.237-15.751-12.323-30.758-22.261-45.913-30.361-17.541-9.391-36.323-15.006-54.063-19.975-16.298-4.571-32.746-5.665-46.709-6.161l-7.95.447c-10.981.596-22.36 1.192-33.64 2.683-17.59 2.286-31.454 6.261-43.727 12.472a349.244 349.244 0 01-32.348 14.311c-19.678 7.553-32.995 16.298-43.082 28.274-4.174 4.969-9.838 8.049-15.404 10.633-11.528 5.416-19.329 14.212-23.801 26.833-3.081 8.646-7.454 16.696-10.982 22.758l-1.54 2.633c-5.665 9.789-11.528 19.926-15.702 30.808-.447 1.093-1.043 2.187-1.739 3.031-4.025 4.87-6.46 10.833-7.155 17.74-1.938 18.782-4.473 33.838-7.901 47.354-.696 2.733-.795 5.764-.249 8.646 1.044 5.615 1.193 11.379 1.292 16.994.05 2.882.149 5.864.348 8.795 1.491 22.609 7.354 42.038 17.889 59.43l2.683 4.372c5.168 8.497 10.534 17.243 15.404 26.088 12.82 23.354 25.739 41.391 40.596 56.746 13.864 14.36 27.777 24.944 42.436 32.248 18.435 9.193 37.565 15.653 53.864 20.721 9.242 2.882 19.279 4.323 30.509 4.323 1.193 0 2.435 0 3.628-.05h2.136c16.646-.496 33.839-.944 50.734-2.534 19.28-1.838 34.684-5.267 48.497-10.882 26.535-10.783 52.572-25.789 81.939-47.255 12.323-8.994 22.56-20.771 30.56-34.982 9.938-17.739 18.136-36.671 26.087-55.007l1.043-2.385c2.683-6.211 4.77-13.267 6.112-20.87 1.441-8.149 3.18-15.95 5.168-23.155 1.838-6.659 2.783-13.566 2.882-21.019.099-7.006-.745-14.013-1.54-20.77a232.287 232.287 0 01-.696-6.162m-9.441 50.336c-.497 1.292-.497 2.584-.497 3.826 0 1.044 0 2.037-.298 2.982-1.342 4.323-2.485 8.795-3.528 13.118-1.59 6.459-3.23 13.118-5.764 19.379-7.106 17.838-15.205 38.062-25.74 56.746-6.708 11.975-16.447 22.658-28.82 31.702-30.063 21.963-54.659 36.224-79.802 46.162-11.429 4.572-24 7.553-38.361 9.143-19.279 2.137-38.311 3.279-61.715 3.677-11.975.894-27.528-1.888-43.777-7.652-1.739-.597-3.478-1.242-5.217-1.839-9.888-3.478-20.125-7.105-29.764-11.627-11.479-5.367-22.262-12.423-32.001-21.019-12.422-10.932-23.752-23.404-33.69-36.969-2.683-3.678-5.018-7.653-7.254-11.529-.895-1.54-1.789-3.13-2.733-4.67-8.199-13.615-15.603-25.839-23.206-37.914-13.962-22.261-21.217-47.653-21.466-75.529v-2.733c0-1.938 0-3.826-.099-5.764-.199-7.602.646-15.254 2.534-23.404l.447-2.037c2.435-10.286 4.92-20.919 5.864-31.752.745-8.348 3.329-17.242 7.901-27.131 3.726-8.049 7.354-14.907 11.13-20.969 6.311-10.087 11.826-21.068 16.398-32.696 2.981-7.503 7.453-12.869 13.714-16.447l2.187-1.242c1.888-1.094 3.726-2.187 5.615-3.181 7.95-4.372 13.515-8.695 17.888-14.062 7.652-9.342 18.435-14.907 27.926-19.131 3.578-1.59 7.354-3.031 10.981-4.472 1.093-.397 2.187-.844 3.23-1.242 7.702-3.031 15.901-6.311 23.702-10.634 14.41-8 28.025-12.621 41.64-14.062 11.379-1.242 20.572-2.037 28.92-2.534 2.236-.149 4.522-.298 6.758-.447 4.671-.348 9.54-.696 14.31-.746h1.044c16.149 0 31.305 3.727 44.025 7.404 11.628 3.379 23.653 6.857 35.081 11.628 13.715 5.714 25.889 13.714 36.026 20.82 2.385 1.64 4.82 3.279 7.205 4.869 4.82 3.23 9.789 6.56 14.41 10.237 11.975 9.639 21.615 21.217 29.466 35.379a157.502 157.502 0 012.187 4.025c3.329 6.161 6.807 12.472 10.832 18.385 5.366 7.801 7.255 16.944 8.745 25.64a136.517 136.517 0 006.361 24.1c5.366 14.758 7.553 30.013 9.093 44.323.546 4.969.845 10.038 1.143 14.907.149 2.385.298 4.82.447 7.205.745 10.485-.447 19.628-3.627 27.827" fill="#CE8F29"/><path d="M543.21 347.45c.596-3.677.596-7.404.596-10.982v-2.832c.199-11.131-.993-21.963-2.037-30.112-2.782-21.516-8.745-39.702-18.286-55.603-6.658-11.081-14.807-21.963-25.789-34.286-4.472-5.019-9.143-9.988-13.714-14.758-3.031-3.18-6.062-6.36-9.044-9.59-7.106-7.702-15.255-14.311-22.957-20.324-10.683-8.298-23.006-13.615-34.683-18.186-24.646-9.541-51.678-14.261-82.585-14.41h-.845c-8.696 0-17.49.596-26.137 1.689-13.615 1.789-29.267 4.423-42.733 13.417-4.77 3.18-10.236 4.72-14.51 5.714-12.024 2.832-23.354 8.348-33.689 16.447-13.168 10.336-25.69 22.709-40.597 40.249-11.479 13.516-19.031 28.721-22.41 45.268-1.839 8.944-4.423 17.391-7.802 25.143-6.757 15.702-10.584 30.957-11.677 46.659-.695 9.689.1 19.478.895 28.919.149 1.988.347 3.976.497 5.963.248 3.28.844 6.559 1.49 9.739.746 3.976 1.491 8.05 1.59 12.174 0 1.74.149 3.529.298 5.268.1.894.15 1.788.199 2.683.597 9.292 2.435 15.901 5.963 21.466 5.466 8.696 10.087 18.037 14.559 27.081 1.093 2.186 2.137 4.373 3.23 6.509 7.553 15.056 18.286 28.125 32.746 39.951 12.422 10.137 26.087 18.982 39.305 27.528 2.136 1.392 4.273 2.733 6.41 4.125 7.354 4.77 15.851 8.745 25.938 12.124 5.366 1.789 10.783 3.727 16.05 5.615l3.428 1.242c10.137 3.628 18.684 5.516 26.883 6.013 1.59.099 3.18.149 4.72.149 2.932 0 5.814-.149 8.646-.249a214.35 214.35 0 015.665-.198c3.23-.1 6.41-.1 9.59-.149 7.603-.05 15.453-.149 23.205-.895 12.075-1.192 26.236-3.23 39.752-8.944 18.385-7.801 35.926-16.944 52.125-27.081 10.932-6.857 20.472-15.404 28.373-25.392 6.658-8.397 14.46-16.397 23.205-23.702 5.466-4.571 9.59-9.54 12.572-15.155 6.609-12.423 10.534-23.007 12.273-33.293 1.59-9.292 4.124-18.435 6.559-27.329.994-3.627 2.038-7.354 2.982-11.081 1.938-7.503 2.037-13.913.347-20.124-.695-2.634-.894-4.622-.546-6.559m-7.006 29.168c-.149 1.689-.299 3.428-.845 4.919-2.336 6.708-3.876 13.714-5.317 20.472-.745 3.379-1.491 6.907-2.385 10.336-2.485 9.938-6.509 19.031-11.081 29.019-2.137 4.621-5.366 8.695-9.64 12.124-11.876 9.59-22.013 21.218-31.205 32.398-3.727 4.571-7.503 8.05-11.479 10.683-16.397 10.882-36.025 23.205-57.59 32.1-14.361 5.913-30.361 9.292-50.286 10.683-13.914.944-28.026 1.093-41.194 1.093-7.155 0-14.36-1.291-22.062-3.925-1.043-.348-2.037-.745-3.081-1.093-2.285-.795-4.621-1.64-6.956-2.286-15.851-4.422-31.603-12.075-48.15-23.404-3.677-2.534-7.503-4.969-11.18-7.354-3.18-2.037-6.46-4.124-9.59-6.311-23.255-15.652-39.156-34.485-48.547-57.491-2.087-5.168-5.019-9.938-7.851-14.609a302.828 302.828 0 01-3.23-5.366c-1.739-2.982-3.23-6.013-4.621-8.895-.845-1.789-1.64-3.925-.845-6.211.099-.398.298-1.143.149-1.839-1.044-4.919-1.093-10.087-1.193-15.056-.099-6.112-.198-12.472-2.037-18.584-6.559-21.963-4.77-45.416 5.516-73.74a213.037 213.037 0 011.888-5.118c3.279-8.894 6.708-18.087 8.348-27.777 2.683-15.95 10.236-30.857 23.752-46.808 10.782-12.77 23.205-24.994 36.82-36.273 5.118-4.274 10.932-7.503 17.739-9.988a157.161 157.161 0 018.994-2.981c9.143-2.684 16.249-5.715 22.46-9.541 12.87-7.851 27.131-10.037 40.646-11.23 8.597-.745 16.796-1.143 24.796-1.143 3.18 0 6.36.05 9.491.199 33.54 1.242 62.211 8.497 87.702 22.212 10.385 5.565 19.081 11.726 26.585 18.782 19.677 18.485 34.932 34.932 48.05 51.827 13.814 17.789 22.509 39.106 26.584 65.193 1.838 11.976 2.633 24.895 2.286 39.404.198 12.473-.249 24.051-1.292 35.529" fill="#CE8F29"/><path d="M521.943 327.174c-1.342-22.31-5.119-38.758-12.274-53.416-1.143-2.385-2.186-4.92-3.18-7.355-1.838-4.472-3.776-9.142-6.609-13.267-4.273-6.161-8.397-12.522-12.422-18.683-1.69-2.584-3.379-5.218-5.118-7.802-.1-.198-.249-.347-.348-.546-.597-.944-1.242-1.988-2.236-2.435-3.28-1.441-5.416-4.224-7.503-6.907-.448-.546-.895-1.143-1.342-1.689-9.491-11.727-21.715-22.162-37.268-32.001-13.813-8.695-29.118-13.863-44.919-18.733-12.224-3.826-25.64-6.062-42.287-7.056-25.689-1.54-49.441 2.187-70.708 11.181-9.392 3.975-18.386 8.993-27.081 13.863-2.535 1.441-5.119 2.832-7.653 4.273-22.41 12.224-40.696 28.671-54.311 48.895-9.888 14.659-18.236 30.411-24.746 46.759-4.173 10.484-6.906 21.168-8.149 31.801-.695 6.211-.695 12.472-.695 18.584 0 2.783 0 5.615-.05 8.448v19.627c0 5.913.994 11.528 2.932 16.249 3.528 8.546 6.161 17.491 8.795 26.186 1.341 4.423 2.683 9.044 4.174 13.516 2.584 7.851 5.814 13.565 10.236 17.988 8.298 8.298 15.503 18.335 21.963 30.708 3.627 6.957 9.292 13.317 17.292 19.379 4.472 3.429 9.093 6.559 12.572 8.895 17.54 11.727 32.795 19.23 47.901 23.652 21.168 6.162 41.292 9.193 61.218 9.193 3.478 0 7.006-.099 10.485-.298 15.354-.795 28.869-2.982 41.292-6.609 26.187-7.602 46.609-19.031 62.361-34.833 2.882-2.882 6.062-5.664 9.093-8.298a242.335 242.335 0 006.559-5.863l.497-.448c9.242-8.646 18.783-17.54 26.187-28.223 9.888-14.212 15.851-30.361 20.82-45.715 4.273-13.218 6.161-26.783 5.515-40.349-.198-4.074-.298-8.248-.397-12.273-.149-5.317-.298-10.832-.596-16.249M159.802 348.69c-.05-10.137-.1-20.621.944-30.907 1.143-11.18 4.025-22.857 8.994-36.771 8.149-22.857 22.261-41.839 34.932-57.392 10.683-13.118 24.547-22.112 39.007-30.956 5.913-3.628 12.472-7.305 20.72-11.678 21.764-11.478 45.317-17.341 70.113-17.341h3.23c22.112-.597 45.019 4.024 72.1 14.459 21.665 8.348 41.044 21.963 57.64 40.398l1.044 1.193c.944 1.093 1.888 2.236 3.081 3.081 5.515 3.776 8.944 9.093 12.571 14.708l.199.348c1.391 2.136 2.832 4.223 4.223 6.261 2.435 3.528 4.969 7.155 7.056 10.981 7.106 12.77 12.274 26.684 16.845 39.802 1.292 3.776 1.69 7.901 2.038 11.876l.298 3.13c.745 7.503 1.093 14.907 1.341 20.522.1 2.833.199 5.715.249 8.547.149 5.168.249 10.485.596 15.752 1.094 16.397-3.13 31.752-7.851 45.863-6.31 18.783-13.565 32.846-22.857 44.225-7.503 9.192-16.348 17.292-24.945 25.143l-2.285 2.087c-4.075 3.726-8.448 7.751-12.92 11.677-17.292 15.155-37.764 25.342-62.559 31.155-17.839 4.224-37.367 5.317-59.728 3.479-16.199-1.342-30.559-4.124-43.876-8.547-20.224-6.658-39.056-16.894-57.69-31.305-7.156-5.565-12.77-12.472-16.696-20.571-3.528-7.354-8.149-14.261-14.162-21.168-1.292-1.491-2.733-2.832-4.124-4.124-1.789-1.64-3.627-3.28-5.068-5.268-2.286-3.031-3.777-5.764-4.721-8.596a583.487 583.487 0 01-2.782-8.696c-2.087-6.559-4.224-13.366-6.758-19.925-1.491-3.876-2.634-7.901-3.727-11.827-.646-2.236-1.292-4.521-1.988-6.807-1.59-4.969-2.335-10.385-2.335-16.547v-6.559" fill="#CE8F29"/><path d="M174.411 373.245c-.298 8.845 2.137 16.845 7.155 23.702 2.336 3.18 3.677 6.559 4.174 10.435.696 5.516 2.932 10.783 6.808 16.149 5.515 7.553 11.528 14.858 17.391 21.963 3.975 4.82 8.1 9.839 12.025 14.858 6.559 8.397 15.007 15.503 25.094 21.118l1.391.745c2.435 1.342 4.969 2.683 7.056 4.423 8.099 6.658 17.491 10.186 25.59 12.72 1.789.547 3.628 1.193 5.416 1.789 2.187.745 4.423 1.491 6.659 2.186 15.702 4.771 31.156 7.106 47.305 7.106.348 0 .745 0 1.192-.099 1.093-.1 2.435-.199 3.777-.199 22.807-.547 44.572-6.758 64.646-18.584 1.889-1.143 3.926-2.037 5.615-2.783 8.299-3.627 17.939-8.397 26.137-16.099 4.075-3.826 8.845-7.454 15.454-11.777 8.199-5.317 13.516-11.23 16.298-18.087 2.684-6.609 6.361-13.168 11.578-20.572 3.627-5.167 6.261-9.739 8.149-14.31 8.497-20.125 12.671-41.939 12.472-64.697 0-3.478-.397-7.006-.745-10.385a201.3 201.3 0 01-.497-5.466c-.894-11.975-2.882-22.162-6.161-31.205a306.498 306.498 0 01-2.982-8.845c-1.689-5.168-3.478-10.534-5.664-15.652-8-18.783-16.696-31.305-28.224-40.696-4.721-3.827-8.348-7.702-11.081-11.827-4.224-6.31-9.888-10.534-17.342-12.869a30.993 30.993 0 01-11.677-6.609c-3.727-3.329-8.348-5.764-13.665-7.255-4.174-1.192-8-2.683-11.677-4.621-2.385-1.292-4.422-2.137-6.36-2.783-4.621-1.54-9.441-2.782-14.063-4.025-5.267-1.391-10.683-2.832-15.9-4.67-2.386-.845-4.92-.994-7.404-1.143h-.547c-6.459-.448-13.317 0-22.261 1.49-2.683.448-5.367.944-8.05 1.392-7.255 1.292-14.758 2.584-22.161 3.329-7.603.745-13.765 2.385-19.429 5.168l-12.075 5.962-15.951 7.901c-8.298 4.075-15.006 8.398-20.571 13.168-9.69 8.398-18.236 16.249-24 26.833l-.547.993c-3.528 6.51-7.205 13.268-11.777 19.23-7.851 10.187-12.472 22.311-16.596 33.044-4.273 11.181-5.814 23.156-7.354 34.734a57.739 57.739 0 00.795 19.13c1.838 8.746 2.633 17.342 2.385 25.64m324.376-48.298c2.684 14.807 1.491 29.366.15 40.398-1.143 9.292-2.932 17.888-5.417 26.286-4.124 13.962-10.981 26.832-20.422 38.261-2.137 2.584-3.23 5.565-4.224 8.696-2.087 6.31-6.012 11.329-11.578 14.857-6.708 4.224-12.721 9.441-18.534 14.46-1.143.994-2.335 1.987-3.478 2.981-.249.249-.547.447-.795.696-.646.596-1.293 1.143-1.988 1.59-20.87 13.217-39.056 23.056-59.877 28.025-12.521 2.981-23.751 3.23-29.317 3.131h-.497c-20.522 0-37.615-2.684-53.814-8.398-2.136-.745-4.373-1.441-6.46-2.087-1.987-.596-4.074-1.242-6.111-1.988-4.87-1.689-10.435-3.925-14.609-8.596-2.286-2.584-5.516-4.075-8.646-5.565l-.448-.199c-10.385-4.919-19.279-12.323-27.279-22.609-4.274-5.516-8.895-10.882-13.367-16.05-3.478-3.975-7.056-8.149-10.435-12.323-6.907-8.547-10.783-16.348-12.174-24.547-.596-3.478-2.037-6.509-3.379-9.043-3.975-7.404-5.664-14.46-5.118-21.516.447-5.615-.05-11.528-1.441-17.541-3.528-15.453-1.292-30.708 1.093-43.876 1.59-8.646 4.92-16.895 8.15-24.845l1.242-3.081c.546-1.341 1.441-2.584 2.285-3.776l.746-1.044c7.553-11.081 13.963-21.615 19.528-32.149 8.248-15.653 20.969-28.125 37.764-37.019 10.882-5.764 22.212-11.23 33.094-16.547l.994-.447c5.565-2.684 11.528-4.124 18.137-4.373 5.962-.199 11.776-1.54 17.441-2.882 2.286-.547 4.72-1.093 7.056-1.54 7.205-1.392 14.857-2.038 23.553-1.938 3.577 0 7.006 1.093 10.286 2.136l2.385.746c2.733.795 5.565 1.49 8.298 2.136 3.329.795 6.807 1.64 10.087 2.684 8.845 2.882 17.64 6.459 26.187 9.888l4.323 1.739c1.987.795 3.826 2.286 5.565 3.677l.447.348c3.578 2.832 7.702 5.168 13.019 7.304 6.062 2.435 11.081 5.914 15.205 10.634 4.522 5.118 9.541 9.888 14.46 14.46l1.292 1.242c11.081 10.385 19.379 23.305 25.342 39.504 2.733 7.304 5.018 14.956 7.254 22.311 1.044 3.478 2.088 6.956 3.181 10.434.844 2.684 1.043 4.82.646 7.007-.547 2.981-.149 5.863.248 8.099" fill="#CE8F29"/></svg>