<svg width="115" height="116" fill="none" xmlns="http://www.w3.org/2000/svg"><path d="M67.239 115.214c-.135 0-5.788-6.116-7.74-8.58l-.05-.068c-1.136 1.254-2.423 3.088-3.575 4.736-1.203 1.717-3.407 3.735-3.626 3.483-1.615-1.867-3.087-4.105-4.391-6.662-1.27.925-1.615 1.749-1.927 2.481-.277.648-.563 1.321-1.421 1.733-.295.143-1.767-1.716-2.356-2.439-.833-1.018-1.682-2.07-2.187-3.466a192.994 192.994 0 00-3.928 1.606c-2.17.909-5.578 1.818-5.679 1.498-.513-1.699-.345-4.122-.176-6.469.075-1.077.151-2.103.16-3.029-3.668.497-11.853.993-11.87.665-.101-1.489.555-2.852 1.186-4.164.387-.8.782-1.615 1.018-2.482-2.078-.244-8.623-2.599-8.58-2.927.235-1.834 3.204-7.849 3.533-8.606-1.776-.336-3.618-.084-5.123.126-1.456.202-3.879-.454-3.77-.765.783-2.145 3.5-6.705 5.04-9.102-1.531-.665-3.491-1.11-5.25-1.514-1.716-.396-4.096-1.7-3.928-1.986.429-.706 1.043-1.43 1.7-2.195 1.505-1.758 3.196-3.752 3.583-6.503-1.48-1.119-3.13-1.32-4.585-1.497-1.211-.152-2.263-.278-2.902-.95-.227-.236 4.282-4.484 6.57-5.99C5.922 50.987 4.71 50.06 3.7 49.296c-1.035-.79-2.38-2.734-2.111-2.928 1.96-1.362 4.93-2.43 7.545-3.364l.539-.194c-1.11-2.423-2.978-9.245-2.667-9.371.665-.27 1.497-.673 2.38-1.102 1.8-.883 3.82-1.86 5.578-2.28-.463-1.413-1.119-2.422-1.666-3.264-.53-.816-.933-2.952-.614-3.02 2.448-.462 5.78-.841 8.682-.681.075-2.28.412-4.147 1.051-5.704.379-.925 1.06-2.835 1.38-2.81 1.733.06 2.608.615 3.726.977.312.1.404-.143.833-.026.539-3.205 1.052-5.77 1.43-7.108.093-.32 2.97-.168 4.324-.126 1.977.067 4.19.134 5.922.816.572-1.548.732-2.608.867-3.474.126-.825 1.17-2.71 1.464-2.566 2.035.992 4.887 2.456 6.948 4.012 1.17-1.556 2.566-2.523 3.702-3.306.656-.454 2.12-1.514 2.38-1.32 1.607 1.22 2.053 1.85 2.86 3.003.227.328.497.698.825 1.144 2.708-2.54 8.429-6.764 8.639-6.511 1.01 1.211 1.809 3.205 2.574 5.131.328.816.64 1.607.96 2.297 1.841-1.085 3.869-1.868 5.383-2.457.74-.286 1.371-.53 1.775-.731.294-.143 1.834 3.81 2.002 5.745.084.993.177 2.002.345 2.961 1.649-.723 3.045-1.8 4.198-2.683 1.127-.867 2.019-1.556 2.877-1.758.328-.076 1.581 2.363 2.22 3.533.909 1.657 1.851 3.373 2.137 4.913 1.33-.295 2.028-.774 2.65-1.204.572-.403 2.566-.58 2.591-.252.21 2.515.076 5.283-.395 8.21 1.817.076 3.945-.016 5.846-.1 2.145-.093 5.266.361 5.224.69-.21 1.48-1.312 3.272-2.381 5.013-.597.967-1.16 1.893-1.556 2.717 1.985.724 4.215 2.238 6.032 3.474.984.665 1.909 1.296 2.355 1.473.303.117-1.001 3.095-3.844 3.634-1.287.244-2.499.866-3.315 1.59 1.59.79 3.475 1.556 5.157 2.246 2.002.816 3.584 1.463 4.341 1.985.269.185-1.8 2.81-2.953 3.508-.673.412-1.363.824-1.994 1.363 1.464 1.43 2.667 3.5 3.651 5.207.547.942 1.06 1.825 1.388 2.162.227.235-2.439 2.43-3.819 2.801-.824.227-1.665.454-2.532.892.496.63 1.018 1.295 1.539 1.951 1.969 2.474 3.82 4.812 4.501 5.93.101.16-1.455 1.574-2.002 2.12-.917.918-2.027 2.028-4.29 2.205 1.455 3.079 3.205 7.58 3.634 8.723.118.311-3.971.69-6.192-.092-1.564-.547-3.566-.766-4.778-.74-.992 4.071 5.477 8.437 5.191 8.487-4.694.825-8.396 1.607-10.423 1.607.143 1.506.547 2.986.9 4.316.362 1.337.648 2.397.597 3.179-.025.328-5.821.11-8.597-.639-.673 3.769-2.162 8.774-2.49 8.698-1.439-.361-2.515-1.581-3.55-2.75-.64-.732-1.304-1.481-2.036-2.019-.462 1.539-.63 3.432-.782 4.996-.152 1.616-.27 2.894-.64 3.592-.15.295-3.322-1.488-4.315-2.565a26.46 26.46 0 00-1.607-1.641c-2.178 3.138-5.88 7.344-6.056 7.344M59.49 104.96l.976.858c1.632 2.069 4.896 6.183 6.704 7.857 1.161-1.372 5.746-7.361 5.914-7.386.177-.025 2.103 1.665 2.717 2.33.8.866 1.497 1.623 2.507 2.229.135-.631.219-1.564.311-2.54.177-1.885 1.296-6.326 1.456-6.385.16-.059 2.616 1.699 3.508 2.709.782.891 1.53 1.732 2.363 2.161.446-1.707 1.792-8.487 1.935-8.58.143-.092 5.77 1.144 8.151 1.253-.084-.58-.285-1.337-.513-2.178-.403-1.506-.933-5.586-.807-5.704.126-.126 5.173-.723 9.169-1.371-3.239-1.783-4.728-4.593-3.558-8.749.067-.235 4.021.017 5.897.673 1.607.564 3.339.58 4.475.48-.723-1.885-3.928-8.707-3.819-8.883.118-.186 3.954-1.187 4.913-2.146.437-.429.875-.874 1.43-1.194-.85-1.22-2.465-3.247-4.03-5.216-.681-.858-2.136-2.835-2.111-3.003.033-.168 5.779-2.347 6.603-3.028-.344-.48-.723-1.144-1.177-1.918-1.052-1.817-4.063-6.133-3.937-6.259.866-.858 1.8-1.43 2.708-1.977.917-.555 1.733-1.051 2.339-1.758-.824-.42-2.162-.968-3.55-1.54-1.968-.807-6.284-3.398-6.183-3.541.951-1.397 2.709-2.01 4.408-2.591 1.321-.454 2.204-1.422 2.793-2.162-.53-.303-.816-.227-1.598-.765-1.851-1.262-6.654-3.685-6.73-3.836-.076-.152 1.119-2.76 1.893-4.013.841-1.371 1.699-2.776 2.061-3.912-.909-.042-2.322.017-3.803.084-2.178.093-6.999-.033-7.108-.176-.11-.135.564-5.93.43-8.354-.22.101-.438.253-.716.446-.74.513-4.139 1.506-4.273 1.397-.135-.11-1.355-3.811-2.288-5.519-.53-.967-1.044-1.9-1.372-2.717-.53.278-1.177.774-1.9 1.33-1.364 1.05-5.536 3.179-5.688 3.095-.151-.084-.723-2.961-.832-4.24-.143-1.657-.278-3.239-.8-4.492-.378.16-.824.328-1.312.522-1.632.63-6.082 2.826-6.25 2.784-.168-.042-1.245-2.22-1.674-3.314-.631-1.59-1.279-3.222-2.02-4.316-1.724 1.355-7.99 6.789-8.167 6.78-.177-.016-1.388-1.514-1.716-1.976-.682-.968-1.06-1.506-2.17-2.398-.38.337-.842.656-1.364 1.018-1.177.816-4.012 3.76-4.18 3.785-.169.026-5.553-3.33-7.142-4.113-.135.404-.202.833-.278 1.363-.151.984-1.371 4.635-1.531 4.694-.168.059-4.416-.934-6.503-1.001-1.169-.034-2.288-.076-3.247-.228-.378 1.506-1.497 7.437-1.64 7.53-.143.092-1.826-.312-2.288-.463-.926-.295-1.439-.463-2.608-.539-.143.58-.412 1.237-.732 2.02-.698 1.699-1.54 6.426-1.666 6.552-.126.118-5.922.068-8.302.455.168.378.437.782.74 1.253.673 1.026 2.027 4.602 1.926 4.745-.092.143-4.366 1.615-6.334 2.574a41.15 41.15 0 01-1.927.908c.11.337.228.724.362 1.153.597 1.951 2.54 8.168 2.372 8.227 0 0-6.048 2.162-7.865 3.272.395.387.959.825 1.59 1.304 1.203.917 4.071 3.895 4.038 4.063-.026.177-4.98 3.651-6.646 5.207.42.127.984.202 1.598.278 1.632.202 5.72 2.313 5.704 2.515-.328 3.306-2.608 5.426-4.206 7.294-.438.513-.564 1.211-.9 1.674.664.235 1.69.47 2.767.715 2.078.48 6.427 2.136 6.47 2.305.041.168-4.039 6.864-5.107 9.253.572.017 2.768-.606 3.584-.723 1.825-.253 5.207.757 5.282.908.076.16-.891 2.524-1.438 3.634-.909 1.843-1.842 3.735-2.179 5.283.488.135 1.085.345 1.792.589 1.75.606 6.604 1.657 6.705 1.8.109.135-.623 2.869-1.144 3.946-.488 1.009-.951 1.976-1.052 2.935 2.23-.151 11.5-1.261 11.634-1.152.135.11.168 2.911.067 4.29-.143 1.952-.286 3.954-.016 5.418.967-.337 2.532-.993 4.164-1.674 1.581-.665 4.93-1.91 5.08-1.826.152.084 1.548 2.919 2.465 4.046.446.556.909 1.119 1.313 1.75.126-.176.235-.412.37-.74.387-.9 3.297-3.542 3.466-3.5.168.051 2.995 5.014 4.492 6.84.547-.64 1.337-1.767 2.111-2.877 1.346-1.927 4.467-5.586 4.627-5.586" fill="#CE8F29"/><path d="M27.003 45.526c.9.606 1.135 1.825.538 2.726a1.956 1.956 0 01-2.717.538 1.965 1.965 0 012.187-3.264m14.848-31.343c.9.606 1.144 1.826.538 2.726a1.956 1.956 0 01-2.717.538 1.965 1.965 0 012.187-3.264m54.04 33.977c.9.606 1.144 1.825.539 2.725a1.956 1.956 0 01-2.717.539 1.965 1.965 0 012.187-3.264m-5.889 36.703c.9.606 1.144 1.826.538 2.726a1.956 1.956 0 01-2.717.538 1.965 1.965 0 012.188-3.264m-19.113 12.77c.9.606 1.144 1.826.538 2.726a1.956 1.956 0 01-2.717.538 1.964 1.964 0 112.187-3.264m-27.112-6.006c.9.605 1.144 1.825.538 2.725a1.956 1.956 0 01-2.717.539 1.965 1.965 0 012.187-3.264M19.255 73.464c.9.606 1.144 1.826.539 2.726a1.956 1.956 0 01-2.718.538 1.965 1.965 0 012.188-3.264M64.463 18.29c.9.605 1.144 1.825.538 2.725a1.956 1.956 0 01-2.717.538 1.965 1.965 0 012.187-3.264" fill="#CE8F29"/><path d="M101.426 58.407c.092-2.667-.135-5.443-.682-8.48-.42-2.321-1.236-4.542-2.019-6.696-.302-.824-.614-1.674-.9-2.515a26.661 26.661 0 00-1.312-3.155A35.672 35.672 0 0088.53 26.82c-2.97-2.726-5.922-4.778-9.035-6.276a375.442 375.442 0 00-6.032-2.826l-.05-.025c-2.54-1.178-4.56-1.868-6.528-2.246-1.598-.303-3.29-.606-4.972-.715-.361-.026-.723-.05-1.085-.085-1.026-.084-2.078-.168-3.13-.092-.445.034-.89.067-1.337.092-1.438.101-2.919.202-4.374.396-3.575.48-6.334 1.363-8.665 2.784a32.22 32.22 0 01-1.556.884l-.47.252c-2.71 1.497-5.637 2.431-8.152 3.138-2.17.614-3.828 1.733-5.073 3.415a5.345 5.345 0 01-2.002 1.69h-.025c-.236.127-.505.262-.623.565-.404 1.11-1.169 2.002-1.918 2.868-.11.135-.227.26-.336.395-1.447 1.717-2.38 3.147-3.029 4.652-.21.488-.429.985-.647 1.473-.96 2.153-1.944 4.374-2.474 6.73-.008.05-.033.1-.05.15-.008.034-.025.06-.034.093l-.1.303c-1.027 3.163-2.095 6.436-2.49 9.843-.337 2.851-.64 6.216-.27 9.573.387 3.541 1.287 6.628 2.751 9.43a513.553 513.553 0 003.197 6.014c1.076 1.986 2.321 3.534 3.827 4.728l.463.37c.95.757 1.926 1.531 2.776 2.431.462.488.824.909.95 1.523.068.328.27.63.421.833 1.472 1.867 2.776 3.365 4.4 4.593a31.54 31.54 0 006.258 3.676c5.788 2.583 11.29 3.836 16.816 3.836h.21c.741 0 1.49.042 2.221.084l.455.025c.85.051 1.724.093 2.616.093.892 0 1.834-.042 2.768-.177 1.362-.193 2.793-.53 4.366-1.018 5.282-1.648 9.186-3.33 12.651-5.46l.026-.016c1.506-.917 3.053-1.868 4.24-3.256a224.743 224.743 0 003.953-4.752c1.027-1.27 1.986-2.541 2.356-4.123.042-.168.143-.378.277-.47.783-.53 1.22-1.321 1.632-2.087.11-.202.219-.395.337-.589.193-.32.378-.647.563-.967.614-1.077 1.254-2.196 2.061-3.171 2.583-3.147 4.08-6.957 4.56-11.626.176-1.733.235-3.542.176-5.367m-1.657 6.368c-.378 2.532-.917 4.4-1.733 6.057a20.196 20.196 0 01-2.237 3.533 17.995 17.995 0 00-1.986 3.104l-.075.16c-.614 1.228-1.254 2.498-2.28 3.474-.21.202-.353.488-.488.782-.993 2.137-2.423 3.929-3.92 5.73-.118.15-.244.294-.37.437-.244.277-.505.572-.724.883-1.413 2.027-3.356 3.693-6.099 5.24-4.029 2.272-8.344 4.038-13.215 5.401-2.053.572-4.282.741-6.629.505-1.708-.177-3.432-.202-4.744-.21-4.072-.017-8.261-.85-12.812-2.54-3.163-1.178-5.594-2.398-7.647-3.828-1.69-1.178-3.247-2.667-4.627-4.417a1.933 1.933 0 01-.395-.757c-.311-1.144-1.01-2.162-2.12-3.104l-.151-.126c-.514-.438-1.043-.883-1.607-1.27-2.002-1.372-3.592-3.256-5.005-5.931a373.033 373.033 0 00-2.339-4.34 26.351 26.351 0 01-3.18-11.054c-.193-3.08.194-6.049.673-9.338.354-2.406 1.018-4.955 2.112-8.025.025-.06.042-.126.067-.185.067-.194.143-.387.185-.59.58-2.548 1.69-4.946 2.76-7.259.184-.404.37-.807.555-1.211.74-1.64 1.867-3.012 2.759-4.021a12.13 12.13 0 001.53-2.221c.43-.79.867-1.405 1.565-1.842.682-.421 1.203-1.052 1.674-1.658.976-1.236 2.28-2.111 3.988-2.666.48-.16.959-.303 1.447-.454 1.068-.329 2.17-.674 3.238-1.094 1.7-.665 3.92-1.599 5.982-2.869 2.002-1.228 4.349-2.052 7.192-2.523 1.8-.295 3.718-.48 6.04-.59a37.575 37.575 0 019.489.757c2.246.472 4.357 1.347 6.31 2.213.916.404 1.825.825 2.733 1.237.883.404 1.767.8 2.65 1.194 2.936 1.313 5.78 3.189 8.698 5.73 1.75 1.522 3.214 3.028 4.484 4.6 1.783 2.213 3.255 4.728 4.484 7.69.429 1.026.84 2.069 1.245 3.087l.858 2.153c.176.446.26.917.336 1.38.042.227.076.47.135.698l.303 1.32c.277 1.162.563 2.373.748 3.576.345 2.254.404 4.484.37 7.133v1.321c0 1.565.017 3.18-.218 4.745" fill="#CE8F29"/><path d="M96.404 54.873c-.295-2.801-.749-5.09-1.43-7.209a46.937 46.937 0 01-1.447-5.62c-.253-1.354-.715-2.523-1.43-3.583a28.301 28.301 0 01-1.691-2.936c-1.456-2.894-3.399-5.3-5.771-7.15-2.667-2.087-5.207-3.769-7.773-5.14-2.97-1.59-6.15-2.54-9.152-3.382-2.76-.774-5.544-.959-7.908-1.043l-1.346.076c-1.859.1-3.785.202-5.695.454-2.978.387-5.325 1.06-7.403 2.111a59.08 59.08 0 01-5.476 2.423c-3.331 1.279-5.586 2.76-7.293 4.787-.707.841-1.666 1.363-2.608 1.8-1.952.917-3.273 2.406-4.03 4.543-.521 1.463-1.262 2.826-1.859 3.852l-.26.446c-.96 1.657-1.952 3.373-2.659 5.216a2.04 2.04 0 01-.294.513c-.682.824-1.094 1.834-1.212 3.003-.328 3.18-.757 5.729-1.337 8.017a3.428 3.428 0 00-.042 1.464c.176.95.202 1.926.218 2.877.009.488.026.992.06 1.489.252 3.827 1.244 7.116 3.028 10.06l.454.74c.875 1.44 1.783 2.92 2.608 4.417 2.17 3.954 4.357 7.008 6.873 9.607 2.347 2.431 4.702 4.223 7.184 5.46 3.12 1.556 6.36 2.65 9.118 3.507 1.565.489 3.264.732 5.166.732.202 0 .412 0 .614-.008h.361c2.819-.084 5.73-.16 8.59-.429 3.263-.311 5.871-.892 8.21-1.842 4.492-1.826 8.9-4.366 13.871-8 2.087-1.523 3.82-3.517 5.174-5.922 1.682-3.004 3.07-6.209 4.416-9.313l.177-.404a15.94 15.94 0 001.035-3.533c.244-1.38.538-2.7.875-3.92.31-1.127.47-2.296.488-3.558.016-1.186-.127-2.373-.261-3.517-.042-.344-.084-.69-.118-1.043m-1.598 8.522c-.085.219-.085.437-.085.648 0 .176 0 .345-.05.504a36.21 36.21 0 00-.597 2.221c-.27 1.094-.547 2.221-.976 3.281-1.203 3.02-2.574 6.444-4.358 9.607-1.135 2.027-2.784 3.836-4.879 5.367-5.09 3.718-9.253 6.132-13.51 7.815-1.935.774-4.063 1.278-6.494 1.547-3.264.362-6.486.556-10.448.623-2.027.151-4.66-.32-7.411-1.295-.295-.101-.589-.21-.883-.312-1.675-.588-3.407-1.203-5.04-1.968a22.749 22.749 0 01-5.417-3.558 39.216 39.216 0 01-5.703-6.26c-.455-.622-.85-1.295-1.229-1.95-.15-.262-.302-.53-.462-.792a377.223 377.223 0 00-3.929-6.418c-2.363-3.769-3.592-8.067-3.634-12.787v-.462c0-.328 0-.648-.017-.976-.033-1.287.11-2.583.43-3.962l.075-.345c.412-1.742.833-3.542.993-5.376.126-1.413.563-2.919 1.337-4.593.631-1.363 1.245-2.523 1.885-3.55a33.7 33.7 0 002.776-5.535c.505-1.27 1.262-2.179 2.322-2.784l.37-.21c.32-.186.63-.37.95-.54 1.346-.74 2.288-1.471 3.029-2.38 1.295-1.581 3.12-2.523 4.727-3.238.606-.27 1.245-.514 1.86-.758.184-.067.37-.143.546-.21 1.304-.513 2.692-1.068 4.013-1.8 2.44-1.354 4.744-2.137 7.05-2.38a98.871 98.871 0 014.895-.43l1.144-.076a39.398 39.398 0 012.423-.126h.177c2.734 0 5.3.631 7.453 1.254 1.968.572 4.004 1.16 5.939 1.968 2.322.968 4.383 2.322 6.099 3.525.404.278.816.555 1.22.824.816.547 1.657 1.11 2.44 1.733 2.026 1.632 3.658 3.592 4.988 5.99.126.227.252.454.37.681.563 1.043 1.152 2.112 1.834 3.113.908 1.32 1.228 2.868 1.48 4.34a23.107 23.107 0 001.077 4.08c.908 2.499 1.278 5.081 1.54 7.504.092.841.142 1.7.193 2.524l.075 1.22c.127 1.774-.075 3.322-.614 4.71" fill="#CE8F29"/><path d="M92.349 58.903c.1-.622.1-1.253.1-1.859v-.48c.035-1.884-.167-3.718-.344-5.097-.471-3.643-1.48-6.722-3.096-9.414-1.127-1.875-2.507-3.718-4.366-5.804a94.665 94.665 0 00-2.321-2.498 138.997 138.997 0 01-1.532-1.624c-1.202-1.304-2.582-2.423-3.886-3.44-1.808-1.405-3.895-2.306-5.872-3.08-4.172-1.615-8.748-2.414-13.98-2.439h-.144c-1.472 0-2.96.1-4.425.286-2.304.303-4.954.749-7.234 2.271-.808.539-1.733.8-2.457.968-2.035.48-3.953 1.413-5.703 2.784-2.23 1.75-4.35 3.845-6.873 6.814-1.943 2.288-3.222 4.862-3.794 7.664a21.395 21.395 0 01-1.32 4.256c-1.144 2.658-1.792 5.241-1.977 7.9-.118 1.64.017 3.297.151 4.895.025.337.06.673.084 1.01.042.555.143 1.11.253 1.648.126.673.252 1.363.269 2.061 0 .295.025.598.05.892a7.7 7.7 0 01.034.454c.1 1.573.412 2.692 1.01 3.634.925 1.473 1.707 3.054 2.464 4.585.185.37.362.74.547 1.102 1.279 2.549 3.096 4.761 5.544 6.764 2.103 1.716 4.416 3.213 6.654 4.66.361.235.723.463 1.085.698 1.245.808 2.683 1.48 4.391 2.053.909.303 1.826.63 2.717.95l.58.21c1.717.615 3.164.934 4.552 1.019.269.016.538.025.799.025.496 0 .984-.025 1.464-.042.32-.017.639-.026.959-.034.546-.017 1.085-.017 1.623-.025 1.287-.009 2.616-.026 3.929-.152 2.044-.202 4.441-.546 6.73-1.514a63.287 63.287 0 008.824-4.585 18.926 18.926 0 004.803-4.298 27.596 27.596 0 013.929-4.013c.925-.774 1.623-1.615 2.128-2.566 1.119-2.103 1.783-3.894 2.078-5.636.269-1.573.698-3.12 1.11-4.626.169-.615.345-1.246.505-1.876.328-1.27.345-2.356.059-3.407-.118-.446-.151-.783-.093-1.11m-1.186 4.937c-.025.286-.05.58-.143.833-.395 1.136-.656 2.322-.9 3.466-.126.572-.252 1.17-.404 1.75-.42 1.682-1.102 3.221-1.876 4.912a5.682 5.682 0 01-1.632 2.053c-2.01 1.624-3.726 3.592-5.282 5.485-.631.774-1.27 1.363-1.944 1.808-2.776 1.843-6.099 3.929-9.75 5.435-2.43 1-5.14 1.573-8.513 1.808-2.355.16-4.744.185-6.973.185-1.212 0-2.431-.218-3.735-.664-.177-.06-.345-.126-.522-.185-.387-.135-.782-.278-1.178-.387-2.683-.749-5.35-2.044-8.151-3.962-.623-.43-1.27-.842-1.893-1.245-.538-.345-1.093-.699-1.623-1.069-3.937-2.65-6.63-5.838-8.22-9.733-.352-.875-.849-1.682-1.328-2.473-.185-.303-.37-.606-.547-.908a21.581 21.581 0 01-.782-1.506c-.143-.303-.278-.665-.143-1.052.016-.067.05-.193.025-.311-.177-.833-.185-1.708-.202-2.549-.017-1.035-.034-2.111-.345-3.146-1.11-3.718-.808-7.689.934-12.484.1-.286.21-.58.32-.866.555-1.506 1.135-3.062 1.413-4.703.454-2.7 1.733-5.224 4.02-7.924a49.511 49.511 0 016.234-6.14c.867-.724 1.85-1.271 3.003-1.692a27.1 27.1 0 011.523-.505c1.548-.454 2.75-.967 3.802-1.615 2.18-1.329 4.593-1.699 6.881-1.9a48.482 48.482 0 014.198-.194c.539 0 1.077.008 1.607.033 5.678.21 10.532 1.439 14.847 3.76 1.759.943 3.23 1.986 4.501 3.18 3.331 3.13 5.914 5.914 8.135 8.774 2.338 3.012 3.81 6.62 4.5 11.037.311 2.027.446 4.215.387 6.671a55.874 55.874 0 01-.219 6.015" fill="#CE8F29"/><path d="M88.749 55.47c-.228-3.776-.867-6.56-2.078-9.042a23.18 23.18 0 01-.539-1.245c-.31-.757-.639-1.548-1.119-2.246-.723-1.043-1.421-2.12-2.103-3.163-.286-.438-.572-.884-.866-1.321-.017-.034-.042-.059-.059-.093-.1-.16-.21-.336-.379-.412-.555-.244-.916-.715-1.27-1.169-.075-.093-.151-.194-.227-.286-1.607-1.985-3.676-3.752-6.309-5.418-2.339-1.472-4.93-2.346-7.605-3.17-2.07-.649-4.34-1.027-7.158-1.196-4.35-.26-8.37.37-11.971 1.893-1.59.673-3.113 1.523-4.585 2.347-.429.244-.866.48-1.295.724-3.794 2.07-6.89 4.854-9.195 8.277a41.94 41.94 0 00-4.19 7.916 21.233 21.233 0 00-1.379 5.384c-.117 1.052-.117 2.112-.117 3.146 0 .471 0 .95-.009 1.43v3.324c0 1.001.168 1.952.497 2.751.597 1.447 1.043 2.961 1.488 4.433.228.749.455 1.531.707 2.288.438 1.33.984 2.297 1.733 3.046 1.405 1.404 2.625 3.104 3.718 5.198.614 1.178 1.573 2.255 2.928 3.281.757.58 1.54 1.11 2.128 1.506 2.97 1.985 5.552 3.255 8.11 4.004 3.583 1.043 6.99 1.556 10.363 1.556.589 0 1.186-.017 1.775-.05 2.6-.135 4.888-.505 6.99-1.119 4.434-1.287 7.891-3.222 10.558-5.897a30.075 30.075 0 011.54-1.405 42.8 42.8 0 001.11-.992l.084-.076c1.565-1.464 3.18-2.97 4.433-4.778 1.674-2.406 2.684-5.14 3.525-7.74a19.175 19.175 0 00.934-6.83c-.034-.69-.05-1.397-.068-2.078-.025-.9-.05-1.834-.1-2.75M27.44 59.112c-.008-1.716-.017-3.49.16-5.232.194-1.893.681-3.87 1.523-6.225 1.38-3.87 3.768-7.083 5.913-9.716 1.81-2.221 4.156-3.744 6.604-5.241a63.846 63.846 0 013.508-1.977 25.175 25.175 0 0111.87-2.936h.546c3.744-.1 7.622.682 12.206 2.448 3.668 1.413 6.949 3.718 9.759 6.84l.176.201c.16.185.32.379.522.522.934.64 1.514 1.54 2.128 2.49l.034.059c.235.362.48.715.715 1.06.412.597.841 1.211 1.194 1.859 1.203 2.162 2.078 4.517 2.852 6.738.219.64.286 1.337.345 2.01l.05.53c.127 1.27.186 2.524.228 3.475.017.48.033.967.042 1.447.025.874.042 1.775.1 2.666.186 2.776-.53 5.376-1.328 7.765-1.069 3.18-2.297 5.56-3.87 7.487-1.27 1.556-2.768 2.927-4.223 4.256l-.387.354c-.69.63-1.43 1.312-2.187 1.977-2.928 2.565-6.393 4.29-10.591 5.274-3.02.715-6.326.9-10.112.589-2.742-.227-5.173-.698-7.428-1.447-3.423-1.127-6.612-2.86-9.766-5.3a9.78 9.78 0 01-2.827-3.483c-.597-1.244-1.38-2.414-2.397-3.583a9.107 9.107 0 00-.698-.698c-.303-.278-.614-.556-.858-.892-.387-.513-.64-.976-.8-1.455-.16-.488-.32-.985-.47-1.472-.354-1.11-.716-2.263-1.145-3.374-.252-.656-.446-1.337-.63-2.002-.11-.378-.22-.765-.337-1.152-.27-.842-.396-1.758-.396-2.802v-1.11" fill="#CE8F29"/><path d="M29.913 63.27c-.05 1.497.362 2.851 1.212 4.012a3.69 3.69 0 01.706 1.767c.118.933.497 1.825 1.153 2.734.934 1.278 1.951 2.515 2.944 3.718.673.816 1.371 1.666 2.036 2.515 1.11 1.422 2.54 2.625 4.248 3.575l.236.127c.412.227.84.454 1.194.748 1.371 1.128 2.961 1.725 4.332 2.154.303.092.615.202.917.303.37.126.749.252 1.128.37a27.143 27.143 0 008.008 1.203c.059 0 .126 0 .202-.017.185-.017.412-.034.64-.034 3.86-.092 7.545-1.144 10.944-3.146.32-.193.664-.345.95-.471 1.405-.614 3.037-1.422 4.425-2.726.69-.647 1.497-1.261 2.616-1.993 1.388-.9 2.288-1.901 2.76-3.062.454-1.12 1.076-2.23 1.96-3.483.614-.875 1.06-1.649 1.379-2.423 1.438-3.407 2.145-7.1 2.111-10.952 0-.59-.067-1.187-.126-1.758a34.001 34.001 0 01-.084-.926c-.151-2.027-.488-3.752-1.043-5.283a51.971 51.971 0 01-.505-1.497c-.286-.875-.588-1.784-.959-2.65-1.354-3.18-2.826-5.3-4.778-6.89-.799-.647-1.413-1.303-1.876-2.002-.715-1.068-1.674-1.783-2.936-2.178a5.246 5.246 0 01-1.976-1.12c-.631-.563-1.414-.975-2.314-1.227a10.193 10.193 0 01-1.977-.783 6.57 6.57 0 00-1.076-.47c-.783-.262-1.599-.472-2.381-.682-.892-.236-1.809-.48-2.692-.791-.404-.143-.833-.168-1.253-.194h-.093c-1.094-.075-2.255 0-3.769.253-.454.076-.908.16-1.363.235-1.228.22-2.498.438-3.751.564-1.287.126-2.33.404-3.29.875l-2.044 1.01-2.7 1.337c-1.405.69-2.54 1.422-3.483 2.23-1.64 1.42-3.087 2.75-4.063 4.542l-.092.168c-.598 1.102-1.22 2.246-1.994 3.256-1.33 1.724-2.111 3.777-2.81 5.594-.723 1.892-.984 3.92-1.245 5.88a9.778 9.778 0 00.135 3.238c.311 1.481.446 2.936.404 4.341m54.915-8.177c.454 2.507.252 4.972.025 6.84a27.24 27.24 0 01-.917 4.45 18.227 18.227 0 01-3.457 6.477c-.362.438-.547.942-.715 1.472a4.636 4.636 0 01-1.96 2.516c-1.136.715-2.154 1.598-3.138 2.448-.194.168-.396.336-.59.504-.041.042-.092.076-.134.118-.11.1-.218.193-.336.27-3.533 2.237-6.612 3.902-10.137 4.744a20.54 20.54 0 01-4.963.53h-.084c-3.475 0-6.368-.455-9.11-1.422a32.85 32.85 0 00-1.094-.353c-.337-.101-.69-.21-1.035-.337-.824-.286-1.767-.664-2.473-1.455-.387-.438-.934-.69-1.464-.942l-.076-.034c-1.758-.833-3.264-2.086-4.618-3.828-.723-.933-1.506-1.842-2.263-2.717a72.138 72.138 0 01-1.766-2.086c-1.17-1.447-1.826-2.767-2.061-4.156-.101-.588-.345-1.102-.572-1.53-.673-1.254-.96-2.449-.867-3.643a9.762 9.762 0 00-.244-2.97c-.597-2.616-.218-5.198.185-7.428.27-1.463.833-2.86 1.38-4.206l.21-.521c.093-.227.244-.438.387-.64l.126-.176a56.44 56.44 0 003.306-5.443c1.397-2.65 3.55-4.761 6.394-6.267 1.842-.976 3.76-1.901 5.602-2.801l.168-.076c.943-.454 1.952-.698 3.07-.74 1.01-.034 1.995-.261 2.954-.488.386-.093.799-.185 1.194-.261 1.22-.236 2.515-.345 3.987-.328.606 0 1.187.185 1.742.362l.404.126c.462.134.942.252 1.404.362a23.74 23.74 0 011.708.454c1.498.488 2.987 1.093 4.433 1.674l.732.294c.337.135.648.387.942.623l.076.059c.606.48 1.304.875 2.204 1.236 1.026.413 1.876 1.001 2.574 1.8.766.867 1.615 1.675 2.448 2.448l.219.21c1.876 1.759 3.28 3.946 4.29 6.688.463 1.237.85 2.532 1.228 3.777.177.59.354 1.178.539 1.767.143.454.176.816.11 1.186-.094.505-.026.993.041 1.371" fill="#CE8F29"/></svg>