<svg width="58" height="80" fill="none" xmlns="http://www.w3.org/2000/svg"><path fill-rule="evenodd" clip-rule="evenodd" d="M6.68 10.33h4.794v3.437l6.22 3.538v3.772l27.496.017-4.846-2.448v-4.828l6.304 3.202v-6.237h4.93v6.203l6.002-3.32v4.796l-6.12 3.37v2.213l6.12-3.37v4.845l-6.12 3.37v2.213l6.12-3.37v4.61l-6.12 3.37v2.214l6.12-3.37V39.3l-6.12 3.37v2.213l6.12-3.37v4.896l-6.12 3.37v2.213l6.12-3.37v4.745l-6.12 3.353v2.213l6.12-3.353v4.644l-6.757 3.84c-4.342 9.12-11.468 15.139-21.862 15.256-10.395.117-20.303-7.73-22.148-18.66l-6.27 3.403v-4.778l6.17-3.403v-2.214l-6.17 3.404v-4.761l6.17-3.387v-2.213l-6.17 3.386v-4.895l6.17-3.387v-2.213l-6.17 3.37v-4.745l6.17-3.37v-2.212l-6.17 3.37v-4.611l6.17-3.353v-2.213l-6.17 3.353v-4.846l6.17-3.353V18.78l-6.17 3.337V17.22l6.12-3.37v-3.504l.016-.016zM25.372.607l3.671 3.572L32.75.606v6.338h6.354l-3.571 3.672 3.57 3.705H32.75v6.337l-3.706-3.554-3.671 3.554v-6.337h-6.354l3.57-3.705-3.57-3.672h6.354V.606zm1.224 10.026l2.464-2.464 2.465 2.464-2.465 2.465-2.464-2.465zm-15.123 8.031v2.448h4.477l-4.477-2.448z" fill="#CF932A"/><path fill-rule="evenodd" clip-rule="evenodd" d="M46.699 24.414l-.017 24.109H11.424V24.414h35.275z" fill="#DA271E"/><path fill-rule="evenodd" clip-rule="evenodd" d="M46.665 56.286v.167c-.017 11.569-9.037 18.174-17.503 18.124-8.467-.034-17.705-6.824-17.721-18.291v-7.78l35.224.034v7.746z" fill="#03933F"/><path fill-rule="evenodd" clip-rule="evenodd" d="M46.682 40.727v15.61H11.44V40.743h35.24v-.017z" fill="#2390CF"/><path fill-rule="evenodd" clip-rule="evenodd" d="M25.976 32.277c.151.62.587 1.358.855 1.945.487-.017.252-.034.738-.05-.67.167-.855.318-1.375.284-1.006-.234-1.693-.838-2.816-1.039.117.62 1.475 2.13 2.028 2.565 1.04-.52 1.845-.821 2.113-.905.15.52.285.67.419.972.57-.017 1.425-.117 2.33-.184v.335c-1.492.402-3 1.023-4.493 1.66-1.006-.52-1.978-.973-2.984-1.475.1-.235.335-.705.604-.94-.403-.57-.822-.955-1.224-1.525.2-.151.385-.302.586-.453-.452-.285-.905-.57-1.34-.855-.085.268-.185.52-.27.788l-.904-.503c-.067.319-.134.637-.202.973-.268-.185-.553-.352-.821-.537a24.19 24.19 0 00-.335 1.023 30.16 30.16 0 00-1.023-.537v.99c-.201.301-.42.603-.62.905.469.117.922.251 1.391.369.084.184.151.385.235.57-.872.922-1.207 2.095-.738 3.655.402-.503.855-.889 1.358-1.057-.486 1.76-.251 2.9.151 3.823.218-.62.553-1.157 1.224-1.19.251.586.503 1.156.754 1.743-.402.352-.855.654-1.307.956l-.604-1.308c-.436.235-1.727.352-2.582.537 0-.218.017-.453.034-.671-.453.201-.956.453-1.425.654.15.201.352.352.503.553-.252.151-.52.369-.772.52.185.235.352.402.537.637-.218.201-.453.402-.67.603.15.202.402.403.553.604-.151.235-.537.252-.671.486.268.252.604.436.872.604.167.285.302.654.503 1.006.318-.319.653-.637.972-.956.436 1.777.889 2.632 1.375 3.068.251-.754.587-1.29.989-1.676.637.72 1.392 1.391 2.414 1.928-.134-1.19.168-1.995 1.04-2.096.218.486.402.99.72 1.492-3.218 3.588-5.884 7.276-4.627 12.105.403-.201.805-.335 1.19-.369.051.201.084.436.101.721a4.588 4.588 0 00-1.224-.268c-.452.1-.922.2-1.391.285.084.201.184.385.268.587-.285.218-.587.419-.872.637.252.2.52.402.771.603l-.804.738.804.402c-.184.285-.368.587-.553.872l.906.352c-.118.235-.235.486-.353.721.42.067.856.134 1.275.218.939-.436 1.86-.805 2.8-1.442 1.039.201 2.129.403 3.269.721.067-.436.033-2.18.218-2.649.419.134.704.369.754.855.503-.704.537-1.643.486-2.598.47.083.872.301 1.057.821.452-.939.654-1.978.553-3.219.235-.201.486-.42.704-.637 1.09 1.81 2.38 3.32 4.141 4.141.168-.47.47-.889 1.006-1.174.386.202.62.403.721.587-.503.118-.922.235-1.425.352-.201.302-.503.738-.704 1.04.235.117.486.15.72.251-.15.352-.301.654-.469 1.006.269.084.554.168.822.252-.067.318-.134.654-.218.972.352-.033.754-.067 1.123-.1.168.402.302.787.47 1.19.301-.151.603-.319.905-.47.134.285.302.587.436.872.436-.2.838-.419 1.274-.603a57.068 57.068 0 001.576-3.521c.72-.369 1.442-.771 2.146-1.174-.754-1.022-1.492-2.062-2.247-3.101.554-.235.688-.302 1.643-.235-.067-.922-1.425-2.649-2.347-3.085.57-.369.922-.335 1.576-.453-.754-1.374-2.213-2.732-3.822-3.822 1.207-.654 1.576-1.274 1.978-1.911-.905.083-1.576-.05-2.163-.37-.955-.519-.955-1.374-2.414-2.816.386-.553.687-1.123.939-1.676.57.2 1.04.57 1.308 1.156.536-.922.788-2.598.754-4.14.486.066.99.318 1.425.754.402-1.392.268-2.968-.067-4.46a2.293 2.293 0 011.459.067c0-.637-.185-1.676-1.14-3.286.503-.251 1.04-.268 1.676.235 0-.922-.47-1.643-1.375-2.13.654-.25 1.09-.704 1.442-1.206-.687.016-1.391-.185-2.079-.923.336-.285.67-.218.99-.117-.302-1.358-.973-2.28-2.147-2.498-.083-.453-.251-.905-.469-1.375-1.107-.067-2.045.386-2.9 1.056-.37-.067-.755-.268-1.14-.218-.889.135-1.71.453-2.582.788-.42.554-.872 1.073-1.14 1.51-.973.217-2.666.72-3.068.955m2.514 1.794c.47.067 1.207.436 1.593.268.084-.184.15-.386.117-.553-.268-.151-.972-.403-1.156-.352-.252.067-.37.453-.554.637zm-.251.704c.15-.033.335-.117.486-.117.184 0 .436.1.67.134-.083.05-.184.15-.268.15-.285 0-.603-.117-.871-.167" fill="#CF932A"/><path fill-rule="evenodd" clip-rule="evenodd" d="M24.099 50.77c.285.42.57.822.855 1.241-.67 1.425-1.09 2.85-.537 4.175 1.291-1.124 1.694-1.342 2.13-1.09-.738 1.56-.235 2.75.637 3.94.435-.755.754-1.157 1.106-1.342l.889 2.063c-.285.251-.57.503-.855.737.15 1.09.033 1.995-.285 2.8-.403-.369-.855-.57-1.342-.57.168.906.084 1.627-.033 2.347-.369-.486-.738-.553-1.107-.57-.218.788-.167 1.727-.251 2.582-1.006-.184-2.012-.486-3.018-.67-1.023.57-1.928 1.056-2.766 1.34-.252-.87-.503-1.743-.738-2.631.218-.738.453-1.459.67-2.197.403.05.906.185 1.493.42 0-.42-.185-.923-.185-1.342-.419-.033-.821.168-1.173.386-1.174-3.923 1.04-7.796 4.51-11.619zm-5.6-15.541c1.09-.436 2.13-.872 3.219-1.291.47.318.822.955 1.24 1.441a5.83 5.83 0 00-.502 1.124c.972.486 1.928.989 2.9 1.475-2.012.755-2.615 1.408-2.8 2.029 1.24.1 1.912.302 2.029.587-.939.117-1.878.268-2.884 1.157.688.184 1.174.469 1.425.855-.436.301-.855.586-1.274.888l-.939-1.777c-.737-.034-1.09.335-1.341.855-.201-.755-.268-1.744.084-3.52a1.78 1.78 0 00-1.459.804c-.251-1.04-.201-2.096.855-3.236-.2-.453-.335-.905-.553-1.358m7.762-2.85c.671-.285 1.56-.503 2.884-.788a31.78 31.78 0 011.19-1.542c.755-.252 1.61-.587 2.482-.704.369-.05.72.15 1.09.234 1.156-.855 2.129-1.19 2.716-1.056.218.386.385.822.452 1.308.771.05 1.694.62 1.979 1.91-.285-.05-.755.051-.906.386.285.554.906 1.007 1.844 1.224-.318.336-.871.721-1.34.94.737.452 1.307.905 1.458 1.609-.805-.185-1.392-.151-1.66.251.52.956 1.09 2.012 1.174 2.968-.604-.168-1.09-.1-1.425.218.184 1.391.436 2.783.1 4.158-.335-.453-.855-.654-1.458-.721-.068 1.29-.168 2.598-.604 3.89-.184-.437-.62-.789-1.274-1.04a8.443 8.443 0 01-1.224 2.314c.905.57 1.207 1.559 1.794 2.347.47.62 1.492 1.157 2.649.955-.47.604-1.258 1.157-2.012 1.66 1.392 1.006 2.833 2.13 3.789 3.571-.604.134-1.19.235-1.576.721.972.62 1.878 1.392 2.515 2.8a2.75 2.75 0 00-1.576.386c.754 1.022 1.509 2.095 2.263 3.118-.687.42-1.391.805-2.096 1.224-.52 1.056-.938 2.196-1.458 3.27-.889-.403-1.911-.873-2.8-1.258-.42-.855-.822-1.794-1.24-2.65.52-.15 1.056-.217 1.575-.368-.117-.369-.536-.704-1.106-1.023-.503.285-.872.62-1.073 1.023-2.498-1.073-3.856-3.638-5.03-6.421-.738.47-1.106.939-1.24 1.408-1.107-1.844-.688-2.833-.219-3.789-.486-.319-1.072-.42-2.43.939-.336-1.543.184-2.65.72-3.739-.737-1.123-1.307-2.247-1.877-3.37-.805.134-1.341.721-1.492 1.962-.788-.503-1.442-1.107-2.046-1.744-.419.218-.821.637-1.157 1.526-.62-.889-.905-1.878-1.022-2.9-.47 0-.889-.101-1.274-.302.217-1.057.435-2.13.637-3.186.821-.302 1.877-.234 2.464-.47.184.42.453.906.637 1.325 1.123-.72 2.18-1.525 3.37-2.313-.218-.352-.687-.755-1.274-.99.57-.452 1.626-.737 2.766-.888-.167-.604-.872-.855-1.961-.889.15-.369.486-.67.855-.855 2.095-1.006 4.292-1.928 6.438-2.632a.715.715 0 000-.687 26.04 26.04 0 01-2.213.134 2.433 2.433 0 01-.336-.822c.486.067 1.006.269 1.492.269.269 0 .52-.168.772-.252.318-.436.369-.905.419-1.358-.436-.15-.922-.436-1.375-.402-.369.033-.553.469-.738.704-.436.033-.922 0-1.34.05a6.452 6.452 0 01-.705-1.626m3.688-.604s-.15.084-.117.151c.084.168.218.235.386.252.117.033.301-.118.436-.084.218.05.419.335.57.335.134 0 .184-.285.083-.436-.033-.067-.134 0-.218 0-.083-.033-.15-.134-.268-.15-.168 0-.302.083-.486.083-.117 0-.252-.134-.386-.134m.62.369c.135 0 .252.15.252.335 0 .185-.117.336-.251.336s-.252-.151-.252-.336c0-.184.117-.335.252-.335z" fill="#201B18"/><path fill-rule="evenodd" clip-rule="evenodd" d="M23.696 33.719c.889.319 2.046.905 2.666.939.47.017 1.375-.453 2.029-.436.503.017.805.318 1.576.302-.05.084-.118.117-.168.2-.453.034-.939-.184-1.174-.15-.938.168-2.129.771-3.185 1.157-.67-.62-1.207-1.291-1.727-2.029m10.143 30.263l1.308 2.834 2.934 1.357-1.19.587-.436-.871-.889.452-.47-1.157-1.005.1.15-.921-.788-.252.436-1.006-.67-.218.603-.888.017-.017zm-15.575-.889l1.09-.251-.688 2.263.822 2.884-1.09-.168.285-.67-.805-.386.503-.855-.687-.386.704-.704-.687-.637.737-.603-.2-.52.016.034zm3.202-30.178l.973.57-4.108 1.694.268.704-1.09-.302.487-.687-.05-.788.988.503.32-1.023.837.537.235-.956.872.47.285-.705-.017-.017zM16.94 43.343c-.151 1.425-.436 2.683-.705 3.974.285.167.688.335 1.157.402-.251.201-.587.52-.838.721-.15-.268-.268-.57-.42-.838-.368-.151-.536-.285-.737-.42.168-.167.47-.2.62-.502-.167-.218-.368-.386-.52-.587.202-.185.403-.402.604-.604-.15-.218-.368-.419-.52-.637.252-.184.587-.368.839-.553-.151-.15-.352-.352-.486-.503.301-.15.704-.285 1.006-.436" fill="#DA271E"/></svg>