<svg width="78" height="80" fill="none" xmlns="http://www.w3.org/2000/svg"><mask id="a" style="mask-type:alpha" maskUnits="userSpaceOnUse" x="0" y="0" width="78" height="80"><path d="M.728.575V79.6h76.888V.575H.728z" fill="#000"/></mask><g mask="url(#a)"><path d="M39.172-37.873l-77.96 77.96 77.96 77.959 77.96-77.96-77.96-77.96z" fill="url(#paint0_linear_233_5363)"/></g><path d="M30.005 66.784v-6.407c.361 0 1.472-.029 1.948-.029 1.948 0 2.598 1.01 2.598 2.121 0 1.112-.895 2.15-2.367 2.15-.144 0-.476 0-.721-.028v2.179H30.02v.029l-.015-.015zm1.472-5.05v1.471c.217.03.447.058.664.058.39 0 .866-.159.866-.78 0-.562-.36-.75-.895-.75-.187-.028-.36 0-.635 0zm7.202-1.356h1.313l2.67 6.407h-1.559l-.534-1.342h-2.54l-.534 1.342H36.01l2.655-6.407h.015zm-.116 3.68h1.443l-.721-1.804-.722 1.804zm6.003 2.698v-6.378h1.472v3.983l2.843-3.983h1.284v6.378h-1.471v-3.954l-2.844 3.954h-1.284zm8.327-6.378a32.27 32.27 0 011.948-.058c1.53 0 2.15.693 2.15 1.588 0 .663-.245 1.11-.721 1.414v.029c.476.173.923.635.923 1.472 0 1.342-1.039 1.977-2.424 1.977a31.15 31.15 0 01-1.833-.058v-6.378h-.029l-.014.014zm1.472 1.371v1.169h.476c.36 0 .664-.173.664-.606 0-.39-.332-.592-.693-.592-.202 0-.274 0-.447.029zm0 2.453V65.4c.115.029.216.058.505.058.563 0 .866-.246.866-.664 0-.39-.303-.592-.78-.592h-.591zm-26.438 2.554v-1.37h-.866v-5.023h-4.184l-.058 1.285c-.087 2.092-.664 3.434-.924 3.766h-.692v1.371h6.71v-.029h.014zm-3.737-3.925l.115-1.082h1.313v3.65h-2.092c.202-.273.563-1.471.678-2.568m24.562-3.175l.447-1.039h-2.309l-.419 1.04h2.28z" fill="#fff"/><path fill-rule="evenodd" clip-rule="evenodd" d="M45.504 30.246c-.664-5.888-2.395-10.448.245-13.349 4.315 9.15 2.843 12.324-.245 13.349zm1.92-16.87c-4.185 3.103-4.936 6.941-5.152 10.621-.275 5.094 3.174 10.78 1.082 19.424l.202.058c.635-1.458 2.28-5.109 1.92-12.714 2.9-.664 4.848-1.861 5.267-5.094.476-3.406-1.977-9.669-3.32-12.295zm2.655 24.172c1.443 1.024 4.098.057 5.628-2.93a44.562 44.562 0 00-1.76-7.576c.143 2.9-3.06 4.733-4.157 6.277-1.313 1.862-.837 3.478.274 4.243m8.76 8.832c2.568.635 4.546.36 5.57-1.313.924-1.732.058-5.239-2.54-6.35-.995-.476-2.179-.563-3.088-.534-.65-5.238-1.818-9.813-3.867-14.633 1.587.534 4.993.505 6.58-2.092.967-1.588.36-3.06-.592-4.07-1.818-1.861-5.657-2.309-8.5-1.226.03.057.03.086.058.144 3.651-1.054 6.076.245 7.028 1.818.808 1.342.895 3.651-.635 4.546-2.063 1.198-4.127.274-6.61-1.371.448.952.564 1.674 1.343 4.156.505 4.401-3.088 4.964-5.83 8.73-1.79 2.454-.115 6.307 3.478 5.528 1.558-.476 3.175-1.645 4.632-4.127.058.865.332 1.948.116 3.232-.275 1.01-.953 1.616-1.675 2.18.03.086.087.302.116.389 1.4-1.198 2.684-2.31 4.964-2.396.303 0 .924-.029 1.703.116 2.785.692 3.564 2.871 2.93 4.401-.75 1.833-2.511 2.511-5.181 1.862-4.07-.996-6.653-2.598-9.698-1.977-.923.202-1.76.418-2.698 1.053.086.029.202.058.274.115 4.459-2.395 8.023.78 12.15 1.848M40.757 35.138c-.086 1.616-.606 2.366-.923 2.843-1.847-1.4-2.67-3.262-2.627-5.022.03-1.342.332-2.122.953-3.262.866.982 2.698 3.348 2.597 5.44zm-.505-6.379l.145.274c.591 1.112 1.558 3.002 1.645 4.315.057 1.083-.16 2.31-1.054 4.156-.895 1.79-1.818 2.872-1.818 2.872-.36-.447-.866-.808-1.371-1.414-2.453-3.045-1.79-5.657-1.79-5.657.304-2.626 1.761-4.575 3.204-5.989l.202-.144s.563 1.082.837 1.587zm-5.743 6.465c.057-4.66-.534-6.825-.78-8.283-.418-2.338-.663-2.9.535-3.622.692-.419.952-.534 1.76-.722 3.478-.837.866 3.954.866 3.954.115.058.159.087.274.116.895-1.111 2.064-2.627 3.06-4.993.836-1.977 1.067-3.406 1.14-4.243.028-.505-.03-.606-.217-.332-.447.606-2.093 2.035-5.715 3.767-6.133 2.93-7.749 6.522-7.749 6.522l.303.145c.274-.505 1.559-1.76 2.655-2.454.866 1.732 3.233 9.222 2.699 17.707.087 0 .144-.029.216-.029.39-1.79.924-4.242.953-7.533zm7.98 10.116c-.981 2.728-3.377 6.638-7.143 8.341-3.709 1.674-8.587 1.198-7.966-2.626.245-1.645 1.674-4.517 6.912-6.162 2.266-.693 5.325-.924 8.255.144l.057.03-.115.273zm-.952-1.255c2.063.505 4.04 1.313 6.162 2.092 3.477 1.4 6.277 2.67 9.12 3.03 2.598.333 5.152.275 7.33-1.024l.059.217c-1.646.923-3.406 2.092-6.74 1.861-3.232-.216-6.797-2.222-14.084-4.964-2.569 5.47-5.773 8.11-7.663 9.12-3.045 1.617-7.995 2.728-10.174.145-1.76-2.093-.606-5.773 3.377-8.5 0 0 1.833-1.371 4.286-1.977 3.406-.808 5.931-.563 8.341 0m-9.64-1.429c0 .202 0 .332-.029.476-.057.03-.144.03-.187.058-.361-6.19-2.569-10.174-3.68-12.064-1.674 1.92-3.463 5.96-4.964 7.72-.693.837-1.862.78-2.208-.952-.592-3.204-.895-5.902-1.285-8.673-1.342 1.14-2.54 2.67-3.174 3.795-1.472 2.598-1.617 3.882-1.53 5.83.115 2.627 1.732 5.686 6.523 5.773 3.088.057 4.82-2.54 5.21-3.117l.115.115c-1.501 2.266-3.016 3.29-4.373 3.651-3.478.981-6.32-.332-7.72-2.698-2.367-3.954-.174-8.356 2.207-11.04.058-.087.751-.895 1.588-1.818 1.559-1.732 4.07-3.839 4.07-3.839-.087 4.098-.058 4.315-.058 6.768 0 2.843.981 4.04 2.568 1.76 1.862-2.669 2.57-3.708 4.69-6.71 1.862 6.768 2.223 10.81 2.266 14.994" fill="#fff"/><defs><linearGradient id="paint0_linear_233_5363" x1=".736" y1="74.26" x2="78.686" y2="-3.689" gradientUnits="userSpaceOnUse"><stop stop-color="#656E75"/><stop offset=".05" stop-color="#6D6873"/><stop offset=".2" stop-color="#785469"/><stop offset=".34" stop-color="#7F4261"/><stop offset=".46" stop-color="#81375B"/><stop offset=".55" stop-color="#823259"/><stop offset=".62" stop-color="#853058"/><stop offset=".69" stop-color="#8D3154"/><stop offset=".77" stop-color="#98314C"/><stop offset=".84" stop-color="#AC2D42"/><stop offset=".92" stop-color="#C52532"/><stop offset=".99" stop-color="#E0131C"/><stop offset="1" stop-color="#E1121B"/></linearGradient></defs></svg>