<svg width="220" height="95" fill="none" xmlns="http://www.w3.org/2000/svg"><path d="M119.976 34.232c.999.792 1.495 1.894 1.495 3.299 0 2.087-.6 3.609-1.805 4.56-1.205.95-2.651 1.425-4.346 1.425-1.074 0-2.1-.11-3.092-.324-.985-.213-1.681-.427-2.073-.633l.227-.985c.035 0 .386.096 1.047.282.661.186 1.488.282 2.479.282 1.316 0 2.418-.344 3.299-1.026.882-.682 1.33-1.907 1.33-3.657 0-.902-.241-1.667-.717-2.3a4.794 4.794 0 00-1.721-1.426c-.669-.317-1.275-.482-1.819-.482h-1.047l-.144-1.102a5.13 5.13 0 002.073-.427c.647-.282 1.178-.675 1.577-1.17a2.621 2.621 0 00.606-1.709c0-.868-.268-1.467-.806-1.804a3.15 3.15 0 00-1.708-.51c-.661 0-1.281.103-1.859.31-.586.207-1.026.406-1.323.592l-.227-1.13c.338-.227.875-.468 1.612-.716a6.998 6.998 0 012.314-.378c1.467 0 2.658.303 3.567.902.91.606 1.371 1.501 1.371 2.707 0 .564-.179 1.115-.537 1.653-.358.537-.854.998-1.481 1.384a5.896 5.896 0 01-2.073.778c1.522.283 2.782.82 3.781 1.605zm8.561 8.196c-1.495-.765-2.672-1.832-3.526-3.217-.854-1.384-1.281-2.954-1.281-4.724 0-1.936.447-3.61 1.343-5.007a8.714 8.714 0 013.554-3.19c1.473-.722 3.071-1.087 4.779-1.087 1.86 0 3.533.378 5.021 1.143 1.488.764 2.652 1.832 3.499 3.203.847 1.37 1.267 2.94 1.267 4.71 0 1.956-.448 3.637-1.343 5.035a8.674 8.674 0 01-3.54 3.189c-1.467.723-3.058 1.088-4.766 1.088-1.846 0-3.512-.379-5.007-1.143zm-.702-4.174c.537 1.212 1.287 2.177 2.259 2.893.971.716 2.073 1.074 3.312 1.074 1.24 0 2.273-.317 3.258-.943.985-.627 1.77-1.536 2.355-2.707.586-1.178.875-2.535.875-4.077 0-1.426-.275-2.748-.819-3.967-.545-1.213-1.302-2.177-2.273-2.893a5.396 5.396 0 00-3.285-1.075c-1.22 0-2.273.317-3.258.944-.985.634-1.77 1.536-2.356 2.707-.585 1.17-.874 2.534-.874 4.077 0 1.433.268 2.748.806 3.967zm19.311 3.712s.29-.475.861-1.425c.572-.95 1.054-2.542 1.44-4.78.385-2.238.578-5.18.578-8.83-.379.021-.716.042-1.033.07-.31.027-.509.04-.606.04V25.63h13.093a73.743 73.743 0 00-.124 2.734 105.957 105.957 0 00-.069 3.809v5.33c0 1.034.028 2.108.083 3.217.055 1.109.11 1.921.172 2.424h-3.299V31.236c0-.358-.028-1.467-.083-3.326l-.027-.903a66.353 66.353 0 00-4.512-.144l-1.976.027c0 3.272-.2 6.164-.593 8.678-.392 2.514-.971 4.47-1.721 5.868-.751 1.405-1.64 2.1-2.652 2.1a3.175 3.175 0 01-1.86-.564l.421-1.33s.117.056.296.16c.179.102.406.15.689.15h.929l-.007.014zm22.363.462c-1.494-.765-2.672-1.832-3.526-3.217-.854-1.384-1.281-2.954-1.281-4.724 0-1.936.448-3.61 1.343-5.007a8.714 8.714 0 013.554-3.19c1.474-.722 3.072-1.087 4.78-1.087 1.859 0 3.533.378 5.02 1.143 1.488.764 2.652 1.832 3.499 3.203.847 1.37 1.267 2.94 1.267 4.71 0 1.956-.447 3.637-1.343 5.035a8.674 8.674 0 01-3.54 3.189c-1.467.723-3.058 1.088-4.766 1.088-1.845 0-3.512-.379-5.007-1.143zm-.702-4.174c.537 1.212 1.288 2.177 2.259 2.893.971.716 2.073 1.074 3.313 1.074a5.828 5.828 0 003.257-.943c.985-.627 1.77-1.536 2.356-2.707.585-1.178.874-2.535.874-4.077 0-1.426-.275-2.748-.819-3.967-.544-1.213-1.302-2.177-2.273-2.893a5.396 5.396 0 00-3.285-1.075 5.873 5.873 0 00-3.258.944c-.985.634-1.77 1.536-2.355 2.707-.586 1.17-.875 2.534-.875 4.077 0 1.433.269 2.748.806 3.967zm16.97-12.624h13.12v1.75a57.824 57.824 0 00-4.993-.42c-.034.64-.055 1.37-.055 2.196v8.382c0 1.86.062 3.733.2 5.613h-3.444c.131-1.88.2-3.754.2-5.613v-8.382a60.1 60.1 0 00-.028-2.197 80.67 80.67 0 00-4.993.42v-1.75h-.007zm19.567 16.798c-1.495-.765-2.672-1.832-3.526-3.217-.854-1.384-1.281-2.954-1.281-4.724 0-1.936.447-3.61 1.343-5.007a8.718 8.718 0 013.553-3.19c1.474-.722 3.072-1.087 4.78-1.087 1.86 0 3.533.378 5.021 1.143 1.488.764 2.652 1.832 3.499 3.203.847 1.37 1.267 2.94 1.267 4.71 0 1.956-.448 3.637-1.343 5.035a8.674 8.674 0 01-3.54 3.189c-1.467.723-3.058 1.088-4.766 1.088-1.846 0-3.513-.379-5.007-1.143zm-.703-4.174c.538 1.212 1.288 2.177 2.259 2.893.971.716 2.073 1.074 3.313 1.074 1.24 0 2.273-.317 3.258-.943.985-.627 1.77-1.536 2.355-2.707.586-1.178.875-2.535.875-4.077 0-1.426-.276-2.748-.82-3.967-.544-1.213-1.301-2.177-2.272-2.893a5.4 5.4 0 00-3.286-1.075 5.87 5.87 0 00-3.257.944c-.985.634-1.77 1.536-2.356 2.707-.585 1.17-.874 2.534-.874 4.077 0 1.433.268 2.748.805 3.967zm-91.8 29.754s.289-.475.861-1.426c.571-.95 1.054-2.541 1.439-4.78.386-2.238.579-5.179.579-8.83-.379.022-.717.042-1.033.07a9.15 9.15 0 01-.606.041v-1.412h13.092a78.64 78.64 0 00-.124 2.735 105.953 105.953 0 00-.069 3.808v5.33c0 1.034.028 2.108.083 3.217.055 1.11.11 1.922.172 2.425h-3.299V57.277c0-.358-.027-1.467-.082-3.326l-.028-.902a66.258 66.258 0 00-4.511-.145l-1.977.028c0 3.271-.199 6.164-.592 8.677-.393 2.514-.971 4.47-1.722 5.869-.751 1.404-1.639 2.1-2.651 2.1-.696 0-1.316-.186-1.86-.565l.42-1.329s.117.055.296.159c.179.103.407.151.689.151h.93l-.007.014zm33.21 1.184h-3.919c-.096-.51-.289-1.302-.592-2.37a70.151 70.151 0 00-1.012-3.27l-.648-1.95a30.945 30.945 0 00-1.976-.055h-1.33c-.468 0-1.074.028-1.804.083l-.82 2.231c-.792 2.26-1.384 4.036-1.777 5.331h-2.176a83.753 83.753 0 002.314-5.475l4.628-11.991 2.452-.2 4.319 12.018c.771 2.205 1.549 4.085 2.341 5.641m-7.169-8.933c.206-.007.378-.013.509-.013l-2.004-5.868-2.142 5.895c.11.02.221.02.324.014.103-.007.2-.014.296-.014h2.059c.434 0 .751 0 .958-.014zm8.409 12.522v-4.91h.647c.434 0 1.109-.765 2.032-2.287.923-1.522 1.743-3.403 2.459-5.627.716-2.232 1.074-4.415 1.074-6.557 0-.585-.027-1.157-.082-1.722h10.296a70.174 70.174 0 00-.2 5.358v6.04c0 1.447.056 3.045.173 4.794h1.694v4.91h-1.267l-.055-1.019c-.056-.695-.124-1.246-.214-1.653a8.331 8.331 0 00-.158-.688c-1.805-.152-3.933-.227-6.378-.227h-1.949c-2.369 0-4.497.075-6.378.227-.172.62-.303 1.398-.392 2.341l-.055 1.02h-1.247zm10.159-19.808c-.792 0-1.667.055-2.624.172a26.862 26.862 0 01-1.343 8.086c-.854 2.624-1.97 4.835-3.341 6.646h10.159c.11-1.75.172-3.271.172-4.573v-6.26c0-1.654-.027-2.935-.082-3.837a14.748 14.748 0 00-2.652-.227h-.282l-.007-.007zm14.711 15.502c-1.495-.765-2.672-1.832-3.526-3.217-.854-1.384-1.281-2.954-1.281-4.724 0-1.935.447-3.61 1.343-5.007a8.719 8.719 0 013.553-3.189c1.474-.723 3.072-1.088 4.78-1.088 1.86 0 3.533.379 5.021 1.143 1.488.765 2.652 1.832 3.499 3.203.847 1.37 1.267 2.94 1.267 4.71 0 1.956-.448 3.637-1.343 5.035a8.674 8.674 0 01-3.54 3.189c-1.467.723-3.058 1.088-4.766 1.088-1.846 0-3.513-.379-5.007-1.143zm-.703-4.174c.538 1.212 1.288 2.177 2.259 2.893.972.716 2.074 1.074 3.313 1.074 1.24 0 2.273-.317 3.258-.943.985-.627 1.77-1.536 2.355-2.707.586-1.178.875-2.535.875-4.077 0-1.426-.275-2.748-.82-3.967-.544-1.212-1.301-2.177-2.272-2.893a5.399 5.399 0 00-3.286-1.074 5.87 5.87 0 00-3.257.943c-.985.634-1.77 1.536-2.356 2.707-.585 1.178-.874 2.534-.874 4.077 0 1.433.268 2.748.805 3.967zm18.493-12.623h8.919v1.75c-.248-.076-.861-.159-1.846-.255-.985-.097-2.231-.152-3.74-.165a173.02 173.02 0 00-.082 4.29v5.476c0 1.336.027 2.74.082 4.215.055 1.474.097 2.217.11 2.217h-3.443c.131-1.846.2-3.726.2-5.64v-6.26c0-1.902-.069-3.775-.2-5.614m27.17 11.895c0 1.9.062 3.773.2 5.612h-3.499c.055-.433.11-1.205.165-2.314a66.66 66.66 0 00.083-3.299V54.55a1640.632 1640.632 0 01-6.942 11.116c-1.467 2.335-2.204 3.513-2.204 3.526h-3.299c.055-.433.11-1.212.172-2.327.055-1.116.083-2.225.083-3.313v-6.268c0-1.9-.069-3.774-.2-5.613h3.499c-.056.434-.111 1.206-.173 2.314a66.653 66.653 0 00-.082 3.3v9.029c.716-1.15 2.038-3.21 3.981-6.178l2.851-4.656c1.26-2.011 2.032-3.285 2.314-3.809h3.299a53.77 53.77 0 00-.172 2.425 65.064 65.064 0 00-.083 3.216v6.26l.007.007zM54.733 94.261c-.11 0-4.738-5.007-6.336-7.025l-.042-.055c-.93 1.026-1.983 2.528-2.927 3.878-.985 1.405-2.789 3.058-2.968 2.85-1.322-1.528-2.528-3.36-3.595-5.454-1.04.758-1.323 1.433-1.577 2.032-.228.53-.462 1.081-1.164 1.419-.242.117-1.447-1.405-1.929-1.998-.682-.833-1.377-1.694-1.79-2.837-.985.386-2.115.854-3.217 1.315-1.777.744-4.566 1.488-4.649 1.226-.42-1.391-.282-3.374-.144-5.296.062-.882.124-1.722.13-2.48-3.002.407-9.704.813-9.717.545-.083-1.22.454-2.335.97-3.41.317-.654.641-1.322.834-2.031-1.701-.2-7.06-2.129-7.025-2.397.193-1.502 2.624-6.426 2.893-7.046-1.454-.275-2.962-.069-4.195.103-1.191.166-3.175-.371-3.085-.626.64-1.757 2.865-5.49 4.125-7.452-1.253-.544-2.858-.91-4.297-1.24-1.405-.324-3.355-1.391-3.217-1.625.351-.579.854-1.171 1.391-1.798 1.233-1.44 2.618-3.072 2.934-5.324-1.212-.916-2.562-1.081-3.753-1.226-.992-.124-1.853-.227-2.376-.778-.186-.193 3.505-3.67 5.379-4.904-.854-.95-1.846-1.708-2.673-2.335-.847-.647-1.949-2.238-1.728-2.396 1.604-1.116 4.036-1.99 6.178-2.755l.44-.159C6.694 33 5.165 27.413 5.42 27.31c.544-.22 1.226-.551 1.95-.902 1.473-.723 3.126-1.522 4.565-1.867-.378-1.157-.915-1.983-1.363-2.672-.434-.668-.765-2.417-.503-2.473 2.004-.378 4.732-.688 7.108-.557.062-1.867.337-3.396.86-4.67.31-.758.868-2.32 1.13-2.3 1.419.048 2.135.502 3.051.799.255.082.33-.117.682-.021.44-2.624.861-4.725 1.17-5.82.077-.261 2.432-.137 3.54-.103 1.62.055 3.43.11 4.85.668.468-1.267.599-2.135.709-2.844.103-.675.957-2.218 1.198-2.101 1.667.813 4.002 2.011 5.69 3.285.957-1.274 2.1-2.066 3.03-2.707.537-.371 1.735-1.24 1.949-1.08 1.315.998 1.68 1.514 2.341 2.458.186.269.407.572.675.937C50.27 3.26 54.953-.198 55.126.009c.826.992 1.48 2.624 2.107 4.201.269.668.524 1.316.785 1.88 1.509-.888 3.168-1.529 4.408-2.01.606-.235 1.123-.435 1.453-.6.241-.117 1.502 3.12 1.64 4.704.068.813.144 1.64.282 2.424 1.35-.592 2.493-1.474 3.437-2.197.922-.71 1.653-1.274 2.355-1.44.269-.061 1.295 1.936 1.818 2.894.744 1.356 1.516 2.761 1.75 4.022 1.088-.241 1.66-.634 2.17-.985.468-.33 2.1-.475 2.12-.207.173 2.06.062 4.325-.323 6.722 1.487.062 3.23-.014 4.786-.083 1.757-.075 4.312.297 4.277.565-.172 1.212-1.074 2.68-1.949 4.105-.489.792-.95 1.55-1.274 2.225 1.626.592 3.45 1.832 4.938 2.844.806.544 1.564 1.06 1.929 1.205.248.097-.82 2.535-3.148 2.976-1.053.2-2.045.71-2.713 1.301 1.301.648 2.844 1.275 4.222 1.84 1.639.667 2.934 1.198 3.553 1.625.22.151-1.473 2.3-2.417 2.872-.551.337-1.116.675-1.632 1.115 1.198 1.171 2.183 2.866 2.989 4.264.447.771.868 1.494 1.136 1.77.186.193-1.997 1.99-3.127 2.293-.675.186-1.363.372-2.073.73.407.517.834 1.06 1.26 1.598 1.612 2.025 3.127 3.94 3.685 4.856.083.13-1.191 1.288-1.639 1.735-.75.75-1.66 1.66-3.512 1.805 1.191 2.52 2.624 6.205 2.975 7.142.096.255-3.25.564-5.07-.076-1.28-.448-2.92-.627-3.911-.606-.813 3.333 4.484 6.908 4.25 6.95-3.844.674-6.874 1.315-8.534 1.315.117 1.232.448 2.445.737 3.533.296 1.095.53 1.963.489 2.603-.02.269-4.766.09-7.039-.523-.55 3.085-1.77 7.183-2.038 7.121-1.178-.296-2.06-1.295-2.907-2.252-.523-.6-1.067-1.212-1.667-1.653-.378 1.26-.516 2.81-.64 4.091-.124 1.322-.22 2.37-.523 2.941-.124.241-2.721-1.219-3.534-2.1-.4-.434-.812-.882-1.315-1.344-1.784 2.57-4.814 6.013-4.959 6.013m-6.343-8.347l.799.702c1.336 1.694 4.008 5.062 5.489 6.433.95-1.123 4.704-6.027 4.842-6.047.144-.02 1.721 1.364 2.224 1.908.654.709 1.226 1.329 2.053 1.825.11-.517.179-1.281.255-2.08.144-1.543 1.06-5.18 1.191-5.228.13-.048 2.142 1.391 2.872 2.218.64.73 1.254 1.419 1.935 1.77.365-1.398 1.467-6.95 1.584-7.025.117-.076 4.725.937 6.674 1.026-.069-.475-.234-1.095-.42-1.784-.33-1.232-.764-4.573-.661-4.67.103-.103 4.236-.591 7.507-1.122-2.652-1.46-3.87-3.76-2.913-7.163.055-.192 3.292.014 4.828.551 1.315.462 2.734.476 3.664.393-.593-1.543-3.217-7.128-3.127-7.273.096-.151 3.237-.971 4.022-1.756.358-.351.716-.716 1.17-.978-.695-.999-2.017-2.659-3.298-4.27-.558-.703-1.75-2.321-1.729-2.46.028-.137 4.732-1.92 5.407-2.478-.283-.393-.593-.937-.965-1.57-.86-1.488-3.326-5.022-3.223-5.125.71-.702 1.474-1.17 2.218-1.618.75-.455 1.419-.861 1.915-1.44-.675-.344-1.77-.792-2.907-1.26-1.612-.661-5.145-2.783-5.062-2.9.778-1.143 2.218-1.646 3.609-2.121 1.081-.372 1.804-1.164 2.286-1.77-.433-.248-.668-.186-1.308-.627-1.515-1.033-5.448-3.017-5.51-3.14-.062-.124.916-2.26 1.55-3.286.688-1.122 1.39-2.273 1.687-3.202-.744-.035-1.9.014-3.113.069-1.784.075-5.73-.028-5.82-.145-.09-.11.462-4.855.352-6.84-.18.084-.359.208-.586.366-.606.42-3.388 1.233-3.499 1.143-.11-.09-1.108-3.12-1.873-4.518-.434-.792-.854-1.556-1.123-2.224-.433.227-.964.633-1.556 1.088-1.116.86-4.532 2.603-4.656 2.534-.124-.069-.592-2.424-.682-3.47-.117-1.358-.227-2.652-.654-3.679-.31.131-.675.269-1.074.427-1.337.517-4.98 2.314-5.118 2.28-.137-.034-1.019-1.818-1.37-2.714-.517-1.301-1.047-2.637-1.653-3.533-1.412 1.11-6.543 5.558-6.688 5.551-.144-.013-1.136-1.24-1.405-1.618-.558-.792-.867-1.233-1.777-1.963-.31.276-.688.537-1.115.833-.965.668-3.286 3.079-3.423 3.1-.138.02-4.546-2.728-5.848-3.368-.11.33-.165.682-.227 1.116-.124.805-1.123 3.794-1.253 3.843-.138.048-3.616-.765-5.324-.82-.958-.028-1.874-.062-2.659-.186-.31 1.233-1.226 6.088-1.343 6.164-.117.076-1.494-.255-1.873-.379-.758-.24-1.178-.378-2.135-.44-.117.475-.338 1.012-.6 1.653-.571 1.39-1.26 5.261-1.363 5.365-.103.096-4.849.055-6.798.372.138.31.358.64.606 1.026.551.84 1.66 3.767 1.578 3.884-.076.117-3.575 1.323-5.187 2.108-.557.275-1.095.537-1.577.744.09.275.186.592.296.943.49 1.598 2.08 6.688 1.943 6.736 0 0-4.952 1.77-6.44 2.68.324.316.785.674 1.302 1.067.985.75 3.333 3.188 3.306 3.326-.021.145-4.078 2.99-5.441 4.263.344.104.805.166 1.308.228 1.336.165 4.684 1.894 4.67 2.059-.269 2.707-2.135 4.442-3.444 5.971-.358.42-.461.992-.737 1.37.544.194 1.385.386 2.266.586 1.701.393 5.262 1.75 5.296 1.887.035.138-3.305 5.62-4.18 7.576.468.014 2.266-.496 2.934-.592 1.494-.207 4.263.62 4.325.744.062.13-.73 2.066-1.178 2.975-.744 1.508-1.508 3.058-1.784 4.325.4.11.889.283 1.467.482 1.433.496 5.407 1.357 5.49 1.474.09.11-.51 2.349-.937 3.23-.4.827-.778 1.619-.861 2.404 1.825-.124 9.415-1.033 9.525-.944.11.09.138 2.383.055 3.513-.117 1.598-.234 3.237-.014 4.435.793-.275 2.073-.812 3.41-1.37 1.294-.544 4.036-1.564 4.16-1.495.123.07 1.267 2.39 2.018 3.313.365.455.743.916 1.074 1.433.103-.145.193-.338.303-.606.317-.737 2.7-2.9 2.837-2.865.138.04 2.452 4.104 3.678 5.599.448-.524 1.096-1.447 1.73-2.356 1.101-1.577 3.656-4.573 3.787-4.573" fill="#CE8F29"/><path d="M21.791 37.206c.737.496.93 1.495.44 2.232a1.602 1.602 0 01-2.224.44 1.609 1.609 0 011.791-2.672m12.156-25.66c.737.495.937 1.494.44 2.231a1.602 1.602 0 01-2.224.44 1.608 1.608 0 011.791-2.671m44.244 27.817c.737.496.936 1.494.44 2.231a1.601 1.601 0 01-2.224.44 1.608 1.608 0 111.79-2.671M73.39 69.412c.738.496.937 1.495.441 2.232a1.602 1.602 0 01-2.224.44 1.608 1.608 0 011.79-2.672M57.75 79.867c.737.496.936 1.495.44 2.232a1.602 1.602 0 01-2.224.44 1.608 1.608 0 011.79-2.672M35.559 74.95c.737.495.937 1.494.44 2.23a1.602 1.602 0 01-2.224.441 1.608 1.608 0 011.79-2.672M15.448 60.08c.737.495.937 1.494.44 2.231a1.602 1.602 0 01-2.224.44 1.608 1.608 0 011.79-2.671M52.46 14.907c.737.496.937 1.494.441 2.231a1.601 1.601 0 01-2.225.441 1.608 1.608 0 111.791-2.672" fill="#CE8F29"/><path d="M82.723 47.752c.076-2.184-.11-4.456-.558-6.943-.344-1.9-1.013-3.719-1.653-5.482a90.212 90.212 0 01-.737-2.06 21.85 21.85 0 00-1.074-2.582 29.204 29.204 0 00-6.536-8.795c-2.432-2.232-4.849-3.912-7.397-5.138-1.64-.792-3.313-1.563-4.938-2.314l-.042-.02c-2.08-.965-3.733-1.53-5.344-1.84-1.309-.248-2.693-.495-4.07-.585-.297-.02-.593-.041-.89-.069-.84-.069-1.7-.138-2.561-.076-.365.028-.73.055-1.095.076-1.178.083-2.39.165-3.582.324-2.927.392-5.186 1.116-7.094 2.28-.413.254-.854.495-1.274.723l-.385.206c-2.218 1.226-4.615 1.99-6.674 2.57-1.777.502-3.134 1.418-4.153 2.795a4.376 4.376 0 01-1.64 1.385h-.02c-.193.103-.413.213-.51.461-.33.91-.957 1.64-1.57 2.349-.09.11-.186.213-.275.323-1.185 1.405-1.95 2.576-2.48 3.81-.172.399-.351.805-.53 1.204-.785 1.764-1.591 3.582-2.025 5.51-.007.042-.028.083-.041.124-.007.028-.021.048-.028.076l-.083.248c-.84 2.59-1.715 5.269-2.038 8.058-.276 2.335-.524 5.09-.22 7.838.316 2.9 1.053 5.427 2.252 7.72a422.47 422.47 0 002.617 4.925c.881 1.625 1.9 2.892 3.133 3.87l.38.303c.777.62 1.576 1.254 2.272 1.99.379.4.675.745.778 1.247.055.27.22.517.345.682 1.205 1.53 2.272 2.755 3.602 3.76a25.819 25.819 0 005.124 3.01c4.738 2.115 9.243 3.141 13.768 3.141h.172c.606 0 1.219.035 1.818.069l.372.02c.695.042 1.412.076 2.142.076s1.501-.034 2.266-.144c1.115-.159 2.286-.434 3.574-.834 4.325-1.35 7.521-2.727 10.359-4.47l.02-.013c1.233-.75 2.5-1.53 3.471-2.666a181.498 181.498 0 003.237-3.89c.84-1.04 1.626-2.08 1.929-3.376.034-.137.117-.31.227-.385.64-.434.999-1.082 1.336-1.708.09-.166.18-.324.276-.483.158-.261.31-.53.461-.792.503-.881 1.026-1.797 1.688-2.596 2.114-2.576 3.34-5.696 3.733-9.518.144-1.419.192-2.9.144-4.394m-1.357 5.213c-.31 2.073-.75 3.602-1.418 4.96a16.544 16.544 0 01-1.832 2.892 14.734 14.734 0 00-1.626 2.541l-.062.131c-.503 1.006-1.026 2.046-1.866 2.845-.172.165-.29.399-.4.64-.812 1.75-1.983 3.216-3.21 4.69a7.415 7.415 0 01-.302.358c-.2.228-.413.469-.593.724-1.157 1.66-2.748 3.023-4.993 4.29-3.299 1.86-6.832 3.306-10.82 4.422-1.68.468-3.505.606-5.427.413-1.398-.144-2.81-.165-3.884-.172-3.334-.014-6.764-.696-10.49-2.08-2.59-.964-4.58-1.963-6.26-3.134-1.384-.964-2.659-2.183-3.788-3.615a1.584 1.584 0 01-.324-.62c-.255-.937-.826-1.77-1.735-2.542l-.124-.103c-.42-.358-.854-.723-1.316-1.04-1.64-1.123-2.94-2.665-4.098-4.855a306.826 306.826 0 00-1.915-3.554 21.574 21.574 0 01-2.603-9.05c-.158-2.521.159-4.952.551-7.645.29-1.97.833-4.057 1.729-6.57.02-.049.034-.104.055-.152.055-.158.117-.317.152-.482.475-2.087 1.384-4.05 2.258-5.944l.455-.992c.606-1.343 1.529-2.465 2.26-3.292a9.927 9.927 0 001.252-1.818c.352-.647.71-1.15 1.282-1.508.557-.345.984-.861 1.37-1.357.8-1.013 1.867-1.729 3.265-2.183.392-.131.785-.248 1.184-.372.875-.269 1.777-.551 2.652-.896 1.391-.544 3.21-1.308 4.897-2.348 1.639-1.006 3.56-1.68 5.888-2.066 1.474-.241 3.044-.393 4.945-.482a30.765 30.765 0 017.769.62c1.84.385 3.568 1.101 5.166 1.81.75.331 1.494.676 2.238 1.013.723.33 1.446.654 2.17.978 2.403 1.074 4.731 2.61 7.121 4.69 1.433 1.247 2.631 2.48 3.671 3.768 1.46 1.811 2.665 3.87 3.67 6.295.352.84.69 1.694 1.02 2.527l.703 1.763c.144.365.213.751.275 1.13.035.186.062.386.11.572l.248 1.08c.228.951.462 1.943.613 2.928.283 1.846.33 3.67.303 5.84v1.082c0 1.28.014 2.603-.179 3.884" fill="#CE8F29"/><path d="M78.611 44.859c-.24-2.294-.613-4.167-1.17-5.903a38.266 38.266 0 01-1.185-4.6c-.207-1.11-.586-2.067-1.171-2.934a23.137 23.137 0 01-1.384-2.404c-1.192-2.37-2.783-4.34-4.725-5.854-2.183-1.708-4.263-3.086-6.364-4.209-2.431-1.301-5.035-2.08-7.493-2.768-2.26-.634-4.539-.785-6.474-.854l-1.102.062c-1.522.082-3.1.165-4.663.372-2.438.317-4.36.867-6.06 1.728a48.387 48.387 0 01-4.484 1.984c-2.728 1.047-4.573 2.259-5.972 3.919-.578.689-1.363 1.116-2.135 1.474-1.598.75-2.679 1.97-3.299 3.719-.427 1.198-1.033 2.314-1.522 3.154l-.213.365c-.785 1.357-1.598 2.762-2.177 4.27a1.674 1.674 0 01-.24.42c-.559.675-.896 1.502-.992 2.46-.27 2.603-.62 4.69-1.096 6.563-.096.379-.11.799-.034 1.198.145.778.165 1.577.18 2.356.006.4.02.812.047 1.219.207 3.133 1.02 5.826 2.48 8.237l.372.606c.716 1.178 1.46 2.39 2.135 3.616 1.777 3.237 3.567 5.737 5.627 7.865 1.921 1.99 3.85 3.457 5.881 4.47 2.556 1.274 5.207 2.17 7.466 2.872 1.281.4 2.672.599 4.229.599.165 0 .337 0 .503-.007h.296c2.307-.069 4.69-.13 7.032-.351 2.672-.255 4.807-.73 6.722-1.508 3.678-1.495 7.286-3.575 11.357-6.55 1.708-1.247 3.127-2.88 4.236-4.849 1.377-2.459 2.513-5.083 3.615-7.624l.145-.33c.372-.862.661-1.84.847-2.893.2-1.13.44-2.211.716-3.21.255-.923.386-1.88.4-2.913.014-.971-.103-1.942-.214-2.879-.034-.282-.069-.565-.096-.854m-1.309 6.977c-.069.179-.069.358-.069.53 0 .145 0 .282-.04.413-.187.6-.345 1.22-.49 1.819-.22.895-.448 1.818-.799 2.686-.985 2.472-2.107 5.275-3.567 7.865-.93 1.66-2.28 3.14-3.995 4.394-4.167 3.044-7.576 5.02-11.061 6.398-1.584.634-3.327 1.047-5.317 1.268-2.672.296-5.31.454-8.554.51-1.66.123-3.816-.263-6.068-1.061-.24-.083-.482-.173-.723-.255-1.37-.482-2.79-.985-4.125-1.612a18.628 18.628 0 01-4.436-2.913 32.11 32.11 0 01-4.67-5.124c-.371-.51-.695-1.061-1.005-1.598-.124-.214-.248-.434-.379-.648a308.36 308.36 0 00-3.216-5.255c-1.935-3.085-2.94-6.605-2.975-10.468v-.38c0-.268 0-.53-.014-.798-.028-1.054.09-2.114.351-3.244l.062-.282c.338-1.426.682-2.9.813-4.401.103-1.157.461-2.39 1.095-3.76a26.628 26.628 0 011.543-2.907 27.583 27.583 0 002.272-4.532c.414-1.04 1.034-1.784 1.901-2.28l.303-.172c.262-.151.517-.303.779-.44 1.102-.607 1.873-1.206 2.48-1.95 1.06-1.294 2.554-2.066 3.87-2.651.496-.22 1.02-.42 1.522-.62.151-.055.303-.117.447-.172 1.068-.42 2.204-.875 3.286-1.474 1.997-1.11 3.884-1.75 5.771-1.95a80.84 80.84 0 014.009-.35l.936-.063a31.271 31.271 0 011.984-.103h.145c2.238 0 4.338.517 6.102 1.026 1.611.469 3.278.95 4.862 1.612 1.9.792 3.588 1.9 4.993 2.886.33.227.668.454.999.675.668.447 1.357.909 1.997 1.418 1.66 1.337 2.996 2.941 4.084 4.904.104.186.207.372.303.558.462.854.944 1.729 1.502 2.548.744 1.082 1.005 2.349 1.212 3.554a18.87 18.87 0 00.882 3.34c.743 2.046 1.046 4.16 1.26 6.144.076.689.117 1.391.158 2.066l.062.999c.104 1.453-.062 2.72-.502 3.857" fill="#CE8F29"/><path d="M75.291 48.158c.083-.51.083-1.026.083-1.522v-.393c.028-1.542-.138-3.044-.282-4.173-.386-2.982-1.212-5.503-2.535-7.707-.923-1.536-2.052-3.044-3.574-4.752a77.543 77.543 0 00-1.901-2.046c-.42-.44-.84-.881-1.254-1.329-.984-1.067-2.114-1.983-3.181-2.817-1.481-1.15-3.19-1.887-4.808-2.52-3.416-1.323-7.163-1.977-11.447-1.998h-.117a29 29 0 00-3.622.234c-1.887.248-4.057.613-5.923 1.86-.661.44-1.42.654-2.011.792-1.667.392-3.237 1.157-4.67 2.28-1.825 1.432-3.56 3.147-5.627 5.578-1.59 1.873-2.638 3.981-3.106 6.274a17.597 17.597 0 01-1.081 3.486c-.937 2.176-1.467 4.29-1.619 6.467-.096 1.343.014 2.7.124 4.008.02.276.048.551.069.826.034.455.117.91.207 1.35.103.551.206 1.116.22 1.688 0 .24.02.489.041.73.014.124.021.248.028.372.082 1.288.337 2.204.826 2.975.758 1.205 1.398 2.5 2.018 3.754.152.303.296.606.448.902 1.047 2.087 2.534 3.898 4.539 5.537 1.722 1.405 3.616 2.631 5.448 3.816.296.193.592.379.888.571 1.02.662 2.197 1.213 3.595 1.68.744.249 1.495.517 2.225.78l.475.171c1.405.503 2.59.765 3.726.834.22.013.44.02.654.02.407 0 .806-.02 1.199-.034.261-.014.523-.02.785-.028.447-.013.888-.013 1.329-.02 1.054-.007 2.142-.021 3.216-.124 1.674-.166 3.637-.448 5.51-1.24a51.82 51.82 0 007.225-3.754 15.5 15.5 0 003.933-3.519 22.59 22.59 0 013.216-3.285c.757-.634 1.33-1.322 1.742-2.1.916-1.723 1.46-3.19 1.702-4.615.22-1.288.571-2.555.909-3.788.137-.503.282-1.02.413-1.536.269-1.04.282-1.929.048-2.79-.096-.364-.124-.64-.076-.909m-.97 4.043c-.021.234-.042.476-.118.682-.323.93-.537 1.901-.737 2.838-.103.468-.206.957-.33 1.432-.345 1.378-.903 2.638-1.536 4.022a4.652 4.652 0 01-1.336 1.68c-1.646 1.33-3.051 2.942-4.326 4.491-.516.634-1.04 1.116-1.59 1.481-2.273 1.508-4.994 3.216-7.983 4.45-1.99.819-4.208 1.287-6.97 1.48-1.928.13-3.884.152-5.71.152-.991 0-1.99-.18-3.057-.544-.145-.049-.283-.104-.427-.152-.317-.11-.64-.227-.965-.317-2.197-.613-4.38-1.674-6.673-3.244-.51-.351-1.04-.689-1.55-1.02-.44-.281-.895-.57-1.33-.874-3.222-2.17-5.426-4.78-6.728-7.968-.29-.717-.696-1.378-1.088-2.025a43.122 43.122 0 01-.448-.744 17.714 17.714 0 01-.64-1.233c-.117-.248-.228-.544-.117-.86.013-.056.04-.16.02-.256-.144-.681-.151-1.398-.165-2.086-.014-.848-.028-1.73-.283-2.576-.909-3.044-.66-6.295.765-10.221.083-.234.172-.475.262-.71.454-1.232.93-2.506 1.157-3.85.372-2.21 1.419-4.276 3.292-6.487A40.551 40.551 0 0130.82 24.7c.71-.592 1.516-1.04 2.46-1.384a21.75 21.75 0 011.246-.413c1.267-.372 2.252-.793 3.113-1.323 1.784-1.088 3.76-1.391 5.634-1.556a39.703 39.703 0 013.436-.159c.441 0 .882.007 1.316.028 4.649.172 8.623 1.178 12.156 3.078 1.44.772 2.645 1.626 3.684 2.604 2.728 2.562 4.842 4.842 6.66 7.183 1.915 2.466 3.12 5.42 3.685 9.036.255 1.66.365 3.45.317 5.462a45.694 45.694 0 01-.18 4.924" fill="#CE8F29"/><path d="M72.344 45.348c-.186-3.092-.71-5.372-1.701-7.404a18.34 18.34 0 01-.441-1.02c-.255-.619-.524-1.266-.916-1.838-.593-.854-1.164-1.736-1.722-2.59-.234-.358-.468-.723-.71-1.08-.013-.029-.034-.05-.048-.077-.082-.13-.172-.275-.31-.337-.454-.2-.75-.586-1.04-.957-.062-.076-.124-.159-.186-.235-1.315-1.625-3.01-3.071-5.165-4.435-1.915-1.205-4.036-1.922-6.226-2.597-1.694-.53-3.554-.84-5.861-.978-3.56-.213-6.853.303-9.8 1.55-1.302.551-2.549 1.247-3.754 1.922-.352.2-.71.392-1.06.592-3.107 1.694-5.642 3.974-7.529 6.777a34.33 34.33 0 00-3.43 6.48 17.381 17.381 0 00-1.129 4.409c-.096.86-.096 1.728-.096 2.576 0 .385 0 .778-.007 1.17v2.721c0 .82.137 1.598.406 2.252.489 1.185.854 2.424 1.22 3.63.185.613.371 1.253.578 1.873.358 1.088.805 1.88 1.418 2.493 1.15 1.15 2.15 2.542 3.045 4.256.502.965 1.288 1.846 2.396 2.686.62.476 1.26.91 1.743 1.233 2.431 1.626 4.545 2.666 6.64 3.279 2.933.854 5.722 1.274 8.484 1.274a26.1 26.1 0 001.453-.041c2.129-.11 4.002-.414 5.724-.916 3.63-1.054 6.46-2.638 8.643-4.829.4-.399.84-.785 1.26-1.15.304-.261.614-.537.91-.812l.069-.062c1.28-1.199 2.603-2.431 3.63-3.912 1.37-1.97 2.196-4.208 2.885-6.337.592-1.832.854-3.712.764-5.592-.027-.565-.04-1.143-.055-1.701-.02-.737-.04-1.502-.082-2.252M22.149 48.33c-.007-1.405-.013-2.858.131-4.284.159-1.55.558-3.168 1.247-5.096 1.13-3.168 3.085-5.8 4.841-7.955 1.481-1.818 3.403-3.065 5.407-4.29a52.197 52.197 0 012.872-1.62 20.612 20.612 0 019.718-2.403h.448c3.064-.083 6.24.558 9.993 2.004 3.003 1.157 5.689 3.044 7.99 5.6l.144.165c.13.151.262.31.427.427.764.523 1.24 1.26 1.742 2.038l.028.049c.193.296.393.585.585.867.338.49.69.992.978 1.523.985 1.77 1.702 3.698 2.335 5.516.18.524.234 1.095.283 1.646l.04.434a52.133 52.133 0 01.221 4.029c.021.717.035 1.454.083 2.184.151 2.272-.434 4.4-1.088 6.356-.875 2.604-1.88 4.553-3.168 6.13-1.04 1.274-2.266 2.397-3.458 3.485l-.317.29c-.564.516-1.17 1.074-1.79 1.618-2.397 2.1-5.235 3.512-8.671 4.318-2.473.586-5.18.737-8.279.482-2.245-.186-4.236-.571-6.081-1.184-2.803-.923-5.414-2.342-7.997-4.34a8.008 8.008 0 01-2.314-2.85c-.489-1.02-1.13-1.977-1.962-2.935a7.463 7.463 0 00-.572-.571c-.248-.227-.503-.455-.703-.73-.316-.42-.523-.8-.654-1.192-.13-.4-.262-.806-.386-1.205-.289-.91-.585-1.853-.936-2.762a18.034 18.034 0 01-.517-1.639c-.09-.31-.179-.627-.275-.944-.22-.688-.324-1.439-.324-2.293v-.91" fill="#CE8F29"/><path d="M24.174 51.733c-.041 1.227.296 2.335.992 3.286.324.44.51.909.578 1.446.097.765.407 1.495.944 2.238.765 1.047 1.598 2.06 2.41 3.045a103.23 103.23 0 011.667 2.059c.91 1.164 2.08 2.149 3.478 2.927l.193.103c.338.186.689.372.978.613 1.123.923 2.425 1.412 3.547 1.763.248.076.503.166.75.248.304.104.614.207.924.303 2.176.662 4.318.985 6.556.985.049 0 .104 0 .166-.013.151-.014.337-.028.523-.028 3.161-.076 6.178-.937 8.96-2.576.262-.158.545-.282.779-.386 1.15-.502 2.486-1.163 3.622-2.231.565-.53 1.226-1.033 2.142-1.632 1.137-.737 1.874-1.557 2.26-2.507.371-.916.881-1.825 1.604-2.852.503-.716.868-1.35 1.13-1.983 1.177-2.79 1.756-5.813 1.728-8.967 0-.482-.055-.971-.103-1.44a28.072 28.072 0 01-.069-.757c-.124-1.66-.4-3.072-.854-4.326a42.67 42.67 0 01-.413-1.226c-.234-.716-.482-1.46-.785-2.17-1.11-2.602-2.314-4.338-3.912-5.64-.654-.53-1.157-1.067-1.536-1.639-.586-.875-1.37-1.46-2.404-1.784a4.296 4.296 0 01-1.618-.916c-.517-.461-1.157-.799-1.894-1.005a8.334 8.334 0 01-1.619-.64 5.383 5.383 0 00-.881-.386c-.64-.214-1.309-.386-1.95-.558-.73-.193-1.48-.393-2.203-.648-.33-.117-.682-.137-1.026-.158h-.076c-.896-.062-1.846 0-3.086.207-.372.061-.744.13-1.116.192-1.005.18-2.045.358-3.071.462-1.054.103-1.908.33-2.693.716l-1.674.826-2.21 1.096c-1.15.564-2.08 1.164-2.852 1.825-1.343 1.164-2.528 2.252-3.327 3.719l-.075.138c-.49.902-.999 1.838-1.633 2.665-1.088 1.412-1.728 3.092-2.3 4.58-.592 1.55-.806 3.21-1.02 4.814a8.003 8.003 0 00.111 2.652c.255 1.212.365 2.404.33 3.554m44.96-6.695c.373 2.053.207 4.07.021 5.6a22.293 22.293 0 01-.75 3.643 14.92 14.92 0 01-2.831 5.303c-.296.358-.448.771-.586 1.205a3.795 3.795 0 01-1.604 2.06c-.93.585-1.763 1.308-2.57 2.004-.157.138-.323.275-.481.413-.035.035-.076.062-.11.097-.09.082-.18.158-.276.22-2.893 1.832-5.413 3.196-8.3 3.884a16.76 16.76 0 01-4.063.434h-.069c-2.844 0-5.213-.372-7.458-1.164-.297-.103-.607-.2-.896-.289a15.127 15.127 0 01-.847-.275c-.675-.235-1.446-.544-2.025-1.192-.317-.358-.764-.565-1.198-.771L35 66.176c-1.44-.682-2.672-1.708-3.781-3.134a53.68 53.68 0 00-1.853-2.224 59.348 59.348 0 01-1.446-1.708c-.957-1.185-1.495-2.266-1.688-3.402-.082-.483-.282-.903-.468-1.254-.55-1.026-.785-2.004-.71-2.982a7.995 7.995 0 00-.199-2.431c-.489-2.142-.18-4.257.151-6.082.22-1.198.682-2.342 1.13-3.444l.172-.426c.076-.186.2-.359.317-.524l.103-.145a46.185 46.185 0 002.707-4.456c1.143-2.17 2.906-3.898 5.234-5.13 1.509-.8 3.079-1.557 4.587-2.294l.138-.062a6.225 6.225 0 012.514-.606c.826-.028 1.632-.214 2.417-.4.317-.075.655-.151.978-.213.999-.193 2.06-.282 3.265-.269.496 0 .971.152 1.425.296l.331.104c.379.11.771.206 1.15.296.462.11.944.227 1.398.372 1.226.4 2.445.895 3.63 1.37l.6.241c.275.11.53.317.77.51l.063.048c.495.393 1.067.717 1.804 1.013.84.337 1.536.82 2.107 1.474.627.709 1.323 1.37 2.005 2.004l.179.172c1.536 1.44 2.686 3.23 3.512 5.475.38 1.013.696 2.073 1.006 3.093.144.482.29.964.44 1.446.118.372.145.668.09.971-.076.413-.02.813.035 1.123" fill="#CE8F29"/></svg>