<svg width="91" height="58" fill="none" xmlns="http://www.w3.org/2000/svg"><path d="M74.88.241c-.403 0-1.342-.168-1.459-.084-.15.084-1.157.034-1.224.151-.05.151.956.252.788.319-.168.067-1.743.084-1.945.15-.2.05 1.124.151 1.107.353-.034.184-.436.167-.486.234-.05.067.2.252.15.537-.067.251-.2.419-.469.402-.251-.033-1.023-.302-1.978-.754-.956-.47-1.895-.185-2.297-.118-.42.068-.956.202-1.542.252-.587.033-1.392.117-2.247.168-.838.05-2.364.72-2.867.955-.52.252-1.677 1.51-1.677 1.51s-.871.703-1.022 1.625c0 .05-.05 1.006.285 1.308.318.319.352.369.536.486.185.084-.235.285-.235.285l.839-.234s-.084.368-.118.653c-.033.285.118.202.151.235.034.05-.05.369.185.604.2.251.302-.067.47.167.083.118-.051.235-.185.302.318-.117.905-.318.888-.285-.05.067-.15.302-.167.604 0 .301.033.352.2.419.185.067.252-.151.37.05.117.201.67 1.274.553 1.341-.117.05-.721.436-1.224.94-.486.519-1.274 1.609-1.676 2.263-.403.653-1.14 1.274-1.862 1.777-.704.47-.821.603-.821.603s-.52-1.022-.872-1.542c-.52-.771-.888-1.023-1.123-1.24-.436-.37-.872-.588-.872-.588s.201-.435.604-.653c.553-.302.905-.872 1.106-1.459.201-.587.587-1.123 1.056-1.945.487-.821 1.308-.955 1.459-.872.15.118.184 0 .352.436.168.436.302.486.302.37 0-.118.436.284.436.284s.117-.168-.084-.654c-.184-.486-.67-.872-.771-.989-.084-.117-.084-.168-.118-.318-.033-.151-.234-.403-.234-.403l-.604.637c-.302.302-1.106 1.308-1.106 1.308l-1.593 1.459 2.532-2.7-1.811 1.61s-1.358 1.106-1.24 1.19c.117.118.05.168-.252.37-.302.2-.034.2-.285.351-.252.151-.99-.235-.99-.235s.37.47.352.42c-.033-.034-.469-.084-.352-.05.118.05.168.301.168.301l-.201-.05s.084.302-.067.603c-.168.302-.604.42-.637.285-.034-.15-.872-.2-1.459-.15-.603.083-.821.083-1.425-.202-.603-.301-.872-.084-.939.034-.084.117-.754.47-.754.47l.033-.403s-1.274.654-1.274.838c0 .184-.419.704-.352.704s1.459-1.24 4.326-1.073c1.34.067 2.213.94 2.213.94s-.604 1.86-.352 2.799c.251.905-.168 2.13-1.006 2.465-.889.368-2.063-.638-2.029-.235.034.402.05.285.302.352.234.067.318.084.486.436a.423.423 0 01-.034.52c.034-.034.084-.067.285-.067.285-.034.352.234.352.234l-.083.486s.754 0 1.224-.15c.469-.151.77-.436.938-.705.185-.285.118-.654.168-.888.05-.235.235-.201.235-.201l-.67-.436s.25-.067.469-.168c.2-.084.47-.486.435-.754-.033-.285-.318-.252-.318-.252s.084-.168.084-.184c0-.034-.05-.084-.185-.252-.15-.168 0-.369 0-.369l.554-1.492s.888.771 1.257 1.911c.352 1.157.285 2.733-.184 3.857-.47 1.123-2.029 1.86-3.136 2.263-1.106.402-2.648.201-3.805-.252a3.788 3.788 0 01-1.71-1.391s-.168.033-.235.084c-.05.05-.151.117.05.47.185.368.905.82 1.51 1.122.586.302 2.816.638 2.816.638s-.235.167-.822.067c-.436-.067-1.475-.37-1.475-.37l.52.37.905.52s.637.066 1.911-.068c1.258-.15 2.448-.821 2.934-1.056.47-.235 1.794-1.358 1.777-1.358-.184.184-.553.637-.553.637s-.872.771-1.744 1.274c-.905.487-2.783.822-2.783.822s1.157-.117 1.51-.201c1.39-.37 1.86-.671 1.86-.671s-.52.47-.637.553c-.419.302-.905.47-1.66.587-.587.067-1.307-.034-1.307-.034s-.587-.066-.554-.05c.822.403 1.56.47 2.783.235 1.107-.201 1.593-.402 2.197-.838.603-.436 1.073-1.241 1.157-1.61.083-.385.352-.704.52-.888.167-.185.083-.185.033-.285-.05-.084-.05-.302-.05-.302l.15.184h.37l-.118-.52c-.05-.2 0-.234.067-.486.084-.251.15-.486.15-.486s.89-.553.94-.637c.067-.084-.486-.235-.486-.235s.15-.084.167-.15c.05-.05.151-.286.084-.47-.05-.184-.352-.235-.285-.42.067-.184.201-.117.201-.117s1.258-.368 1.962-.553c.67-.184.872-.251 1.274-.52.42-.285.553-.586.637-.653.067-.05.252-.235.302-.319.05-.117.234-.352.486-.402.252-.05.285-.235.285-.235l.721.302.084-.235s.251.05.419-.034c.168-.05.184-.352.184-.352s.654-.15 1.107.436c.47.554 1.459-.084 1.71-.184 1.073-.369.369 1.777 1.056 2.816.403.604 1.124.42 1.308.705.939 1.375.117 1.592.117 1.592s.151.202.235.302c.067.084-.067.352-.067.352l.486-.419-.47.99s.185-.286.789-.772c.285-.201.234-.034.419-1.14.184-1.123-.755-1.19-.755-1.19l-.52.033v-.47s-.586.034-.888-.301c-.302-.352.15-1.459.486-1.978.319-.554.94-.352 1.51-.067.586.285 1.357.72 1.743 1.626.402.888.302 1.777.117 2.817-.184 1.073-.654 1.827-1.257 2.464-.604.604-1.794 1.023-2.666 1.19-.872.151-1.844 0-2.7-.285-.871-.285-1.609-.938-1.743-1.106-.15-.168-.369-.42-.369-.42l-.15.051s-.068.034-.118.05a.185.185 0 00-.067.084c-.05.654.822 1.123 1.492 1.459 2.38 1.056 3.571.654 3.571.654s-.637.251-1.14.184c-.52-.05-1.676-.42-1.676-.42s.2.152.301.202c.118.067.487.319.554.369.067.033.52.201.788.251.72.084 1.475 0 3.101-.486 1.777-.52 3.186-1.978 3.37-2.18l-.956 1.057s-.603.436-1.073.754c-1.374.889-2.9 1.124-2.9 1.124l.939-.118c.419-.05 2.314-.905 2.314-.905l-.822.47s-.587.301-.838.419c-.252.083-.99.284-1.459.301-.47.034-.956-.033-.956-.033l-.402-.034s.285.252 1.107.352c.821.1.888.118 1.894-.067 1.023-.184 2.012-.654 2.582-1.257.587-.604.721-1.308.771-1.425.05-.151.067-.285.201-.436.135-.151.05-.067.185-.285.15-.201.033-.168-.034-.319-.05-.167-.033-.067.067-.302.084-.2.168-.251.302-.52.151-.25.034-.234.034-.435 0-.201.184-.252.251-.352.067-.067.872-.52.872-.52s-.168-.034-.252-.084c-.083-.05-.167-.067-.234-.15-.067-.068.15-.152.234-.252.068-.151.118-.185.151-.302.034-.117-.2-.201-.301-.352-.084-.15.05-.184.033-.52-.033-.318-.47-.905-.52-1.123-.067-.201-.704-1.14-.838-1.157-.15-.033-.956-.587-1.073-.637-.117-.05-.771-.637-1.073-.822-.302-.184-.67-.637-.939-.653-.251-.034-.72-.252-.72-.252s.033-.184.05-.369c.05-.184.033-.352.084-.553.067-.201.486-.352 1.005-.52.52-.184 2.532-.436 2.532-.436s.302.068.537.151c.234.084.787.436.787.436s-.05-.15-.05-.184c0-.067-.184-.352-.47-.637-.284-.285-.552-.252-.988-.319-.42-.084-1.107-.117-1.107-.117l-.352-.553s.15 0 .252-.034c.083-.034.52.034.704.034.167.033.436.2.436.2l-1.107.068 1.157.033.52.034s-.067-.168-.252-.319c-.184-.167-1.157-.553-1.509-.67-.369-.118-1.073-.202-1.073-.202l-1.14-.653s1.358-1.778 1.392-1.828c.05-.05.402-.117.553-.302.117-.184.168-.2.235-.436.067-.234.05-.15.419-.251.352-.117.302-.235.285-.352-.034-.117.15-.05.369-.067.234-.034.067-.118.117-.302.034-.184.251-.067.52-.15.251-.068.905.033 1.19-.252.302-.285.302-.302.553-.554.252-.251.185-.083.554-.184.368-.084.15-.05.486-.302.352-.251.084-.15.117-.318.034-.185.05-.185.084-.302.05-.117.15-.201.302-.402.168-.202.067-.252.067-.554.033-.302 0-.15.201-.318.067-.235-1.492-1.945-1.894-1.945M68.39 10.887c-.15.067-.469.168-.654.302-.2.15 0 .184.084.486s-.419.52-.586.721c-.168.185-.168.402-.252.47-.084.067-.47.067-.654.083-.184.034.185.42.185.42l-.554.469s-.486.034-.704.067c-.184.034-1.274.067-1.274.067s.201-.369.352-.587c.67-1.073 1.006-1.106 1.056-1.34.302-1.745-2.347-2.13-1.86-3.203.184-.436.402-.654.402-.654s.15-.302.47-.402c.318-.084.82-.185 1.24-.151.419.067 1.509.15 2.246.167.721.034.872-.47.872-.47s-.235.236-.302.588c-.067.318-.419 1.19-.419 1.19l-.368 1.023 1.307.72s-.436-.083-.57 0" fill="#0E4F95"/><path d="M65.24.207c-.403 0-1.342-.168-1.46-.084-.15.084-1.156.034-1.223.151-.05.15.956.251.788.319-.168.083-1.744.117-1.962.167-.2.05 1.124.151 1.107.352-.034.185-.436.168-.486.235-.05.067.2.251.15.536-.067.252-.2.42-.469.403-.251-.034-1.023-.302-1.978-.755-.956-.469-1.895-.184-2.297-.117-.42.067-.956.201-1.543.252-.586.033-1.391.117-2.246.167s-2.364.721-2.867.956c-.52.251-1.677 1.509-1.677 1.509s-.871.704-1.022 1.626c0 .05-.05 1.006.285 1.308.318.318.352.369.536.486.201.084-.234.285-.234.285l.838-.235s-.084.369-.118.654c-.033.285.118.201.151.235.034.05-.05.369.185.603.2.252.301-.067.47.168.083.117-.051.235-.185.302.318-.118.905-.319.888-.285-.05.067-.15.302-.167.603 0 .302.033.352.2.42.185.066.252-.151.37.05.117.2.67 1.274.553 1.341-.117.05-.721.42-1.224.939-.486.52-1.274 1.61-1.677 2.263-.402.654-1.14 1.274-1.844 1.777-.704.47-.821.604-.821.604s-.52-1.023-.872-1.543c-.52-.77-.889-1.022-1.123-1.24-.436-.369-.872-.587-.872-.587s.201-.436.603-.654c.554-.302.906-.872 1.107-1.458.201-.587.587-1.124 1.056-1.945.486-.822 1.308-.956 1.459-.872.15.117.184 0 .352.436.168.436.302.486.302.369 0-.118.435.285.435.285s.118-.168-.083-.654c-.185-.486-.67-.872-.772-.99-.083-.117-.083-.167-.117-.318-.033-.15-.235-.402-.235-.402l-.603.637c-.302.302-1.107 1.308-1.107 1.308L44.2 11.272l2.531-2.7-1.794 1.627s-1.358 1.107-1.24 1.19c.117.118.05.168-.252.37-.302.2-.033.2-.285.351-.251.151-.99-.234-.99-.234s.37.47.353.436c-.033-.034-.47-.084-.352-.05.117.05.168.301.168.301l-.202-.05s.084.302-.067.603c-.167.302-.603.436-.637.285-.033-.15-.872-.2-1.458-.15-.604.083-.822.083-1.425-.202-.604-.301-.872-.083-.94.034-.083.117-.754.47-.754.47l.034-.403s-1.274.654-1.274.838c0 .185-.42.704-.352.704.067 0 1.458-1.24 4.325-1.073 1.341.067 2.213.94 2.213.94s-.604 1.86-.352 2.816c.252.905-.168 2.13-1.006 2.464-.889.37-2.062-.637-2.029-.234.034.402.05.285.302.352.235.067.319.084.486.419a.423.423 0 01-.033.52c.033-.034.084-.067.285-.067.285-.034.352.234.352.234l-.084.486s.755 0 1.224-.15c.47-.151.771-.42.939-.704.168-.286.117-.654.168-.89.05-.234.234-.2.234-.2l-.67-.436s.251-.067.47-.168c.2-.117.469-.486.435-.754-.033-.285-.319-.252-.319-.252s.084-.168.084-.184c0-.034-.05-.084-.184-.285-.151-.168 0-.37 0-.37l.553-1.491s.889.771 1.258 1.911c.352 1.14.285 2.733-.185 3.856-.47 1.123-2.029 1.861-3.135 2.264-1.107.402-2.649.2-3.806-.252-1.157-.47-1.71-1.392-1.71-1.392s-.168.034-.235.084c-.05.05-.15.118.05.47.185.369.906.821 1.51 1.123.586.302 2.816.637 2.816.637s-.235.168-.821.067c-.436-.067-1.476-.369-1.476-.369l.52.37.905.519s.637.067 1.912-.067c1.257-.151 2.447-.822 2.934-1.056.47-.235 1.794-1.358 1.777-1.358-.201.184-.553.653-.553.653s-.872.772-1.744 1.275c-.905.486-2.783.821-2.783.821s1.157-.117 1.509-.201c1.391-.369 1.86-.67 1.86-.67s-.519.469-.636.553c-.436.301-.906.47-1.66.586-.587.067-1.308-.033-1.308-.033s-.587-.067-.553-.05c.821.402 1.559.469 2.783.234 1.107-.2 1.593-.402 2.196-.838.604-.436 1.073-1.24 1.157-1.61.084-.368.352-.704.52-.888.167-.184.084-.184.033-.285-.05-.084-.05-.302-.05-.302l.15.185h.37s-.084-.302-.118-.52c-.05-.201 0-.235.067-.486.084-.252.151-.486.151-.486s.889-.554.94-.638c.066-.083-.487-.234-.487-.234s.15-.084.168-.151c.05-.05.15-.285.084-.47-.05-.184-.353-.234-.285-.436.066-.184.234-.117.234-.117s1.258-.369 1.962-.553c.67-.185.872-.252 1.274-.52.42-.285.553-.587.637-.654.067-.05.252-.235.302-.318.05-.118.235-.352.486-.403.252-.05.285-.234.285-.234l.721.301.084-.234s.251.05.419-.034c.168-.05.184-.352.184-.352s.654-.15 1.107.42c.47.552 1.459-.085 1.71-.185 1.073-.37.369 1.777 1.056 2.8.403.603 1.123.419 1.308.704.939 1.375.117 1.593.117 1.593s.151.2.235.301c.084.084-.067.352-.067.352l.486-.436-.47.956s.185-.285.789-.771c.285-.201.234-.034.419-1.14.184-1.123-.755-1.19-.755-1.19l-.52.033v-.47s-.586.034-.888-.301c-.302-.352.151-1.459.486-1.979.319-.553.94-.352 1.51-.083.586.285 1.357.72 1.743 1.626.402.872.302 1.777.117 2.817-.184 1.072-.654 1.827-1.274 2.464-.604.604-1.794 1.023-2.666 1.19-.872.151-1.86 0-2.699-.285-.872-.285-1.626-.939-1.744-1.106a11.79 11.79 0 01-.352-.42l-.15.051s-.068.034-.118.05a.185.185 0 00-.067.084c-.05.654.822 1.123 1.492 1.459 2.38 1.056 3.571.654 3.571.654s-.637.251-1.14.184c-.52-.05-1.676-.42-1.676-.42s.2.152.301.202c.118.067.487.319.554.369a4.9 4.9 0 00.788.251c.72.084 1.475 0 3.101-.486 1.777-.52 3.169-1.978 3.37-2.18l-.956 1.057s-.603.436-1.073.754c-1.374.889-2.9 1.124-2.9 1.124l.939-.118c.419-.05 2.314-.905 2.314-.905l-.822.47s-.587.301-.838.402c-.252.084-.99.285-1.459.302-.47.033-.956-.034-.956-.034l-.402-.034s.285.252 1.107.352c.821.101.888.118 1.91-.067 1.007-.184 2.013-.653 2.583-1.257.587-.604.72-1.308.771-1.425.05-.15.067-.285.201-.42.151-.15.05-.066.185-.284.15-.201.033-.168-.034-.319-.067-.167-.033-.067.067-.302.084-.2.168-.251.302-.52.15-.25.034-.234.034-.435 0-.201.184-.252.251-.352.067-.084.872-.52.872-.52s-.168-.034-.252-.084c-.084-.05-.167-.067-.234-.15-.068-.068.15-.152.234-.252.067-.151.118-.185.151-.302.034-.15-.201-.201-.302-.352-.083-.15.05-.184.034-.52-.034-.318-.47-.905-.52-1.123-.067-.201-.704-1.14-.838-1.157-.15-.033-.956-.587-1.073-.637-.117-.05-.771-.637-1.073-.822-.302-.184-.67-.637-.939-.653-.251-.034-.72-.252-.72-.252s.033-.184.05-.369c.033-.184.033-.352.083-.553.067-.201.486-.352 1.006-.52.52-.184 2.532-.436 2.532-.436s.302.068.536.151c.235.084.788.42.788.42s-.05-.152-.05-.185c0-.067-.184-.352-.47-.637-.284-.285-.536-.252-.955-.319-.42-.084-1.107-.117-1.107-.117l-.352-.553s.151 0 .252-.034c.084-.033.52.034.67.034.168.033.436.2.436.2l-1.106.068 1.157.034.52.033s-.068-.168-.252-.319c-.184-.167-1.157-.553-1.509-.67-.369-.117-1.073-.201-1.073-.201l-1.14-.654s1.358-1.777 1.392-1.828c.05-.05.402-.117.52-.301.117-.202.167-.202.234-.436.067-.235.05-.151.42-.252.351-.117.3-.234.284-.352-.033-.117.151-.05.369-.067.235-.033.067-.117.117-.302.034-.184.252-.067.52-.15.252-.068.905.033 1.19-.252.302-.285.302-.302.554-.553.251-.252.2-.084.553-.185.369-.1.15-.05.486-.302.352-.251.084-.15.117-.318.034-.184.05-.184.084-.302.05-.117.151-.184.302-.402.168-.185.067-.252.067-.554.034-.301 0-.15.185-.318.067-.15-1.51-1.844-1.912-1.844M58.751 10.87c-.15.067-.47.168-.654.318-.2.118 0 .185.084.487.084.301-.42.52-.587.72-.167.185-.167.403-.251.47-.084.067-.47.067-.654.084-.184.033.184.419.184.419l-.553.47s-.486.033-.67.066c-.185.034-1.275.068-1.275.068s.202-.37.37-.587c.67-1.073 1.005-1.107 1.055-1.342.302-1.743-2.33-2.129-1.86-3.202.184-.436.402-.654.402-.654s.15-.301.47-.402c.318-.084.82-.184 1.24-.15.436.066 1.509.15 2.246.167.721.033.839-.47.839-.47s-.235.252-.302.587c-.067.319-.42 1.19-.42 1.19l-.368 1.006 1.308.721s-.436-.05-.587 0" fill="#0E4F95"/><path d="M54.895.107c-.402 0-1.341-.167-1.459-.084-.15.084-1.157.034-1.224.151-.033.151.956.252.788.319-.167.067-1.726.084-1.944.15-.202.051 1.123.152 1.106.353-.033.184-.436.168-.486.235-.05.083.201.251.15.536-.066.252-.2.42-.469.402-.234-.033-1.022-.301-1.978-.754-.956-.47-1.894-.184-2.297-.117-.419.067-.956.2-1.542.251-.587.034-1.392.118-2.247.168-.838.05-2.364.72-2.867.955-.52.252-1.676 1.493-1.676 1.493s-.872.704-1.023 1.626c0 .05-.05 1.006.285 1.308.319.318.352.368.536.486.185.084-.234.285-.234.285l.838-.235s-.084.369-.117.654c-.034.285.117.201.15.235.034.05-.05.368.185.603.201.252.302-.067.47.168.083.117-.05.235-.185.302.319-.118.905-.319.889-.285-.05.067-.151.301-.168.603-.034.302.034.352.201.42.185.066.252-.152.369.05.117.2.67 1.274.553 1.34-.117.051-.72.437-1.224.94-.486.52-1.274 1.61-1.676 2.263-.403.654-1.14 1.274-1.861 1.777-.704.47-.822.604-.822.604s-.52-1.023-.871-1.543c-.52-.77-.89-1.022-1.124-1.24-.436-.37-.872-.587-.872-.587s.202-.436.604-.654c.553-.302.905-.872 1.107-1.459.184-.586.586-1.123 1.056-1.944.486-.822 1.307-.956 1.458-.872.151.117.185 0 .352.436.168.436.302.486.302.369 0-.118.436.285.436.285s.117-.168-.084-.654c-.184-.486-.67-.872-.771-.99-.084-.117-.084-.167-.117-.318-.034-.15-.235-.402-.235-.402l-.604.637c-.301.302-1.106 1.307-1.106 1.307l-1.593 1.46 2.532-2.734-1.794 1.627s-1.358 1.106-1.24 1.19c.117.117.05.167-.252.369-.302.2-.034.2-.285.352-.252.15-.99-.235-.99-.235s.37.47.353.42c-.034-.034-.47-.085-.352-.051.117.034.167.302.167.302l-.201-.05s.084.301-.067.603c-.168.302-.604.42-.637.285-.034-.15-.872-.201-1.459-.15-.603.083-.821.083-1.425-.202-.603-.302-.872-.084-.939.033-.084.118-.754.47-.754.47l.033-.402s-1.274.653-1.274.838c0 .184-.436.704-.352.704.084 0 1.459-1.24 4.326-1.073 1.34.067 2.213.939 2.213.939s-.604 1.844-.352 2.8c.251.905-.168 2.129-1.006 2.464-.889.37-2.063-.637-2.029-.235.034.403.05.285.302.353.235.067.318.083.486.419a.423.423 0 01-.034.52c.034-.034.084-.068.285-.068.285-.033.353.235.353.235l-.084.486s.754 0 1.224-.15c.47-.152.77-.42.939-.705.167-.285.117-.654.167-.888.05-.235.235-.202.235-.202l-.67-.435s.25-.068.469-.168c.218-.084.47-.486.436-.754-.034-.285-.319-.252-.319-.252s.084-.168.084-.184c0-.017-.05-.084-.201-.252-.151-.168 0-.369 0-.369l.553-1.509s.889.772 1.257 1.912c.352 1.156.285 2.732-.184 3.856-.47 1.123-2.029 1.86-3.135 2.263-1.107.402-2.65.201-3.806-.251-1.157-.47-1.71-1.392-1.71-1.392s-.168.034-.235.084c-.05.05-.15.117.05.47.185.368.906.82 1.493 1.123.586.301 2.833.637 2.833.637s-.235.167-.822.067c-.419-.067-1.475-.37-1.475-.37l.52.37.905.52s.637.067 1.912-.068c1.257-.15 2.464-.821 2.933-1.056.47-.235 1.794-1.358 1.778-1.358-.202.185-.554.654-.554.654s-.871.771-1.743 1.258c-.906.486-2.783.821-2.783.821s1.156-.117 1.492-.201c1.391-.37 1.86-.67 1.86-.67s-.519.469-.636.552c-.42.302-.906.47-1.66.587-.587.067-1.308-.033-1.308-.033s-.587-.067-.553-.05c.821.402 1.56.469 2.783.234 1.107-.201 1.593-.402 2.196-.838.604-.436 1.073-1.24 1.157-1.61.084-.369.352-.704.52-.888.167-.185.084-.185.033-.285-.05-.084-.05-.302-.05-.302l.15.184h.37s-.067-.301-.118-.52c-.05-.2 0-.234.068-.486.083-.251.15-.486.15-.486s.889-.536.94-.637c.066-.084-.487-.235-.487-.235s.15-.083.168-.15c.05-.05.15-.286.084-.47-.05-.184-.353-.235-.285-.436.067-.184.234-.117.234-.117s1.258-.369 1.962-.553c.67-.185.872-.252 1.274-.52.436-.285.553-.587.637-.654.067-.05.252-.235.302-.319.05-.117.235-.352.486-.402.252-.05.285-.235.285-.235l.721.302.084-.235s.251.05.436-.033c.167-.05.184-.352.184-.352s.654-.151 1.107.419c.47.553 1.458-.084 1.71-.184 1.073-.37.369 1.777 1.056 2.8.402.636 1.123.435 1.308.703.939 1.375.117 1.593.117 1.593s.151.201.235.302c.084.084-.067.352-.067.352l.486-.419-.47.99s.185-.286.788-.772c.285-.201.235-.034.42-1.14.184-1.123-.755-1.19-.755-1.19l-.52.033v-.47s-.586.034-.888-.318c-.302-.352.15-1.458.486-1.978.319-.553.939-.352 1.509-.084.587.285 1.358.72 1.744 1.61.402.888.301 1.776.117 2.816-.184 1.073-.654 1.828-1.258 2.448-.603.603-1.793 1.023-2.665 1.19-.872.151-1.861 0-2.7-.285-.871-.285-1.609-.939-1.726-1.106-.151-.168-.37-.42-.37-.42l-.15.05s-.067.034-.117.051c-.05.034-.068.084-.068.084-.05.654.822 1.123 1.493 1.425 2.38 1.056 3.57.654 3.57.654s-.636.251-1.14.184c-.52-.05-1.676-.419-1.676-.419s.201.151.302.201c.117.067.486.319.553.37.067.033.52.2.788.25.721.084 1.476 0 3.102-.486 1.777-.52 3.169-1.978 3.37-2.18l-.956 1.057s-.604.436-1.073.755c-1.375.888-2.9 1.123-2.9 1.123l.938-.117c.42-.05 2.314-.906 2.314-.906l-.821.47s-.587.301-.839.402c-.251.084-.989.285-1.458.302-.47.033-.956-.034-.956-.034l-.402-.033s.285.251 1.106.352c.822.1.889.117 1.911-.067 1.023-.185 2.012-.654 2.582-1.274.587-.604.721-1.308.772-1.426.05-.15.067-.285.2-.419.118-.15.051-.067.185-.285.151-.2.034-.167-.033-.318-.05-.168-.034-.067.067-.302.084-.201.167-.252.302-.52.15-.251.033-.235.033-.436 0-.2.184-.251.252-.352.067-.067.871-.52.871-.52s-.167-.033-.251-.083c-.084-.05-.168-.067-.235-.118-.067-.067.151-.15.235-.251.067-.151.117-.185.15-.302.034-.15-.2-.201-.301-.352-.1-.15.05-.184.033-.52-.033-.318-.469-.905-.52-1.123-.066-.201-.703-1.14-.837-1.157-.151-.033-.956-.587-1.073-.637-.118-.05-.772-.637-1.073-.822-.319-.184-.671-.637-.94-.653-.25-.034-.72-.252-.72-.252s.033-.184.05-.369c.05-.184.034-.352.084-.553.067-.201.486-.352 1.006-.52.52-.184 2.531-.436 2.531-.436s.319.067.554.151c.234.084.788.42.788.42s-.05-.151-.05-.185c0-.067-.185-.352-.47-.637-.285-.285-.537-.251-.99-.319-.435-.083-1.106-.117-1.106-.117l-.352-.553s.151 0 .252-.034c.083-.033.52.034.704.034.167.033.436.201.436.201l-1.107.067 1.157.034.402.083s-.067-.167-.251-.318c-.185-.168-1.157-.553-1.509-.67-.369-.118-1.073-.202-1.073-.202l-1.14-.654s1.358-1.777 1.391-1.827c.05-.05.403-.118.52-.302.117-.184.168-.201.235-.436.067-.235.05-.15.419-.251.352-.118.302-.235.285-.353-.033-.117.15-.05.369-.067.235-.033.067-.117.117-.301.034-.185.252-.067.52-.151.252-.067.905.033 1.19-.252.302-.285.302-.302.554-.553.251-.251.184-.084.553-.184.369-.084.15-.05.486-.302.352-.252.084-.151.117-.319.034-.167.05-.184.084-.302.05-.117.151-.2.302-.402.168-.184.067-.251.067-.553.034-.302 0-.151.184-.319.185-.234-1.391-1.911-1.793-1.911l.117.05zm-6.354 10.546c-.151.067-.47.167-.654.302-.201.15 0 .184.084.486s-.42.52-.587.72c-.168.185-.168.403-.252.47-.083.067-.469.067-.653.084-.185.034.184.436.184.436l-.553.47s-.486.033-.67.066c-.185.034-1.275.068-1.275.068s.201-.37.352-.587c.67-1.073 1.006-1.107 1.056-1.342.302-1.743-2.33-2.129-1.86-3.202.184-.436.402-.654.402-.654s.15-.301.47-.402c.318-.084.82-.184 1.24-.15.419.066 1.509.15 2.246.167.721.033.872-.47.872-.47s-.235.235-.302.587c-.067.319-.419 1.19-.419 1.19l-.369 1.023 1.308.721s-.453-.084-.603 0" fill="#0E4F95"/><path d="M45.171.16c-.402 0-1.341-.169-1.459-.085-.15.084-1.156.034-1.224.151-.05.151.956.252.788.319-.167.067-1.726.083-1.944.15-.202.068 1.123.151 1.106.353-.033.184-.436.167-.486.234-.05.067.201.252.15.537-.066.251-.2.419-.468.402-.235-.033-1.023-.302-1.996-.754-.955-.47-1.894-.185-2.296-.118-.42.067-.956.202-1.543.252-.587.033-1.392.117-2.246.168-.839.05-2.364.72-2.867.955-.52.252-1.677 1.492-1.677 1.492s-.872.704-1.04 1.627c0 .05-.05 1.006.286 1.307.318.319.352.37.553.487.184.083-.235.285-.235.285l.838-.235s-.083.369-.117.654c-.034.285.117.2.15.234.034.05-.05.37.185.604.201.251.302-.067.47.168.084.117-.05.234-.185.301.319-.117.906-.318.889-.285-.05.067-.151.302-.168.604-.033.302.034.352.201.42.185.066.252-.152.37.05.117.184.67 1.274.553 1.34a6.606 6.606 0 00-1.224.94c-.486.52-1.274 1.609-1.677 2.263-.402.654-1.14 1.274-1.827 1.777-.704.47-.822.604-.822.604s-.52-1.023-.872-1.543c-.52-.771-.888-1.023-1.123-1.24-.436-.37-.872-.587-.872-.587s.201-.436.604-.654c.553-.302.905-.872 1.106-1.459.185-.587.587-1.123 1.057-1.945.486-.821 1.307-.955 1.458-.871.151.117.185 0 .352.435.168.436.302.487.302.37 0-.118.436.284.436.284s.117-.167-.084-.654c-.184-.486-.67-.871-.771-.989-.084-.117-.084-.167-.117-.318-.034-.151-.252-.403-.252-.403l-.604.637c-.301.302-1.106 1.308-1.106 1.308l-1.593 1.459 2.532-2.7-1.828 1.627s-1.358 1.106-1.24 1.19c.117.117.05.168-.252.369-.301.201-.033.201-.285.352-.251.151-.989-.235-.989-.235s.369.47.352.42c-.033-.034-.47-.084-.352-.05.117.05.168.301.168.301l-.201-.05s.083.302-.067.603c-.168.302-.604.42-.638.285-.033-.15-.871-.2-1.458-.15-.604.117-.822.117-1.425-.185-.604-.302-.872-.084-.94.034-.083.117-.754.469-.754.469l.034-.402s-1.274.653-1.274.838c0 .184-.42.704-.352.704.067 0 1.458-1.24 4.325-1.073 1.341.067 2.23.939 2.23.939s-.604 1.844-.352 2.8c.251.905-.168 2.129-1.006 2.464-.889.37-2.062-.637-2.029-.235.034.403.05.286.302.353.235.067.319.083.486.419a.424.424 0 01-.033.52c.033-.034.084-.068.285-.068.285-.033.352.235.352.235l-.117.486s.754 0 1.223-.15c.47-.151.772-.42.94-.705.167-.285.117-.654.167-.888.05-.235.235-.201.235-.201l-.671-.436s.252-.067.47-.168c.2-.084.469-.486.435-.755-.033-.285-.318-.25-.318-.25s.084-.169.084-.185c0-.034-.05-.084-.185-.252-.15-.167 0-.369 0-.369l.553-1.492s.89.771 1.258 1.911c.352 1.157.285 2.733-.185 3.857-.469 1.123-2.028 1.86-3.135 2.263-1.106.369-2.649.201-3.806-.252a3.792 3.792 0 01-1.71-1.391s-.167.033-.234.084c-.05.05-.151.117.05.47.184.368.905.82 1.492 1.122.587.302 2.817.637 2.817.637s-.235.168-.822.068c-.419-.067-1.475-.37-1.475-.37l.52.37.905.52s.637.066 1.911-.068c1.258-.15 2.448-.821 2.934-1.056.47-.235 1.794-1.358 1.777-1.358-.2.184-.553.654-.553.654s-.872.771-1.743 1.257c-.906.486-2.784.822-2.784.822s1.157-.118 1.492-.201c1.392-.37 1.862-.671 1.862-.671s-.52.47-.638.553c-.419.302-.905.47-1.66.587-.586.067-1.307-.034-1.307-.034s-.587-.067-.553-.05c.821.403 1.559.47 2.783.235 1.106-.201 1.593-.402 2.196-.838.604-.436 1.073-1.241 1.157-1.61.084-.369.352-.704.52-.888.167-.185.083-.185.033-.285-.05-.084-.05-.302-.05-.302l.15.184h.37l-.118-.52c-.05-.2 0-.234.067-.486.084-.251.151-.486.151-.486s.889-.553.939-.637c.067-.084-.486-.235-.486-.235s.15-.084.168-.15c.05-.05.15-.286.083-.47-.05-.184-.352-.235-.285-.42.067-.184.235-.117.235-.117s1.274-.368 1.962-.553c.67-.184.871-.251 1.274-.52.419-.285.553-.586.637-.653.067-.05.251-.235.302-.319.05-.117.234-.352.486-.402.251-.05.285-.235.285-.235l.72.302.085-.235s.251.05.436-.034c.167-.05.184-.352.184-.352s.654-.15 1.106.42c.47.553 1.46-.084 1.71-.185 1.074-.369.37 1.777 1.057 2.8.402.604 1.123.436 1.307.704.94 1.392.118 1.593.118 1.593s.15.201.235.302c.083.083-.068.352-.068.352l.487-.42-.47.99s.185-.285.788-.771c.285-.202.235-.034.42-1.14.184-1.124-.755-1.19-.755-1.19l-.52.033v-.47s-.587.034-.888-.302c-.302-.352.15-1.458.486-1.978.318-.553.939-.352 1.509-.067.587.285 1.358.72 1.743 1.61.403.888.302 1.777.118 2.816-.185 1.073-.654 1.828-1.258 2.448-.603.604-1.794 1.023-2.665 1.19-.872.151-1.845 0-2.7-.285-.871-.285-1.61-.939-1.727-1.106-.15-.168-.368-.42-.368-.42l-.151.05s-.067.034-.118.051a.185.185 0 00-.067.084c-.05.654.822 1.123 1.51 1.425 2.38 1.056 3.57.654 3.57.654s-.637.251-1.14.184c-.52-.05-1.676-.419-1.676-.419s.2.151.301.201c.118.067.487.319.554.37.067.033.52.2.788.25.72.085 1.475 0 3.101-.485 1.778-.52 3.169-1.979 3.37-2.18l-.955 1.056s-.604.436-1.073.755c-1.375.888-2.9 1.123-2.9 1.123l.938-.117c.42-.05 2.314-.906 2.314-.906l-.822.47s-.587.302-.838.402c-.252.084-.99.285-1.459.302a5.29 5.29 0 01-.955-.034l-.403-.033s.285.251 1.107.352c.821.1.888.117 1.911-.067 1.023-.201 2.012-.654 2.582-1.274.587-.604.72-1.308.771-1.425.05-.151.067-.285.201-.436.118-.151.05-.067.185-.285.15-.202.033-.168-.034-.319-.05-.168-.033-.067.067-.302.084-.2.168-.251.302-.52.151-.25.034-.234.034-.435 0-.201.184-.252.251-.352.067-.067.872-.52.872-.52s-.168-.034-.252-.084c-.083-.05-.167-.067-.234-.15-.067-.068.15-.152.234-.252.068-.151.118-.185.151-.302.034-.117-.2-.201-.301-.352-.084-.151.05-.185.033-.52-.033-.319-.47-.905-.553-1.123-.067-.201-.704-1.14-.839-1.157-.15-.034-.955-.587-1.073-.637-.117-.05-.77-.637-1.073-.822-.301-.184-.67-.637-.938-.653-.252-.034-.721-.252-.721-.252s.033-.184.05-.369c.05-.184.034-.352.084-.553.067-.201.486-.352 1.006-.52.52-.184 2.531-.436 2.531-.436s.302.067.537.151c.235.084.788.42.788.42s-.05-.152-.05-.185c0-.067-.185-.352-.47-.637-.285-.285-.536-.252-.956-.319-.419-.084-1.106-.117-1.106-.117l-.352-.553s.15 0 .251-.034c.084-.034.52.034.705.034.167.033.435.2.435.2l-1.106.068 1.157.033.52.034s-.068-.168-.252-.319c-.184-.167-1.157-.553-1.509-.67-.369-.118-1.073-.201-1.073-.201l-1.14-.638S40.879 7.15 40.913 7.1c.05-.05.402-.117.52-.302.117-.184.167-.201.234-.436.067-.234.05-.15.42-.251.351-.118.3-.235.284-.352-.033-.118.151-.05.369-.067.235-.034.067-.118.117-.302.034-.184.252-.067.52-.151.252-.067.905.034 1.19-.251.302-.285.302-.302.554-.554.251-.251.184-.084.553-.184.369-.084.15-.05.486-.302.352-.251.084-.15.118-.318.033-.185.05-.185.083-.302.05-.118.151-.201.302-.403.168-.184.067-.251.067-.553.034-.302 0-.15.185-.318.117-.202-1.476-1.895-1.861-1.895m-6.32 10.546c-.152.067-.47.167-.655.301-.201.118 0 .185.084.487.084.301-.42.52-.587.72-.167.185-.167.403-.251.47-.084.067-.47.067-.654.084-.184.033.184.436.184.436l-.553.47s-.486.033-.67.066c-.185.034-1.275.067-1.275.067s.201-.369.352-.586c.67-1.074 1.006-1.107 1.056-1.342.302-1.743-2.33-2.129-1.86-3.202.184-.436.402-.654.402-.654s.15-.302.47-.402c.318-.084.82-.185 1.24-.151.42.067 1.509.15 2.247.168.72.033.871-.47.871-.47s-.234.252-.301.587c-.067.335-.42 1.19-.42 1.19l-.352 1.023 1.308.72c-.084 0-.52-.05-.62 0" fill="#0E4F95"/><path d="M75.4.308c-.403 0-1.342-.167-1.46-.083-.15.083-1.156.033-1.223.15-.05.151.955.252.788.32-.168.066-1.744.083-1.945.15-.201.067 1.123.15 1.106.352-.033.184-.435.168-.486.235-.05.067.201.251.151.536-.067.252-.201.42-.47.403-.25-.034-1.022-.302-1.978-.755-.955-.47-1.894-.184-2.296-.117-.42.067-.956.201-1.543.251-.587.034-1.391.118-2.246.168-.839.05-2.364.72-2.867.956-.52.251-1.677 1.509-1.677 1.509s-.872.704-1.023 1.626c0 .05-.05 1.006.285 1.307.319.319.352.37.537.487.184.084-.235.285-.235.285l.838-.235s-.084.369-.117.654c-.034.285.117.201.15.235.034.05-.05.368.185.603.201.252.302-.067.47.168.084.117-.05.235-.185.302.319-.118.906-.319.889-.285-.05.067-.151.301-.168.603-.033.302.034.352.201.42.185.066.252-.152.37.05.117.184.67 1.274.553 1.34-.118.051-.721.42-1.224.94-.486.52-1.275 1.626-1.677 2.263-.402.654-1.14 1.274-1.86 1.777-.705.47-.822.604-.822.604s-.52-1.023-.872-1.543c-.52-.77-.889-1.022-1.123-1.24-.436-.37-.872-.587-.872-.587s.2-.436.603-.654c.554-.302.906-.872 1.107-1.459.184-.586.587-1.123 1.056-1.944.486-.822 1.308-.956 1.459-.872.15.117.184 0 .352.436.167.436.301.486.301.369 0-.118.436.285.436.285s.118-.168-.083-.654c-.185-.487-.671-.872-.772-.99-.084-.117-.084-.167-.117-.318 0-.184-.235-.42-.235-.42l-.603.638c-.302.302-1.107 1.308-1.107 1.308l-1.593 1.458 2.532-2.699-1.794 1.626s-1.358 1.107-1.24 1.19c.117.118.05.168-.252.37-.302.2-.033.2-.285.351-.252.151-.99-.234-.99-.234s.37.47.353.436c-.034-.034-.47-.084-.352-.05.117.05.168.301.168.301l-.202-.05s.084.302-.067.603c-.167.302-.603.42-.637.286-.033-.151-.872-.202-1.459-.151-.603.083-.821.083-1.425-.202-.603-.301-.871-.083-.938.034-.084.117-.755.47-.755.47l.034-.403s-1.274.654-1.274.838c0 .185-.42.704-.353.704s1.459-1.24 4.326-1.073c1.341.068 2.213.94 2.213.94s-.604 1.86-.352 2.8c.251.904-.168 2.128-1.006 2.464-.889.369-2.062-.637-2.029-.235.034.402.05.285.302.352.235.067.319.084.486.42a.423.423 0 01-.033.519c.033-.034.084-.067.285-.067.285-.034.352.235.352.235l-.084.486s.755 0 1.224-.151c.47-.151.771-.436.939-.704.167-.285.117-.654.167-.889s.235-.201.235-.201l-.67-.436s.251-.067.469-.168c.218-.083.47-.486.436-.754-.034-.285-.319-.251-.319-.251s.084-.168.084-.185c0-.034-.05-.084-.201-.251-.15-.168 0-.37 0-.37l.553-1.491s.889.77 1.258 1.91c.352 1.158.285 2.734-.185 3.857-.47 1.123-2.028 1.86-3.135 2.263-1.107.403-2.649.201-3.806-.251a3.8 3.8 0 01-1.71-1.392s-.167.034-.234.084c-.05.05-.151.117.05.47.184.368.905.821 1.492 1.123.587.302 2.816.637 2.816.637s-.234.168-.821.067c-.42-.067-1.475-.369-1.475-.369l.52.369.905.52s.637.067 1.911-.067c1.257-.151 2.448-.822 2.917-1.057.47-.234 1.794-1.358 1.777-1.358-.2.185-.553.637-.553.637s-.872.772-1.744 1.275c-.905.486-2.783.821-2.783.821s1.157-.117 1.51-.201c1.39-.369 1.86-.67 1.86-.67s-.52.469-.637.553c-.419.301-.905.47-1.66.587-.586.067-1.307-.034-1.307-.034s-.587-.067-.554-.05c.822.402 1.56.47 2.784.234 1.106-.2 1.592-.402 2.196-.838.603-.436 1.073-1.24 1.157-1.61.083-.368.352-.704.52-.888.167-.168.083-.184.033-.285-.05-.084-.05-.302-.05-.302l.15.185h.37l-.118-.52c-.05-.201 0-.235.067-.486.084-.252.15-.486.15-.486s.89-.554.94-.638c.067-.083-.486-.234-.486-.234s.15-.084.167-.151c.05-.05.151-.285.084-.47-.05-.184-.352-.234-.285-.419.067-.184.235-.117.235-.117s1.257-.369 1.945-.553c.67-.185.871-.252 1.274-.52.419-.285.553-.587.637-.654.067-.05.251-.235.302-.319.05-.117.234-.352.486-.402.251-.05.285-.235.285-.235l.72.302.085-.235s.251.05.419-.033c.167-.05.184-.352.184-.352s.654-.151 1.107.436c.47.553 1.458-.084 1.71-.185 1.073-.369.369 1.777 1.056 2.8.402.604 1.123.436 1.308.704.939 1.375.117 1.593.117 1.593s.151.201.235.302c.084.084-.067.352-.067.352l.486-.42-.47.99s.185-.285.788-.771c.285-.201.235-.034.436-1.14.185-1.124-.754-1.19-.754-1.19l-.52.033v-.47s-.587.034-.888-.301c-.302-.353.15-1.459.486-1.979.318-.553.939-.352 1.509-.067.587.285 1.358.721 1.743 1.61.403.888.302 1.777.118 2.816a4.45 4.45 0 01-1.258 2.465c-.603.603-1.794 1.023-2.665 1.19-.872.151-1.845 0-2.7-.285-.871-.285-1.61-.939-1.743-1.106-.151-.168-.37-.42-.37-.42l-.15.05s-.067.034-.117.051c-.05.034-.068.084-.068.084-.05.654.822 1.123 1.51 1.425 2.38 1.056 3.57.654 3.57.654s-.637.251-1.14.184c-.52-.05-1.676-.436-1.676-.436s.201.151.302.202c.117.067.486.318.553.368.067.034.52.202.788.252.72.084 1.475 0 3.102-.486 1.777-.52 3.168-1.979 3.37-2.18l-.956 1.056s-.604.436-1.073.755c-1.375.888-2.9 1.123-2.9 1.123l.938-.117c.42-.05 2.314-.905 2.314-.905l-.822.469s-.586.302-.838.402c-.251.084-.99.285-1.459.302-.469.034-.955-.034-.955-.034l-.403-.033s.285.252 1.107.352c.822.084.889.117 1.911-.067 1.023-.184 2.012-.654 2.582-1.257.587-.604.721-1.308.771-1.425.05-.151.067-.285.202-.42.134-.15.05-.067.184-.285.15-.2.034-.167-.033-.318-.05-.168-.034-.067.067-.302.083-.201.167-.252.301-.52.151-.251.034-.234.034-.436 0-.2.201-.251.251-.352.067-.084.872-.52.872-.52s-.168-.033-.251-.083c-.084-.05-.168-.067-.235-.151-.067-.067.15-.151.235-.252.067-.15.117-.2.15-.301.034-.118-.2-.202-.301-.353-.084-.15.05-.184.033-.52-.033-.318-.47-.905-.52-1.122-.067-.202-.704-1.14-.838-1.157-.15-.034-.955-.587-1.073-.637-.117-.05-.77-.637-1.073-.822-.301-.184-.67-.637-.939-.654-.251-.033-.72-.251-.72-.251s.033-.185.05-.37c.05-.184.033-.351.084-.552.067-.202.486-.353 1.005-.52.52-.185 2.532-.436 2.532-.436s.302.067.537.15c.234.085.788.437.788.437s-.05-.151-.05-.185c0-.067-.185-.352-.47-.637-.285-.285-.553-.251-.956-.318a10.088 10.088 0 00-1.106-.118l-.352-.553s.15 0 .251-.034c.084-.033.52.034.67.034.168.034.437.201.437.201l-1.107.067 1.157.034.52.033s-.067-.167-.252-.318c-.184-.168-1.157-.553-1.509-.67-.368-.118-1.073-.202-1.073-.202l-1.14-.654S71.107 7.35 71.141 7.3c.05-.05.402-.118.52-.302.117-.184.167-.201.234-.436s.05-.15.42-.251c.352-.118.301-.235.284-.353-.033-.117.151-.05.37-.067.234-.033.066-.117.117-.301.033-.185.251-.067.52-.151.25-.067.905.033 1.19-.252.301-.285.301-.302.553-.553.251-.251.184-.084.553-.184.352-.084.151-.05.486-.302.352-.252.084-.151.118-.319.033-.167.05-.184.084-.302.05-.117.15-.2.301-.402.168-.184.067-.251.067-.553.034-.302 0-.151.185-.319.067-.184-1.509-1.86-1.895-1.86M68.894 10.92c-.15.067-.47.168-.654.302-.2.117 0 .184.084.486s-.436.52-.587.721c-.167.184-.167.402-.251.47-.084.066-.47.066-.654.083-.184.034.184.436.184.436l-.553.47s-.486.033-.67.067c-.185.033-1.275.067-1.275.067s.202-.37.37-.587c.67-1.073 1.005-1.107 1.055-1.341.302-1.744-2.33-2.13-1.86-3.203.184-.435.402-.653.402-.653s.15-.302.47-.403c.318-.084.82-.184 1.24-.15.42.066 1.509.15 2.247.167.72.034.838-.47.838-.47s-.235.235-.302.587c-.067.319-.42 1.19-.42 1.19l-.351 1.023 1.308.721s-.47-.067-.604 0" fill="#fff"/><path d="M65.76.276c-.403 0-1.342-.167-1.46-.084-.15.084-1.156.034-1.223.151-.05.151.955.252.788.319-.168.067-1.727.084-1.945.15-.235.051 1.106.152 1.106.353-.033.184-.436.167-.486.235-.05.067.201.251.151.536-.067.252-.201.42-.47.402-.234-.033-1.022-.301-1.978-.754-.955-.47-1.894-.184-2.297-.117-.419.067-.955.2-1.542.251-.587.034-1.392.117-2.247.168-.838.05-2.364.72-2.867.955-.52.252-1.676 1.493-1.676 1.493s-.872.704-1.023 1.626c0 .05-.05 1.006.285 1.308.319.318.352.368.537.486.184.084-.235.285-.235.285l.838-.235s-.084.369-.117.654c-.034.285.117.201.15.235.034.05-.05.368.185.603.201.252.302-.067.47.168.083.117-.05.235-.185.302.319-.118.906-.319.889-.285-.05.067-.151.301-.168.603-.034.302.034.352.201.42.185.066.252-.152.37.05.117.184.67 1.274.552 1.34-.117.051-.72.42-1.224.94-.486.52-1.274 1.626-1.676 2.263-.402.654-1.14 1.274-1.861 1.777-.704.47-.822.604-.822.604s-.52-1.023-.871-1.543c-.52-.77-.889-1.022-1.124-1.24-.436-.37-.871-.587-.871-.587s.2-.436.603-.654c.553-.302.905-.872 1.107-1.459.184-.586.586-1.123 1.056-1.944.486-.822 1.308-.956 1.458-.872.151.117.185 0 .352.436.168.436.302.486.302.369 0-.118.436.284.436.284s.118-.167-.067-.653c-.184-.487-.67-.872-.771-.99-.084-.117-.084-.167-.117-.318-.034-.15-.252-.402-.252-.402l-.604.637c-.301.301-1.106 1.307-1.106 1.307l-1.593 1.459 2.532-2.7-1.81 1.627s-1.359 1.107-1.241 1.19c.117.118.05.168-.252.37-.302.2-.034.2-.285.351-.251.151-.99-.234-.99-.234s.37.469.353.419c-.034-.034-.47-.084-.352-.05.117.05.167.301.167.301l-.2-.05s.083.302-.068.604c-.167.301-.603.435-.637.285-.033-.151-.872-.202-1.458-.151-.604.083-.822.083-1.425-.202-.604-.301-.872-.083-.94.034-.083.117-.754.47-.754.47l.034-.403s-1.275.637-1.275.838c0 .202-.419.704-.352.704.068 0 1.459-1.24 4.326-1.073 1.341.068 2.213.94 2.213.94s-.604 1.844-.352 2.8c.251.904-.168 2.128-1.006 2.464-.889.369-2.062-.637-2.029-.235.034.402.05.285.302.352.235.067.319.084.486.42a.423.423 0 01-.033.519c.033-.034.084-.067.285-.067.285-.034.352.235.352.235l-.084.486s.755 0 1.224-.151c.47-.151.771-.42.939-.704.168-.285.117-.654.168-.889.05-.235.234-.201.234-.201l-.67-.436s.251-.067.469-.168c.201-.117.47-.486.436-.754-.034-.285-.319-.252-.319-.252s.084-.167.084-.184c0-.017-.05-.084-.184-.285-.151-.168 0-.369 0-.369l.553-1.492s.889.771 1.258 1.911c.352 1.157.285 2.733-.185 3.856-.47 1.124-2.029 1.861-3.135 2.264-1.107.369-2.65.201-3.806-.252-1.157-.47-1.71-1.391-1.71-1.391s-.168.033-.235.084c-.05.05-.15.117.05.469.185.369.906.822 1.51 1.123.586.302 2.816.637 2.816.637s-.235.168-.821.068c-.436-.068-1.476-.37-1.476-.37l.52.37.905.52s.637.066 1.912-.068c1.257-.15 2.447-.821 2.917-1.056.47-.235 1.794-1.358 1.777-1.358-.201.184-.553.654-.553.654s-.872.771-1.744 1.274c-.905.486-2.783.821-2.783.821s1.157-.117 1.509-.2c1.391-.37 1.86-.671 1.86-.671s-.519.47-.636.553c-.436.302-.906.47-1.66.587-.587.067-1.308-.034-1.308-.034s-.587-.067-.553-.05c.822.402 1.56.47 2.783.235 1.107-.202 1.593-.403 2.196-.839.604-.436 1.073-1.24 1.157-1.61.084-.385.352-.703.52-.888.168-.184.084-.184.034-.285-.05-.084-.05-.302-.05-.302l.15.185h.369l-.117-.52c-.05-.201 0-.235.067-.486.083-.252.15-.486.15-.486s.89-.537.94-.637c.066-.084-.487-.235-.487-.235s.151-.084.168-.151c.05-.05.15-.285.084-.47-.05-.184-.352-.234-.285-.435.067-.185.234-.118.234-.118s1.258-.369 1.962-.553c.67-.184.872-.251 1.274-.52.42-.285.553-.587.637-.653a1.78 1.78 0 00.302-.32c.05-.116.235-.351.486-.402.252-.05.285-.234.285-.234l.721.302.084-.235s.251.05.42-.034c.167-.05.184-.352.184-.352s.653-.15 1.106.42c.47.553 1.459-.084 1.71-.185 1.073-.369.369 1.777 1.056 2.8.403.603 1.124.436 1.308.704.939 1.375.117 1.593.117 1.593s.151.2.235.302c.084.083-.067.352-.067.352l.486-.42-.47.99s.185-.285.789-.772c.285-.2.235-.033.419-1.14.184-1.123-.755-1.19-.755-1.19l-.52.034v-.47s-.586.034-.888-.302c-.302-.352.151-1.458.486-1.978.319-.553.94-.352 1.51-.067.586.285 1.357.72 1.743 1.61.402.888.302 1.777.117 2.816-.184 1.073-.637 1.828-1.257 2.448-.604.603-1.794 1.023-2.666 1.19-.872.151-1.86 0-2.7-.285-.87-.285-1.592-.939-1.743-1.106-.15-.168-.385-.47-.385-.47l-.151.05s-.067.034-.118.05a.185.185 0 00-.067.085c-.05.653.822 1.123 1.51 1.458 2.38 1.056 3.57.654 3.57.654s-.637.252-1.14.184c-.503-.033-1.676-.419-1.676-.419s.184.151.302.202c.117.067.486.318.553.368.067.034.52.202.788.252.72.084 1.475 0 3.101-.486 1.778-.52 3.17-1.979 3.37-2.18l-.955 1.056s-.604.436-1.073.755c-1.375.888-2.9 1.123-2.9 1.123l.938-.117c.42-.05 2.314-.906 2.314-.906l-.822.47s-.587.302-.838.436c-.252.084-.99.285-1.459.302-.47.033-.955-.034-.955-.034l-.403-.034s.285.252 1.107.352c.821.101.888.118 1.894-.066 1.023-.185 2.012-.654 2.582-1.258.587-.604.721-1.308.771-1.425.05-.15.068-.285.202-.42.117-.15.05-.066.184-.284.15-.201.034-.168-.034-.319-.05-.167-.033-.084.068-.302.083-.2.167-.251.301-.52.151-.25.034-.234.034-.435 0-.201.184-.252.251-.352.067-.067.872-.52.872-.52s-.168-.034-.251-.084c-.084-.05-.168-.067-.235-.117-.067-.067.15-.151.235-.252.067-.15.117-.2.15-.301.034-.118-.2-.202-.301-.352-.084-.151.05-.185.033-.52-.033-.319-.47-.906-.52-1.123-.066-.202-.703-1.14-.838-1.157-.15-.034-.955-.587-1.073-.637-.117-.05-.77-.638-1.073-.822-.301-.184-.67-.637-.938-.654-.252-.033-.721-.251-.721-.251s.033-.185.05-.37c.05-.184.033-.351.084-.552.067-.202.486-.352 1.006-.52.52-.184 2.531-.436 2.531-.436s.302.067.537.15c.234.085.788.437.788.437s-.05-.151-.05-.185c0-.067-.185-.352-.47-.637-.285-.285-.537-.251-.956-.318-.419-.084-1.106-.118-1.106-.118l-.352-.553s.15 0 .251-.033c.084-.034.52.033.67.033.169.034.437.201.437.201l-1.107.067 1.157.034.52.033s-.067-.167-.252-.318c-.184-.168-1.157-.553-1.509-.67-.368-.118-1.073-.202-1.073-.202l-1.14-.654s1.358-1.777 1.392-1.827c.05-.05.402-.118.52-.302.117-.184.167-.201.234-.436s.05-.15.42-.251c.352-.118.301-.235.285-.353-.034-.117.15-.05.368-.067.235-.033.067-.117.118-.301.033-.185.251-.067.52-.151.25-.067.905.033 1.19-.252.302-.285.302-.302.553-.553.252-.251.184-.084.553-.184.37-.101.151-.05.486-.302.336-.268.084-.151.118-.319.033-.184.05-.184.084-.302.05-.117.15-.2.301-.402.168-.184.068-.251.068-.553.033-.302 0-.151.2-.319.085-.218-1.491-1.911-1.877-1.911m-6.354 10.546c-.151.067-.47.167-.654.318-.201.117 0 .184.084.486s-.436.52-.587.721c-.168.185-.168.403-.252.47-.083.067-.469.067-.653.084-.185.033.184.419.184.419l-.553.47s-.486.033-.67.066c-.185.034-1.275.067-1.275.067s.201-.369.352-.587c.67-1.073 1.006-1.106 1.056-1.34.302-1.745-2.33-2.13-1.86-3.203.184-.436.402-.654.402-.654s.15-.302.47-.402c.318-.084.82-.185 1.24-.151.419.067 1.509.15 2.246.167.721.034.872-.469.872-.469s-.235.252-.302.587c-.067.318-.419 1.19-.419 1.19l-.369 1.023 1.308.72s-.486-.083-.603 0" fill="#fff"/><path d="M55.415.16c-.402 0-1.341-.169-1.459-.085-.15.084-1.157.034-1.224.151-.05.151.956.252.788.319-.167.067-1.727.083-1.945.15-.2.05 1.124.151 1.107.353-.034.184-.436.167-.486.234-.05.084.201.252.15.537-.066.251-.2.419-.469.402-.251-.033-1.022-.302-1.978-.754-.956-.47-1.895-.185-2.297-.118-.419.067-.955.202-1.542.252-.587.033-1.392.117-2.247.168-.838.05-2.364.72-2.867.955-.52.252-1.676 1.492-1.676 1.492s-.872.704-1.023 1.627c0 .05-.05 1.006.285 1.307.318.319.352.37.536.487.185.083-.234.285-.234.285l.838-.235s-.084.369-.117.654c-.034.285.117.2.15.234.034.05-.05.37.185.604.201.251.302-.067.47.168.083.117-.05.234-.185.301.319-.117.905-.318.889-.285-.05.067-.151.302-.168.604-.034.302.033.352.201.42.184.066.252-.152.369.05.117.184.67 1.274.553 1.34-.117.05-.72.437-1.224.94-.486.52-1.274 1.609-1.676 2.263-.403.654-1.14 1.274-1.861 1.777-.704.47-.822.604-.822.604s-.52-1.023-.872-1.543c-.52-.771-.888-1.023-1.123-1.24-.436-.37-.872-.587-.872-.587s.201-.436.604-.654c.553-.302.905-.872 1.106-1.459.185-.587.587-1.123 1.057-1.945.486-.821 1.307-.955 1.458-.871.151.117.185 0 .352.435.168.436.302.487.302.37 0-.118.436.284.436.284s.117-.167-.084-.654c-.184-.486-.67-.871-.771-.989-.084-.117-.084-.167-.117-.318-.034-.151-.252-.403-.252-.403l-.603.637c-.302.302-1.107 1.308-1.107 1.308l-1.593 1.459 2.532-2.7-1.794 1.627s-1.358 1.106-1.24 1.19c.117.117.05.168-.252.369-.302.201-.034.201-.285.352-.252.151-.99-.235-.99-.235s.37.47.353.42c-.034-.034-.47-.084-.352-.05.117.05.167.301.167.301l-.2-.05s.083.302-.068.603c-.168.302-.604.42-.637.285-.034-.15-.872-.2-1.459-.15-.603.083-.821.083-1.425-.202-.603-.302-.872-.084-.939.034-.083.117-.754.47-.754.47l.034-.403s-1.275.654-1.275.838c0 .201-.419.704-.352.704s1.459-1.24 4.326-1.073c1.341.067 2.213.94 2.213.94s-.604 1.843-.352 2.816c.251.905-.168 2.129-1.006 2.464-.889.37-2.062-.637-2.029-.235.034.403.05.286.302.353.235.067.319.083.486.435a.424.424 0 01-.033.52c.033-.033.083-.067.285-.067.285-.033.352.235.352.235l-.084.486s.754 0 1.224-.15a1.71 1.71 0 00.939-.705c.167-.285.117-.654.167-.889.05-.234.235-.2.235-.2l-.67-.437s.25-.067.469-.167c.218-.084.47-.486.436-.755-.034-.285-.319-.251-.319-.251s.084-.168.084-.185c0-.033-.05-.083-.184-.251-.151-.168 0-.369 0-.369l.553-1.492s.888.771 1.257 1.911c.352 1.157.285 2.733-.184 3.856-.47 1.124-2.029 1.861-3.135 2.264-1.107.402-2.65.2-3.806-.252a3.793 3.793 0 01-1.71-1.391s-.168.033-.235.084c-.05.05-.15.117.05.469.185.369.906.821 1.51 1.123.586.302 2.816.637 2.816.637s-.235.168-.822.067c-.436-.067-1.475-.369-1.475-.369l.52.37.905.52s.637.066 1.911-.068c1.258-.15 2.448-.822 2.918-1.056.469-.235 1.794-1.358 1.777-1.358-.202.184-.553.654-.553.654s-.872.77-1.744 1.257c-.905.486-2.783.822-2.783.822s1.157-.118 1.509-.202c1.391-.368 1.86-.67 1.86-.67s-.52.47-.637.553c-.435.302-.905.47-1.66.587-.586.067-1.307-.034-1.307-.034s-.587-.067-.553-.05c.821.402 1.559.47 2.783.235 1.106-.201 1.593-.403 2.196-.839.604-.435 1.073-1.24 1.157-1.626.084-.369.352-.704.52-.872.167-.184.084-.184.033-.285-.05-.084-.05-.302-.05-.302l.15.185h.37s-.067-.302-.118-.52c-.05-.218 0-.235.067-.486.084-.252.151-.486.151-.486s.889-.553.94-.637c.066-.084-.487-.235-.487-.235s.15-.084.168-.15c.05-.051.15-.286.083-.47-.05-.185-.352-.235-.285-.42.068-.184.202-.117.202-.117s1.257-.369 1.961-.553c.67-.185.872-.252 1.274-.52.42-.285.554-.587.637-.654a1.8 1.8 0 00.302-.318c.05-.118.235-.352.486-.403.252-.05.285-.234.285-.234l.721.301.084-.2s.252.05.42-.034c.167-.05.184-.352.184-.352s.654-.151 1.106.436c.47.553 1.459-.084 1.71-.185 1.073-.369.37 1.777 1.057 2.8.402.604 1.123.42 1.307.704.94 1.375.118 1.593.118 1.593s.15.201.234.302c.068.084-.067.352-.067.352l.486-.436-.469.989s.184-.285.788-.771c.285-.201.235-.034.42-1.14.184-1.123-.755-1.19-.755-1.19l-.52.033v-.537s-.587.034-.889-.301c-.301-.352.151-1.459.487-1.979.318-.553.938-.352 1.509-.067.57.285 1.358.721 1.743 1.61.403.888.302 1.777.118 2.816-.185 1.073-.654 1.828-1.258 2.465-.603.604-1.794 1.023-2.666 1.19-.871.151-1.86 0-2.699-.285-.872-.285-1.61-.939-1.727-1.106-.15-.168-.369-.436-.369-.436l-.15.05s-.067.034-.118.05a.185.185 0 00-.067.084c-.05.654.822 1.123 1.492 1.425 2.381 1.056 3.571.654 3.571.654s-.637.252-1.14.185c-.52-.05-1.676-.42-1.676-.42s.2.151.301.202c.118.067.487.318.554.369.067.033.52.2.788.251.72.084 1.475 0 3.101-.486 1.777-.52 3.17-1.979 3.37-2.18l-.955 1.056s-.604.436-1.073.755c-1.375.889-2.9 1.123-2.9 1.123l.938-.117c.42-.05 2.314-.905 2.314-.905l-.822.469s-.587.302-.838.402c-.252.084-.99.285-1.459.302-.47.034-.955-.033-.955-.033l-.403-.034s.285.252 1.107.352c.821.084.888.117 1.911-.067 1.023-.184 2.012-.654 2.582-1.257.587-.604.72-1.308.771-1.425.05-.151.067-.285.185-.42.15-.15.05-.067.184-.285.151-.2.034-.167-.034-.318-.05-.168-.033-.067.068-.302.083-.201.167-.251.301-.52.151-.251.034-.234.034-.436 0-.2.184-.251.251-.352.068-.067.872-.52.872-.52s-.167-.033-.251-.083c-.084-.05-.168-.067-.235-.118-.067-.067.15-.15.235-.251.067-.15.117-.184.15-.302.034-.117-.2-.201-.301-.352-.1-.15.05-.184.033-.52-.033-.318-.47-.905-.536-1.123-.067-.201-.704-1.14-.838-1.157-.151-.033-.956-.587-1.073-.637-.118-.05-.772-.637-1.073-.821-.302-.185-.671-.637-.94-.654-.25-.034-.72-.252-.72-.252s.033-.184.05-.368c.05-.185.034-.353.084-.554.067-.201.486-.352 1.006-.52.52-.184 2.532-.436 2.532-.436s.301.068.536.151c.235.084.788.436.788.436s-.05-.15-.05-.184c0-.067-.185-.352-.47-.637-.285-.285-.536-.252-.955-.319-.42-.084-1.107-.117-1.107-.117l-.352-.553s.15 0 .251-.034c.084-.033.52.034.671.034.168.033.436.2.436.2l-1.123.034 1.157.034.52.033s-.068-.167-.252-.318c-.185-.168-1.157-.553-1.51-.67-.368-.118-1.072-.202-1.072-.202l-1.14-.654s1.358-1.777 1.391-1.827c.05-.05.403-.118.52-.302.151-.184.168-.201.235-.436.067-.235.05-.15.419-.251.352-.118.302-.235.285-.352-.034-.118.15-.05.369-.068.234-.033.067-.117.117-.301.034-.185.252-.067.52-.151.251-.067.905.033 1.19-.252.302-.285.302-.301.553-.553.252-.251.185-.084.554-.184.369-.101.15-.05.486-.302.335-.268.084-.151.117-.319.034-.184.05-.184.084-.301.05-.118.151-.185.302-.403.168-.201.067-.251.067-.553.034-.302 0-.151.184-.319.168-.167-1.408-1.844-1.81-1.844m-6.354 10.546c-.151.067-.47.167-.654.301-.202.118 0 .185.083.487.084.301-.435.52-.586.72-.168.185-.168.403-.252.47-.084.067-.47.067-.654.084-.184.033.185.436.185.436l-.553.47s-.487.033-.671.066c-.184.034-1.274.067-1.274.067s.2-.368.352-.586c.67-1.074 1.006-1.107 1.056-1.342.302-1.743-2.347-2.129-1.86-3.202.184-.436.402-.654.402-.654s.15-.302.469-.402c.318-.084.821-.185 1.24-.151.42.067 1.51.15 2.247.168.721.033.838-.47.838-.47s-.234.252-.301.587c-.067.318-.42 1.19-.42 1.19l-.368 1.023 1.307.72s-.419-.05-.57 0" fill="#fff"/><path d="M45.69.207c-.402 0-1.34-.168-1.458-.084-.15.084-1.157.034-1.224.151-.05.15.956.251.788.319-.167.067-1.727.083-1.945.15-.2.05 1.124.151 1.107.352-.034.185-.436.168-.486.235-.05.067.2.252.15.553-.066.252-.2.42-.469.403-.235-.034-1.023-.302-1.978-.755-.956-.469-1.895-.184-2.297-.117-.42.067-.956.201-1.542.252-.587.033-1.392.117-2.247.167-.838.05-2.364.721-2.867.956-.52.251-1.677 1.509-1.677 1.509s-.871.704-1.022 1.626c0 .05-.05 1.006.285 1.308.318.318.352.369.536.486.185.084-.235.285-.235.285l.839-.235s-.084.369-.118.654c-.033.285.118.201.151.235.034.05-.05.369.185.603.2.252.302-.067.47.168.083.117-.051.235-.185.302.318-.118.905-.319.888-.285-.05.067-.15.302-.167.603-.034.302.033.352.2.42.185.066.252-.151.37.05.117.184.67 1.274.553 1.341-.117.05-.721.42-1.224.939-.486.52-1.274 1.626-1.677 2.263-.402.637-1.14 1.274-1.86 1.777-.705.47-.822.604-.822.604s-.52-1.023-.872-1.543c-.52-.77-.888-1.022-1.123-1.24-.436-.369-.872-.587-.872-.587s.201-.436.604-.654c.553-.302.905-.872 1.106-1.458.185-.587.587-1.124 1.056-1.945.487-.822 1.308-.956 1.459-.872.15.117.184 0 .352.436.168.436.302.486.302.369 0-.118.436.285.436.285s.117-.168-.084-.654c-.184-.486-.67-.872-.771-.99-.084-.117-.084-.167-.118-.318-.033-.15-.234-.402-.234-.402l-.604.637c-.302.302-1.106 1.308-1.106 1.308l-1.593 1.458 2.531-2.7-1.794 1.627s-1.358 1.107-1.24 1.19c.117.118.05.168-.252.37-.301.2-.033.2-.285.351-.251.151-.989-.234-.989-.234s.369.47.352.436c-.033-.034-.47-.084-.352-.05.118.05.168.301.168.301l-.201-.05s.084.302-.067.603c-.168.302-.604.42-.637.285-.034-.15-.839-.2-1.46-.15-.603.083-.82.083-1.424-.202-.604-.301-.872-.083-.939.034-.084.117-.755.47-.755.47l.034-.403s-1.274.654-1.274.838c0 .185-.436.704-.352.704.084 0 1.458-1.24 4.325-1.073 1.341.067 2.213.94 2.213.94s-.603 1.844-.352 2.8c.252.904-.167 2.128-1.006 2.464-.888.369-2.062-.637-2.028-.235.033.402.05.285.302.352.234.067.318.084.486.436a.423.423 0 01-.034.52c.034-.034.084-.067.285-.067.285-.034.352.234.352.234l-.084.486s.755 0 1.224-.15c.47-.151.772-.436.94-.704.167-.286.116-.654.167-.89.05-.234.235-.2.235-.2l-.671-.436s.251-.067.47-.168c.2-.117.469-.486.435-.754-.05-.235-.352-.201-.352-.201s.084-.168.084-.185c0-.034-.05-.084-.184-.285-.151-.168 0-.369 0-.369l.553-1.492s.888.771 1.257 1.911c.352 1.157.285 2.733-.184 3.856-.47 1.124-2.029 1.861-3.135 2.264-1.107.402-2.65.201-3.806-.252a3.68 3.68 0 01-1.71-1.391s-.168.033-.235.084c-.05.05-.15.117.05.469.185.369.906.822 1.492 1.123.587.285 2.817.637 2.817.637s-.235.168-.821.067c-.42-.067-1.476-.368-1.476-.368l.52.369.905.52s.637.066 1.912-.068c1.257-.15 2.464-.821 2.934-1.056.469-.235 1.793-1.358 1.777-1.358-.201.184-.553.654-.553.654s-.872.771-1.744 1.257c-.905.486-2.783.822-2.783.822s1.157-.118 1.492-.201c1.391-.37 1.86-.671 1.86-.671s-.519.47-.636.553c-.42.302-.905.47-1.66.587-.587.067-1.308-.034-1.308-.034s-.587-.067-.553-.05c.822.402 1.56.47 2.783.235 1.107-.201 1.593-.402 2.196-.838.604-.436 1.073-1.241 1.157-1.627.084-.369.352-.704.52-.888.168-.185.084-.185.034-.285-.05-.084-.05-.302-.05-.302l.15.184h.369l-.117-.52c-.05-.2 0-.234.067-.486.084-.251.15-.486.15-.486s.89-.536.94-.637c.067-.084-.487-.235-.487-.235s.151-.083.168-.15c.05-.05.15-.285.084-.47-.05-.184-.352-.235-.285-.42.067-.183.234-.116.234-.116s1.258-.37 1.962-.554c.67-.184.872-.251 1.274-.52.42-.284.553-.586.637-.653.067-.05.252-.235.302-.319.05-.117.235-.352.486-.402.252-.05.285-.235.285-.235l.721.302.084-.235s.252.05.42-.033c.167-.05.184-.353.184-.353s.653-.15 1.106.42c.47.553 1.459-.084 1.71-.185 1.073-.369.369 1.777 1.056 2.8.403.637 1.124.42 1.308.704.939 1.375.117 1.593.117 1.593s.151.201.235.302c.084.084-.067.352-.067.352l.486-.42-.47.99s.185-.285.789-.771c.285-.201.235-.034.419-1.14.184-1.124-.754-1.19-.754-1.19l-.52.033v-.47s-.587.034-.889-.301c-.302-.352.151-1.459.486-1.979.319-.553.94-.352 1.51-.067.586.285 1.357.721 1.743 1.626.402.872.302 1.778.117 2.817-.184 1.073-.654 1.827-1.257 2.465-.604.603-1.794 1.022-2.666 1.19-.872.15-1.844 0-2.7-.285-.87-.285-1.609-.939-1.726-1.107a15.02 15.02 0 01-.369-.436l-.15.05s-.068.034-.118.051a.185.185 0 00-.067.084c-.05.654.821 1.123 1.509 1.459 2.38 1.056 3.57.653 3.57.653s-.636.252-1.14.185c-.519-.05-1.676-.42-1.676-.42s.185.152.302.202c.117.067.486.318.553.369a4.9 4.9 0 00.788.251c.721.084 1.476 0 3.102-.486 1.777-.52 3.169-1.978 3.37-2.18l-.956 1.057s-.603.436-1.073.754c-1.375.889-2.9 1.123-2.9 1.123l.939-.117c.419-.05 2.313-.905 2.313-.905l-.821.47s-.587.3-.839.401c-.251.084-.989.285-1.458.302-.47.034-.956-.033-.956-.033l-.402-.034s.285.252 1.106.352c.822.084.889.118 1.912-.067 1.006-.184 2.011-.654 2.582-1.257.586-.604.72-1.308.77-1.425.051-.151.068-.285.202-.436.134-.151.05-.067.184-.285.151-.201.034-.168-.033-.319-.05-.167-.034-.067.067-.302.084-.2.168-.251.302-.52.15-.25.033-.234.033-.435 0-.201.185-.252.252-.352.067-.067.871-.52.871-.52s-.167-.034-.251-.084c-.084-.05-.168-.067-.235-.15-.067-.084.151-.151.235-.252.067-.151.117-.185.15-.302.035-.117-.2-.201-.3-.352-.085-.15.05-.184.033-.52-.034-.318-.47-.905-.52-1.123-.067-.201-.704-1.14-.838-1.157-.151-.033-.956-.587-1.073-.637-.118-.05-.771-.637-1.073-.821-.302-.185-.671-.637-.94-.654-.25-.034-.72-.252-.72-.252s.033-.184.05-.369c.05-.184.034-.352.084-.553.067-.201.486-.352 1.006-.52.52-.184 2.532-.435 2.532-.435s.301.066.553.15c.234.084.788.436.788.436s-.05-.15-.05-.184c0-.067-.185-.352-.47-.637-.285-.285-.553-.252-.956-.319-.435-.084-1.106-.117-1.106-.117l-.352-.553s.15 0 .234-.034c.084-.034.52.034.705.034.167.033.436.2.436.2l-1.107.068 1.157.033.52.034s-.067-.168-.252-.319c-.184-.167-1.157-.553-1.509-.67-.369-.118-1.073-.201-1.073-.201l-1.14-.654s1.358-1.777 1.392-1.828c.05-.05.402-.117.52-.302.117-.184.167-.2.234-.435s.05-.151.42-.252c.351-.117.301-.235.284-.352-.033-.117.151-.05.37-.067.234-.034.066-.117.117-.302.033-.184.251-.067.52-.15.25-.068.905.033 1.19-.252.301-.285.301-.302.553-.553.251-.252.184-.084.553-.185.369-.084.151-.05.486-.302.336-.268.084-.15.118-.318.033-.185.05-.185.083-.302.034-.117.151-.201.302-.402.168-.202.067-.252.067-.554.034-.301 0-.15.202-.318.067-.235-1.51-1.928-1.912-1.928M39.22 10.87c-.15.067-.47.168-.654.318-.2.118 0 .185.084.487.084.301-.436.52-.587.72-.167.185-.167.403-.251.47-.084.067-.47.067-.654.084-.184.033.184.419.184.419l-.553.47s-.486.033-.67.066c-.185.034-1.275.068-1.275.068s.201-.37.37-.587c.67-1.073 1.005-1.107 1.055-1.342.302-1.743-2.33-2.129-1.86-3.202.184-.436.402-.654.402-.654s.15-.301.47-.402c.318-.084.82-.184 1.24-.15.436.066 1.509.15 2.246.167.721.033.839-.47.839-.47s-.235.235-.302.587c-.067.319-.42 1.19-.42 1.19l-.368 1.023 1.308.721s-.453-.084-.587 0" fill="#fff"/><path d="M65.625.325c-.402 0-1.341-.168-1.459-.084-.15.084-1.156.034-1.224.151-.05.151.956.252.788.319-.167.067-1.743.084-1.944.15-.202.068 1.123.151 1.106.353-.033.184-.436.167-.486.234-.05.084.201.252.15.537-.066.251-.2.419-.469.402-.234-.033-1.022-.302-1.978-.754-.956-.47-1.895-.185-2.297-.118-.436.068-.956.202-1.542.252-.587.033-1.392.117-2.247.168-.838.05-2.364.72-2.867.955-.52.252-1.676 1.492-1.676 1.492s-.872.705-1.023 1.627c0 .05-.05 1.006.285 1.307.319.319.352.37.537.487.184.083-.235.285-.235.285l.838-.235s-.084.369-.117.654c-.034.285.117.2.15.234.034.05-.05.37.185.604.201.251.302-.067.47.168.083.117-.05.234-.185.301.319-.117.905-.318.889-.285-.05.067-.151.302-.168.604-.034.302.033.352.201.42.184.066.252-.152.369.05.117.184.67 1.274.553 1.34-.117.068-.72.437-1.224.94-.486.52-1.274 1.626-1.676 2.263-.403.654-1.14 1.274-1.844 1.777-.705.47-.822.604-.822.604s-.52-1.023-.872-1.543c-.52-.771-.888-1.023-1.123-1.24-.436-.37-.872-.587-.872-.587s.201-.436.604-.654c.553-.302.905-.872 1.106-1.459.185-.587.587-1.123 1.056-1.945.487-.821 1.308-.955 1.46-.871.15.117.184 0 .351.436.168.435.302.486.302.368 0-.117.436.285.436.285s.117-.167-.067-.653c-.185-.487-.67-.872-.771-.99-.084-.117-.084-.167-.118-.318-.033-.151-.235-.403-.235-.403l-.603.638c-.302.301-1.107 1.307-1.107 1.307l-1.592 1.459 2.498-2.733-1.811 1.626s-1.358 1.107-1.24 1.19c.117.118.05.168-.252.37-.302.2-.034.2-.285.352-.252.15-.99-.235-.99-.235s.37.47.353.419c-.034-.034-.47-.084-.352-.05.117.05.167.302.167.302l-.2-.05s.083.301-.068.603c-.168.285-.603.419-.637.285-.034-.151-.872-.201-1.459-.151-.603.084-.821.084-1.425-.201-.603-.302-.872-.084-.939.033-.083.118-.754.47-.754.47l.034-.403s-1.275.654-1.275.839c0 .184-.419.704-.352.704s1.459-1.24 4.326-1.073c1.341.067 2.213.939 2.213.939s-.604 1.844-.352 2.8c.251.905-.168 2.129-1.006 2.464-.889.369-2.062-.637-2.029-.235.034.403.05.285.302.352.235.067.319.084.486.42a.423.423 0 01-.033.52c.033-.034.084-.068.285-.068.285-.033.352.235.352.235l-.084.486s.754 0 1.224-.15a1.71 1.71 0 00.939-.705c.167-.285.117-.654.167-.889.05-.234.235-.2.235-.2l-.67-.437s.25-.067.469-.167c.201-.118.47-.486.436-.755-.034-.285-.319-.251-.319-.251s.084-.168.084-.185c0-.033-.05-.084-.184-.285-.151-.167 0-.369 0-.369l.553-1.492s.889.772 1.257 1.912c.352 1.156.285 2.732-.184 3.856-.47 1.123-2.029 1.86-3.135 2.263-1.107.402-2.65.201-3.806-.251-1.157-.47-1.71-1.392-1.71-1.392s-.168.034-.235.084c-.05.05-.15.117.05.47.185.368.906.82 1.51 1.123.586.301 2.816.637 2.816.637s-.235.167-.822.067c-.435-.067-1.475-.37-1.475-.37l.52.37.905.52s.637.067 1.911-.068c1.258-.15 2.448-.821 2.934-1.056.47-.235 1.794-1.358 1.778-1.358-.202.185-.554.654-.554.654s-.871.771-1.743 1.258c-.906.486-2.783.821-2.783.821s1.156-.117 1.508-.201c1.392-.37 1.861-.67 1.861-.67s-.52.469-.637.552c-.435.302-.905.47-1.66.587-.586.067-1.307-.033-1.307-.033s-.587-.067-.553-.05c.821.402 1.559.469 2.783.234 1.106-.201 1.592-.402 2.196-.838.603-.436 1.073-1.24 1.157-1.626.084-.37.352-.705.52-.889.167-.168.083-.184.033-.285-.05-.084-.05-.302-.05-.302l.15.185h.37l-.118-.52c-.05-.201 0-.235.067-.486.084-.252.151-.486.151-.486s.889-.537.939-.638c.067-.083-.486-.234-.486-.234s.15-.084.167-.151c.05-.05.151-.285.084-.47-.05-.184-.352-.234-.285-.419.067-.184.201-.117.201-.117s1.258-.369 1.962-.553c.67-.185.872-.252 1.274-.52.42-.285.553-.587.637-.637.067-.05.252-.235.302-.319.05-.117.235-.352.486-.402.252-.05.285-.235.285-.235l.721.302.084-.235s.252.05.42-.033c.167-.05.184-.352.184-.352s.653-.151 1.106.435c.47.554 1.459-.083 1.71-.184 1.073-.369.37 1.777 1.056 2.8.403.604 1.124.436 1.308.704.939 1.375.117 1.593.117 1.593s.151.201.235.302c.067.083-.067.352-.067.352l.486-.42-.47.99s.185-.285.789-.771c.285-.202.235-.034.42-1.14.183-1.124-.755-1.19-.755-1.19h-.52v-.47s-.587.033-.889-.302c-.302-.352.151-1.459.486-1.978.319-.554.94-.353 1.51-.068.586.286 1.357.721 1.743 1.61.402.889.302 1.777.117 2.817-.184 1.073-.654 1.827-1.257 2.464-.604.604-1.794 1.023-2.666 1.19-.872.151-1.86 0-2.699-.285-.872-.285-1.593-.938-1.744-1.106a11.79 11.79 0 01-.352-.42l-.15.051s-.068.034-.118.05a.185.185 0 00-.067.084c-.05.654.822 1.123 1.509 1.459 2.38 1.056 3.57.654 3.57.654s-.636.251-1.14.184c-.519-.05-1.676-.436-1.676-.436s.202.151.302.201c.118.067.486.319.553.37.067.033.52.2.788.25.721.085 1.476 0 3.102-.485 1.777-.52 3.169-1.979 3.37-2.18l-.956 1.056s-.603.436-1.073.755c-1.375.888-2.9 1.123-2.9 1.123l.939-.117c.419-.05 2.313-.906 2.313-.906l-.821.47s-.587.301-.839.436c-.251.083-.989.285-1.458.301-.47.034-.956-.033-.956-.033l-.402-.034s.285.252 1.106.352c.822.101.889.118 1.912-.067 1.006-.184 2.012-.654 2.582-1.257.586-.604.72-1.308.77-1.425.051-.151.068-.285.202-.42.117-.15.05-.066.184-.284.151-.201.034-.168-.033-.319-.05-.168-.034-.067.067-.302.084-.2.168-.251.302-.52.15-.25.033-.234.033-.435 0-.201.185-.252.252-.352.067-.067.872-.52.872-.52s-.168-.034-.252-.084c-.084-.05-.168-.067-.235-.15-.067-.068.151-.152.235-.252.067-.151.117-.185.151-.302.034-.151-.201-.201-.302-.352-.084-.151.05-.185.034-.52-.034-.319-.47-.905-.537-1.123-.067-.201-.704-1.14-.838-1.157-.134 0-.956-.587-1.073-.637-.117-.05-.771-.637-1.073-.822-.302-.184-.67-.637-.939-.653-.251-.034-.72-.252-.72-.252s.033-.184.05-.369c.05-.184.033-.352.083-.553.067-.201.486-.352 1.006-.52.52-.184 2.532-.436 2.532-.436s.302.067.536.151c.235.084.788.42.788.42s-.05-.152-.05-.185c0-.067-.184-.352-.47-.637-.284-.285-.536-.252-.955-.319-.42-.084-1.107-.117-1.107-.117l-.352-.553s.151 0 .252-.034c.084-.033.52.034.704.034.168.033.436.2.436.2l-1.107.068 1.157.033.52.034s-.067-.168-.252-.319c-.184-.167-1.156-.553-1.508-.67-.37-.118-1.074-.201-1.074-.201l-1.156-.654S61.35 7.3 61.383 7.249c.05-.05.403-.117.52-.302.117-.184.168-.2.235-.435.067-.235.05-.151.419-.252.352-.117.302-.235.285-.352-.034-.117.15-.05.369-.067.234-.034.067-.117.117-.302.034-.184.252-.067.52-.15.251-.068.905.033 1.19-.252.302-.285.302-.302.553-.553.252-.252.185-.084.554-.185.352-.084.15-.05.486-.302.352-.251.084-.15.117-.318.034-.185.05-.185.084-.302.05-.117.15-.184.302-.402.168-.202.067-.252.067-.554.033-.301 0-.15.201-.318.084-.185-1.509-1.878-1.86-1.878M59.17 10.871c-.15.067-.47.167-.654.301-.2.151 0 .185.084.487.084.301-.419.52-.587.72-.167.185-.167.403-.251.47-.084.067-.47.067-.654.084-.184.033.184.419.184.419l-.553.47s-.486.033-.67.066c-.185.034-1.275.068-1.275.068s.202-.37.352-.587c.671-1.073 1.006-1.107 1.057-1.341.301-1.744-2.33-2.13-1.861-3.203.184-.436.402-.654.402-.654s.151-.301.47-.402a3.6 3.6 0 011.24-.15c.42.066 1.509.15 2.247.167.72.033.838-.47.838-.47s-.235.235-.302.587c-.067.319-.419 1.19-.419 1.19l-.369 1.023 1.308.721s-.453-.05-.57 0" fill="#0E4F95"/><path d="M55.28.207c-.402 0-1.34-.168-1.458-.084-.15.084-1.157.034-1.224.151-.05.15.956.251.788.319-.168.067-1.727.083-1.945.15-.2.05 1.124.151 1.107.352-.034.185-.436.168-.486.235-.05.067.2.252.15.537-.067.251-.2.419-.469.402-.235-.033-1.023-.302-1.978-.754-.956-.47-1.895-.185-2.297-.118-.436.067-.956.201-1.543.252-.586.033-1.391.117-2.246.167-.838.05-2.364.721-2.867.956-.52.252-1.677 1.492-1.677 1.492s-.871.704-1.022 1.626c0 .05-.05 1.006.285 1.308.318.319.352.369.553.486.184.084-.235.285-.235.285l.838-.234s-.083.369-.117.654c-.033.285.117.2.151.234.034.05-.05.37.184.604.202.251.302-.067.47.167.084.118-.05.235-.184.302.318-.117.905-.318.888-.285-.05.067-.15.302-.168.604-.033.302.034.352.202.419.167.067.251-.151.368.05.118.185.671 1.274.554 1.341a6.609 6.609 0 00-1.224.94c-.486.52-1.274 1.609-1.677 2.263-.402.653-1.14 1.274-1.827 1.777-.704.47-.822.603-.822.603s-.52-1.022-.871-1.542c-.52-.771-.89-1.023-1.124-1.24-.436-.37-.872-.587-.872-.587s.202-.436.604-.654c.553-.302.905-.872 1.107-1.459.184-.587.586-1.123 1.056-1.945.486-.821 1.307-.955 1.458-.872.151.118.185 0 .352.436.168.436.302.486.302.37 0-.118.436.284.436.284s.117-.168-.084-.654c-.184-.486-.67-.871-.771-.989-.084-.117-.084-.167-.117-.318-.034-.151-.235-.403-.235-.403l-.604.637c-.301.302-1.106 1.308-1.106 1.308l-1.593 1.46 2.532-2.7-1.794 1.627s-1.358 1.106-1.24 1.19c.117.117.05.168-.252.369-.302.201-.034.201-.285.352-.252.15-.99-.235-.99-.235s.37.47.353.42c-.034-.034-.47-.085-.352-.05.117.05.167.3.167.3l-.201-.05s.084.302-.067.604c-.168.302-.604.42-.637.285-.034-.15-.872-.201-1.459-.15-.603.083-.821.083-1.425-.202-.603-.302-.872-.084-.939.034-.084.117-.754.469-.754.469l.033-.402s-1.274.654-1.274.838c0 .184-.419.704-.352.704s1.459-1.24 4.326-1.073c1.34.067 2.213.939 2.213.939s-.604 1.844-.352 2.8c.251.905-.168 2.129-1.006 2.464-.889.37-2.063-.637-2.029-.234.034.402.05.285.302.352.235.067.318.084.486.436a.424.424 0 01-.034.52c.034-.034.084-.068.285-.068.285-.033.352.235.352.235l-.083.486s.754 0 1.224-.15c.469-.152.77-.437.939-.705.167-.285.117-.654.167-.888.05-.235.235-.202.235-.202l-.67-.435s.25-.068.469-.168c.218-.084.47-.486.436-.755-.034-.285-.319-.251-.319-.251s.084-.168.084-.184c0-.034-.05-.084-.185-.252-.15-.168 0-.369 0-.369l.554-1.492s.888.771 1.274 1.911c.352 1.157.285 2.733-.201 3.856-.47 1.124-2.029 1.861-3.135 2.264-1.107.402-2.65.2-3.806-.252a3.793 3.793 0 01-1.71-1.391s-.168.033-.235.083c-.05.05-.151.118.05.47.185.369.906.822 1.492 1.123.587.302 2.817.637 2.817.637s-.235.168-.822.067c-.419-.067-1.475-.368-1.475-.368l.52.368.905.52s.637.067 1.911-.067c1.275-.15 2.465-.821 2.934-1.056.47-.235 1.794-1.358 1.778-1.358-.202.184-.554.654-.554.654s-.871.77-1.743 1.274c-.906.486-2.783.821-2.783.821s1.156-.117 1.492-.2c1.391-.37 1.86-.671 1.86-.671s-.519.469-.636.553c-.42.302-.906.47-1.66.587-.587.067-1.308-.034-1.308-.034s-.587-.067-.553-.05c.821.402 1.56.47 2.783.235 1.107-.202 1.593-.403 2.196-.839.604-.436 1.073-1.24 1.157-1.626.084-.369.352-.704.52-.872.167-.184.084-.184.033-.285-.05-.084-.05-.302-.05-.302l.15.185h.37s-.067-.302-.118-.52c-.05-.201 0-.235.068-.486.083-.252.15-.486.15-.486s.889-.554.94-.637c.066-.084-.487-.235-.487-.235s.15-.084.168-.151c.05-.05.15-.285.084-.47-.05-.184-.353-.234-.285-.435.067-.185.2-.118.2-.118s1.258-.369 1.962-.553c.67-.184.872-.252 1.274-.52.42-.285.554-.587.638-.654.067-.05.251-.234.301-.318a.833.833 0 01.486-.42c.252-.05.285-.234.285-.234l.721.302.084-.235s.252.05.42-.033c.167-.05.184-.353.184-.353s.654-.15 1.106.42c.47.553 1.459-.084 1.71-.185 1.073-.369.37 1.777 1.057 2.8.402.604 1.123.436 1.307.704.94 1.375.118 1.593.118 1.593s.15.201.234.302c.084.084-.067.352-.067.352l.487-.42-.52.94s.184-.286.788-.772c.285-.2.235-.033.419-1.14.184-1.123-.754-1.19-.754-1.19l-.52.033v-.469s-.587.034-.889-.302c-.301-.352.151-1.458.486-1.978.319-.553.94-.352 1.51-.067.586.285 1.357.72 1.743 1.626.402.889.302 1.777.117 2.817-.184 1.073-.654 1.827-1.257 2.447-.604.604-1.794 1.023-2.666 1.19-.872.152-1.844 0-2.7-.284-.87-.285-1.609-.94-1.726-1.107a15.02 15.02 0 01-.369-.436l-.15.05s-.068.034-.118.034a.185.185 0 00-.067.084c-.05.654.821 1.123 1.509 1.459 2.38 1.056 3.57.654 3.57.654s-.636.251-1.14.184c-.519-.05-1.676-.42-1.676-.42s.202.152.302.202c.084.067.486.319.553.369a4.9 4.9 0 00.788.251c.721.084 1.476 0 3.102-.486 1.777-.52 3.169-1.978 3.37-2.18l-.956 1.057s-.603.436-1.073.754c-1.375.889-2.9 1.123-2.9 1.123l.939-.117c.419-.05 2.313-.905 2.313-.905l-.821.47s-.587.301-.838.402c-.252.084-.99.285-1.46.301a5.261 5.261 0 01-.955-.033l-.402-.034s.285.252 1.106.352c.822.101.889.118 1.912-.067 1.022-.184 2.012-.654 2.582-1.274.586-.603.72-1.308.77-1.425.051-.15.068-.285.202-.436.117-.15.05-.067.184-.285.151-.201.034-.168-.033-.318-.05-.168-.034-.067.067-.302.084-.201.168-.252.302-.52.15-.268.033-.235.033-.436s.185-.251.252-.352c.067-.084.872-.52.872-.52s-.168-.033-.252-.083c-.084-.05-.168-.067-.235-.151-.067-.067.151-.151.235-.252.067-.15.117-.184.15-.302.035-.117-.2-.2-.3-.352-.085-.15.05-.184.033-.52-.034-.318-.47-.905-.52-1.123-.067-.2-.704-1.14-.838-1.157-.151-.033-.956-.586-1.073-.637-.118-.05-.772-.637-1.073-.821-.302-.184-.671-.637-.94-.654-.25-.034-.72-.251-.72-.251s.033-.185.05-.37c.05-.184.034-.351.067-.553.067-.2.486-.352 1.006-.52.52-.184 2.532-.435 2.532-.435s.302.067.536.15c.235.085.788.437.788.437s-.05-.151-.05-.202c0-.067-.184-.352-.47-.637-.285-.285-.536-.251-.989-.318-.419-.084-1.106-.118-1.106-.118l-.352-.553s.15 0 .251-.033c.084-.034.52.033.704.033.168.034.436.201.436.201l-1.106.067 1.157.034.52.034s-.068-.168-.252-.32c-.185-.167-1.157-.552-1.51-.67-.368-.117-1.072-.2-1.072-.2l-1.14-.655s1.358-1.777 1.391-1.827c.05-.05.403-.118.52-.302.151-.184.168-.201.235-.436.067-.235.05-.15.419-.251.352-.118.302-.235.285-.352-.033-.118.15-.05.369-.068.235-.033.067-.117.117-.301.034-.185.252-.067.52-.151.251-.067.905.033 1.19-.252.302-.285.302-.301.554-.553.251-.251.184-.084.553-.184.369-.084.15-.05.486-.302.352-.252.084-.151.117-.319l.084-.301c.05-.118.151-.185.302-.403.168-.184.067-.251.067-.553.034-.302 0-.151.184-.319.101-.15-1.458-1.844-1.86-1.844m-6.371 10.546c-.151.067-.47.167-.654.301-.201.118 0 .185.084.487.083.302-.42.52-.587.72-.168.185-.168.403-.252.47-.084.067-.47.067-.654.084-.184.033.185.436.185.436l-.553.47s-.487.033-.671.066c-.184.034-1.274.067-1.274.067s.201-.368.369-.586c.67-1.073 1.006-1.107 1.056-1.342.302-1.743-2.33-2.129-1.861-3.202.184-.436.402-.654.402-.654s.151-.302.47-.402c.318-.084.821-.185 1.24-.151.436.067 1.51.15 2.247.168.72.033.872-.47.872-.47s-.235.235-.302.587c-.067.319-.42 1.19-.42 1.19l-.368 1.023 1.308.72s-.47-.05-.62 0" fill="#0E4F95"/><path d="M44.618.241c-.403 0-1.342-.168-1.459-.084-.15.084-1.157.034-1.224.151-.05.151.956.252.788.319-.168.067-1.727.084-1.945.15-.2.05 1.124.151 1.107.353-.034.184-.436.167-.486.234-.05.084.2.252.15.537-.067.251-.2.419-.469.402-.235-.033-1.023-.302-1.978-.754-.956-.47-1.895-.185-2.297-.118-.42.068-.956.202-1.543.252-.586.033-1.391.117-2.246.168-.838.05-2.364.72-2.867.955-.52.252-1.677 1.51-1.677 1.51s-.872.703-1.022 1.625c0 .05-.05 1.006.285 1.308.318.319.352.369.536.486.185.084-.235.285-.235.285l.839-.234s-.084.368-.118.653c-.033.285.118.202.151.235.034.05-.05.369.185.604.2.251.301-.067.47.167.083.118-.051.235-.185.302.318-.117.905-.318.888-.285-.05.067-.15.302-.167.604-.034.301.033.352.2.419.185.067.252-.151.37.05.117.185.67 1.274.553 1.341-.117.05-.721.436-1.224.94-.486.519-1.274 1.625-1.677 2.263-.402.637-1.14 1.274-1.86 1.777-.705.47-.822.603-.822.603s-.52-1.022-.872-1.542c-.52-.771-.888-1.023-1.123-1.24-.436-.37-.872-.588-.872-.588s.201-.435.604-.653c.553-.302.905-.872 1.106-1.459.185-.587.587-1.123 1.056-1.945.487-.821 1.308-.955 1.459-.872.15.118.184 0 .352.436.168.436.302.486.302.37 0-.118.436.284.436.284s.117-.168-.084-.654c-.184-.486-.67-.872-.771-.989-.084-.117-.084-.168-.118-.318-.033-.151-.234-.403-.234-.403l-.604.637c-.302.302-1.107 1.308-1.107 1.308l-1.592 1.459 2.531-2.7-1.794 1.627s-1.358 1.106-1.24 1.19c.117.117.05.168-.252.369-.301.201-.033.201-.285.352-.251.15-.989-.235-.989-.235s.369.47.352.42c-.033-.034-.47-.085-.352-.051.118.034.168.302.168.302l-.201-.05s.084.301-.067.603c-.168.285-.604.42-.637.285-.034-.15-.872-.201-1.46-.15-.603.083-.82.083-1.424-.202-.604-.302-.872-.084-.94.034-.083.117-.753.469-.753.469l.033-.402s-1.274.654-1.274.838c0 .184-.436.704-.352.704.084 0 1.458-1.24 4.325-1.073 1.341.067 2.213.939 2.213.939s-.603 1.844-.352 2.8c.252.905-.167 2.129-1.006 2.464-.888.37-2.062-.637-2.028-.234.033.402.05.285.301.352.235.067.319.084.487.419a.423.423 0 01-.034.52c.034-.034.084-.067.285-.067.285-.034.352.234.352.234l-.084.486s.755 0 1.224-.15c.47-.151.771-.436.94-.705.167-.285.117-.654.167-.888.05-.235.235-.201.235-.201l-.671-.436s.251-.067.47-.168c.2-.084.469-.486.435-.754-.033-.285-.318-.252-.318-.252s.084-.168.084-.184c0-.034-.05-.084-.202-.285-.15-.168 0-.37 0-.37l.554-1.475s.888.772 1.257 1.912c.352 1.156.285 2.732-.184 3.856-.47 1.123-2.029 1.86-3.136 2.263-1.106.402-2.648.201-3.805-.251a3.68 3.68 0 01-1.71-1.392s-.168.034-.235.084c-.05.05-.151.117.05.47.184.368.905.82 1.492 1.123.587.302 2.834.637 2.834.637s-.235.167-.822.067c-.419-.067-1.475-.369-1.475-.369l.52.369.905.52s.637.067 1.911-.067c1.258-.151 2.448-.822 2.934-1.057.47-.234 1.794-1.358 1.777-1.358-.201.185-.553.654-.553.654s-.872.771-1.744 1.274c-.905.487-2.783.822-2.783.822s1.157-.117 1.492-.201c1.392-.37 1.861-.671 1.861-.671s-.52.47-.637.553c-.419.302-.905.47-1.66.587-.586.067-1.307-.034-1.307-.034s-.587-.066-.553-.05c.821.403 1.559.47 2.783.235 1.106-.201 1.592-.402 2.196-.838.604-.436 1.073-1.241 1.157-1.61.084-.369.352-.704.52-.888.167-.185.083-.185.033-.285-.05-.084-.05-.302-.05-.302l.15.184h.37l-.118-.52c-.05-.2 0-.2.067-.486.084-.251.151-.486.151-.486s.889-.536.939-.637c.067-.084-.486-.235-.486-.235s.15-.084.167-.15c.05-.05.151-.286.084-.47-.05-.184-.352-.235-.285-.436.067-.184.235-.117.235-.117s1.257-.37 1.945-.554c.67-.184.872-.251 1.274-.52.419-.284.553-.586.637-.653a1.83 1.83 0 00.302-.319c.05-.117.235-.352.486-.402.251-.05.285-.235.285-.235l.72.302.085-.235s.251.05.419-.033c.168-.05.184-.352.184-.352s.654-.151 1.107.419c.47.553 1.458-.084 1.71-.185 1.073-.369.369 1.777 1.056 2.8.402.604 1.123.436 1.308.704.939 1.375.117 1.593.117 1.593s.151.201.235.302c.084.1-.067.352-.067.352l.486-.42-.47.99s.185-.285.789-.771c.285-.201.234-.034.419-1.14.184-1.124-.755-1.19-.755-1.19l-.52.033v-.47s-.586.034-.888-.318c-.302-.352.15-1.459.486-1.978.319-.554.94-.353 1.51-.084.586.285 1.357.72 1.743 1.61.402.888.318 1.776.117 2.816a4.451 4.451 0 01-1.257 2.464c-.604.604-1.794 1.023-2.666 1.19-.872.152-1.861 0-2.7-.284-.871-.285-1.626-.94-1.743-1.107-.15-.167-.369-.419-.369-.419l-.15.05s-.068.034-.118.05a.185.185 0 00-.067.085c-.05.653.821 1.123 1.492 1.425 2.38 1.056 3.571.653 3.571.653s-.637.252-1.14.185c-.52-.05-1.676-.42-1.676-.42s.2.152.301.202c.118.067.486.319.553.369.068.05.52.2.789.251.72.084 1.475 0 3.101-.486 1.777-.52 3.186-1.978 3.37-2.18l-.956 1.057s-.603.436-1.073.754c-1.391.889-2.9 1.124-2.9 1.124l.939-.118c.419-.05 2.313-.905 2.313-.905l-.821.47s-.587.301-.838.402c-.252.083-.99.285-1.459.301-.47.034-.956-.033-.956-.033l-.402-.034s.285.252 1.107.352c.821.067.888.118 1.91-.067 1.024-.184 2.013-.653 2.583-1.257.587-.604.72-1.308.771-1.425.05-.151.067-.285.201-.42.117-.15.05-.066.185-.284.15-.201.033-.168-.034-.319-.05-.168-.034-.067.067-.302.084-.2.168-.251.302-.52.15-.268.033-.234.033-.435 0-.201.185-.252.252-.352.067-.067.872-.52.872-.52s-.168-.034-.252-.084c-.084-.05-.167-.067-.235-.15-.067-.068.151-.152.235-.252.067-.151.118-.185.151-.302.034-.151-.201-.201-.302-.352-.084-.151.05-.185.034-.52-.034-.318-.47-.905-.537-1.123-.067-.201-.704-1.14-.838-1.157-.15-.034-.956-.587-1.073-.637-.117-.05-.771-.637-1.073-.822-.302-.184-.67-.637-.939-.654-.251-.033-.72-.251-.72-.251s.033-.184.05-.369c.05-.184.033-.352.083-.553.067-.201.487-.352 1.006-.52.52-.184 2.532-.436 2.532-.436s.302.067.537.151c.234.084.787.42.787.42s-.05-.152-.05-.185c0-.067-.184-.352-.47-.637-.284-.285-.536-.252-.988-.319-.42-.084-1.107-.117-1.107-.117l-.352-.553s.15 0 .251-.034c.084-.033.52.034.705.034.167.033.435.2.435.2l-1.106.068 1.157.033.52.034s-.068-.168-.252-.319c-.184-.167-1.157-.553-1.509-.67-.369-.118-1.073-.201-1.073-.201l-1.14-.654s1.358-1.777 1.392-1.828c.05-.05.402-.117.52-.301.117-.202.167-.202.234-.436.067-.235.05-.151.42-.252.351-.117.301-.235.284-.352-.033-.117.151-.05.37-.067.234-.034.066-.117.116-.302.034-.184.252-.067.52-.15.252-.068.906.033 1.19-.252.302-.285.302-.302.554-.553.251-.252.184-.084.553-.185.369-.1.15-.05.486-.302.336-.268.084-.15.118-.318.033-.185.05-.185.083-.302.05-.117.151-.184.302-.402.168-.202.067-.252.067-.554.034-.301 0-.15.185-.318.117-.134-1.476-1.844-1.861-1.844m-6.354 10.579c-.151.067-.47.167-.654.318-.202.118 0 .185.083.486.084.302-.435.52-.586.721-.168.185-.168.403-.252.47-.084.067-.47.067-.654.084-.184.033.185.419.185.419l-.553.47s-.487.033-.671.066c-.184.034-1.274.067-1.274.067s.2-.369.352-.587c.67-1.072 1.006-1.106 1.056-1.34.302-1.744-2.347-2.13-1.86-3.203.184-.436.401-.654.401-.654s.151-.302.47-.402c.318-.084.821-.185 1.24-.151.42.067 1.51.15 2.247.168.721.033.838-.47.838-.47s-.234.252-.301.587c-.067.319-.42 1.19-.42 1.19l-.352 1.023 1.308.72s-.453-.083-.587 0" fill="#D0D2D3"/><path d="M89.835 30.05c-.554-.871-1.828-1.274-3.773-1.274H73.086L65.239 49.08h6.941l2.867-7.427h6.656c1.51 0 2.867-.42 4.125-1.258 1.224-.838 2.129-2.029 2.732-3.605l.94-2.464c.77-2.012.888-3.437.318-4.275m-7.41 6.12h-4.209l.302-.789h4.208l-.302.788zM63.713 49.062l2.498-6.505H55.398l2.917-7.528H69.13l2.431-6.27H60.06c-2.18 0-3.856.352-5.097 1.073-1.459.872-2.582 2.364-3.437 4.476l-3.453 8.92c-.872 2.246-.94 3.805-.185 4.644.637.77 2.079 1.14 4.292 1.14h11.518v.033l.017.017zm-34.906-17.99c-.721-.352-1.895-.52-3.454-.52H21.75l.67-1.777h-6.64l-.67 1.778h-3.604c-2.565 0-4.477.486-5.717 1.475-.956.771-1.828 2.13-2.582 4.124L1.11 41.518C.34 43.48.155 44.855.524 45.61c.486.99 2.029 1.476 4.577 1.476h3.605l-.872 2.246h6.656l.872-2.246h3.604c3.555 0 5.952-1.073 7.226-3.22.37-.637.721-1.391 1.073-2.33l2.08-5.382c.351-.938.603-1.71.72-2.347.235-1.29-.184-2.213-1.257-2.716m-17.805 9.49H8.505l1.374-3.538h2.498l-1.374 3.538zm10.88-.05h-2.531l1.375-3.555h2.498l-1.358 3.554h.017z" fill="#fff"/><path d="M42.489 36.104h-4.61l.284-.705h4.594l-.268.705z" fill="#0E4F95"/><path d="M47.988 28.876H33.553L25.706 49.18h14.402c3.018 0 5.147-1.626 6.421-4.929l.939-2.43c.52-1.342.52-2.382 0-3.136 1.073-.704 1.86-1.71 2.38-3.018l.906-2.38c1.123-2.951.201-4.427-2.766-4.427m-7.662 13.228h-4.61l.284-.754h4.61l-.284.754zm2.163-6.018h-4.611l.285-.705h4.61l-.285.705z" fill="#fff"/><path d="M35.497 40.547l-.905 2.364h6.17l.905-2.364h-6.17zm4.829 1.576h-4.61l.284-.755h4.61l-.284.755z" fill="#fff"/><path d="M35.883 41.15l-.47 1.157h5.03l.47-1.157h-5.03zm4.443.956h-4.61l.284-.754h4.61l-.284.754z" fill="#282658"/><mask id="a" style="mask-type:luminance" maskUnits="userSpaceOnUse" x="48" y="29" width="23" height="20"><path d="M59.807 29.346c-2.045 0-3.57.285-4.577.838-1.24.704-2.246 2.062-3.017 4.04l-3.454 8.92c-.805 2.096-.889 3.52-.252 4.242.537.603 1.861.905 3.974.905h10.83l1.979-5.147H54.46l3.436-8.92h10.83l1.895-4.878h-10.83.017z" fill="#fff"/></mask><g mask="url(#a)"><path d="M70.621 41.685H46.864v7.478h23.757v-7.477z" fill="#E7382B"/><path d="M70.621 41.685H46.864v7.478h23.757v-7.477z" stroke="#0E4F95" stroke-width="1.03" stroke-miterlimit="10"/><path d="M70.621 34.308H46.864v7.477h23.757v-7.477z" fill="#0E4F95"/><path d="M70.621 34.308H46.864v7.477h23.757v-7.477z" stroke="#0E4F95" stroke-width="1.03" stroke-miterlimit="10"/></g><path d="M63.312 48.307H52.48c-2.096 0-3.437-.301-3.974-.905-.637-.704-.553-2.13.252-4.242l3.454-8.919c.77-1.978 1.777-3.336 3.017-4.04 1.006-.554 2.532-.839 4.578-.839h10.83l-1.895 4.88h-10.83l-3.437 8.918H65.29l-1.962 5.147h-.017z" stroke="#0E4F95" stroke-width="1.03" stroke-miterlimit="10"/><mask id="b" style="mask-type:luminance" maskUnits="userSpaceOnUse" x="66" y="29" width="24" height="20"><path d="M78.551 35.363h4.208l-.301.788h-4.209l.302-.788zm-5.046-6.002l-7.343 18.945h5.666l2.867-7.427h7.293c1.593 0 2.85-.402 3.806-1.19.956-.788 1.66-1.794 2.13-2.984l.938-2.448c.755-1.844.872-3.135.403-3.84-.47-.704-1.61-1.056-3.438-1.056H73.505z" fill="#fff"/></mask><g mask="url(#b)"><path d="M89.348 41.668H65.24v7.477h24.11v-7.477z" fill="#E7382B"/><path d="M89.348 41.668H65.24v7.477h24.11v-7.477z" stroke="#0E4F95" stroke-width="1.03" stroke-miterlimit="10"/><path d="M89.348 34.258H65.24v7.477h24.11v-7.477z" fill="#0E4F95"/><path d="M89.348 34.258H65.24v7.477h24.11v-7.477z" stroke="#0E4F95" stroke-width="1.03" stroke-miterlimit="10"/></g><path d="M89.265 30.419c-.47-.705-1.61-1.057-3.437-1.057H73.505l-7.343 18.945h5.666l2.867-7.427h7.293c1.593 0 2.85-.402 3.806-1.19.956-.788 1.66-1.794 2.13-2.984l.938-2.448c.755-1.861.872-3.135.403-3.84zm-6.824 5.733h-4.208l.302-.788h4.208l-.302.788z" stroke="#0E4F95" stroke-width="1.03" stroke-miterlimit="10"/><path d="M77.964 34.376l-1.073 2.8h6.12l1.073-2.8h-6.12zm4.93 2.632h-5.785l.956-2.464h5.784l-.956 2.464z" fill="#0E4F95"/><path d="M78.015 34.459l-1.006 2.649h5.935l1.04-2.649h-5.97z" fill="#fff"/><mask id="c" style="mask-type:luminance" maskUnits="userSpaceOnUse" x="26" y="29" width="25" height="20"><path d="M35.933 41.436h4.594l-.285.755h-4.61l.285-.755h.016zm2.197-5.985h4.593l-.285.704h-4.593l.285-.704zm-4.142-5.667l-7.192 18.593h13.48c1.358 0 2.464-.352 3.286-1.023.821-.637 1.509-1.676 2.062-3.101l.939-2.431c.536-1.392.402-2.364-.47-2.917l-.251-.168.285-.117c1.341-.554 2.297-1.51 2.816-2.934l.906-2.381c.486-1.274.553-2.196.2-2.733-.351-.553-1.156-.788-2.413-.788H33.955h.034z" fill="#fff"/></mask><g mask="url(#c)"><path d="M50.654 41.72H26.091v7.478h24.562v-7.477z" fill="#E7382B"/><path d="M50.654 41.72H26.091v7.478h24.562v-7.477z" stroke="#0E4F95" stroke-width="1.03" stroke-miterlimit="10"/><path d="M50.654 34.327H26.091v7.478h24.562v-7.478z" fill="#0E4F95"/><path d="M50.654 34.327H26.091v7.478h24.562v-7.478z" stroke="#0E4F95" stroke-width="1.03" stroke-miterlimit="10"/></g><path d="M50.05 30.588c-.352-.537-1.157-.788-2.414-.788H33.955l-7.192 18.61h13.479c1.358 0 2.465-.352 3.303-1.023.821-.637 1.492-1.677 2.062-3.102l.939-2.43c.536-1.392.402-2.365-.47-2.918l-.251-.168.285-.117c1.341-.537 2.297-1.509 2.817-2.917l.905-2.38c.486-1.275.553-2.197.201-2.734l.017-.033zM40.242 42.19h-4.594l.285-.755h4.594l-.285.755zm2.196-6.036h-4.61l.285-.704h4.61l-.285.704z" stroke="#0E4F95" stroke-width="1.03" stroke-miterlimit="10"/><path d="M43.059 37.075h-6.522l1.022-2.682h6.522l-1.022 2.682zm-6.27-.168h6.169l.905-2.363h-6.17l-.905 2.363z" fill="#0E4F95"/><mask id="d" style="mask-type:luminance" maskUnits="userSpaceOnUse" x="34" y="40" width="8" height="4"><path d="M35.48 40.582h6.17l-.905 2.364h-6.17l.905-2.364zm-.15-.168l-1.023 2.683h6.522l1.022-2.683H35.33z" fill="#fff"/></mask><g mask="url(#d)"><path d="M41.851 40.429h-7.544v2.682h7.544V40.43z" fill="url(#paint0_linear_76_18180)"/></g><path d="M40.829 43.111h-6.522l1.023-2.699h6.521l-1.005 2.7h-.017zm-6.27-.167h6.17l.904-2.364h-6.17l-.905 2.364z" stroke="#0E4F95" stroke-width=".69" stroke-miterlimit="10"/><path d="M37.71 34.578l-.905 2.364h6.17l.905-2.364h-6.17zm-2.213 6.036l-.905 2.364h6.17l.905-2.364h-6.17z" fill="#fff"/><mask id="e" style="mask-type:luminance" maskUnits="userSpaceOnUse" x="1" y="29" width="29" height="20"><path d="M9.896 36.974h2.498L11.02 40.53h-2.5l1.392-3.555h-.017zm10.864 0h2.498l-1.391 3.555h-2.498l1.375-3.555h.016zM16.2 29.43l-.67 1.777h-4.276c-2.33 0-4.04.402-5.08 1.157-.838.637-1.626 1.86-2.33 3.722L1.748 41.45c-.704 1.827-.888 3.068-.536 3.688.436.788 1.827 1.224 4.157 1.224h4.242l-.872 2.213h5.315l.872-2.213h4.258c2.33 0 4.04-.402 5.114-1.224.821-.637 1.593-1.86 2.297-3.688l2.079-5.382c.754-1.844.939-3.068.62-3.705-.436-.788-1.828-1.157-4.175-1.157h-4.275l.67-1.777H16.2z" fill="#fff"/></mask><g mask="url(#e)"><path d="M30.132 41.098H.357v7.477h29.775v-7.477z" fill="#E7382B"/><path d="M30.132 41.098H.357v7.477h29.775v-7.477z" stroke="#0E4F95" stroke-width="1.03" stroke-miterlimit="10"/><path d="M30.132 33.72H.357v7.477h29.775V33.72z" fill="#0E4F95"/><path d="M30.132 33.72H.357v7.477h29.775V33.72z" stroke="#0E4F95" stroke-width="1.03" stroke-miterlimit="10"/></g><path d="M29.294 32.365c-.436-.788-1.828-1.157-4.175-1.157h-4.275l.67-1.777H16.2l-.67 1.777h-4.276c-2.33 0-4.04.402-5.08 1.157-.838.637-1.626 1.86-2.33 3.722l-2.096 5.365c-.704 1.827-.888 3.05-.536 3.688.436.788 1.827 1.224 4.157 1.224h4.259l-.872 2.213h5.315l.872-2.213H19.2c2.33 0 4.04-.402 5.114-1.224.821-.637 1.592-1.844 2.296-3.688l2.08-5.382c.754-1.844.938-3.068.62-3.705h-.017zM11.02 40.546h-2.5l1.375-3.554h2.498l-1.374 3.554zm10.864 0h-2.498l1.374-3.554h2.498l-1.374 3.554z" stroke="#0E4F95" stroke-width="1.03" stroke-miterlimit="10"/><path d="M9.326 36.085L7.247 41.45h4.259l2.079-5.382H9.326v.017zm10.931 0l-2.095 5.365h4.241l2.08-5.382H20.24l.016.017z" fill="#fff"/><path d="M75.483.34c-.402 0-1.341-.167-1.458-.083-.151.084-1.157.033-1.224.15-.05.152.955.252.788.32-.168.066-1.727.083-1.945.15-.201.067 1.123.151 1.106.352-.033.185-.436.168-.486.235-.033.084.201.251.151.536-.067.252-.201.42-.47.403-.234-.034-1.022-.302-1.978-.755-.955-.469-1.894-.184-2.297-.117-.419.067-.955.201-1.542.252-.587.033-1.391.117-2.247.167-.838.05-2.364.721-2.867.956-.52.251-1.676 1.492-1.676 1.492s-.872.704-1.023 1.626c0 .05-.05 1.006.285 1.308.319.318.352.369.537.486.184.084-.235.285-.235.285l.838-.235s-.084.37-.117.654c-.034.285.117.201.15.235.034.05-.05.369.185.604.202.251.302-.067.47.167.084.118-.05.235-.185.302.319-.117.906-.319.889-.285-.05.067-.151.302-.168.604-.033.301.034.352.201.419.185.067.252-.151.37.05.117.184.67 1.274.553 1.341-.118.05-.721.436-1.224.94-.487.519-1.275 1.625-1.677 2.263-.402.653-1.14 1.274-1.86 1.777-.705.47-.822.603-.822.603s-.52-1.023-.872-1.542c-.52-.771-.889-1.023-1.123-1.24-.436-.37-.872-.588-.872-.588s.2-.436.603-.654c.553-.301.906-.871 1.107-1.458.184-.587.587-1.123 1.056-1.945.486-.821 1.308-.956 1.459-.872.15.118.184 0 .352.436.167.436.301.486.301.369 0-.117.436.285.436.285s.118-.168-.084-.654c-.184-.486-.67-.872-.77-.989-.084-.117-.084-.168-.118-.319-.034-.15-.235-.402-.235-.402l-.603.637c-.302.302-1.107 1.308-1.107 1.308l-1.593 1.459 2.532-2.7L55.18 10.3s-1.358 1.106-1.24 1.19c.117.117.05.168-.252.369-.302.2-.034.2-.285.352-.252.15-.99-.235-.99-.235s.37.47.353.42c-.034-.034-.47-.085-.352-.051.117.05.167.302.167.302l-.2-.05s.083.301-.068.603c-.168.302-.603.436-.637.285-.034-.151-.872-.201-1.459-.151-.603.084-.821.084-1.425-.201-.603-.285-.871-.084-.939.033-.083.118-.754.47-.754.47l.034-.403s-1.275.637-1.275.839c0 .2-.435.704-.352.704.084 0 1.459-1.24 4.326-1.073 1.341.067 2.213.939 2.213.939s-.604 1.86-.352 2.816c.251.906-.168 2.13-1.006 2.465-.889.369-2.062-.637-2.029-.235.034.403.05.285.302.352.235.067.319.084.486.436a.423.423 0 01-.033.52c.033-.034.084-.067.285-.067.285-.034.352.235.352.235l-.084.486s.754 0 1.224-.151.771-.42.939-.704c.167-.285.117-.654.167-.889s.235-.201.235-.201l-.67-.436s.251-.067.469-.168c.218-.083.47-.486.436-.754-.034-.285-.319-.252-.319-.252s.084-.167.084-.184c0-.017-.05-.084-.201-.285-.151-.168 0-.369 0-.369l.553-1.509s.889.772 1.258 1.912c.352 1.156.285 2.732-.185 3.856-.47 1.123-2.028 1.86-3.135 2.263-1.106.402-2.649.201-3.806-.252a3.788 3.788 0 01-1.71-1.391s-.167.034-.235.084c-.05.05-.15.117.05.47.185.368.906.82 1.493 1.122.587.302 2.833.638 2.833.638s-.234.167-.821.067c-.42-.067-1.476-.37-1.476-.37l.52.37.905.52s.638.067 1.912-.068c1.257-.15 2.448-.821 2.934-1.056.47-.235 1.794-1.358 1.777-1.358-.201.184-.553.654-.553.654s-.872.771-1.744 1.274c-.905.486-2.783.822-2.783.822s1.157-.118 1.492-.201c1.392-.37 1.861-.671 1.861-.671s-.52.47-.637.553c-.42.302-.905.47-1.66.587-.587.067-1.308-.034-1.308-.034s-.586-.067-.553-.05c.822.402 1.56.47 2.783.235 1.107-.201 1.593-.403 2.197-.838.603-.436 1.072-1.241 1.156-1.61.084-.369.37-.704.52-.889.168-.184.084-.184.034-.285-.05-.083-.05-.301-.05-.301l.15.184h.369l-.117-.52c-.05-.2 0-.234.067-.486.033-.184.067-.419.067-.419s.888-.537.939-.637c.067-.084-.486-.235-.486-.235s.15-.084.167-.15c.05-.051.151-.286.084-.47-.05-.185-.352-.235-.285-.436.067-.184.235-.117.235-.117s1.257-.37 1.961-.554c.67-.184.872-.251 1.274-.52.436-.284.554-.586.637-.653a1.77 1.77 0 00.302-.319c.05-.117.235-.352.486-.402.252-.05.285-.235.285-.235l.721.302.084-.235s.252.05.436-.033c.168-.05.185-.352.185-.352s.637-.151 1.106.436c.47.553 1.459-.084 1.71-.185 1.073-.369.369 1.777 1.056 2.8.403.604 1.124.419 1.308.704.939 1.392.118 1.593.118 1.593s.15.201.234.302c.067.083-.067.352-.067.352l.486-.42-.47.99s.185-.285.789-.772c.285-.2.235-.033.419-1.14.184-1.123-.754-1.19-.754-1.19l-.52.034v-.47s-.587.034-.889-.302c-.302-.352.151-1.458.486-1.978.319-.553.94-.352 1.51-.067.586.285 1.357.72 1.743 1.626.402.889.302 1.777.117 2.817-.184 1.073-.653 1.827-1.257 2.464-.604.604-1.794 1.023-2.666 1.19-.872.152-1.844 0-2.699-.284-.872-.285-1.61-.94-1.727-1.107-.15-.168-.369-.436-.369-.436l-.15.05s-.068.034-.118.05a.185.185 0 00-.067.085c-.05.654.822 1.123 1.509 1.425 2.38 1.056 3.57.654 3.57.654s-.636.251-1.14.184c-.519-.05-1.676-.436-1.676-.436s.185.151.302.201c.084.067.486.319.553.37.067.033.52.2.788.25.721.085 1.476 0 3.102-.485 1.777-.52 3.169-1.979 3.37-2.18l-.956 1.056s-.603.436-1.073.755c-1.375.888-2.9 1.123-2.9 1.123l.939-.117c.419-.05 2.313-.906 2.313-.906l-.821.47s-.587.301-.838.419c-.252.084-.99.285-1.46.302-.469.033-.955-.034-.955-.034l-.402-.034s.285.252 1.106.353c.822.083.889.117 1.912-.067 1.022-.185 2.012-.654 2.582-1.258.586-.604.72-1.308.77-1.425.051-.15.068-.285.202-.42.134-.15.05-.066.184-.284.151-.201.034-.168-.033-.319-.05-.167-.034-.067.084-.302.084-.2.167-.25.302-.52.15-.25.033-.234.033-.435 0-.201.184-.252.251-.352.068-.067.872-.52.872-.52s-.167-.033-.251-.084c-.084-.05-.168-.067-.235-.117-.067-.067.151-.151.235-.252.067-.15.117-.184.15-.301.034-.118-.2-.201-.301-.352-.084-.151.05-.185.033-.52-.033-.319-.469-.905-.52-1.123-.066-.202-.703-1.14-.837-1.157-.151-.034-.956-.587-1.073-.637-.118-.05-.772-.637-1.073-.822-.302-.184-.671-.637-.94-.654-.25-.033-.72-.251-.72-.251s.033-.185.05-.37c.05-.184.034-.351.084-.552.067-.202.486-.352 1.006-.52.52-.185 2.531-.436 2.531-.436s.302.067.537.15c.235.085.788.437.788.437s-.05-.151-.05-.185c0-.067-.185-.352-.47-.637-.285-.285-.536-.251-.99-.318-.418-.084-1.106-.118-1.106-.118l-.352-.553s.151 0 .252-.033c.084-.034.52.033.67.033.168.034.436.201.436.201l-1.106.067 1.157.034.52.033s-.068-.167-.252-.318c-.185-.168-1.157-.553-1.509-.67-.369-.118-1.073-.202-1.073-.202l-1.14-.654s1.358-1.777 1.391-1.827c.05-.05.403-.118.537-.302.117-.184.168-.201.235-.436.067-.235.05-.15.436-.251.352-.118.301-.235.285-.352-.034-.118.15-.05.368-.068.235-.033.068-.117.118-.301.033-.185.251-.067.52-.151.251-.067.905.033 1.19-.252.302-.285.302-.301.553-.553.252-.251.185-.084.553-.184.37-.101.151-.05.487-.302.352-.252.083-.151.117-.319.034-.167.05-.184.084-.301.05-.118.15-.185.302-.403.167-.184.067-.251.067-.553.033-.302 0-.151.184-.319.117-.301-1.459-1.978-1.86-1.978m-6.355 10.546c-.151.067-.47.167-.654.301-.201.118 0 .185.084.487.084.301-.436.52-.587.72-.168.185-.168.403-.251.47-.084.067-.47.067-.654.084-.185.033.184.419.184.419l-.553.47s-.486.033-.67.066c-.185.034-1.275.067-1.275.067s.201-.368.369-.586c.67-1.073 1.006-1.107 1.056-1.342.302-1.743-2.33-2.129-1.86-3.202.184-.436.402-.654.402-.654s.15-.301.469-.402c.319-.084.821-.184 1.24-.151.437.067 1.51.15 2.247.168.721.033.838-.47.838-.47s-.234.235-.301.587c-.067.319-.42 1.19-.42 1.19l-.352 1.023 1.308.721s-.452-.067-.603 0m20.755 40.273H1.044v.419h88.723v-.42z" fill="#E7382B"/><mask id="f" style="mask-type:luminance" maskUnits="userSpaceOnUse" x="0" y="52" width="90" height="6"><path d="M89.885 52.618H.927v5.214h88.958v-5.214z" fill="#fff"/></mask><g mask="url(#f)"><path d="M2.435 53.64v-.402h.403v.403c.402.017.737.15.972.369.235.218.352.486.352.821 0 .335-.117.587-.352.822-.235.218-.553.352-.989.369v.402h-.402v-.402a1.5 1.5 0 01-.956-.336 1.075 1.075 0 01-.386-.838c0-.335.135-.637.386-.838.251-.201.57-.319.956-.336l.016-.033zm0 .353c-.268 0-.486.084-.637.235-.167.134-.251.335-.251.586 0 .252.084.453.235.587.167.151.385.218.653.235v-1.643zm.403 0v1.66a.945.945 0 00.654-.235.782.782 0 00.234-.587.782.782 0 00-.234-.587c-.151-.15-.37-.218-.654-.234v-.017zm3.403 1.676l.403.05c-.067.236-.185.42-.353.554-.167.134-.402.201-.67.201-.335 0-.604-.1-.805-.302-.201-.2-.302-.502-.302-.871 0-.37.1-.688.302-.889.201-.218.47-.319.788-.319.319 0 .57.101.771.319.202.201.302.503.302.872v.1H4.933a.77.77 0 00.218.57.645.645 0 00.487.202.54.54 0 00.368-.118c.101-.067.185-.2.252-.352l-.017-.017zm-1.29-.62h1.307c-.017-.184-.067-.335-.15-.436a.604.604 0 00-.487-.218.619.619 0 00-.453.185.76.76 0 00-.201.486l-.017-.017zm2.011 1.04c.285-.37.42-1.023.402-1.962h1.627v1.962h.251v.972h-.318v-.654H7.079v.654h-.318v-.972h.201zm.738-1.643c-.034.737-.151 1.29-.352 1.643h1.257v-1.643H7.7zm3.57 1.224l.403.05a1.052 1.052 0 01-.352.553c-.168.134-.402.201-.67.201-.336 0-.604-.1-.805-.302-.201-.2-.302-.502-.302-.871 0-.37.1-.688.302-.889.201-.218.47-.319.788-.319.318 0 .57.101.771.319.201.201.302.503.302.872v.1H9.963a.77.77 0 00.218.57.645.645 0 00.486.202.545.545 0 00.37-.118c.1-.067.184-.2.25-.352l-.016-.017zm-1.29-.62h1.308c-.017-.185-.067-.336-.151-.437a.604.604 0 00-.487-.218.619.619 0 00-.452.185.76.76 0 00-.201.486l-.017-.017zm2.196 2.246v-3.169h.352v.302c.084-.118.185-.201.285-.269.1-.05.235-.083.386-.083.201 0 .369.05.52.15.15.101.268.235.352.42.084.184.117.385.117.603 0 .235-.05.453-.134.637a1.051 1.051 0 01-.369.436.982.982 0 01-.52.151.78.78 0 01-.603-.285v1.107h-.403.017zm.352-2.012c0 .302.067.52.185.654a.582.582 0 00.436.218.586.586 0 00.452-.218c.118-.151.185-.37.185-.67 0-.303-.067-.504-.185-.655a.532.532 0 00-.436-.218c-.167 0-.318.084-.452.235-.134.15-.201.386-.201.67l.016-.016zm3.739 1.123s-.067-.167-.084-.285a1.65 1.65 0 01-.419.252 1.25 1.25 0 01-.436.067c-.251 0-.452-.067-.587-.185a.608.608 0 01-.2-.47.58.58 0 01.083-.301c.05-.1.117-.168.201-.218.084-.05.185-.1.285-.134a3.97 3.97 0 01.352-.05c.319-.034.553-.084.704-.134v-.101c0-.15-.033-.268-.117-.335-.1-.084-.251-.134-.453-.134-.184 0-.318.033-.419.1-.084.067-.15.184-.2.335l-.386-.05c.033-.168.1-.285.167-.386a.768.768 0 01.352-.234c.151-.05.335-.084.537-.084.2 0 .368.017.486.067.117.05.218.1.268.168.05.067.1.15.117.268 0 .067.017.184.017.352v.52c0 .369 0 .587.034.687.017.1.05.184.1.268h-.419l.017.017zm-.117-1.14c-.151.05-.352.1-.654.151-.168.017-.285.05-.352.084-.067.033-.118.067-.151.134a.338.338 0 00-.05.184c0 .1.033.185.117.252a.55.55 0 00.352.1c.15 0 .285-.033.402-.1a.688.688 0 00.269-.268c.05-.084.067-.218.067-.386v-.151zm1.022-1.14h.403v1.962h1.09v-1.962h.402v1.962h.251v.972H19v-.654h-1.81v-2.28h-.018zm2.566 0h.402v1.744l1.09-1.744h.419v2.28h-.403V54.68l-1.09 1.727h-.418v-2.28zm4.358 0v2.28h-.385v-.888h-.235a.843.843 0 00-.318.05c-.067.033-.168.15-.302.335l-.352.503h-.486l.419-.62c.134-.185.268-.302.385-.319a.884.884 0 01-.503-.235.66.66 0 01-.167-.452c0-.201.067-.352.218-.486.15-.118.352-.185.62-.185h1.073l.034.017zm-.385.319h-.57c-.235 0-.386.033-.453.1a.341.341 0 00-.1.252c0 .134.05.234.15.301.101.068.285.101.537.101h.436v-.754zm2.28 1.961v-3.152h1.207c.252 0 .436.034.587.1a.79.79 0 01.352.303.776.776 0 01.134.419.652.652 0 01-.117.385.712.712 0 01-.335.285c.2.05.352.151.452.285.1.135.151.302.151.487a.91.91 0 01-.1.419.86.86 0 01-.235.301 1.08 1.08 0 01-.352.151c-.134.034-.319.05-.52.05H25.99v-.033zm.42-1.827h.703c.185 0 .319 0 .403-.034a.633.633 0 00.251-.15c.067-.068.084-.168.084-.269a.57.57 0 00-.084-.285.37.37 0 00-.218-.168c-.1-.033-.251-.05-.486-.05h-.637v.956h-.017zm0 1.458H27.5a.88.88 0 00.251-.083.533.533 0 00.168-.168.492.492 0 00.067-.268.468.468 0 00-.1-.302.548.548 0 00-.252-.185 1.736 1.736 0 00-.47-.05h-.737v1.09l-.017-.034zm4.14-.368l.403.05a1.058 1.058 0 01-.352.553c-.168.134-.403.201-.671.201-.335 0-.604-.1-.805-.302-.201-.2-.302-.502-.302-.871 0-.37.101-.688.302-.889.201-.218.47-.319.788-.319.319 0 .57.101.771.319.202.201.302.503.302.872v.1h-1.743a.77.77 0 00.218.57.645.645 0 00.486.202c.15 0 .268-.034.369-.118.1-.067.184-.2.251-.352l-.017-.017zm-1.29-.62h1.307c-.017-.185-.067-.336-.15-.437a.604.604 0 00-.487-.218.62.62 0 00-.453.185.76.76 0 00-.2.486l-.018-.017zm2.246-.923h1.844v2.28h-.386v-1.961H31.91v1.14c0 .268 0 .436-.033.52-.017.083-.067.15-.151.217a.532.532 0 01-.335.1c-.101 0-.202 0-.319-.016v-.318h.168s.134 0 .167-.017c.034 0 .05-.05.067-.084 0-.033.017-.15.017-.352v-1.509h.017zm2.33 1.14c0-.42.118-.738.352-.939.202-.168.453-.251.738-.251.319 0 .587.1.788.302.201.2.302.486.302.855 0 .301-.05.52-.134.687a.859.859 0 01-.386.386c-.167.1-.352.134-.57.134-.318 0-.587-.1-.788-.302-.201-.201-.302-.503-.302-.889v.017zm.403 0c0 .285.067.52.2.654.135.15.303.218.487.218a.627.627 0 00.486-.218c.134-.15.202-.369.202-.67 0-.286-.068-.504-.202-.638a.627.627 0 00-.486-.218.604.604 0 00-.486.218c-.134.151-.201.37-.201.654zm3.772.302l.386.05c-.05.268-.151.47-.319.62-.168.151-.386.218-.637.218-.319 0-.57-.1-.771-.301-.202-.201-.285-.503-.285-.872 0-.252.033-.47.117-.654a.935.935 0 01.386-.42c.167-.1.352-.133.553-.133.251 0 .453.067.62.184.168.117.269.302.302.537l-.386.05a.615.615 0 00-.2-.352.483.483 0 00-.336-.117c-.201 0-.369.067-.486.218-.118.134-.185.368-.185.67 0 .302.067.537.185.67a.609.609 0 00.47.202c.15 0 .284-.05.385-.134.1-.1.167-.235.201-.436zm.72-1.442h.403v1.744l1.09-1.744h.42v2.28h-.403V54.68l-1.09 1.727h-.42v-2.28zm2.516 0h1.844v2.28h-.402v-1.961h-1.057v1.961h-.402v-2.28h.017zm4.024 1.542l.402.05c-.067.236-.185.42-.352.554-.168.134-.403.201-.67.201-.336 0-.604-.1-.806-.302-.2-.2-.301-.502-.301-.871 0-.37.1-.688.301-.889.202-.218.47-.319.788-.319.319 0 .57.101.772.319.2.201.301.503.301.872v.1h-1.743a.77.77 0 00.218.57.645.645 0 00.486.202c.15 0 .268-.034.369-.118.1-.067.184-.2.251-.352l-.016-.017zm-1.291-.62h1.307c-.016-.184-.067-.335-.15-.436a.604.604 0 00-.487-.218.619.619 0 00-.453.185.76.76 0 00-.2.486l-.017-.017zm2.011 1.04c.285-.37.42-1.023.403-1.962h1.626v1.962h.252v.972h-.319v-.654H46.11v.654h-.319v-.972h.201zm.738-1.643c-.033.737-.15 1.29-.352 1.643h1.257v-1.643h-.905zm1.995-.319h.403v.956h1.09v-.956h.402v2.28h-.403v-1.023h-1.09v1.023h-.402v-2.28zm2.33 1.14c0-.42.118-.738.353-.939.2-.168.452-.251.737-.251.319 0 .587.1.788.302.202.2.302.486.302.855 0 .301-.05.52-.134.687a.858.858 0 01-.386.386c-.167.1-.352.134-.57.134-.318 0-.586-.1-.788-.302-.2-.201-.301-.503-.301-.889v.017zm.403 0c0 .285.067.52.201.654a.63.63 0 00.486.218.627.627 0 00.487-.218c.134-.15.2-.369.2-.67 0-.286-.066-.504-.2-.638a.627.627 0 00-.487-.218.604.604 0 00-.486.218c-.134.151-.201.37-.201.654zm2.247-1.14h1.34v.319h-.938v1.961h-.402v-2.28zm1.391 1.14c0-.42.118-.738.352-.939.201-.168.453-.251.738-.251.318 0 .587.1.788.302.201.2.302.486.302.855 0 .301-.05.52-.135.687a.858.858 0 01-.385.386c-.168.1-.352.134-.57.134-.319 0-.587-.1-.788-.302-.201-.201-.302-.503-.302-.889v.017zm.403 0c0 .285.067.52.2.654.135.15.303.218.487.218a.627.627 0 00.486-.218c.134-.15.201-.369.201-.67 0-.286-.067-.504-.2-.638a.627.627 0 00-.487-.218.604.604 0 00-.486.218c-.134.151-.202.37-.202.654zm5.834.034l.42.1a1.414 1.414 0 01-.487.788c-.235.185-.52.268-.855.268-.336 0-.637-.067-.855-.2a1.29 1.29 0 01-.503-.604 2.082 2.082 0 01-.168-.839c0-.335.067-.62.185-.855a1.26 1.26 0 01.553-.553c.235-.134.503-.184.788-.184.318 0 .587.084.805.234.218.168.368.386.452.671l-.419.1a.936.936 0 00-.319-.502c-.134-.101-.318-.151-.536-.151-.251 0-.453.05-.62.167a.903.903 0 00-.352.47 1.9 1.9 0 00-.1.603c0 .269.033.503.116.705a.907.907 0 00.37.452c.167.1.351.151.553.151a.936.936 0 00.603-.201c.168-.134.285-.335.335-.604l.034-.016zm.905-1.174h1.844v2.28h-.402v-1.961h-1.056v1.961h-.403v-2.28h.017zm2.28 1.14c0-.42.118-.738.353-.939.2-.168.452-.251.737-.251.319 0 .587.1.788.302.201.2.302.486.302.855 0 .301-.05.52-.134.687a.858.858 0 01-.386.386c-.168.1-.352.134-.57.134-.318 0-.587-.1-.788-.302-.201-.201-.302-.503-.302-.889v.017zm.403 0c0 .285.067.52.2.654.135.15.303.218.487.218a.628.628 0 00.486-.218c.135-.15.202-.369.202-.67 0-.286-.068-.504-.202-.638a.627.627 0 00-.486-.218.604.604 0 00-.486.218c-.134.151-.201.37-.201.654zm2.246 2.029v-3.169h.352v.302a1.07 1.07 0 01.285-.269.881.881 0 01.386-.083c.201 0 .369.05.52.15.15.101.268.235.352.42.084.184.117.385.117.603 0 .235-.05.453-.134.637a1.051 1.051 0 01-.369.436.983.983 0 01-.52.151.78.78 0 01-.603-.285v1.107h-.402.016zm.352-2.012c0 .302.067.52.185.654a.583.583 0 00.436.218.586.586 0 00.452-.218c.118-.151.185-.37.185-.67 0-.303-.067-.504-.185-.655a.532.532 0 00-.436-.218c-.167 0-.318.084-.452.235-.134.15-.201.386-.201.67l.016-.016zm1.828-1.157h1.894v.319h-.754v1.961H70.1v-1.961h-.754v-.319zm3.822 2.28s-.067-.167-.083-.285a1.654 1.654 0 01-.42.252 1.25 1.25 0 01-.435.067c-.252 0-.453-.067-.587-.185a.608.608 0 01-.201-.47.58.58 0 01.083-.301.51.51 0 01.202-.218c.083-.05.184-.1.285-.134.083-.017.2-.034.352-.05a3.49 3.49 0 00.704-.134v-.101c0-.15-.034-.268-.118-.335-.1-.084-.251-.134-.452-.134-.185 0-.319.033-.42.1-.083.067-.15.184-.2.335l-.386-.05c.033-.168.1-.285.168-.386a.768.768 0 01.352-.234c.15-.05.335-.084.536-.084s.369.017.486.067c.118.05.218.1.269.168.05.067.1.15.117.268 0 .067.017.184.017.352v.52c0 .369 0 .587.033.687.017.1.05.184.1.268h-.418l.016.017zm-.117-1.14c-.15.05-.352.1-.654.151-.167.017-.285.05-.352.084-.067.033-.117.067-.15.134a.338.338 0 00-.051.184c0 .1.034.185.117.252a.55.55 0 00.352.1.8.8 0 00.403-.1.688.688 0 00.268-.268c.05-.084.067-.218.067-.386v-.151zm2.314 1.14v-3.152h1.207c.218 0 .369 0 .486.034.15.033.285.067.402.15a.648.648 0 01.252.302c.067.135.1.269.1.436a.935.935 0 01-.268.688c-.167.184-.486.285-.939.285h-.821v1.29h-.42v-.033zm.419-1.66h.838c.268 0 .47-.05.587-.15.117-.101.168-.235.168-.42a.532.532 0 00-.101-.335.518.518 0 00-.268-.184 1.839 1.839 0 00-.403-.034h-.821v1.123zm2.18.52c0-.42.117-.738.352-.939.2-.168.452-.251.737-.251.319 0 .587.1.788.302.201.2.302.486.302.855 0 .301-.05.52-.134.687a.858.858 0 01-.386.386c-.167.1-.352.134-.57.134-.318 0-.587-.1-.788-.302-.201-.201-.302-.503-.302-.889v.017zm.402 0c0 .285.067.52.201.654a.63.63 0 00.486.218.627.627 0 00.486-.218c.134-.15.201-.369.201-.67 0-.286-.067-.504-.2-.638a.627.627 0 00-.487-.218.604.604 0 00-.486.218c-.134.151-.201.37-.201.654zm3.772.302l.386.05c-.05.268-.151.47-.319.62-.168.151-.386.218-.637.218-.319 0-.57-.1-.771-.301-.201-.201-.285-.503-.285-.872 0-.252.033-.47.117-.654a.935.935 0 01.386-.42c.167-.1.352-.133.553-.133.251 0 .453.067.62.184.168.117.269.302.302.537l-.385.05a.615.615 0 00-.202-.352.483.483 0 00-.335-.117c-.201 0-.369.067-.486.218-.118.134-.185.368-.185.67 0 .302.067.537.185.67a.609.609 0 00.47.202c.15 0 .284-.05.385-.134.1-.1.168-.235.201-.436zm2.247 0l.385.05c-.05.268-.15.47-.318.62-.168.151-.386.218-.637.218-.319 0-.57-.1-.772-.301-.2-.201-.285-.503-.285-.872 0-.252.034-.47.118-.654a.935.935 0 01.385-.42c.168-.1.352-.133.554-.133.251 0 .452.067.62.184.168.117.268.302.302.537l-.386.05a.615.615 0 00-.201-.352.483.483 0 00-.335-.117c-.202 0-.37.067-.487.218-.117.134-.184.368-.184.67 0 .302.067.537.184.67a.609.609 0 00.47.202c.15 0 .285-.05.385-.134.101-.1.168-.235.202-.436zm.72-1.442h.403v1.744l1.09-1.744h.419v2.28h-.403V54.68l-1.09 1.727h-.419v-2.28zm2.515 0h.403v1.744l1.09-1.744h.419v2.28h-.403V54.68l-1.09 1.727h-.419v-2.28z" fill="#E7372A"/></g><defs><linearGradient id="paint0_linear_76_18180" x1="38.284" y1="43.118" x2="38.284" y2="40.435" gradientUnits="userSpaceOnUse"><stop stop-color="#fff"/><stop offset=".14" stop-color="#FDFEFF"/><stop offset=".24" stop-color="#F3F6FA"/><stop offset=".33" stop-color="#E4EBF4"/><stop offset=".41" stop-color="#CDDBE9"/><stop offset=".49" stop-color="#B1C7DD"/><stop offset=".57" stop-color="#8CACCD"/><stop offset=".64" stop-color="#638EBC"/><stop offset=".7" stop-color="#336CA8"/><stop offset=".75" stop-color="#0E4F95"/><stop offset="1" stop-color="#0E4F95"/></linearGradient></defs></svg>