<svg width="210" height="80" fill="none" xmlns="http://www.w3.org/2000/svg"><path d="M157.235 26.674H.035v26.543h157.2V26.674z" fill="#2E3057"/><path d="M183.063 52.661H73.529v27.1h109.534v-27.1z" fill="#2E3057"/><path d="M140.539 28.785h-4.409l-8.993 22.36h4.967l1.795-4.689 1.865-4.792 2.44-6.327 2.405 6.327 1.847 4.792 1.795 4.689h5.281l-8.993-22.36z" fill="#fff"/><path d="M149.532 39.851a10.94 10.94 0 00-1.76-.14c-3.521 0-5.403 1.43-6.902 2.58-1.29.976-2.213 1.69-4.287 1.69s-2.998-.714-4.287-1.69l-2.632 3.434c1.499 1.15 3.381 2.579 6.902 2.579 3.52 0 5.402-1.43 6.901-2.58 1.29-.975 2.213-1.69 4.287-1.69a6.33 6.33 0 011.76.227v-4.41h.018zM46.185 28.785h-4.427l-8.993 22.36h4.985l1.795-4.689 1.847-4.792 2.44-6.327 2.405 6.327 1.865 4.792 1.795 4.689h5.28l-8.992-22.36z" fill="#fff"/><path d="M55.178 39.851a10.93 10.93 0 00-1.76-.14c-3.521 0-5.403 1.43-6.902 2.58-1.29.976-2.213 1.69-4.287 1.69s-2.998-.714-4.288-1.69l-2.614 3.434c1.499 1.15 3.381 2.579 6.902 2.579 3.52 0 5.402-1.43 6.901-2.58 1.29-.975 2.213-1.69 4.287-1.69.697 0 1.273.087 1.76.227v-4.41zm31.37 38.079v-2.997c-3.05-.035-5.455-.82-7.25-2.353-1.795-1.516-2.684-3.66-2.684-6.413 0-2.754.906-4.81 2.718-6.344 1.813-1.516 4.218-2.335 7.216-2.405v-2.37h5.106v2.37c2.98.07 5.385.871 7.233 2.422 1.847 1.552 2.771 3.66 2.771 6.327 0 2.666-.907 4.862-2.737 6.396-1.812 1.534-4.252 2.318-7.267 2.37v2.998h-5.106zm-4.514-11.763c0 2.649 1.499 3.99 4.514 4.06v-8.12c-1.534.034-2.667.435-3.399 1.184-.732.75-1.098 1.708-1.098 2.876m14.186 0c0-1.168-.365-2.126-1.08-2.876-.732-.75-1.882-1.133-3.486-1.185v8.122c1.639-.018 2.806-.366 3.52-1.046.698-.662 1.064-1.673 1.064-3.015M107.13 77.67V55.31h22.064v4.793h-16.94v3.922h15.981v4.792h-15.981v4.06h17.253v4.793H107.13zm44.214-6.03l1.952 3.834c-.68.766-1.69 1.394-3.032 1.864-1.342.488-2.754.715-4.253.715-3.468 0-6.291-1.063-8.47-3.172-2.178-2.126-3.259-4.915-3.259-8.383 0-3.468 1.029-6.134 3.068-8.313 2.039-2.178 4.914-3.259 8.626-3.259 1.43 0 2.754.21 3.957.663 1.22.435 2.178.993 2.875 1.673l-2.265 3.834c-1.517-.924-3.033-1.377-4.567-1.377-1.812 0-3.311.593-4.496 1.795-1.185 1.185-1.778 2.858-1.778 4.984 0 1.987.628 3.608 1.883 4.88 1.255 1.272 2.893 1.9 4.879 1.9 1.796 0 3.416-.54 4.863-1.638m6.727-11.572v-4.793h22.377v4.793h-8.574v17.567h-5.124V60.068h-8.679zM24.592 51.144V33.577h-7.53l-.487 4.218c-.331 2.91-.767 5.315-1.272 7.163-.506 1.864-1.168 3.276-1.97 4.252-.801.976-1.673 1.603-2.631 1.865-.959.278-2.126.296-3.52.07l.087-5.107c.435.087.801.087 1.115 0 .314-.087.68-.348 1.046-.82.383-.452.714-1.132 1.01-2.02.28-.89.558-2.162.82-3.852.26-1.69.487-3.712.662-6.1l.313-4.479h17.446v22.36h-5.107l.018.017zm33.635.001v-4.793h2.406c.61-.784 1.272-2.353 1.969-4.706.697-2.352 1.115-5.14 1.255-8.382l.192-4.48h14.604v17.568h1.97v4.793H58.226zM68.65 37.342a29.948 29.948 0 01-1.028 5.472c-.505 1.813-.976 2.998-1.377 3.538h7.285V33.577h-4.531l-.349 3.765zm14.534 2.614c0-3.294 1.098-6.048 3.311-8.26 2.214-2.214 5.072-3.312 8.575-3.312 3.503 0 6.326 1.046 8.539 3.172 2.231 2.108 3.347 4.914 3.347 8.4 0 3.485-1.133 6.134-3.364 8.313-2.248 2.178-5.089 3.259-8.522 3.259s-6.326-1.063-8.557-3.172c-2.231-2.109-3.346-4.915-3.346-8.4m5.437 0c0 1.917.627 3.52 1.882 4.827s2.771 1.952 4.566 1.952c2.04 0 3.625-.627 4.758-1.9 1.133-1.272 1.691-2.892 1.691-4.88 0-1.986-.628-3.624-1.848-4.879-1.237-1.255-2.77-1.882-4.6-1.882-1.83 0-3.416.627-4.636 1.865-1.22 1.237-1.83 2.875-1.83 4.897m22.691 11.189v-22.36h17.584v4.792h-12.478v17.568h-5.106z" fill="#fff"/><path d="M183.063 39.887V53.15h-26.525V39.887c1.655-2.196 3.311-4.409 6.622-4.409 6.623 0 6.623 8.836 13.263 8.836 3.311 0 4.967-2.196 6.622-4.41" fill="#C2D58B"/><path d="M183.063 26.623v13.263c-1.656 2.213-3.329 4.41-6.623 4.41-6.622 0-6.622-8.837-13.262-8.837-3.311 0-4.967 2.214-6.623 4.41V26.605h26.525l-.017.017z" fill="#C2D58B"/><path d="M183.063 39.957V53.22h-26.525V39.957c1.655-2.196 3.311-4.41 6.622-4.41 6.623 0 6.623 8.837 13.263 8.837 3.311 0 4.967-2.196 6.622-4.41" fill="#8FC07A"/><path d="M183.063 26.692v13.262c-1.656 2.214-3.329 4.41-6.623 4.41-6.622 0-6.622-8.836-13.262-8.836-3.311 0-4.967 2.213-6.623 4.409V26.674h26.525l-.017.018z" fill="#8FC07A"/><path d="M156.538.167v26.526h26.525V.167h-26.525z" fill="#9BCFDD"/><path d="M183.063 26.693v26.525h26.508V26.693h-26.508z" fill="#4B8776"/><path d="M191.219 33.925v12.688h2.51" stroke="#fff" stroke-width="1.04" stroke-miterlimit="10"/><path d="M188.065 36.8l3.154-3.154 3.155 3.154m-6.954 3.817l3.799-3.8 3.782 3.8" stroke="#fff" stroke-width="1.04" stroke-miterlimit="10"/><path d="M186.897 44.347l4.322-4.305 4.322 4.305" stroke="#fff" stroke-width="1.04" stroke-miterlimit="10"/><path d="M203.558 37.114c.279-.4.453-.889.453-1.429a2.473 2.473 0 00-2.474-2.475c-1.36 0-2.493 1.116-2.493 2.475 0 .54.175 1.028.454 1.43a3.813 3.813 0 00-1.813 3.258 3.853 3.853 0 007.703 0 3.829 3.829 0 00-1.83-3.259z" stroke="#fff" stroke-width="1.04" stroke-linecap="round" stroke-linejoin="round"/><path d="M203.889 46.613h-2.353v-2.387" stroke="#fff" stroke-width="1.04" stroke-miterlimit="10"/><path d="M183.063.167v26.526h26.508V.167h-26.508z" fill="#C2D58B"/><path d="M192.666 13.432a3.66 3.66 0 117.318-.001 3.66 3.66 0 01-7.318.001zm11.031 7.474l-3.607-3.608m-7.546-7.545l-3.608-3.59m17.811 7.372h-5.089m-10.683 0h-5.089m17.811-7.372l-3.607 3.59m-7.546 7.545l-3.608 3.608m7.39-17.809v5.106m0 10.665v5.107m-39.788 21.73c3.311 0 3.311 2.057 6.622 2.057 3.312 0 3.312-2.057 6.623-2.057 3.311 0 3.311 2.057 6.64 2.057 3.329 0 3.311-2.057 6.64-2.057" stroke="#fff" stroke-width="1.04" stroke-miterlimit="10"/><path d="M176.737 47.73l1.864-3.817h-17.218l.923 3.764m7.39-15.634v11.868h-5.351l5.351-11.868zm0 0v11.868h4.967c1.551-7.755-4.967-11.868-4.967-11.868zm-5.089-12.128c-2.388 0-4.322-1.935-4.322-4.305 0-2.37 1.934-4.305 4.322-4.305.732 0 1.412.175 2.022.506" stroke="#fff" stroke-width="1.04" stroke-linecap="round" stroke-linejoin="round"/><path d="M162.045 12.107c0-.68.227-1.377.68-1.952.854-1.098 2.3-1.447 3.537-.993m-.191 3.798a4.194 4.194 0 012.091-1.725 4.129 4.129 0 014.653 1.308m3.19 1.237a3.072 3.072 0 013.067 3.068 3.072 3.072 0 01-3.067 3.067" stroke="#fff" stroke-width="1.04" stroke-linecap="round" stroke-linejoin="round"/><path d="M177.469 14.163c0-.192.034-.4.034-.61 0-3.52-2.84-6.361-6.361-6.361-2.736 0-5.054 1.725-5.96 4.165a3.213 3.213 0 00-.575-.052 4.303 4.303 0 00-4.305 4.305 4.314 4.314 0 004.305 4.304h11.398a3.072 3.072 0 003.067-3.067c0-1.168-.662-2.161-1.603-2.684z" stroke="#fff" stroke-width="1.04" stroke-linecap="round" stroke-linejoin="round"/></svg>