<svg width="246" height="248" fill="none" xmlns="http://www.w3.org/2000/svg"><path d="M143.052 247.196c-.288 0-12.384-13.086-16.561-18.36l-.108-.144c-2.43 2.682-5.184 6.606-7.65 10.134-2.574 3.672-7.29 7.992-7.758 7.452-3.456-3.996-6.607-8.784-9.397-14.256-2.718 1.98-3.456 3.744-4.122 5.31-.594 1.386-1.206 2.826-3.042 3.708-.63.306-3.78-3.672-5.04-5.22-1.782-2.178-3.6-4.428-4.68-7.416-2.575 1.008-5.527 2.232-8.407 3.438-4.644 1.944-11.934 3.888-12.15 3.204-1.098-3.636-.738-8.821-.378-13.843.162-2.304.324-4.5.342-6.48-7.849 1.062-25.364 2.124-25.4 1.422-.216-3.186 1.188-6.102 2.539-8.91.828-1.71 1.674-3.457 2.178-5.311-4.447-.522-18.451-5.562-18.361-6.264.504-3.924 6.858-16.795 7.56-18.415-3.798-.72-7.74-.18-10.962.27-3.114.432-8.299-.972-8.065-1.638 1.674-4.59 7.489-14.346 10.783-19.477-3.276-1.422-7.47-2.376-11.233-3.24-3.672-.846-8.766-3.636-8.406-4.248.918-1.512 2.232-3.06 3.636-4.698 3.222-3.762 6.84-8.029 7.668-13.915-3.168-2.394-6.696-2.826-9.81-3.204-2.592-.324-4.842-.594-6.21-2.034-.486-.504 9.162-9.595 14.058-12.817-2.232-2.484-4.824-4.464-6.984-6.102-2.214-1.692-5.094-5.85-4.518-6.264 4.194-2.916 10.548-5.203 16.147-7.2l1.152-.415C17.496 87.08 13.5 72.481 14.166 72.21c1.422-.576 3.204-1.44 5.095-2.358 3.852-1.89 8.172-3.978 11.934-4.878-.99-3.024-2.394-5.184-3.564-6.984-1.134-1.746-1.998-6.319-1.314-6.462 5.238-.99 12.367-1.8 18.577-1.459.162-4.878.882-8.874 2.25-12.204.81-1.98 2.268-6.066 2.952-6.012 3.708.126 5.58 1.314 7.974 2.088.666.216.864-.306 1.782-.054 1.153-6.859 2.25-12.349 3.06-15.211.199-.684 6.355-.36 9.253-.27 4.23.144 8.964.288 12.672 1.746 1.225-3.312 1.567-5.58 1.855-7.434.27-1.764 2.502-5.797 3.132-5.49 4.356 2.124 10.458 5.256 14.868 8.586 2.503-3.33 5.491-5.4 7.921-7.074 1.404-.973 4.536-3.24 5.094-2.827 3.438 2.61 4.392 3.96 6.12 6.427.486.702 1.062 1.494 1.764 2.448C131.388 9.352 143.628.315 144.078.855c2.16 2.592 3.87 6.858 5.509 10.98.702 1.747 1.368 3.439 2.052 4.915 3.942-2.322 8.28-3.996 11.52-5.256 1.584-.612 2.934-1.134 3.798-1.566.63-.306 3.924 8.154 4.284 12.294.18 2.124.379 4.284.739 6.336 3.528-1.548 6.516-3.852 8.982-5.742 2.412-1.854 4.32-3.33 6.156-3.762.702-.162 3.384 5.058 4.752 7.56 1.945 3.546 3.961 7.219 4.573 10.513 2.844-.63 4.338-1.656 5.67-2.574 1.224-.864 5.49-1.242 5.544-.54.45 5.382.162 11.304-.846 17.569 3.888.161 8.443-.037 12.511-.217 4.59-.198 11.268.774 11.178 1.477-.45 3.168-2.808 7.002-5.094 10.728-1.278 2.07-2.484 4.05-3.33 5.814 4.248 1.548 9.018 4.788 12.906 7.435 2.107 1.422 4.087 2.772 5.041 3.15.648.252-2.142 6.624-8.227 7.776-2.754.522-5.346 1.854-7.092 3.402 3.402 1.692 7.434 3.33 11.034 4.806 4.285 1.747 7.669 3.133 9.289 4.249.576.396-3.852 6.012-6.318 7.506-1.44.882-2.916 1.764-4.267 2.916 3.133 3.06 5.707 7.489 7.813 11.143 1.17 2.016 2.268 3.906 2.97 4.626.486.504-5.22 5.202-8.173 5.994-1.764.486-3.564.972-5.418 1.908 1.062 1.35 2.178 2.772 3.294 4.176 4.213 5.293 8.173 10.297 9.631 12.691.216.342-3.114 3.366-4.284 4.536-1.962 1.962-4.339 4.338-9.181 4.716 3.114 6.589 6.859 16.219 7.777 18.667.252.666-8.497 1.476-13.249-.198-3.348-1.17-7.632-1.638-10.224-1.584-2.125 8.713 11.718 18.055 11.106 18.163-10.044 1.764-17.965 3.438-22.303 3.438.306 3.222 1.17 6.391 1.926 9.235.774 2.862 1.386 5.13 1.278 6.804-.054.702-12.456.234-18.397-1.368-1.44 8.064-4.626 18.775-5.328 18.613-3.078-.774-5.382-3.384-7.596-5.887-1.368-1.566-2.79-3.168-4.356-4.32-.991 3.294-1.351 7.345-1.675 10.693-.324 3.456-.576 6.192-1.368 7.686-.324.63-7.11-3.186-9.234-5.49-1.044-1.134-2.124-2.304-3.438-3.51-4.662 6.714-12.583 15.714-12.961 15.714m-16.579-21.817l2.089 1.837c3.492 4.428 10.476 13.23 14.346 16.812 2.484-2.934 12.295-15.75 12.655-15.804.378-.054 4.5 3.564 5.814 4.986 1.71 1.854 3.204 3.474 5.364 4.77.288-1.35.468-3.348.666-5.436.378-4.032 2.772-13.537 3.115-13.663.342-.126 5.598 3.636 7.506 5.796 1.674 1.908 3.276 3.709 5.058 4.627.954-3.655 3.834-18.163 4.14-18.361.306-.198 12.349 2.448 17.443 2.682-.18-1.242-.612-2.862-1.098-4.662-.864-3.222-1.998-11.953-1.728-12.205.27-.27 11.07-1.548 19.621-2.934-6.93-3.816-10.117-9.828-7.614-18.721.144-.504 8.604.036 12.618 1.44 3.438 1.206 7.146 1.242 9.576 1.026-1.548-4.032-8.406-18.631-8.172-19.009.252-.396 8.461-2.538 10.513-4.59.936-.918 1.872-1.872 3.06-2.556-1.818-2.61-5.274-6.948-8.623-11.16-1.458-1.837-4.572-6.067-4.518-6.427.072-.36 12.367-5.022 14.131-6.48-.738-1.026-1.548-2.448-2.52-4.104-2.25-3.888-8.695-13.123-8.425-13.393 1.854-1.836 3.852-3.06 5.797-4.23 1.962-1.188 3.708-2.25 5.004-3.762-1.764-.9-4.626-2.07-7.597-3.294-4.212-1.728-13.446-7.273-13.23-7.579 2.034-2.988 5.796-4.302 9.432-5.544 2.826-.972 4.716-3.042 5.977-4.626-1.135-.648-1.747-.486-3.421-1.638-3.96-2.7-14.238-7.885-14.4-8.209-.162-.324 2.394-5.904 4.05-8.586 1.8-2.934 3.636-5.94 4.41-8.37-1.944-.09-4.968.036-8.136.18-4.662.198-14.977-.072-15.211-.378-.234-.288 1.206-12.691.918-17.875-.468.216-.936.54-1.53.954-1.584 1.098-8.856 3.222-9.144 2.988-.288-.234-2.899-8.154-4.897-11.809-1.134-2.07-2.232-4.068-2.934-5.814-1.134.594-2.52 1.656-4.068 2.844-2.916 2.25-11.845 6.805-12.169 6.625-.324-.18-1.548-6.337-1.782-9.073-.306-3.546-.594-6.93-1.71-9.612-.81.342-1.764.702-2.808 1.116-3.492 1.35-13.014 6.048-13.374 5.958-.36-.09-2.665-4.752-3.583-7.092-1.35-3.402-2.736-6.895-4.32-9.235-3.69 2.898-17.101 14.527-17.479 14.509-.378-.036-2.97-3.24-3.672-4.23-1.458-2.07-2.268-3.222-4.644-5.13-.81.72-1.8 1.404-2.916 2.178-2.52 1.746-8.587 8.046-8.947 8.1-.36.054-11.88-7.128-15.282-8.802-.288.864-.432 1.782-.594 2.916-.324 2.106-2.934 9.918-3.276 10.044-.36.126-9.45-1.998-13.915-2.142-2.502-.072-4.896-.162-6.948-.486-.81 3.222-3.204 15.913-3.51 16.11-.306.199-3.907-.665-4.897-.99-1.98-.63-3.078-.99-5.58-1.151-.306 1.242-.882 2.646-1.566 4.32-1.494 3.636-3.294 13.752-3.564 14.023-.27.252-12.673.144-17.767.972.36.81.936 1.674 1.584 2.682 1.44 2.196 4.338 9.846 4.122 10.152-.198.306-9.342 3.456-13.554 5.508-1.459.72-2.863 1.404-4.123 1.945.234.72.486 1.548.774 2.466 1.278 4.176 5.437 17.478 5.077 17.605 0 0-12.943 4.626-16.831 7.002.846.828 2.052 1.764 3.402 2.79 2.574 1.962 8.712 8.334 8.64 8.694-.054.378-10.656 7.813-14.22 11.143.9.27 2.106.432 3.42.594 3.492.432 12.24 4.95 12.205 5.382-.703 7.074-5.58 11.611-9 15.607-.937 1.098-1.207 2.592-1.927 3.582 1.422.504 3.618 1.008 5.922 1.53 4.447 1.026 13.753 4.572 13.843 4.932.09.36-8.64 14.689-10.927 19.801 1.224.036 5.923-1.296 7.669-1.548 3.906-.54 11.142 1.62 11.304 1.944.162.342-1.908 5.4-3.078 7.777-1.944 3.942-3.942 7.992-4.662 11.304 1.044.288 2.322.738 3.834 1.26 3.744 1.296 14.13 3.546 14.347 3.852.234.288-1.332 6.139-2.448 8.443-1.044 2.16-2.034 4.23-2.25 6.282 4.77-.324 24.607-2.7 24.895-2.466.288.234.36 6.228.144 9.18-.306 4.176-.612 8.461-.036 11.593 2.07-.72 5.418-2.124 8.91-3.582 3.384-1.422 10.549-4.087 10.873-3.907.324.18 3.312 6.247 5.274 8.659.954 1.188 1.944 2.394 2.808 3.744.27-.378.504-.882.792-1.584.828-1.926 7.056-7.578 7.416-7.488.36.108 6.409 10.728 9.613 14.634 1.17-1.368 2.862-3.78 4.518-6.156 2.88-4.122 9.558-11.953 9.901-11.953" fill="#fff"/><path d="M56.954 98.075c1.926 1.296 2.43 3.906 1.152 5.833-1.296 1.926-3.906 2.448-5.814 1.152-1.926-1.296-2.448-3.907-1.152-5.833 1.296-1.926 3.906-2.448 5.832-1.152m31.772-67.068c1.926 1.296 2.448 3.906 1.151 5.832-1.295 1.926-3.906 2.448-5.814 1.152a4.205 4.205 0 014.681-6.984m115.637 72.704c1.926 1.296 2.448 3.906 1.152 5.832-1.296 1.926-3.906 2.448-5.814 1.152-1.926-1.296-2.448-3.906-1.152-5.832 1.296-1.926 3.906-2.448 5.832-1.152m-12.6 78.54c1.926 1.296 2.448 3.906 1.152 5.832-1.297 1.926-3.907 2.448-5.815 1.152-1.926-1.296-2.448-3.906-1.152-5.832 1.296-1.926 3.906-2.448 5.832-1.152m-40.898 27.325c1.926 1.296 2.449 3.906 1.152 5.832-1.296 1.927-3.906 2.449-5.814 1.153-1.926-1.297-2.448-3.907-1.152-5.833 1.296-1.926 3.906-2.448 5.832-1.152m-58.016-12.853c1.926 1.296 2.448 3.906 1.152 5.832-1.296 1.926-3.906 2.448-5.814 1.152-1.926-1.296-2.448-3.906-1.152-5.832 1.296-1.926 3.906-2.448 5.832-1.152m-52.581-38.866c1.926 1.297 2.449 3.907 1.152 5.833-1.296 1.926-3.906 2.448-5.814 1.152-1.926-1.296-2.448-3.906-1.152-5.832 1.296-1.927 3.906-2.449 5.832-1.153m96.719-118.065c1.926 1.296 2.448 3.906 1.152 5.832-1.296 1.926-3.906 2.448-5.814 1.152-1.926-1.296-2.448-3.906-1.152-5.832 1.296-1.926 3.906-2.448 5.832-1.152" fill="#fff"/><path d="M216.207 125.638c.198-5.706-.288-11.647-1.458-18.145-.9-4.968-2.646-9.72-4.32-14.329a236.848 236.848 0 01-1.926-5.382c-.72-2.142-1.638-4.338-2.808-6.75-4.266-8.785-10.027-16.507-17.083-22.987-6.354-5.833-12.673-10.225-19.333-13.429-4.284-2.07-8.658-4.086-12.906-6.048l-.108-.054c-5.437-2.52-9.757-3.996-13.969-4.806-3.42-.648-7.038-1.297-10.639-1.53-.774-.054-1.548-.108-2.322-.18-2.196-.18-4.446-.36-6.696-.199-.954.073-1.908.145-2.862.198-3.078.217-6.246.432-9.361.847-7.65 1.026-13.554 2.916-18.54 5.958-1.08.666-2.233 1.296-3.33 1.89l-1.009.54c-5.796 3.204-12.06 5.202-17.442 6.714-4.645 1.314-8.19 3.708-10.855 7.309-1.17 1.602-2.61 2.808-4.284 3.618h-.054c-.504.27-1.08.558-1.332 1.206-.864 2.376-2.502 4.284-4.104 6.138-.234.288-.486.558-.72.846-3.097 3.672-5.095 6.732-6.48 9.955-.45 1.044-.919 2.106-1.387 3.15-2.052 4.608-4.158 9.36-5.292 14.4-.018.108-.072.216-.108.324-.018.072-.054.126-.072.198l-.216.648c-2.196 6.769-4.482 13.771-5.328 21.061-.72 6.103-1.368 13.303-.576 20.485.828 7.579 2.754 14.185 5.886 20.179 2.502 4.77 4.734 8.983 6.84 12.871 2.304 4.248 4.968 7.56 8.19 10.116l.99.792c2.035 1.62 4.123 3.276 5.941 5.203.99 1.044 1.764 1.944 2.034 3.258.144.702.576 1.35.9 1.782 3.15 3.996 5.94 7.2 9.415 9.828 4.032 3.06 8.532 5.707 13.392 7.867 12.385 5.526 24.157 8.208 35.984 8.208h.45c1.584 0 3.186.09 4.752.18l.972.054c1.818.108 3.69.198 5.598.198s3.925-.09 5.923-.378c2.916-.414 5.976-1.134 9.342-2.178 11.305-3.528 19.657-7.128 27.073-11.683l.054-.036c3.222-1.962 6.535-3.996 9.073-6.966 3.096-3.636 5.868-6.948 8.46-10.17 2.196-2.719 4.248-5.437 5.04-8.821.09-.36.306-.81.594-1.008 1.674-1.134 2.611-2.826 3.493-4.464.234-.432.468-.846.72-1.26.414-.684.81-1.386 1.206-2.07 1.314-2.304 2.682-4.698 4.41-6.787 5.526-6.732 8.73-14.886 9.756-24.877.378-3.708.504-7.578.378-11.484m-3.546 13.626c-.81 5.419-1.962 9.415-3.708 12.961-1.296 2.628-2.862 5.094-4.788 7.56-1.728 2.196-3.114 4.375-4.248 6.643l-.163.342c-1.314 2.628-2.682 5.346-4.878 7.434-.45.432-.756 1.044-1.044 1.674-2.124 4.572-5.184 8.406-8.388 12.259-.252.324-.522.63-.792.936-.522.594-1.08 1.224-1.548 1.89-3.024 4.338-7.183 7.902-13.051 11.214-8.622 4.861-17.857 8.641-28.279 11.557-4.392 1.224-9.163 1.584-14.185 1.08-3.654-.378-7.344-.432-10.152-.45-8.713-.036-17.677-1.818-27.415-5.436-6.769-2.521-11.971-5.131-16.363-8.191-3.618-2.52-6.949-5.706-9.9-9.45-.433-.54-.703-1.044-.847-1.62-.666-2.448-2.16-4.626-4.536-6.643l-.324-.27c-1.098-.936-2.232-1.89-3.438-2.718-4.284-2.934-7.687-6.966-10.71-12.69a801.822 801.822 0 00-5.005-9.289c-3.996-7.362-6.3-15.318-6.804-23.653-.414-6.588.414-12.942 1.44-19.981.756-5.148 2.178-10.602 4.518-17.172.054-.127.09-.27.144-.397.144-.413.306-.828.396-1.26 1.242-5.454 3.618-10.584 5.904-15.534l1.189-2.592c1.584-3.51 3.996-6.445 5.904-8.605 1.206-1.368 2.268-2.916 3.276-4.752.918-1.692 1.854-3.006 3.348-3.942 1.458-.9 2.574-2.25 3.582-3.546 2.088-2.646 4.878-4.519 8.533-5.707 1.026-.342 2.052-.648 3.096-.972 2.286-.702 4.644-1.44 6.93-2.34 3.636-1.422 8.388-3.42 12.799-6.138 4.284-2.628 9.306-4.392 15.39-5.4 3.853-.63 7.957-1.026 12.925-1.26a80.415 80.415 0 0120.305 1.62c4.806 1.008 9.324 2.88 13.501 4.734 1.962.864 3.906 1.764 5.85 2.646 1.89.864 3.78 1.71 5.67 2.556 6.282 2.808 12.367 6.822 18.613 12.259 3.744 3.258 6.876 6.48 9.594 9.846 3.817 4.734 6.967 10.117 9.595 16.453.918 2.196 1.8 4.428 2.664 6.606.612 1.53 1.224 3.078 1.836 4.608.378.954.558 1.963.72 2.953.09.486.162 1.008.288 1.494.216.936.432 1.89.648 2.826.594 2.484 1.206 5.076 1.602 7.65.738 4.824.864 9.595.792 15.265v2.826c0 3.348.036 6.804-.468 10.152" fill="#fff"/><path d="M205.461 118.077c-.63-5.995-1.602-10.891-3.06-15.427-1.368-4.284-2.376-8.208-3.096-12.025-.54-2.898-1.53-5.4-3.06-7.668-1.242-1.872-2.43-3.924-3.618-6.282-3.115-6.192-7.273-11.34-12.349-15.3-5.706-4.465-11.142-8.065-16.633-11-6.354-3.401-13.158-5.436-19.585-7.236-5.904-1.656-11.862-2.052-16.92-2.232l-2.881.162c-3.978.216-8.1.432-12.186.972-6.372.828-11.395 2.268-15.84 4.519a126.44 126.44 0 01-11.72 5.184c-7.128 2.736-11.952 5.904-15.606 10.242-1.512 1.8-3.564 2.916-5.58 3.852-4.176 1.963-7.003 5.149-8.623 9.72-1.116 3.133-2.7 6.05-3.978 8.245l-.558.954c-2.052 3.546-4.176 7.219-5.688 11.16a4.37 4.37 0 01-.63 1.099c-1.458 1.764-2.34 3.924-2.592 6.426-.702 6.804-1.62 12.259-2.863 17.155a7.334 7.334 0 00-.09 3.132c.379 2.034.433 4.122.469 6.156a62.48 62.48 0 00.126 3.186c.54 8.191 2.664 15.229 6.48 21.529l.972 1.585c1.872 3.078 3.816 6.246 5.58 9.45 4.644 8.46 9.325 14.995 14.707 20.557 5.022 5.202 10.062 9.036 15.373 11.682 6.678 3.331 13.608 5.671 19.512 7.507 3.349 1.044 6.985 1.566 11.053 1.566.432 0 .882 0 1.314-.018h.774c6.03-.18 12.259-.342 18.379-.918 6.984-.666 12.564-1.908 17.569-3.942 9.612-3.907 19.045-9.343 29.683-17.119 4.464-3.258 8.172-7.525 11.071-12.673 3.6-6.426 6.57-13.284 9.45-19.927l.378-.864c.972-2.25 1.728-4.806 2.214-7.56a91.95 91.95 0 011.872-8.388c.666-2.413 1.008-4.915 1.044-7.615.036-2.538-.27-5.076-.558-7.524-.09-.738-.18-1.476-.252-2.232m-3.42 18.235c-.18.468-.18.936-.18 1.386 0 .378 0 .738-.108 1.08-.486 1.566-.9 3.186-1.278 4.752-.576 2.34-1.17 4.752-2.088 7.02-2.574 6.463-5.508 13.789-9.325 20.557-2.43 4.338-5.958 8.209-10.44 11.485-10.891 7.956-19.801 13.122-28.909 16.723-4.141 1.656-8.695 2.736-13.897 3.312-6.984.774-13.879 1.188-22.357 1.332-4.338.324-9.973-.684-15.859-2.772-.63-.216-1.26-.45-1.89-.666-3.582-1.261-7.29-2.575-10.782-4.213a48.684 48.684 0 01-11.593-7.614c-4.5-3.96-8.604-8.478-12.204-13.393-.973-1.332-1.819-2.772-2.629-4.176-.324-.558-.648-1.134-.99-1.692-2.97-4.932-5.652-9.36-8.406-13.735-5.058-8.064-7.686-17.262-7.776-27.361v-.99c0-.702 0-1.386-.036-2.088-.072-2.754.234-5.526.918-8.478l.162-.738c.882-3.726 1.782-7.579 2.124-11.503.27-3.024 1.206-6.246 2.862-9.828 1.35-2.916 2.664-5.4 4.032-7.597 2.286-3.654 4.284-7.632 5.94-11.844 1.08-2.718 2.7-4.662 4.969-5.959l.792-.45c.684-.395 1.35-.791 2.034-1.151 2.88-1.585 4.896-3.15 6.48-5.095 2.772-3.384 6.678-5.4 10.117-6.93 1.296-.576 2.664-1.098 3.978-1.62.396-.144.792-.306 1.17-.45 2.79-1.098 5.76-2.286 8.586-3.852 5.22-2.898 10.153-4.573 15.085-5.095 4.122-.45 7.452-.738 10.476-.918l2.448-.162c1.693-.126 3.457-.252 5.185-.27h.378c5.85 0 11.34 1.35 15.948 2.683 4.213 1.224 8.569 2.484 12.709 4.212 4.968 2.07 9.378 4.968 13.051 7.542.864.594 1.746 1.188 2.61 1.764 1.746 1.17 3.546 2.376 5.22 3.708 4.338 3.492 7.83 7.687 10.674 12.817.27.486.54.972.793 1.458 1.206 2.232 2.466 4.518 3.924 6.66 1.944 2.826 2.628 6.138 3.168 9.289a49.453 49.453 0 002.304 8.73c1.944 5.346 2.736 10.873 3.294 16.057.198 1.8.306 3.636.414 5.4l.162 2.61c.27 3.798-.162 7.11-1.314 10.081" fill="#fff"/><path d="M196.785 126.7c.216-1.332.216-2.682.216-3.978v-1.026c.072-4.032-.36-7.957-.738-10.909-1.008-7.794-3.168-14.383-6.625-20.143-2.412-4.014-5.364-7.956-9.342-12.42a202.446 202.446 0 00-4.968-5.347 298.7 298.7 0 01-3.276-3.474c-2.575-2.79-5.527-5.184-8.317-7.362-3.87-3.006-8.334-4.932-12.564-6.588-8.929-3.457-18.721-5.167-29.918-5.22h-.306c-3.15 0-6.336.215-9.468.611-4.932.648-10.603 1.602-15.48 4.86-1.729 1.153-3.709 1.71-5.257 2.07-4.356 1.027-8.46 3.025-12.205 5.959-4.77 3.744-9.306 8.226-14.706 14.58-4.159 4.897-6.895 10.405-8.119 16.4-.666 3.24-1.602 6.3-2.826 9.108-2.448 5.688-3.834 11.214-4.23 16.903-.252 3.51.036 7.056.324 10.476.054.72.126 1.44.18 2.16.09 1.188.306 2.376.54 3.528.27 1.44.54 2.917.576 4.411 0 .63.054 1.278.108 1.908.036.324.054.648.072.972.216 3.366.882 5.76 2.16 7.776 1.98 3.15 3.654 6.534 5.274 9.811.396.792.774 1.584 1.17 2.358 2.737 5.454 6.625 10.188 11.863 14.472 4.5 3.672 9.45 6.877 14.239 9.973.774.504 1.548.99 2.322 1.494 2.664 1.728 5.742 3.168 9.396 4.392a275.72 275.72 0 015.814 2.034l1.243.45c3.672 1.314 6.768 1.998 9.738 2.178.576.036 1.152.054 1.71.054 1.062 0 2.106-.054 3.132-.09.684-.036 1.368-.054 2.052-.072 1.17-.036 2.322-.036 3.474-.054 2.755-.018 5.599-.054 8.407-.324 4.374-.432 9.504-1.17 14.4-3.24a135.4 135.4 0 0018.883-9.81 40.509 40.509 0 0010.279-9.199c2.412-3.042 5.238-5.94 8.406-8.586 1.98-1.656 3.474-3.456 4.554-5.49 2.395-4.501 3.817-8.335 4.447-12.061.576-3.366 1.494-6.678 2.376-9.9.36-1.315.738-2.665 1.08-4.015.702-2.718.738-5.04.126-7.29-.252-.954-.324-1.674-.198-2.376m-2.538 10.566c-.054.612-.108 1.242-.306 1.783-.846 2.43-1.404 4.968-1.926 7.416-.27 1.224-.541 2.502-.865 3.744-.9 3.6-2.358 6.894-4.014 10.512-.774 1.675-1.944 3.151-3.492 4.393-4.302 3.474-7.974 7.686-11.304 11.736-1.35 1.656-2.719 2.916-4.159 3.87-5.94 3.943-13.05 8.407-20.862 11.629-5.203 2.142-10.999 3.366-18.217 3.87-5.041.342-10.153.396-14.923.396-2.592 0-5.202-.468-7.992-1.422-.378-.126-.738-.27-1.116-.396-.829-.288-1.674-.594-2.521-.828-5.742-1.602-11.448-4.374-17.442-8.478-1.332-.918-2.719-1.8-4.05-2.665-1.153-.738-2.34-1.494-3.475-2.286-8.424-5.67-14.184-12.492-17.587-20.827-.756-1.872-1.818-3.6-2.844-5.292a111.27 111.27 0 01-1.17-1.944c-.63-1.08-1.17-2.178-1.674-3.222-.306-.648-.594-1.422-.306-2.25.036-.144.108-.414.054-.666-.378-1.782-.396-3.654-.432-5.454-.036-2.215-.072-4.519-.738-6.733-2.376-7.956-1.728-16.452 1.998-26.713.216-.612.45-1.242.684-1.854 1.188-3.222 2.43-6.552 3.024-10.063.973-5.778 3.709-11.178 8.605-16.956 3.906-4.627 8.406-9.055 13.338-13.14 1.855-1.549 3.96-2.719 6.427-3.619a56.778 56.778 0 013.258-1.08c3.312-.972 5.886-2.07 8.136-3.456 4.662-2.844 9.829-3.636 14.725-4.068 3.114-.27 6.084-.415 8.982-.415 1.152 0 2.304.018 3.439.072 12.15.45 22.536 3.079 31.771 8.047 3.762 2.016 6.912 4.248 9.63 6.804 7.129 6.697 12.655 12.655 17.407 18.775 5.004 6.444 8.155 14.167 9.631 23.617.666 4.338.954 9.019.828 14.275.072 4.518-.09 8.712-.468 12.87" fill="#fff"/><path d="M189.08 119.356c-.486-8.083-1.854-14.041-4.446-19.351a49.605 49.605 0 01-1.152-2.664c-.666-1.62-1.368-3.313-2.394-4.806-1.548-2.233-3.042-4.537-4.5-6.769-.612-.936-1.224-1.89-1.854-2.826-.036-.072-.09-.126-.126-.198-.216-.342-.45-.72-.81-.882-1.188-.522-1.962-1.53-2.719-2.502-.162-.198-.324-.414-.486-.612-3.438-4.248-7.866-8.028-13.5-11.593-5.004-3.15-10.549-5.022-16.273-6.786-4.428-1.386-9.288-2.196-15.319-2.556-9.306-.558-17.91.792-25.615 4.05-3.402 1.44-6.66 3.258-9.81 5.022-.918.522-1.854 1.026-2.772 1.548-8.119 4.429-14.743 10.387-19.675 17.713a89.74 89.74 0 00-8.965 16.939c-1.512 3.798-2.502 7.668-2.952 11.52-.252 2.251-.252 4.519-.252 6.733 0 1.008 0 2.034-.018 3.06v7.11c0 2.142.36 4.176 1.062 5.887 1.278 3.096 2.232 6.336 3.186 9.486.486 1.602.972 3.276 1.512 4.896.937 2.844 2.107 4.914 3.709 6.516 3.006 3.007 5.616 6.643 7.956 11.125 1.314 2.52 3.366 4.824 6.264 7.02 1.62 1.242 3.294 2.376 4.555 3.222 6.354 4.249 11.88 6.967 17.352 8.569 7.669 2.232 14.959 3.33 22.177 3.33 1.26 0 2.538-.036 3.798-.108 5.563-.288 10.459-1.08 14.959-2.394 9.487-2.754 16.885-6.894 22.591-12.619 1.044-1.044 2.196-2.052 3.294-3.006a87.184 87.184 0 002.376-2.124l.18-.162c3.349-3.132 6.805-6.354 9.487-10.224 3.582-5.149 5.742-10.999 7.542-16.561 1.548-4.788 2.232-9.703 1.998-14.617-.072-1.476-.108-2.988-.144-4.446-.054-1.926-.108-3.924-.216-5.886m-131.19 7.74c-.018-3.672-.036-7.47.342-11.196.414-4.051 1.458-8.281 3.258-13.321 2.953-8.28 8.065-15.157 12.655-20.791 3.87-4.752 8.892-8.01 14.13-11.215 2.143-1.314 4.519-2.646 7.507-4.23 7.884-4.158 16.417-6.282 25.399-6.282h1.17c8.011-.216 16.309 1.458 26.119 5.238 7.849 3.024 14.869 7.957 20.881 14.635l.378.432c.342.396.684.81 1.116 1.116 1.999 1.368 3.241 3.294 4.555 5.328l.072.126c.504.774 1.026 1.53 1.53 2.268.882 1.278 1.8 2.592 2.556 3.979 2.574 4.626 4.446 9.666 6.102 14.418.468 1.368.612 2.862.738 4.302l.108 1.134c.27 2.719.396 5.401.486 7.435.036 1.026.072 2.07.09 3.096.054 1.872.09 3.798.216 5.706.396 5.94-1.134 11.503-2.844 16.615-2.286 6.804-4.914 11.898-8.28 16.021-2.718 3.33-5.923 6.264-9.037 9.108l-.828.756c-1.476 1.35-3.06 2.808-4.68 4.23-6.264 5.491-13.681 9.181-22.663 11.287-6.462 1.53-13.537 1.926-21.637 1.26-5.868-.486-11.071-1.494-15.895-3.096-7.326-2.412-14.148-6.121-20.899-11.341a20.928 20.928 0 01-6.048-7.452c-1.278-2.664-2.952-5.166-5.13-7.668-.468-.541-.99-1.027-1.494-1.495-.648-.594-1.314-1.188-1.836-1.908-.828-1.098-1.368-2.088-1.71-3.114a213.882 213.882 0 01-1.008-3.15c-.756-2.376-1.53-4.842-2.449-7.218-.54-1.404-.954-2.862-1.35-4.284-.234-.81-.468-1.639-.72-2.467-.576-1.8-.846-3.762-.846-5.994v-2.376" fill="#fff"/><path d="M63.182 136.044c-.108 3.204.774 6.102 2.593 8.586a7.894 7.894 0 011.511 3.78c.252 1.998 1.063 3.906 2.467 5.85 1.998 2.737 4.176 5.383 6.3 7.957a269.19 269.19 0 014.356 5.382c2.376 3.042 5.436 5.616 9.09 7.65l.505.27c.881.486 1.8.973 2.556 1.603 2.934 2.412 6.336 3.69 9.27 4.608.648.198 1.314.432 1.962.648.792.27 1.602.54 2.412.792 5.688 1.728 11.287 2.574 17.137 2.574.126 0 .27 0 .432-.036.396-.036.882-.072 1.368-.072 8.263-.198 16.147-2.448 23.419-6.732.684-.414 1.422-.738 2.034-1.008 3.006-1.315 6.499-3.043 9.469-5.833 1.476-1.386 3.204-2.7 5.598-4.266 2.97-1.926 4.896-4.068 5.904-6.552.972-2.394 2.304-4.77 4.194-7.453 1.314-1.872 2.269-3.528 2.953-5.184 3.078-7.29 4.59-15.192 4.518-23.437 0-1.26-.144-2.538-.27-3.762a73.505 73.505 0 01-.18-1.98c-.324-4.338-1.044-8.028-2.232-11.305a111.71 111.71 0 01-1.08-3.204c-.612-1.872-1.26-3.816-2.052-5.67-2.899-6.804-6.049-11.34-10.225-14.743-1.71-1.386-3.024-2.79-4.014-4.284-1.53-2.286-3.582-3.816-6.282-4.662a11.237 11.237 0 01-4.231-2.394c-1.35-1.206-3.024-2.088-4.95-2.628a21.798 21.798 0 01-4.23-1.674 14.062 14.062 0 00-2.304-1.008c-1.674-.558-3.42-1.008-5.094-1.459-1.908-.504-3.871-1.026-5.761-1.692-.864-.306-1.782-.36-2.682-.414h-.198c-2.34-.162-4.824 0-8.064.54-.972.162-1.944.342-2.916.504-2.628.468-5.346.936-8.029 1.207-2.754.27-4.986.863-7.038 1.872l-4.374 2.16-5.778 2.862c-3.007 1.476-5.437 3.042-7.453 4.77-3.51 3.042-6.606 5.886-8.694 9.72l-.198.36c-1.278 2.359-2.61 4.807-4.266 6.967-2.845 3.69-4.519 8.082-6.013 11.97-1.548 4.051-2.106 8.389-2.664 12.583a20.917 20.917 0 00.288 6.93c.666 3.168.954 6.283.864 9.289m117.51-17.497c.972 5.364.54 10.638.054 14.635a58.28 58.28 0 01-1.962 9.522c-1.494 5.058-3.979 9.72-7.399 13.861-.774.936-1.17 2.016-1.53 3.15-.756 2.286-2.178 4.104-4.194 5.382-2.43 1.53-4.608 3.42-6.714 5.238-.414.36-.846.72-1.26 1.08-.09.09-.198.162-.288.252a5.314 5.314 0 01-.72.576c-7.561 4.789-14.149 8.353-21.691 10.153-4.537 1.08-8.605 1.17-10.621 1.134h-.18c-7.434 0-13.626-.972-19.495-3.042a70.178 70.178 0 00-2.34-.756c-.72-.216-1.476-.45-2.214-.72-1.764-.612-3.78-1.422-5.292-3.115-.828-.936-1.998-1.476-3.132-2.016l-.162-.072c-3.763-1.782-6.985-4.464-9.883-8.19-1.548-1.998-3.222-3.942-4.842-5.814a154.136 154.136 0 01-3.78-4.464c-2.502-3.097-3.906-5.923-4.41-8.893-.216-1.26-.739-2.358-1.224-3.276-1.44-2.682-2.053-5.238-1.855-7.794.162-2.034-.018-4.177-.522-6.355-1.278-5.598-.468-11.124.396-15.894.576-3.133 1.782-6.121 2.953-9.001l.45-1.116c.198-.486.522-.936.828-1.368l.27-.378c2.736-4.014 5.058-7.83 7.074-11.647 2.988-5.67 7.596-10.188 13.68-13.41 3.943-2.088 8.047-4.068 11.989-5.994l.36-.162c2.016-.972 4.176-1.494 6.57-1.584 2.161-.072 4.267-.558 6.319-1.044a58.49 58.49 0 012.556-.558c2.61-.505 5.382-.739 8.532-.703 1.296 0 2.538.397 3.726.775l.864.27c.99.287 2.017.54 3.007.773 1.206.289 2.466.595 3.654.973 3.204 1.044 6.39 2.34 9.486 3.582l1.566.63c.72.288 1.386.828 2.016 1.332l.162.126c1.296 1.026 2.791 1.872 4.717 2.646 2.196.882 4.014 2.142 5.508 3.852 1.638 1.854 3.456 3.582 5.238 5.238l.468.45c4.014 3.763 7.02 8.443 9.18 14.311.991 2.646 1.819 5.418 2.629 8.082.378 1.26.756 2.521 1.152 3.781.306.972.378 1.746.234 2.538-.198 1.08-.054 2.124.09 2.934" fill="#fff"/></svg>