<svg width="148" height="58" fill="none" xmlns="http://www.w3.org/2000/svg"><g clip-path="url(#clip0_233_1590)"><path d="M145.626 57.116H61.437V55.15h84.189v1.966z" fill="#C9A565"/><path d="M69.192 5.14H64.43v10.808h-3.111V2.193h10.983v13.755h-3.11V5.14zm6.513-2.947h3.13l4.198 5.797 3.965-5.797h2.936v13.755h-3.11V7.183l-3.791 5.365h-.447l-3.77-5.305v8.705h-3.111V2.193zM95.106 7.46h5.346c-.602-1.671-2.177-2.555-4.237-2.555-.972 0-2.041.315-2.955 1.002l-1.186-2.358c.914-.806 2.585-1.592 4.899-1.592 3.945 0 6.861 2.83 6.861 7.114 0 4.42-2.818 7.113-7.27 7.113-1.963 0-3.77-.668-4.587-1.434l1.322-2.654c.7.59 1.846 1.14 3.207 1.14 1.808 0 3.538-.805 4.062-2.828h-5.462V7.459zm19.149-1.082v4.99c2.041-.039 2.779-.883 2.779-2.494 0-1.298-.699-2.437-2.779-2.496zm-3.111 4.99v-4.99c-1.982.059-2.741 1.159-2.741 2.496 0 1.591.836 2.455 2.741 2.495zm0 2.89c-3.634-.04-6.045-1.946-6.045-5.384 0-3.4 2.469-5.286 6.045-5.385V2.035h3.111V3.49c3.537.079 6.084 2.024 6.084 5.385 0 3.419-2.469 5.344-6.084 5.384v1.847h-3.111v-1.847zm11.102-7.663c-.486-.512-.739-1.375-.739-2.064 0-2.083 1.341-3.3 2.196-3.812l1.362 1.238a2.684 2.684 0 00-.837 1.927c0 .451.156.962.467 1.277l-2.449 1.434zM65.013 20.802h-2.595v4.917h-1.022v-5.883h4.64v5.883h-1.023v-4.917zm2.804-.966h3.367v.966H68.84v1.462h2.095v.967h-2.096v1.522h2.428v.966h-3.45v-5.883zm4.226 0h4.798v.966h-1.888v4.917H73.93v-4.917h-1.888v-.966zm5.854 0h3.368v.966h-2.346v1.462h2.096v.967h-2.096v1.522h2.428v.966h-3.45v-5.883zm5.971.966v1.807c.241.026.49.042.723.042.608 0 1.082-.294 1.082-.948 0-.614-.374-.917-1.072-.917-.21 0-.458.008-.733.016zm-1.022 4.917v-5.883c.323 0 1.247-.017 1.654-.017 1.713 0 2.253.925 2.253 1.89 0 1.001-.74 1.909-2.128 1.909-.175 0-.508 0-.757-.025v2.126h-1.022zm6.279-2.639v1.673c.233.018.432.034.649.034.756 0 1.072-.352 1.072-.874 0-.504-.307-.884-1.023-.884-.19 0-.44.019-.698.052zm-1.022-3.243h3.4v.965h-2.378v1.313a6.22 6.22 0 01.781-.05c1.214 0 1.954.688 1.954 1.772 0 1.22-.815 1.916-2.244 1.916-.674 0-1.172-.034-1.513-.034v-5.882zm8.066 4.512c-.4.9-.858 1.37-1.58 1.37-.299 0-.64-.11-.798-.236l.358-.873a.67.67 0 00.432.143c.274 0 .457-.16.574-.412l.083-.202-2.57-4.303h1.157l1.903 3.287 1.389-3.287h1.03l-1.978 4.513zm4.075-3.547v1.807c.241.026.491.042.723.042.607 0 1.081-.294 1.081-.948 0-.614-.373-.917-1.072-.917-.207 0-.457.008-.732.016zm-1.023 4.917v-5.883c.325 0 1.247-.017 1.655-.017 1.714 0 2.253.925 2.253 1.89 0 1.001-.74 1.909-2.129 1.909-.174 0-.506 0-.756-.025v2.126h-1.023zm5.257-5.883h3.284v.966h-2.261v4.917h-1.023v-5.883zm8.598 5.313c-.365.395-1.106.665-1.861.665-1.78 0-3.003-1.203-3.003-3.035 0-1.689 1.056-3.034 2.977-3.034.757 0 1.388.243 1.772.596l-.459.765a2.182 2.182 0 00-1.313-.395c-1.081 0-1.895.79-1.895 2.068 0 1.227.823 2.067 2.011 2.067.491 0 .982-.16 1.381-.47l.39.773zm1.182-5.313h1.024v2.79l2.294-2.79h1.23l-2.394 2.74 2.545 3.143h-1.298l-2.377-3.034v3.034h-1.024v-5.883zm5.756 5.883v-5.883h1.023v4.185l3.051-4.185h.898v5.883h-1.022V21.54l-3.052 4.178h-.898zm8.633-7.312c.066.328.291.487.706.487.374 0 .632-.126.665-.487h.956c-.025.723-.706 1.201-1.621 1.201-.997 0-1.605-.486-1.662-1.2h.956zm-1.88 7.312v-5.883h1.022v4.185l3.052-4.185h.898v5.883h-1.022V21.54l-3.052 4.178h-.898zm-65.413 2.63h1.032l1.987 2.748 1.896-2.748h.964v5.883h-1.015V29.98l-1.836 2.613h-.15l-1.855-2.588v4.227h-1.023V28.35zm7.486 0h3.368v.967h-2.345v1.462h2.095v.966h-2.095v1.522h2.428v.966H68.84V28.35zm4.437 0h1.172l2.111 2.807V28.35h1.015v2.807l2.104-2.807h1.18l-2.186 2.807 2.278 3.076h-1.18l-2.196-3.052v3.052H76.56V31.18l-2.202 3.052h-1.172l2.277-3.067-2.186-2.816zm10.116 4.916h2.428v-3.95h-1.605l-.09 1.026c-.11 1.52-.525 2.664-.733 2.924zm-1.745 0h.623c.24-.302.797-1.547.898-3.74l.058-1.177h3.609v4.917h.79v2.017h-.958v-1.05h-4.064v1.05h-.956v-2.017zm9.832-.403c-.4.9-.856 1.37-1.58 1.37-.299 0-.64-.109-.798-.235l.358-.874a.66.66 0 00.432.143c.274 0 .457-.16.574-.412l.083-.202-2.569-4.303h1.155l1.904 3.285 1.39-3.285h1.03l-1.978 4.513zm6.711-1.144H95.53v2.514h-1.023V28.35h1.023v2.404h2.661V28.35h1.014v5.883h-1.014v-2.514zm4.072.042h1.703l-.848-2.092-.855 2.093zm.432-3.429h.898l2.461 5.901h-1.089l-.607-1.505h-2.486l-.607 1.505h-1.031l2.461-5.9zm5.417.985v1.807c.241.024.491.042.724.042.607 0 1.08-.295 1.08-.95 0-.614-.373-.917-1.071-.917-.209 0-.457.009-.733.018zm-1.023 4.916V28.35c.326 0 1.247-.018 1.655-.018 1.713 0 2.254.925 2.254 1.892 0 1-.74 1.907-2.129 1.907-.174 0-.507 0-.757-.025v2.127h-1.023zm7.867-.874c1.222 0 1.954-.908 1.954-2.068 0-1.219-.857-2.067-1.954-2.067-1.114 0-1.946.848-1.946 2.067 0 1.177.856 2.068 1.946 2.068zm0-5.102c1.729 0 3.036 1.202 3.036 3.034 0 1.765-1.307 3.034-3.036 3.034s-3.027-1.201-3.027-3.034c0-1.705 1.239-3.034 3.027-3.034zm5.323 5.009h2.428v-3.95h-1.606l-.09 1.026c-.109 1.52-.525 2.664-.732 2.924zm-1.748 0h.625c.242-.302.798-1.547.897-3.74l.059-1.177h3.608v4.917h.791v2.017h-.958v-1.05h-4.064v1.05h-.958v-2.017zm10.77-1.547h-2.662v2.514h-1.021V28.35h1.021v2.404h2.662V28.35h1.015v5.883h-1.015v-2.514zm7.173-3.37h1.014v5.884h-1.014v-5.884zm-3.534 2.984v1.925c.184.009.35.025.549.025.749 0 1.149-.345 1.149-1.033 0-.631-.417-.96-1.132-.96-.158 0-.333.018-.566.043zm0-.966c.259-.035.484-.042.649-.042 1.438 0 2.129.748 2.129 1.9 0 1.243-.865 2.024-2.353 2.024-.548 0-1.107-.016-1.447-.016v-5.884h1.022v2.018zm8.034-3.446c.068.328.292.487.708.487.374 0 .632-.126.664-.487h.958c-.026.722-.707 1.202-1.622 1.202-.998 0-1.605-.488-1.663-1.202h.955zm-1.879 7.312V28.35h1.024v4.186l3.051-4.186h.898v5.883h-1.023v-4.177l-3.051 4.177h-.899zm-76.702 5.032h2.595c-.2-.983-.998-1.53-2.095-1.53-.465 0-.956.143-1.364.455l-.399-.774c.407-.353 1.115-.647 2.004-.647 1.713 0 2.927 1.193 2.927 3.026 0 1.84-1.18 3.043-3.044 3.043-.806 0-1.546-.261-1.953-.614l.441-.865a2.44 2.44 0 001.496.512c.997 0 1.837-.555 2.012-1.639h-2.62v-.967zm5.017-2.405h1.022v2.79l2.295-2.79h1.23l-2.394 2.74 2.544 3.144H70.81l-2.378-3.035v3.035H67.41V36.86zm8.025 5.011c1.221 0 1.953-.908 1.953-2.067 0-1.22-.856-2.069-1.953-2.069-1.116 0-1.947.85-1.947 2.069 0 1.176.858 2.067 1.947 2.067zm0-5.102c1.73 0 3.034 1.201 3.034 3.035 0 1.765-1.305 3.034-3.034 3.034-1.73 0-3.027-1.202-3.027-3.035 0-1.706 1.24-3.034 3.027-3.034zm8.066 3.462h-2.66v2.513h-1.022V36.86h1.022v2.404h2.66V36.86h1.015v5.884h-1.015V40.23zm5.389 1.64c1.223 0 1.955-.908 1.955-2.067 0-1.22-.857-2.069-1.955-2.069-1.114 0-1.944.85-1.944 2.069 0 1.176.856 2.067 1.944 2.067zm0-5.102c1.73 0 3.036 1.201 3.036 3.035 0 1.765-1.305 3.034-3.036 3.034-1.729 0-3.026-1.202-3.026-3.035 0-1.706 1.24-3.034 3.026-3.034zm4.384.091h1.032l1.987 2.748 1.896-2.748h.964v5.884h-1.014V38.49l-1.837 2.614h-.15l-1.854-2.59v4.23h-1.024v-5.885zm7.66 5.884V36.86h1.023v4.185l3.052-4.185h.897v5.884h-1.023v-4.178l-3.05 4.178h-.899zm10.686 0h-1.021V40.33c-.275.202-.767.404-1.388.404-.883 0-1.773-.479-1.773-1.883v-1.992h1.023v1.697c0 .942.449 1.212 1.023 1.212.45 0 .823-.177 1.115-.38V36.86h1.021v5.884zm1.782-5.884h3.367v.966h-2.344v1.463h2.094v.967h-2.094v1.52h2.427v.968h-3.45V36.86zm9.381 5.314c-.367.395-1.107.664-1.863.664-1.779 0-3.002-1.202-3.002-3.035 0-1.689 1.055-3.034 2.977-3.034.757 0 1.388.243 1.77.597l-.457.765a2.182 2.182 0 00-1.313-.396c-1.081 0-1.896.79-1.896 2.069 0 1.227.823 2.067 2.011 2.067.491 0 .983-.16 1.381-.47l.392.773zm1.181-5.314h1.022v2.79l2.296-2.79h1.23l-2.395 2.74 2.546 3.144h-1.298l-2.379-3.035v3.035h-1.022V36.86zm5.755 5.884V36.86h1.022v4.185l3.052-4.185h.898v5.884h-1.024v-4.178l-3.049 4.178h-.899zm8.632-7.313c.068.328.292.488.709.488.373 0 .631-.127.664-.488h.956c-.024.723-.707 1.202-1.62 1.202-.999 0-1.606-.487-1.664-1.202h.955zm-1.878 7.313V36.86h1.022v4.185l3.051-4.185h.9v5.884h-1.025v-4.178l-3.049 4.178h-.899zm-71.551 4.124v2.724c1.056-.009 1.604-.463 1.604-1.363 0-.79-.515-1.345-1.604-1.36zm-1.023 2.724v-2.724c-1.064.008-1.604.563-1.604 1.361 0 .883.581 1.354 1.604 1.363zm0 .949c-1.604 0-2.687-.823-2.687-2.312 0-1.47 1.091-2.285 2.687-2.31v-.614h1.023v.613c1.588.026 2.686.865 2.686 2.311 0 1.472-1.098 2.304-2.686 2.312v.782h-1.023v-.782zm7.568-.16c1.222 0 1.954-.908 1.954-2.067 0-1.219-.856-2.068-1.954-2.068-1.114 0-1.945.85-1.945 2.068 0 1.176.856 2.067 1.945 2.067zm0-5.101c1.73 0 3.035 1.202 3.035 3.034 0 1.765-1.306 3.034-3.035 3.034s-3.026-1.203-3.026-3.034c0-1.707 1.24-3.034 3.026-3.034zm5.406 1.059v1.808c.242.025.491.041.724.041.607 0 1.08-.294 1.08-.949 0-.613-.374-.916-1.072-.916-.208 0-.457.008-.732.016zm-1.022 4.918v-5.883c.324 0 1.247-.018 1.654-.018 1.714 0 2.253.925 2.253 1.892 0 1-.74 1.907-2.128 1.907-.174 0-.508 0-.757-.025v2.127H75.85zm7.751-1.371c-.399.9-.856 1.37-1.58 1.37-.298 0-.64-.11-.798-.234l.357-.875a.67.67 0 00.433.143c.274 0 .457-.16.574-.412l.082-.201-2.569-4.303h1.156l1.905 3.285 1.388-3.285h1.031l-1.98 4.512zm3.053-4.512h1.031l1.987 2.747 1.896-2.747h.964v5.883h-1.014v-4.254l-1.837 2.614h-.15l-1.854-2.588v4.228h-1.023v-5.883z" fill="#0C3C4B"/><path d="M24.893 1.67C11.217 1.67.13 12.874.13 26.7s11.087 25.031 24.763 25.031c13.673 0 24.76-11.205 24.76-25.031 0-13.825-11.087-25.03-24.76-25.03z" fill="#C9A565"/><path d="M30.243 15.763l-.012-.038H18.899l.049.151a20.751 20.751 0 011.029 6.463 20.75 20.75 0 01-1.03 6.464l-.048.151H30.23l.012-.038a20.745 20.745 0 001.067-6.577c0-2.303-.379-4.514-1.067-6.576zm10.037 5.269a.523.523 0 00-.008-.023h-6.806l.03.09a12.49 12.49 0 010 7.764l-.03.091h6.806a12.464 12.464 0 00.648-3.973c0-1.383-.227-2.71-.64-3.95zm-24.26 0l-.007-.023H9.207l.03.09a12.494 12.494 0 01-.001 7.764l-.029.091h6.806a12.464 12.464 0 00.648-3.973c0-1.383-.228-2.71-.64-3.95zm-1.775-4.825l-.003-.009h-2.668l.012.036a4.88 4.88 0 010 3.043l-.011.035h2.667l.003-.009a4.888 4.888 0 000-3.096zm24.01 0l-.003-.009h-2.668l.012.036a4.886 4.886 0 010 3.043l-.012.035h2.668l.003-.009a4.888 4.888 0 000-3.096zM26.397 9.596l-.004-.011h-3.488l.015.046a6.384 6.384 0 010 3.98l-.015.046h3.488l.004-.012a6.388 6.388 0 000-4.049zm9.841 29.453l3.878-7.527-30.909-.06 4.464 7.526h10.767v2.748a1.679 1.679 0 00.4 3.242c.054.006.105.017.16.017h.011c.92 0 1.665-.753 1.665-1.683 0-.728-.459-1.342-1.098-1.577v-2.747l10.662.06z" fill="#fff"/><path d="M126.123 13.915c2.299-2.283 5.405-5.016 5.405-7.524 0-1.019-.484-1.406-1.291-1.406-.867 0-1.25.673-1.553 1.529l-2.521-1.162c.444-2.019 1.956-3.426 4.437-3.426 2.743 0 4.155 1.836 4.155 3.854 0 4.016-3.671 6.911-4.72 7.727h5.204v2.854h-9.116v-2.446zm16.537-.612h-6.413V11.02l5.043-8.93h3.468l-4.618 8.156h2.52V7.187h3.026v3.058h1.654v3.058h-1.654v3.058h-3.026v-3.058z" fill="#0C3C4B"/></g><defs><clipPath id="clip0_233_1590"><path fill="#fff" transform="translate(.13 .717)" d="M0 0h147.211v56.399H0z"/></clipPath></defs></svg>