<svg width="55" height="68" fill="none" xmlns="http://www.w3.org/2000/svg"><path d="M53.856 18.424v34.94c0 3.872-3.152 7.007-7.025 7.007H34.223c-3.152 0-5.817 2.029-6.79 4.862-.956-2.816-3.638-4.862-6.773-4.862H8.052c-3.873 0-7.025-3.152-7.025-7.008v-34.94h52.829z" fill="#1A7EC2"/><path d="M.323.064v53.298a7.731 7.731 0 007.729 7.73H20.66a6.44 6.44 0 016.438 6.437c0 .185.15.336.335.336a.337.337 0 00.335-.336 6.44 6.44 0 016.438-6.438h12.608a7.731 7.731 0 007.729-7.729V.064H.29h.033zm53.533 53.298c0 3.873-3.152 7.025-7.025 7.025H34.223c-3.152 0-5.817 2.029-6.79 4.862-.956-2.816-3.638-4.862-6.773-4.862H8.052c-3.873 0-7.025-3.152-7.025-7.025V.785H53.84v52.577h.017z" fill="#181717"/><path d="M53.856.784v7.947h-3.337V4.59h-5.432v4.141h-2.716V4.59h-5.415v4.141H34.24V4.59h-5.432v4.141h-2.716V4.59h-5.415v4.141H17.96V4.59h-5.432v4.141H9.811V4.59H4.397v4.141H1.044V.784h52.812z" fill="#E52B19"/><path d="M6.744 9.454h-5.7v3.621h5.7v-3.62zm8.148 0H7.465v3.621h7.427v-3.62zm8.148 0h-7.427v3.621h7.428v-3.62zm8.132 0h-7.427v3.621h7.427v-3.62zm8.131 0h-7.427v3.621h7.427v-3.62zm8.148 0h-7.427v3.621h7.427v-3.62zm6.405 0h-5.7v3.621h5.7v-3.62zM2.905 13.78h-1.86v3.922h1.86V13.78zm50.967 0H52.23v3.922h1.643V13.78zM9.108 5.312h-3.99v3.386h3.99V5.312zm8.132 0h-3.99v3.386h3.99V5.312zm8.148 0h-3.99v3.386h3.99V5.312zm8.131 0h-3.99v3.386h3.99V5.312zm8.131 0h-3.99v3.386h3.99V5.312zm8.148 0h-3.99v3.386h3.99V5.312z" fill="#fff"/><path d="M53.856 9.454v-.721h-3.354V4.592H45.07v4.14h-2.716v-4.14h-5.432v4.14h-2.716v-4.14h-5.432v4.14h-2.716v-4.14h-5.432v4.14H17.91v-4.14h-5.432v4.14H9.762v-4.14H4.33v4.14H.977v.722h5.7v3.621h-5.7v.721h1.86v3.923H.978v.721H53.79v-.72h-1.644v-3.924h1.643v-.72h-5.7V9.453h5.768zm-6.422 3.621h-7.427V9.454h7.427v3.621zM37.66 5.313h3.99v3.386h-3.99V5.313zm1.643 7.762h-7.427V9.454h7.427v3.621zM29.53 5.313h3.99v3.386h-3.99V5.313zm1.643 7.762h-7.427V9.454h7.427v3.621zm-9.775-7.762h3.99v3.386h-3.99V5.313zm1.644 7.762h-7.428V9.454h7.428v3.621zm-9.775-7.762h3.99v3.386h-3.99V5.313zm1.643 7.762H7.482V9.454h7.427v3.621zM5.135 5.313h3.99v3.386h-3.99V5.313zm5.7 12.406H3.643v-3.923h7.192v3.923zm8.131 0H11.54v-3.923h7.427v3.923zm8.132 0H19.67v-3.923h7.427v3.923zm8.148 0h-7.427v-3.923h7.427v3.923zm8.131 0H35.95v-3.923h7.427v3.923zm8.131 0h-7.427v-3.923h7.427v3.923zm-5.7-12.406h3.99v3.386h-3.99V5.313z" fill="#393938"/><path d="M10.818 13.78H3.626v3.922h7.192V13.78zm40.707 0h-7.427v3.922h7.427V13.78zm-8.148 0H35.95v3.922h7.427V13.78zm-8.131 0h-7.427v3.922h7.427V13.78zm-8.148 0H19.67v3.922h7.427V13.78zm-8.131 0h-7.428v3.922h7.428V13.78zm.351 17.334l-.368.52-.352.503c-.721-.537-1.375-1.006-1.945-1.425.117-.117.218-.252.318-.386a2.97 2.97 0 00.319-.553c.587.386 1.274.838 2.012 1.341M48.39 47.662c-.654 3.555-.57 4.158-.57 4.158s-.603.117-3.705 1.962c-1.459.855-2.817 1.19-4.074 1.19-.922 0-1.76-.184-2.549-.47l.855 1.46s-1.793-.37-2.967-1.191c-1.056-.738-1.911-1.71-2.029-2.364.135.1.37.184.654.251l.302.05c.42.068.922.118 1.425.118a7.77 7.77 0 001.475-.134c.218-.05.403-.1.554-.168a.769.769 0 00.335-.251c.117.62-.453 1.458-.687 1.777.2.034.419.05.62.05.771 0 1.492-.184 2.112-.486.05-.033.118-.05.168-.084.117-.05.218-.117.319-.184l.15-.1c.32-.236.604-.504.788-.789 1.208-1.727.118-3.202-1.006-4.09-.855-.688-11.719-8.685-19.213-14.184.134-.185.268-.37.403-.57.134-.185.268-.386.402-.587 7.729 5.147 18.962 12.624 19.9 13.194.084.05.152.101.235.135.084.05.168.083.252.134.167.084.352.167.52.218.134.05.268.083.419.117.134.034.285.05.419.067h.285c.134 0 .268 0 .42-.033.133-.017.267-.068.401-.101.05 0 .084-.034.135-.05.083-.034.167-.084.268-.135.084-.05.167-.117.251-.184a3.85 3.85 0 00.604-.654c.72-1.023.905-2.884.067-4.476-.235.335-.822 1.157-1.442 1.257.52-.754-.738-3.99-1.492-4.526.067 0 .134-.017.201-.017.67 0 1.744.452 2.7 1.123 1.173.822 2.145 2.38 2.145 2.38l-1.66-.301c1.258 1.509 2.113 3.571 1.576 6.471" fill="#fff"/><path d="M48.356 42.213h.118a.703.703 0 00.587-.318.71.71 0 00.016-.788c-.05-.067-1.056-1.694-2.33-2.599-.872-.603-2.13-1.24-3.118-1.24-.118 0-.235 0-.336.033a.696.696 0 00-.57.553c-.067.285.05.57.285.738.134.1.553.704.922 1.71.386 1.056.42 1.693.386 1.844a.714.714 0 000 .771.75.75 0 00.604.336h.117c.386-.067.754-.285 1.056-.553.218 1.056 0 2.062-.402 2.648-.403.57-.889.855-1.476.855-.654 0-1.307-.318-1.76-.586-.805-.503-9.992-6.59-19.884-13.178-.134.201-.252.402-.386.603 7.73 5.148 18.962 12.625 19.901 13.195.067.05.151.1.235.134.084.05.168.084.251.134.168.084.352.151.52.218.134.05.268.084.42.118.133.033.284.067.418.067h.285c.134 0 .269 0 .42-.034l.402-.1c.05-.017.084-.034.134-.05.084-.034.168-.085.252-.135.083-.05.167-.117.251-.184.201-.168.402-.386.587-.654.72-1.023.905-2.884.067-4.477-.235.336-.822 1.157-1.442 1.258.52-.755-.738-3.99-1.492-4.527h.201c.67 0 1.744.453 2.716 1.123 1.174.822 2.13 2.381 2.13 2.381l-1.66-.302c1.257 1.51 2.112 3.571 1.575 6.472-.653 3.554-.57 4.158-.57 4.158s-.603.117-3.705 1.961c-1.458.855-2.816 1.19-4.074 1.19a7.4 7.4 0 01-2.548-.469l.855 1.459s-1.794-.369-2.968-1.19c-1.056-.738-1.91-1.71-2.028-2.364.134.1.369.184.654.251l.301.05c.42.067.94.118 1.425.118.537 0 1.057-.05 1.476-.134.218-.05.402-.101.553-.168a.768.768 0 00.335-.252c.118.62-.452 1.459-.687 1.778.218.033.42.05.62.05.772 0 1.492-.184 2.113-.486.067-.034.117-.05.168-.084.117-.05.217-.117.318-.185l.15-.1c.32-.235.605-.503.789-.788 1.207-1.727.117-3.202-1.006-4.091-.855-.687-11.72-8.684-19.213-14.184-.134.185-.285.386-.436.57 9.573 7.042 18.442 13.58 19.196 14.184 1.945 1.56 1.124 2.733.855 3.118-.385.554-1.24 1.124-2.347 1.291.151-.385.235-.804.168-1.19a.717.717 0 00-.553-.57c-.05 0-.101-.017-.151-.017a.74.74 0 00-.57.268c-.134.101-.721.269-1.811.269-1.09 0-1.844-.185-1.978-.285a.722.722 0 00-.403-.134.653.653 0 00-.385.117.689.689 0 00-.319.72c.184 1.007 1.358 2.147 2.33 2.818 1.292.905 3.152 1.29 3.236 1.307h.151a.73.73 0 00.587-.301c.168-.235.168-.52.033-.772.353.05.705.067 1.057.067 1.475 0 2.984-.436 4.426-1.29 2.582-1.526 3.37-1.828 3.504-1.878a.597.597 0 00.47-.269c.117-.167.133-.335.083-.536 0-.151 0-.99.57-3.94.386-2.079.134-3.94-.738-5.583" fill="#181717"/><path d="M14.054 25.917a3.626 3.626 0 01-.134.721 4.518 4.518 0 01-.536 1.157 3.59 3.59 0 01-.906.905 1.477 1.477 0 01.134-1.375s.017-.033.034-.05c0 0 0-.016.017-.033.251-.37.419-.788.47-1.207.05-.302.033-.587 0-.872a2.494 2.494 0 00-.202-.688 2.809 2.809 0 00-1.006-1.257 2.898 2.898 0 00-1.66-.52c-.922 0-1.827.436-2.397 1.24a2.908 2.908 0 00.72 4.058c.47.335 1.007.503 1.526.52.034.302.101.604.202.889h-.42c-.067 0-.117 0-.167-.017-.05 0-.118 0-.168-.034a4.633 4.633 0 01-.687-.201 3.973 3.973 0 01-.788-.42c-1.727-1.206-2.13-3.57-.94-5.297.42-.587.973-1.04 1.594-1.308.117-.05.251-.1.368-.134.118-.033.252-.067.386-.1a4.259 4.259 0 011.308-.05c.067 0 .117.016.184.033.235.05.47.117.688.2.268.118.536.252.788.42a3.8 3.8 0 011.408 1.861c.084.235.134.47.168.721.033.285.05.553.033.838" fill="#fff"/><path d="M12.646 27.275s-.017.033-.034.05c0 0 .017-.034.034-.05 0 0 0-.017.017-.034 0 0 0 .017-.017.034zm0 0s-.017.033-.034.05c0 0 .017-.034.034-.05 0 0 0-.017.017-.034 0 0 0 .017-.017.034zm0 0s-.017.033-.034.05c0 0 .017-.034.034-.05 0 0 0-.017.017-.034 0 0 0 .017-.017.034zm0 0s-.017.033-.034.05c0 0 .017-.034.034-.05 0 0 0-.017.017-.034 0 0 0 .017-.017.034zm0 0s-.017.033-.034.05c0 0 .017-.034.034-.05 0 0 0-.017.017-.034 0 0 0 .017-.017.034zm0 0s-.017.033-.034.05c0 0 .017-.034.034-.05 0 0 0-.017.017-.034 0 0 0 .017-.017.034zm0 0s-.017.033-.034.05c0 0 .017-.034.034-.05 0 0 0-.017.017-.034 0 0 0 .017-.017.034z" fill="#181717"/><path d="M14.758 26.085a5.69 5.69 0 01-.134.738 4.498 4.498 0 01-.654 1.374 5.09 5.09 0 01-1.073 1.09 1.638 1.638 0 01-.419-.587c.335-.234.654-.553.905-.905.252-.369.436-.755.537-1.157.067-.235.117-.47.134-.704.017-.285 0-.57-.033-.838a3.462 3.462 0 00-.168-.721 3.658 3.658 0 00-1.408-1.861 3.968 3.968 0 00-.788-.42 4.643 4.643 0 00-.688-.2c-.067 0-.117-.017-.184-.034-.168-.034-.352-.034-.52-.034-.268 0-.52.034-.788.084-.134.017-.251.05-.386.1-.134.034-.251.085-.368.135a3.731 3.731 0 00-1.593 1.308 3.797 3.797 0 001.727 5.717c.218.083.452.15.687.2.05 0 .118.018.168.034.05 0 .117.017.167.017h.436c.084.252.202.47.336.704-.134 0-.252.017-.386.017a4.459 4.459 0 01-2.582-.821c-2.045-1.426-2.531-4.259-1.106-6.288a4.517 4.517 0 013.705-1.928c.922 0 1.827.285 2.582.822a4.54 4.54 0 011.777 2.532c.067.251.117.503.134.77.034.286.017.588 0 .89" fill="#181717"/><path d="M13.149 26.035a3.067 3.067 0 01-.47 1.207s0 .017-.016.033c0 0-.017.034-.034.05a3.03 3.03 0 01-.956.839c0-.436.118-.889.386-1.274 0 0 0-.017.017-.034v-.017a2.11 2.11 0 00.369-1.408c0-.067 0-.134-.017-.201a2.864 2.864 0 00-.151-.503 2.122 2.122 0 00-.754-.922 2.12 2.12 0 00-1.258-.402c-.72 0-1.391.352-1.794.938-.687.99-.452 2.364.537 3.052.335.235.72.369 1.123.385a5.162 5.162 0 000 .721 2.876 2.876 0 01-1.526-.52 2.908 2.908 0 011.677-5.297c.57 0 1.157.167 1.66.52.47.318.804.77 1.006 1.257.1.218.167.453.2.687.034.285.051.587 0 .872" fill="#181717"/><path d="M13.132 26.05l.016-.016-.016.015z" fill="#fff"/><path d="M16.904 28.634a2.753 2.753 0 01-.218.72 3.369 3.369 0 01-.302.537c-.1.134-.2.268-.301.369-.1.117-.218.218-.336.302-.083.05-.15.117-.234.167a1.733 1.733 0 01-.386.202 2.69 2.69 0 01-.52.167c-.52.134-1.09.118-1.61-.05a2.896 2.896 0 01-.854-.42 2.75 2.75 0 01-.704-.687 3.125 3.125 0 01-.37-.653 3.027 3.027 0 01-.217-.872c-.034-.235-.017-.486 0-.738a3.151 3.151 0 01.754-1.643c.135-.134.269-.268.42-.386l.301-.2c.034-.018.084-.051.118-.068.033.503-.084.99-.37 1.409l-.016.016v.017a2.228 2.228 0 00-.386 1.274c0 .302.068.604.202.889.1.218.234.419.402.603.1.118.218.218.352.302a2.25 2.25 0 001.274.403c.134 0 .268 0 .386-.034a.7.7 0 00.251-.067c.034 0 .084-.034.118-.034.084-.033.167-.067.234-.1 0 0 .017 0 .034-.017.033 0 .05-.034.084-.05.084-.05.15-.1.218-.151.067-.05.134-.117.2-.168l.101-.1a1.03 1.03 0 00.168-.218 2.08 2.08 0 00.386-1.057 2.249 2.249 0 00-.94-2.045 2.265 2.265 0 00-.402-.218 3.94 3.94 0 000-.889c.302.084.604.235.872.42a3.069 3.069 0 011.258 3" fill="#fff"/><path d="M12.059 26.855s0 .017-.017.033c0 0 0-.016.017-.033v-.016.016zm0 0s0 .017-.017.033c0 0 0-.016.017-.033v-.016.016zm0 0s0 .017-.017.033c0 0 0-.016.017-.033v-.016.016zm0 0s0 .017-.017.033c0 0 0-.016.017-.033v-.016.016zm0 0s0 .017-.017.033c0 0 0-.016.017-.033v-.016.016zm0 0s0 .017-.017.033c0 0 0-.016.017-.033v-.016.016zm0 0s0 .017-.017.033c0 0 0-.016.017-.033v-.016.016zm4.041 1.494a2.249 2.249 0 01-.386 1.056c-.05.084-.117.15-.168.218l-.1.1a1.773 1.773 0 01-.201.168c-.067.05-.151.1-.218.151-.034.017-.05.034-.084.05 0 0-.017 0-.034.017-.084.034-.15.067-.234.1-.034 0-.084.034-.118.034-.084.034-.167.05-.251.067a3.264 3.264 0 01-.386.034c-.436 0-.888-.134-1.274-.403a1.524 1.524 0 01-.352-.301 2.37 2.37 0 01-.402-.604 2.082 2.082 0 01-.202-.889c.37-.2.705-.486.956-.838a1.542 1.542 0 00-.218 1.09c0 .1.05.201.084.285a1.457 1.457 0 00.553.687c.252.185.553.269.872.269.486 0 .956-.235 1.24-.637a1.503 1.503 0 00-.368-2.096c-.05-.034-.084-.05-.134-.084a3.64 3.64 0 00.134-.72c.15.066.268.133.402.217a2.181 2.181 0 01.939 2.045" fill="#181717"/><path d="M25.086 26.57s-.05-.033-.067-.05l-.771-.537-.788-.553s-.05-.017-.068-.017c-.033 0-.083.017-.1.05l-1.123 1.61-.42.587-2.011 2.867c-.721-.486-1.459-.973-2.18-1.459a3.56 3.56 0 00.05-1.576 3.738 3.738 0 00-1.559-2.448 3.816 3.816 0 00-1.425-.603c.067.251.117.52.134.771.302.084.604.235.872.42a3.069 3.069 0 011.257 3 2.75 2.75 0 01-.218.721 3.369 3.369 0 01-.301.537c-.1.134-.201.251-.319.369a1.89 1.89 0 01-.335.301 2.05 2.05 0 01-.235.168 1.7 1.7 0 01-.385.201 2.694 2.694 0 01-.52.168c-.235.05-.47.084-.721.084-.302 0-.604-.05-.905-.134a2.899 2.899 0 01-.856-.42 3.422 3.422 0 01-.704-.687 3.128 3.128 0 01-.368-.654 3.17 3.17 0 01-.218-.872 5.405 5.405 0 010-.737 3.155 3.155 0 01.754-1.643c.134-.134.268-.269.42-.386l.3-.201c.034-.017.085-.05.118-.067 0-.067 0-.134-.033-.201a2.882 2.882 0 00-.151-.503 3.811 3.811 0 00-1.492 1.24 3.92 3.92 0 00-.67 1.811 5.193 5.193 0 000 .72c.033.303.1.605.2.89.084.251.202.486.336.704.268.436.62.821 1.056 1.14a3.725 3.725 0 002.163.687c.77 0 1.592-.268 2.23-.738.687.503 1.374 1.023 2.078 1.526L16.1 35.54l-.402.587-1.123 1.609s-.034.134.033.184l.788.554.772.536a.668.668 0 00.402.118.71.71 0 00.503-.202l1.61-1.66a35.914 35.914 0 002.23-2.564c.15-.185.301-.386.435-.57.134-.185.268-.37.402-.57.135-.185.269-.386.403-.587.134-.202.268-.403.386-.604a28.408 28.408 0 001.642-2.968l1.006-2.062a.71.71 0 00-.15-.821m-8.417 4.124c.118-.117.218-.251.319-.385.117-.168.235-.352.318-.554.587.386 1.274.839 2.012 1.342l-.369.52-.352.502c-.72-.536-1.375-1.006-1.945-1.425m-.033 7.763l-.754-.52-.32-.218.789-1.123 1.24.871-.972 1.006.017-.016zm6.958-9.305a28.483 28.483 0 01-1.593 2.883c-.134.202-.252.403-.386.604-.134.184-.251.386-.385.57-.134.184-.252.369-.403.553-.134.185-.285.386-.436.57-.67.872-1.391 1.71-2.162 2.498l-.118.118-1.34-.94 2.01-2.866.42-.587.352-.52.369-.536.42-.587 1.994-2.85 1.341.939-.067.15h-.016zm.385-.805l-1.24-.872.788-1.123.318.218.755.52-.604 1.24-.017.017z" fill="#181717"/><path d="M16.351 36.596l-.788 1.124.302.218.754.52.973-.99-1.24-.872zm7.478-10.025l-.319-.219-.788 1.124 1.24.872.604-1.241-.754-.52.017-.017zm-.169 2.432l-.066.15a28.39 28.39 0 01-1.593 2.884c-.134.202-.251.403-.386.604-.134.184-.251.386-.385.57-.134.184-.252.369-.402.553-.135.185-.285.386-.436.57a27.896 27.896 0 01-2.163 2.498l-.117.118-1.342-.94 1.995-2.866.42-.587.352-.52.368-.536.42-.587 1.995-2.85 1.34.939z" fill="#fff"/><path d="M25.019 26.521s.05.034.067.05c-.017-.016-.05-.033-.067-.05z" fill="#181717"/><path d="M33.754 35.14l-.554-.671s0-.017-.016-.034L15.747 48.753l-.553.453-2.414 1.978-.553.453-2.716 2.23c.134.084.251.184.352.318.1.118.184.268.234.403l23.69-19.449-.017-.033m13.9-11.97a3.54 3.54 0 00-1.443-1.057c-.117-.05-.251-.084-.369-.117a2.344 2.344 0 00-.469-.1 4.421 4.421 0 00-.486-.034 3.15 3.15 0 00-.889.117c-.15.034-.285.084-.436.134-.1.034-.184.084-.285.134a3.422 3.422 0 00-.654.436c-.167.151-.335.302-.469.47-.084-.084-.168-.151-.268-.235a2.456 2.456 0 00-.436-.285c-.05-.034-.1-.05-.151-.084a2.83 2.83 0 00-.47-.201c-.285-.1-.57-.151-.871-.185h-.637c-.067 0-.118 0-.185.017-.033 0-.084 0-.117.017-.05 0-.1.017-.151.034-.084.016-.184.05-.268.067-.05 0-.1.033-.151.05a3.402 3.402 0 00-1.073.603 3.586 3.586 0 00-.503 5.03c.67.805 1.61 1.24 2.582 1.291l-1.71 1.408.033.034.553.67s0 .017.017.034l1.71-1.408a3.56 3.56 0 00.772 2.783c.402.486.905.838 1.441 1.056.118.05.252.084.37.134.15.05.318.084.469.1.167.017.318.034.486.034.285 0 .587-.033.872-.1a2.54 2.54 0 00.47-.151c.1-.034.184-.084.284-.134.235-.118.453-.269.654-.436a3.585 3.585 0 00.738-4.711c.2-.101.385-.235.553-.37a3.568 3.568 0 00.486-5.029m-1.09 4.309c-.167.15-.368.251-.57.352a3.21 3.21 0 01-.301 1.09 2.651 2.651 0 01-.42 3.638c-.067.05-.117.1-.184.134-.034.017-.067.05-.1.067a1.28 1.28 0 01-.202.117l-.1.05c-.067.034-.134.051-.202.084-.067.017-.134.05-.218.068-.117.033-.217.05-.335.067h-.335c-.151 0-.285 0-.436-.034-.084-.017-.184-.033-.268-.067a2.676 2.676 0 01-1.342-.872c-.737-.888-.77-2.129-.2-3.051l-.168-.201.972-.788s.117.033.168.05c.05 0 .117.017.167.017h.134c.067 0 .135-.034.202-.05a.816.816 0 00.302-1.24.805.805 0 00-.62-.286.809.809 0 00-.504.184.766.766 0 00-.251.838l-.956.788-.184-.234c-.302.117-.62.168-.922.168a2.54 2.54 0 01-1.107-.252l-.201-.1a1.694 1.694 0 01-.352-.252c-.05-.05-.118-.1-.168-.151-.067-.067-.134-.15-.201-.218-.922-1.123-.755-2.783.369-3.722.067-.05.117-.1.184-.134.067-.05.134-.084.201-.117l.202-.101a.824.824 0 01.217-.084c.067-.017.134-.05.218-.067.101-.033.218-.05.319-.067h.318c.738 0 1.46.302 1.979.889.268-.067.553-.101.821-.101h.302c.134-.168.285-.335.453-.486.067-.05.117-.1.184-.134.05-.034.084-.067.134-.084a.51.51 0 01.168-.084l.1-.05a2.1 2.1 0 01.42-.151c.1-.034.218-.05.335-.067h.486c.134 0 .285.033.42.05.05 0 .1.017.15.034.084.016.185.05.269.084.184.067.352.167.52.268.117.084.234.184.351.285.067.067.134.15.202.218.922 1.123.754 2.783-.37 3.722M36.57 32.893l-.553-.67s0-.017-.017-.034l-.922.754s.017.017.017.034l.553.67s0 .017.017.034l.922-.755s-.017-.016-.017-.033z" fill="#EA9C03"/><path d="M46.932 23.755s-.135-.151-.202-.218a1.938 1.938 0 00-.352-.285 2.187 2.187 0 00-.52-.269 1.648 1.648 0 00-.268-.084c-.05 0-.084-.033-.134-.033a1.792 1.792 0 00-.419-.05h-.486c-.117 0-.218.033-.336.067a1.78 1.78 0 00-.419.15l-.1.05c-.05.034-.1.051-.168.085-.05.033-.084.05-.134.084-.067.05-.134.083-.184.134a3.07 3.07 0 00-.453.486h-.302a3.34 3.34 0 00-.821.1 2.627 2.627 0 00-1.979-.888h-.335a.979.979 0 00-.319.067c-.067.017-.15.034-.218.067-.067.034-.134.05-.218.084l-.2.1c-.068.034-.135.084-.202.118-.067.05-.134.084-.184.134a2.653 2.653 0 00-.168 3.94c.05.05.117.1.168.15.117.101.234.185.352.252l.201.1c.352.169.72.235 1.107.235.301 0 .62-.05.922-.167l.184.235.956-.788a.774.774 0 01.268-.839.846.846 0 01.503-.184c.235 0 .453.1.62.285a.784.784 0 01-.117 1.123.707.707 0 01-.184.118.447.447 0 01-.202.05h-.134c-.05 0-.117 0-.167-.017-.068 0-.118-.033-.168-.05l-.973.805.168.2a2.655 2.655 0 00.201 3.069c.352.436.822.737 1.342.872.1.033.184.05.285.067.134.017.285.033.435.033h.336a.964.964 0 00.318-.067s.151-.033.218-.067c.067-.033.151-.05.218-.084.034 0 .067-.033.1-.05.068-.033.135-.067.202-.117.034-.017.067-.05.1-.067.068-.034.118-.084.185-.135a2.635 2.635 0 00.42-3.638c.15-.352.25-.72.3-1.09.202-.083.386-.2.57-.351a2.653 2.653 0 00.37-3.723m-.134 1.861c-.05.52-.302.973-.688 1.291a1.446 1.446 0 01-.419.252l-.369.168-.05.402a3.203 3.203 0 01-.235.872l-.184.385.268.336a1.92 1.92 0 01-.302 2.649 1.918 1.918 0 01-1.224.436 1.9 1.9 0 01-1.492-.705 1.918 1.918 0 01-.15-2.23l.268-.435-.034-.05.134-.118h.168a1.508 1.508 0 001.509-1.358 1.556 1.556 0 00-.336-1.107 1.512 1.512 0 00-1.173-.553c-.352 0-.688.118-.956.352-.335.268-.52.67-.553 1.073l-.117.1-.05-.066-.487.184a1.823 1.823 0 01-.67.118c-.57 0-1.124-.252-1.476-.705a1.917 1.917 0 01.268-2.699 1.907 1.907 0 012.65.218l.284.319.42-.1c.218-.051.435-.068.67-.068h.235l.402.034.235-.336c.1-.134.201-.251.319-.352a1.918 1.918 0 011.223-.436 1.9 1.9 0 011.492.704c.32.403.47.889.436 1.409m.135-1.861s-.135-.151-.202-.218c-.1-.1-.218-.201-.352-.285a2.187 2.187 0 00-.52-.268 1.658 1.658 0 00-.268-.084c-.05 0-.084-.034-.134-.034a1.787 1.787 0 00-.419-.05h-.486c-.117 0-.218.033-.336.067-.15.034-.285.084-.419.15-.033.018-.067.034-.1.051-.05.034-.1.05-.168.084-.05.034-.084.05-.134.084-.067.05-.134.084-.184.134a3.07 3.07 0 00-.453.486h-.302a3.34 3.34 0 00-.821.1 2.627 2.627 0 00-1.979-.888h-.335c-.117 0-.218.034-.319.067-.067.017-.15.034-.218.067-.067.034-.134.05-.218.084l-.2.1c-.068.034-.135.084-.202.118-.067.05-.134.084-.184.134a2.653 2.653 0 00-.168 3.94c.05.05.117.1.168.151.117.1.234.184.352.251l.201.101c.352.168.72.235 1.107.235.301 0 .62-.05.922-.168l.184.235.956-.788a.774.774 0 01.268-.838.846.846 0 01.503-.185c.235 0 .453.1.62.285a.784.784 0 01-.117 1.123.692.692 0 01-.184.118.447.447 0 01-.202.05h-.134c-.05 0-.117 0-.167-.017-.068 0-.118-.033-.168-.05l-.973.805.168.201a2.655 2.655 0 00.201 3.068 2.54 2.54 0 001.342.872c.1.033.184.05.285.067.134.017.285.033.435.033h.336a.979.979 0 00.318-.067s.151-.033.218-.067c.067-.033.151-.05.218-.084.034 0 .067-.033.1-.05.068-.033.135-.067.202-.117.034-.017.067-.05.1-.067.068-.034.118-.084.185-.134a2.635 2.635 0 00.42-3.638c.15-.353.25-.721.3-1.09.202-.084.386-.201.57-.352a2.653 2.653 0 00.37-3.722m-.134 1.86a1.9 1.9 0 01-.688 1.292c-.117.1-.251.184-.419.251l-.369.168-.05.402a3.202 3.202 0 01-.235.872l-.184.386.268.335a1.92 1.92 0 01-.302 2.649 1.918 1.918 0 01-1.224.436 1.9 1.9 0 01-1.492-.704 1.918 1.918 0 01-.15-2.23l.268-.436-.034-.05.134-.118h.168a1.508 1.508 0 001.509-1.358 1.556 1.556 0 00-.336-1.106 1.512 1.512 0 00-1.173-.553c-.352 0-.688.117-.956.352-.335.268-.52.67-.553 1.073l-.117.1-.05-.067-.487.184a1.825 1.825 0 01-.67.118 1.87 1.87 0 01-1.476-.704 1.917 1.917 0 01.268-2.7 1.907 1.907 0 012.65.218l.284.319.42-.1c.218-.051.435-.068.67-.068h.235l.402.034.235-.335c.1-.135.201-.252.319-.353a1.918 1.918 0 011.223-.436 1.9 1.9 0 011.492.705c.32.402.47.888.436 1.408m.135-1.861s-.135-.15-.202-.218c-.1-.1-.218-.201-.352-.285a2.187 2.187 0 00-.52-.268 1.649 1.649 0 00-.268-.084c-.05 0-.084-.034-.134-.034a1.792 1.792 0 00-.419-.05h-.486c-.117 0-.218.034-.336.067a1.78 1.78 0 00-.419.151l-.1.05c-.05.034-.1.05-.168.084-.05.034-.084.05-.134.084-.067.05-.134.084-.184.134a3.115 3.115 0 00-.453.486h-.302c-.285 0-.553.034-.821.1a2.627 2.627 0 00-1.979-.888h-.335c-.117 0-.218.034-.319.067-.067.017-.15.034-.218.067-.067.034-.134.05-.218.084l-.2.1c-.068.034-.135.085-.202.118-.067.05-.134.084-.184.134a2.653 2.653 0 00-.168 3.94c.05.05.117.1.168.151.117.1.234.185.352.252l.201.1c.352.168.72.235 1.107.235.301 0 .62-.05.922-.168l.184.235.956-.788a.774.774 0 01.268-.838.846.846 0 01.503-.185.83.83 0 01.62.285.784.784 0 01-.117 1.124.68.68 0 01-.184.117.446.446 0 01-.202.05h-.134c-.05 0-.117 0-.167-.016-.068 0-.118-.034-.168-.05l-.973.804.168.201a2.655 2.655 0 00.201 3.068 2.54 2.54 0 001.342.872c.1.034.184.05.285.067.134.017.285.034.435.034h.336c.117 0 .218-.034.318-.067 0 0 .151-.034.218-.067.067-.034.151-.05.218-.084.034 0 .067-.034.1-.05.068-.034.135-.068.202-.118.034-.017.067-.05.1-.067.068-.033.118-.084.185-.134a2.635 2.635 0 00.42-3.638c.15-.352.25-.721.3-1.09.202-.084.386-.201.57-.352a2.653 2.653 0 00.37-3.722m-.134 1.861c-.05.52-.302.972-.688 1.29a1.424 1.424 0 01-.419.252l-.369.168-.05.402a3.202 3.202 0 01-.235.872l-.184.386.268.335a1.92 1.92 0 01-.302 2.65 1.918 1.918 0 01-1.224.435 1.9 1.9 0 01-1.492-.704 1.918 1.918 0 01-.15-2.23l.268-.436-.034-.05.134-.118h.168c.352 0 .687-.117.956-.335.318-.251.503-.62.553-1.022a1.556 1.556 0 00-.336-1.107 1.512 1.512 0 00-1.173-.553c-.352 0-.688.117-.956.352-.335.268-.52.67-.553 1.073l-.117.1-.05-.067-.487.185a1.825 1.825 0 01-.67.117c-.57 0-1.124-.251-1.476-.704a1.917 1.917 0 01.268-2.7 1.906 1.906 0 012.65.219l.284.318.42-.1c.218-.05.435-.067.67-.067h.235l.402.033.235-.335c.1-.134.201-.252.319-.352a1.918 1.918 0 011.223-.436 1.9 1.9 0 011.492.704c.32.402.47.889.436 1.408m-5.365-3c.151.083.302.184.436.3-.134-.116-.285-.2-.436-.3zm5.483 1.14s-.134-.152-.201-.219c-.101-.1-.218-.2-.352-.285a2.186 2.186 0 00-.52-.268 1.645 1.645 0 00-.268-.084c-.05 0-.084-.033-.135-.033a1.792 1.792 0 00-.419-.05h-.486c-.117 0-.218.033-.335.066a1.78 1.78 0 00-.42.151l-.1.05c-.05.034-.1.05-.168.084-.05.034-.084.05-.134.084-.067.05-.134.084-.184.134a3.078 3.078 0 00-.453.487h-.302c-.285 0-.553.033-.821.1a2.627 2.627 0 00-1.978-.888h-.336a.978.978 0 00-.318.067c-.067.016-.151.033-.218.067-.067.033-.134.05-.218.084l-.201.1c-.067.034-.135.084-.202.117-.067.05-.134.084-.184.135a2.653 2.653 0 00-.168 3.94c.05.05.118.1.168.15.117.101.235.185.352.252l.201.1c.352.168.721.235 1.107.235.301 0 .62-.05.922-.167l.184.234.956-.788a.774.774 0 01.268-.838.846.846 0 01.503-.184c.235 0 .453.1.62.285a.784.784 0 01-.117 1.123.68.68 0 01-.184.117.447.447 0 01-.202.05h-.134c-.05 0-.117 0-.167-.016-.067 0-.118-.034-.168-.05l-.972.804.167.201a2.656 2.656 0 00.201 3.069c.353.435.822.737 1.342.871.1.034.184.05.285.067.134.017.285.034.436.034h.335c.117 0 .218-.034.319-.067 0 0 .15-.034.218-.067.067-.034.15-.05.217-.084.034 0 .067-.033.101-.05.067-.034.134-.067.201-.118.034-.016.067-.05.1-.067.068-.033.118-.084.185-.134a2.635 2.635 0 00.42-3.638c.15-.352.25-.72.301-1.09.201-.084.386-.2.57-.352a2.653 2.653 0 00.369-3.722m-.134 1.861a1.9 1.9 0 01-.688 1.291c-.117.1-.251.185-.419.252l-.368.167-.05.403a3.2 3.2 0 01-.235.871l-.185.386.268.335a1.92 1.92 0 01-.301 2.65 1.919 1.919 0 01-1.224.435 1.9 1.9 0 01-1.492-.704 1.918 1.918 0 01-.151-2.23l.268-.436-.034-.05.135-.117h.167a1.51 1.51 0 001.509-1.358 1.555 1.555 0 00-.335-1.107 1.512 1.512 0 00-1.174-.553c-.352 0-.687.117-.956.352-.335.268-.52.67-.553 1.073l-.117.1-.05-.066-.487.184a1.823 1.823 0 01-.67.117c-.57 0-1.123-.251-1.476-.704a1.917 1.917 0 01.269-2.7 1.907 1.907 0 012.649.219l.285.318.419-.1c.218-.05.436-.067.67-.067h.235l.402.033.235-.335c.1-.134.201-.252.319-.352a1.918 1.918 0 011.224-.436 1.9 1.9 0 011.492.704c.318.402.47.889.436 1.408M8.337 55.828s.034.016.067.016c-.017 0-.033 0-.067-.017zM46.915 23.67s-.134-.151-.201-.218a2.064 2.064 0 00-.352-.285 2.185 2.185 0 00-.52-.268 1.646 1.646 0 00-.268-.084c-.05 0-.084-.034-.135-.034a1.792 1.792 0 00-.419-.05h-.486c-.117 0-.218.033-.335.067a1.78 1.78 0 00-.42.15l-.1.051c-.05.034-.1.05-.168.084-.05.033-.084.05-.134.084-.067.05-.134.084-.184.134a3.11 3.11 0 00-.453.486h-.302c-.285 0-.553.034-.821.1A2.627 2.627 0 0039.639 23h-.336a.98.98 0 00-.318.067c-.067.017-.151.034-.218.067-.067.034-.134.05-.218.084l-.201.1c-.067.034-.135.084-.202.118-.067.05-.134.084-.184.134a2.653 2.653 0 00-.369 3.722c.067.084.134.15.201.218.05.05.118.1.168.15.117.102.235.185.352.252l.201.101c.352.168.721.235 1.107.235.301 0 .62-.05.922-.168l.184.235.956-.788a.774.774 0 01.268-.838.845.845 0 01.503-.185c.235 0 .453.1.62.285a.784.784 0 01-.117 1.123.707.707 0 01-.184.118.446.446 0 01-.202.05h-.134c-.05 0-.117 0-.167-.017-.067 0-.118-.033-.168-.05l-.972.805.167.2a2.656 2.656 0 00.201 3.069c.353.436.822.738 1.342.872.1.033.184.05.285.067.134.017.285.033.436.033h.335a.975.975 0 00.319-.067s.15-.033.218-.067c.067-.033.15-.05.217-.083.034 0 .067-.034.101-.05.067-.034.134-.068.201-.118.034-.017.067-.05.1-.067.068-.034.118-.084.185-.134a2.635 2.635 0 00.42-3.639c.15-.352.25-.72.301-1.09.201-.083.386-.2.57-.351a2.653 2.653 0 00.369-3.722m-.134 1.86a1.9 1.9 0 01-.688 1.292c-.117.1-.251.184-.419.251l-.368.168-.05.402a3.198 3.198 0 01-.235.872l-.185.386.268.335a1.92 1.92 0 01-.301 2.649 1.919 1.919 0 01-1.224.436 1.9 1.9 0 01-1.492-.704 1.918 1.918 0 01-.151-2.23l.268-.436-.034-.05.135-.118h.167c.352 0 .688-.117.956-.335.318-.252.503-.62.553-1.023a1.555 1.555 0 00-.335-1.106 1.512 1.512 0 00-1.174-.554c-.352 0-.687.118-.956.353-.335.268-.52.67-.553 1.073l-.117.1-.05-.067-.487.184a1.825 1.825 0 01-.67.118c-.57 0-1.123-.252-1.476-.704a1.917 1.917 0 01.269-2.7 1.907 1.907 0 012.649.218l.285.319.419-.1c.218-.051.436-.068.67-.068h.235l.402.034.235-.336c.1-.134.201-.251.319-.352a1.918 1.918 0 011.224-.436 1.9 1.9 0 011.492.705c.318.402.47.888.436 1.408m.134-1.861s-.134-.151-.201-.218a2.064 2.064 0 00-.352-.285 2.186 2.186 0 00-.52-.268 1.645 1.645 0 00-.268-.084c-.05 0-.084-.034-.135-.034a1.792 1.792 0 00-.419-.05h-.486c-.117 0-.218.034-.335.067a1.78 1.78 0 00-.42.151l-.1.05c-.05.034-.1.05-.168.084-.05.034-.084.05-.134.084-.067.05-.134.084-.184.134a3.115 3.115 0 00-.453.486h-.302c-.285 0-.553.034-.821.1a2.627 2.627 0 00-1.978-.888h-.336a.978.978 0 00-.318.067c-.067.017-.151.034-.218.067-.067.034-.134.05-.218.084l-.201.1c-.067.034-.135.085-.202.118-.067.05-.134.084-.184.134a2.653 2.653 0 00-.168 3.94c.05.05.118.1.168.151.117.1.235.185.352.252l.201.1c.352.168.721.235 1.107.235.301 0 .62-.05.922-.168l.184.235.956-.788a.774.774 0 01.268-.838.846.846 0 01.503-.185c.235 0 .453.1.62.285a.784.784 0 01-.117 1.124c-.05.05-.117.083-.184.117a.447.447 0 01-.202.05h-.134c-.05 0-.117 0-.167-.016-.067 0-.118-.034-.168-.05l-.972.804.167.201a2.656 2.656 0 00.201 3.068c.353.436.822.738 1.342.872.1.034.184.05.285.067.134.017.285.034.436.034h.335c.117 0 .218-.034.319-.067 0 0 .15-.034.218-.068.067-.033.15-.05.217-.083.034 0 .067-.034.101-.05.067-.034.134-.068.201-.118.034-.017.067-.05.1-.067.068-.034.118-.084.185-.134a2.635 2.635 0 00.42-3.638c.15-.352.25-.721.301-1.09a2.28 2.28 0 00.57-.352 2.653 2.653 0 00.369-3.722m-.134 1.86a1.9 1.9 0 01-.688 1.292c-.117.1-.251.184-.419.251l-.368.168-.05.402a3.198 3.198 0 01-.235.872l-.185.386.268.335a1.92 1.92 0 01-.301 2.65 1.919 1.919 0 01-1.224.435 1.9 1.9 0 01-1.492-.704 1.918 1.918 0 01-.151-2.23l.268-.436-.034-.05.135-.118h.167c.352 0 .688-.117.956-.335.318-.251.503-.62.553-1.023a1.555 1.555 0 00-.335-1.106 1.512 1.512 0 00-1.174-.553c-.352 0-.687.117-.956.352-.335.268-.52.67-.553 1.073l-.117.1-.05-.067-.487.185a1.824 1.824 0 01-.67.117c-.57 0-1.123-.252-1.476-.704a1.917 1.917 0 01.269-2.7 1.907 1.907 0 012.649.218l.285.32.419-.101c.218-.05.436-.068.67-.068h.235l.402.034.235-.335c.1-.134.201-.252.319-.352a1.918 1.918 0 011.224-.436 1.9 1.9 0 011.492.704c.318.402.47.888.436 1.408m.134-1.86s-.134-.152-.201-.219a2.064 2.064 0 00-.352-.285 2.186 2.186 0 00-.52-.268 1.655 1.655 0 00-.268-.084c-.05 0-.084-.033-.135-.033a1.792 1.792 0 00-.419-.05h-.486c-.117 0-.218.033-.335.066a1.79 1.79 0 00-.42.151l-.1.05c-.05.034-.1.05-.168.084-.05.034-.084.05-.134.084-.067.05-.134.084-.184.134a3.115 3.115 0 00-.453.486h-.302c-.285 0-.553.034-.821.101a2.627 2.627 0 00-1.978-.889h-.336a.964.964 0 00-.318.068c-.067.016-.151.033-.218.067-.067.033-.134.05-.218.084l-.201.1c-.067.034-.135.084-.202.117-.067.05-.134.084-.184.135a2.653 2.653 0 00-.369 3.722c.067.083.134.15.201.218.05.05.118.1.168.15.117.101.235.185.352.252l.201.1c.352.168.721.235 1.107.235.301 0 .62-.05.922-.167l.184.234.956-.788a.774.774 0 01.268-.838.846.846 0 01.503-.184c.235 0 .453.1.62.285a.784.784 0 01-.117 1.123.68.68 0 01-.184.117.447.447 0 01-.202.05h-.134c-.05 0-.117 0-.167-.016-.067 0-.118-.034-.168-.05l-.972.804.167.201a2.656 2.656 0 00.201 3.069c.353.435.822.737 1.342.871.1.034.184.05.285.067.134.017.285.034.436.034h.335a.979.979 0 00.319-.067s.15-.034.218-.067c.067-.034.15-.05.217-.084.034 0 .067-.034.101-.05.067-.034.134-.067.201-.118.034-.017.067-.05.1-.067.068-.033.118-.084.185-.134a2.635 2.635 0 00.42-3.638c.15-.352.25-.721.301-1.09a2.28 2.28 0 00.57-.352 2.653 2.653 0 00.369-3.722m-.134 1.861c-.05.52-.302.973-.688 1.291-.117.1-.251.184-.419.252l-.368.167-.05.403a3.198 3.198 0 01-.235.871l-.185.386.268.335a1.92 1.92 0 01-.301 2.65 1.919 1.919 0 01-1.224.435 1.9 1.9 0 01-1.492-.704 1.918 1.918 0 01-.151-2.23l.268-.436-.034-.05.135-.117h.167a1.51 1.51 0 001.509-1.358 1.556 1.556 0 00-.335-1.107 1.512 1.512 0 00-1.174-.553c-.352 0-.687.117-.956.352-.335.268-.52.67-.553 1.073l-.117.1-.05-.066-.487.184a1.824 1.824 0 01-.67.117c-.57 0-1.123-.251-1.476-.704a1.917 1.917 0 01.269-2.7 1.907 1.907 0 012.649.219l.285.318.419-.1c.218-.05.436-.067.67-.067h.235l.402.033.235-.335c.1-.134.201-.252.319-.352a1.918 1.918 0 011.224-.436 1.9 1.9 0 011.492.704c.318.402.47.889.436 1.408" fill="#181717"/><path d="M9.46 55.123c0 .251-.083.503-.285.67a.846.846 0 01-.503.185c-.083 0-.167 0-.251-.05-.017 0-.034 0-.067-.017a.776.776 0 01-.47-.553.797.797 0 01.269-.788l.05-.05a1.83 1.83 0 01.184-.101c.05-.017.084-.034.135-.034h.134c.067 0 .134 0 .2.034a.94.94 0 01.42.268.819.819 0 01.184.453m4.675-7.206l-2.41 1.979.574.7 2.41-1.98-.574-.7z" fill="#EA9C03"/><path d="M48.206 22.699a4.263 4.263 0 00-3.32-1.576c-.989 0-1.961.352-2.716.973-.017.016-.05.033-.067.067a4.307 4.307 0 00-5.164.218 4.304 4.304 0 00-.587 6.052c.436.52.973.922 1.577 1.19l-.822.67s-.15-.016-.218-.016c-.268 0-.537.1-.754.268-.285.235-.436.57-.436.906l-1.342 1.09s-.15-.017-.218-.017c-.268 0-.536.1-.754.268a1.174 1.174 0 00-.436.805v.117L15.295 48.216l-.57-.704 1.274-1.04.553-.452-.452-.553-.403-.503-.452-.553-.336-.42-1.626-1.995-.453-.553-.553.453-.972.788-.554.452.453.553 1.006 1.224-.503.42-.99-1.224-.452-.57-.553.47-.939.787-.553.453.453.553.989 1.224-.52.436-.99-1.224-.452-.57-.553.47-.956.787-.553.453.453.553 1.643 1.995.452.554.336.402.402.486.453.553.553-.452 1.324-1.09.57.704-3.101 2.549a1.497 1.497 0 00-1.14 2.464c.285.352.72.553 1.173.553.352 0 .688-.117.956-.352a1.53 1.53 0 00.52-.855l24.293-19.934s.15.017.235.017c.268 0 .536-.1.754-.269.285-.234.436-.57.436-.905l1.325-1.09c.067 0 .15.017.234.017.269 0 .537-.1.755-.268.251-.201.402-.486.436-.805v-.117l.821-.67c.151.636.436 1.257.872 1.776a4.263 4.263 0 003.32 1.576 4.293 4.293 0 003.94-5.985c.016-.017.05-.034.067-.05a4.198 4.198 0 001.542-2.9 4.225 4.225 0 00-.956-3.153M10.82 49.826l-1.325 1.09-.402-.487a.619.619 0 10-.788-.956L6.66 47.48l.955-.788 1.442 1.793 1.643-1.34-1.442-1.778.94-.788 1.441 1.794 1.626-1.341-1.442-1.777.973-.788 1.626 1.995a.619.619 0 00.402 1.09c.101 0 .185-.034.269-.067.033-.017.084-.034.117-.068l.402.487-1.274 1.04-3.52 2.9v-.017zm1.005.1l2.415-1.978.57.704-2.414 1.978-.57-.704zM9.26 55.761a.846.846 0 01-.503.184c-.083 0-.167 0-.251-.05-.017 0-.034 0-.067-.017a.676.676 0 01-.302-.235.903.903 0 01-.168-.335.797.797 0 01.269-.788c.016 0 .033-.033.05-.033.067-.05.117-.068.184-.101.05-.017.084-.034.134-.034h.135c.067 0 .134 0 .2.034a.819.819 0 01.604.72c0 .252-.083.504-.285.672m.906-1.174a1.486 1.486 0 00-.587-.738l2.716-2.23.553-.452 2.414-1.979.554-.452L33.25 34.435s0 .017.017.033l.553.671s0 .017.017.034L10.148 54.62l.017-.017zm24.88-19.867a.468.468 0 01-.302.1h-.084c-.017 0-.05 0-.067-.017h-.067s-.017 0-.033-.016c-.017 0-.05-.034-.067-.05 0 0-.017-.017-.017-.034l-.554-.67s0-.017-.016-.034c0 0-.017-.017-.017-.034 0 0 0-.033-.017-.033v-.168c0-.134.067-.268.168-.369a.468.468 0 01.302-.1h.083c.017 0 .05 0 .084.016.017 0 .05.017.067.034 0 0 .034.017.034.033.017 0 .033.034.05.05 0 0 .017.017.017.034l.553.67s0 .018.017.034l.017.034v.084c0 .017 0 .05.016.067v.084a.538.538 0 01-.167.369m.637-1.09s0-.017-.017-.034l-.553-.67-.034-.034.922-.754s0 .016.017.033l.553.67s0 .018.017.034l-.922.755h.017zm2.112-1.174a.498.498 0 01-.637-.034s0-.016-.017-.033l-.536-.67s-.017-.017-.017-.034a.466.466 0 01.084-.62.498.498 0 01.67.067l.554.67s0 .017.017.034a.49.49 0 01-.084.637m9.456-4.292c-.185.15-.37.268-.554.369a3.585 3.585 0 01-.737 4.71c-.202.169-.42.32-.654.437-.084.05-.185.084-.285.134-.151.05-.302.117-.47.15-.285.068-.57.118-.871.118-.168 0-.319 0-.487-.033a2.123 2.123 0 01-.469-.1c-.117-.034-.252-.068-.369-.118a3.654 3.654 0 01-1.442-1.056 3.56 3.56 0 01-.77-2.784l-1.711 1.409s0-.017-.017-.034l-.553-.67-.034-.034 1.71-1.408a3.54 3.54 0 01-2.581-1.308c-1.258-1.526-1.04-3.789.503-5.03.335-.268.704-.47 1.09-.603l.15-.05c.084-.034.168-.05.269-.068.05 0 .1 0 .15-.016.034 0 .084 0 .118-.017.067 0 .117 0 .184-.017h.637c.302.017.587.084.872.184.168.05.319.118.47.202.05.033.1.05.15.084.151.083.302.184.436.301.084.067.185.151.269.235a3.11 3.11 0 01.469-.47c.201-.167.436-.318.654-.435.1-.05.184-.084.285-.118.134-.067.285-.1.436-.15.302-.068.587-.118.888-.118.168 0 .319 0 .486.034.168.016.32.05.47.1.117.034.251.067.369.134.536.218 1.04.57 1.442 1.057a3.568 3.568 0 01-.487 5.03" fill="#181717"/><path d="M15.53 45.902l-1.275 1.04-3.52 2.9-1.325 1.09-.402-.487a.619.619 0 10-.788-.956l-1.643-2.011.955-.788 1.442 1.794 1.643-1.342-1.442-1.794.94-.788 1.441 1.794 1.626-1.341-1.441-1.794.972-.788 1.626 1.995a.633.633 0 00-.218.486c0 .352.285.62.62.62.101 0 .185-.033.269-.066.033-.017.084-.034.117-.067l.402.486v.017zm19.599-11.518a.538.538 0 01-.168.368.468.468 0 01-.302.101h-.083c-.017 0-.05 0-.068-.017h-.033s-.017 0-.034-.016c0 0-.017 0-.033-.017-.017 0-.034-.034-.067-.05 0 0 0-.017-.017-.034l-.537-.67s0-.017-.016-.034c0 0-.017-.017-.017-.034 0 0 0-.033-.017-.033v-.168c0-.134.067-.268.168-.369a.482.482 0 01.301-.117h.101c.017 0 .05 0 .084.017.017 0 .05.017.067.033 0 0 .034.017.034.034.016 0 .033.033.05.05 0 0 .017.017.017.034l.553.67s0 .017.017.034c0 0 0 .017.016.033v.235m2.565-1.944a.498.498 0 01-.637-.033c0-.001-.016-.018-.016-.035l-.537-.67s0-.017-.017-.034a.465.465 0 01.084-.62.498.498 0 01.67.067l.554.67s0 .017.017.034a.49.49 0 01-.084.637" fill="#EA9C03"/></svg>