<svg width="187" height="44" fill="none" xmlns="http://www.w3.org/2000/svg"><path d="M.175 10.448a5.28 5.28 0 015.281-5.281 5.28 5.28 0 015.281 5.28c0 .336-.033.655-.084.956a7.188 7.188 0 00-2.75-.553c-2.564 0-4.81 1.375-6.068 3.42a5.263 5.263 0 01-1.643-3.822m8.852 7.51a7.03 7.03 0 011.61-4.492 5.313 5.313 0 00-2.75-.788 5.291 5.291 0 00-5.281 5.28 5.28 5.28 0 005.28 5.282 5.16 5.16 0 002.75-.788 7.04 7.04 0 01-1.61-4.493zm9.556-.402c-2.565 0-4.812-1.375-6.069-3.42a5.213 5.213 0 00-1.66 3.823 5.28 5.28 0 1010.563 0 5.79 5.79 0 00-.084-.956 7.125 7.125 0 01-2.75.553zM19.12 5.2c0 .134.017.268.017.402a7.106 7.106 0 01-5.399 6.891c.805 1.895 2.683 3.236 4.862 3.236a5.28 5.28 0 005.281-5.281A5.279 5.279 0 0019.12 5.2zM12.028.321c-2.18 0-4.057 1.342-4.862 3.236 3.102.771 5.415 3.554 5.415 6.89v.403a5.276 5.276 0 004.745-5.248 5.29 5.29 0 00-5.281-5.28" fill="#A12038"/><path d="M33.153 5.904c-.202 0-.503.134-.587.201-.067.067-.168.302-.201.805-.017.436-.017 3.152-.05 5.667 0 1.995.05 3.42.05 3.973.016 1.341.083 1.727 1.358 2.062.435.084.62.268.62.453 0 .168-.369.302-.67.302-.57 0-1.828-.134-2.784-.134-.637 0-1.71.083-2.397.083-.503 0-.805-.117-.805-.352 0-.15.302-.335.52-.385 1.073-.269 1.341-.587 1.408-1.61.067-.872.134-2.297.134-3.42 0-.704 0-5.616-.033-6.254-.067-.77-.185-1.123-1.392-1.274-.285-.05-.503-.201-.503-.335 0-.168.201-.302.453-.352.134-.017.52-.017.72-.017 1.409 0 3.203-.168 4.192-.168 2.113 0 3.538.403 4.426 1.275a4.184 4.184 0 011.274 2.967c0 1.794-.804 2.766-1.441 3.32-.57.486-1.778.989-2.633.989-.234 0-.855-.05-1.14-.151-.301-.134-.47-.235-.47-.436 0-.084.152-.218.336-.218h.336c.922 0 2.28-1.09 2.28-3.37 0-1.76-1.19-3.604-2.985-3.604m22.399 6.17c0 2.867-1.224 4.745-2.766 5.969-1.24.972-3.118 1.576-4.795 1.576-2.297 0-4.325-.872-5.7-2.348-1.19-1.274-1.878-3-1.878-5.03 0-2.682 1.19-4.375 2.833-5.7.99-.77 2.834-1.576 4.678-1.576 4.845 0 7.645 3.605 7.645 7.109M44.922 6.877c-.738.72-1.542 2.297-1.542 4.912 0 3.37 2.062 7.042 5.264 7.042 1.207 0 1.945-.62 2.23-.905.922-.923 1.693-2.8 1.693-5.148 0-1.726-.67-4.359-2.28-5.834-.754-.654-1.928-1.19-2.9-1.19-.973 0-1.979.62-2.482 1.123m23.757-1.542c.52.134 1.073.268 1.576.335.151 0 .335.268.335.587.017.603.068 1.374.101 2.011.017.453-.134.839-.369.839-.117 0-.302-.268-.419-.587-.218-.687-.553-1.274-.922-1.56-.939-.787-2.062-1.273-3.253-1.273-3.487 0-5.13 2.766-5.13 6.102 0 1.476.268 2.75.755 3.705 1.207 2.415 3.202 3.27 4.912 3.27.285 0 1.358-.05 2.13-.503.804-.47 1.407-1.09 1.91-1.995.269-.486.42-.688.587-.688.235 0 .235.57.185.805-.118.553-.47 1.509-.654 1.911-.067.201-.453.554-.788.704-.302.118-1.828.638-3.84.638-3.235 0-5.549-1.442-6.438-2.482-.838-.972-1.844-2.498-1.844-4.929 0-2.649 1.492-4.51 2.414-5.264 1.861-1.543 4.125-1.979 5.919-1.979 1.006 0 2.062.151 2.85.353m4.476-.118c.52 0 1.576.118 2.264.118.687 0 1.928-.084 2.447-.084.436 0 .688.117.688.301 0 .185-.335.302-.57.37-.855.234-1.04.351-1.107 1.34-.05.805-.016 3.27-.016 4.293 0 .083.067.218.15.218 1.19-.084 1.912-.453 2.7-1.727.62-1.006 1.056-1.845 1.61-2.7.871-1.441 1.927-2.364 3.118-2.364.737 0 1.14.302 1.14.923 0 .2-.151.57-.285.704-.168.2-.37.234-.638.2-.234-.05-.52-.116-.737-.116-1.291 0-1.861.922-2.481 1.877-.62.973-1.09 1.727-1.425 2.197a.283.283 0 000 .167c.502.973 2.464 4.058 3.42 5.332 1.441 1.91 2.011 2.062 3.185 2.33.134.05.352.134.352.235 0 .201-.134.335-.436.419-.302.084-.805.117-1.307.117-1.928 0-2.867-.302-3.722-1.442-.805-1.006-1.727-2.43-2.733-4.04-.721-1.157-1.006-1.526-1.71-1.56-.118 0-.134.152-.151.269 0 1.777.067 4.074.084 4.896.016.436.134.77 1.09 1.006.402.117.637.268.637.435 0 .202-.37.336-.721.336-.487 0-1.996-.05-2.683-.05-.687 0-1.777.083-2.481.083-.336 0-.587-.167-.587-.335 0-.201.168-.302.654-.42 1.056-.234 1.29-.553 1.358-1.894.05-1.09.05-2.615.05-4.962 0-2.565-.05-3.404-.067-4.192-.017-1.022-.218-1.324-.99-1.542-.57-.151-.72-.302-.72-.453 0-.201.352-.302.654-.302m28.636 6.891c0 2.867-1.224 4.745-2.767 5.969-1.24.972-3.118 1.576-4.795 1.576-2.297 0-4.325-.872-5.7-2.348-1.19-1.274-1.878-3-1.878-5.03 0-2.682 1.19-4.375 2.834-5.7.989-.77 2.833-1.576 4.677-1.576 4.845 0 7.662 3.605 7.662 7.109M91.195 6.877c-.738.72-1.542 2.297-1.542 4.912 0 3.37 2.062 7.042 5.264 7.042 1.207 0 1.945-.62 2.23-.905.922-.923 1.693-2.8 1.693-5.148 0-1.726-.687-4.359-2.28-5.834-.754-.654-1.928-1.19-2.9-1.19-.973 0-1.979.62-2.482 1.123m16.548 4.728c1.492 0 4.393-.084 6.689-.084.084 0 .168-.218.202-.553.05-.285.05-2.85-.051-3.705-.084-.788-.201-1.006-1.073-1.258-.302-.084-.637-.218-.637-.436 0-.15.218-.285.721-.285.285 0 1.911.067 2.481.067.705 0 2.079-.083 2.348-.083.419 0 .687.117.687.285 0 .218-.201.352-.704.486-.788.167-.922.52-.973 1.157-.117 1.022-.167 3-.167 6.12 0 2.145.067 3.285.084 4.006.016.855.234.922 1.123 1.207.386.134.62.285.62.453 0 .235-.302.302-.704.302-.402 0-1.559-.067-2.213-.067-.486 0-2.23.117-2.682.117-.52 0-.738-.117-.738-.302 0-.184.285-.369.587-.453 1.073-.285 1.123-.469 1.224-2.079.067-.871.083-2.934.033-3.537 0-.201-.084-.285-.168-.285-1.76 0-6.253-.067-6.689-.017-.117.017-.285.201-.285.335-.05.805 0 3.152.017 3.857.016 1.022.151 1.358 1.056 1.626.469.134.771.302.771.553.017.218-.419.285-.704.285-.151 0-1.978-.067-2.733-.067-.503 0-1.626.084-2.364.084-.57 0-.771-.117-.771-.285 0-.235.251-.369.62-.486.973-.269 1.157-.503 1.275-1.425.083-.872.201-4.142.201-7.143 0-.653.05-1.86 0-2.75-.051-.72-.235-.971-.956-1.19-.503-.15-.738-.301-.738-.486 0-.218.285-.301.688-.301.587 0 1.794.083 2.364.083.922 0 1.911-.067 2.431-.067.452 0 .721.084.721.285 0 .235-.285.37-.738.487-.922.2-.989.62-1.006 1.508-.05.788-.134 3.337-.067 3.756.017.184.117.285.268.285M131.097 5.2c.151 0 .285.118.285.235-.05.637-.016 2.045 0 2.783.017.285-.134.704-.302.704-.167 0-.402-.117-.519-.62-.285-.973-.688-1.979-1.492-2.062-.688-.084-2.331-.067-2.783-.05-.436 0-.554.133-.554.351-.084 1.14-.084 3.119-.084 4.577 0 1.46.017 4.477.017 6.036.017.939.369 1.157 1.375 1.408.335.118.57.269.57.436 0 .168-.268.336-.654.336-.553 0-1.878-.118-2.716-.118-.838 0-2.196.134-2.632.134-.352 0-.587-.2-.587-.301 0-.235.268-.403.654-.487.939-.218 1.023-.586 1.073-1.09.067-.687.235-1.995.235-6.287 0-2.045 0-3.37-.051-3.94-.05-.72-.201-.989-1.056-1.19-.486-.134-.654-.268-.654-.486 0-.15.302-.285.637-.285.973 0 1.828.067 2.7.067h2.85c2.9 0 3.42-.084 3.688-.15zm7.511.704c-.201 0-.503.134-.586.201-.067.067-.168.302-.202.805-.016.436-.016 3.152-.05 5.667 0 1.995.05 3.42.05 3.973.017 1.341.084 1.727 1.358 2.062.436.084.621.268.621.453 0 .168-.369.302-.671.302-.57 0-1.827-.134-2.783-.134-.637 0-1.71.083-2.397.083-.503 0-.805-.117-.805-.352 0-.15.302-.335.52-.385 1.073-.269 1.341-.587 1.408-1.61a50.72 50.72 0 00.134-3.42c0-.704 0-5.616-.034-6.254-.067-.77-.184-1.123-1.391-1.274-.285-.05-.503-.201-.503-.335 0-.168.201-.302.453-.352.134-.017.519-.017.72-.017 1.409 0 3.203-.168 4.192-.168 2.112 0 3.521.403 4.426 1.275a4.116 4.116 0 011.274 2.967c0 1.794-.804 2.766-1.442 3.32-.57.486-1.777.989-2.632.989-.235 0-.855-.05-1.14-.151-.302-.134-.469-.235-.469-.436 0-.084.151-.218.335-.218h.335c.922 0 2.28-1.09 2.28-3.37 0-1.76-1.19-3.604-2.984-3.604m15.173-.568c.721 0 1.626-.084 1.928-.134.084-.017.235.134.268.285.017.386.017 1.911.017 2.347 0 .302-.151.62-.352.62-.201 0-.369-.335-.419-.553-.285-1.224-.906-1.559-1.409-1.643-.419-.067-1.358-.15-3.051-.134-.084 0-.268.084-.285.62a122.14 122.14 0 00-.084 4.795c0 .068.084.218.218.218h1.761c1.559 0 1.508-.083 1.928-1.056.134-.335.285-.57.486-.57.184 0 .235.369.218.62-.034.62-.084 1.006-.084 1.51 0 .586.05.938.084 1.492.017.402-.118.653-.285.653-.168 0-.352-.268-.419-.486-.285-.972-.57-1.123-1.426-1.19-.704-.067-1.508-.067-2.196-.067-.084 0-.285.218-.285.268-.084.62-.067 2.33-.05 3.051.017.537 0 1.342.084 1.794.067.201.268.486.486.537.352.067 1.023.134 1.777.134.654 0 1.475 0 2.012-.201.654-.235 1.257-.772 1.727-1.627.302-.57.503-.77.687-.77.218 0 .201.469.168.636 0 .168-.637 2.197-.838 2.549-.067.15-.42.285-.52.285-.235 0-5.65-.118-7.31-.118-1.475 0-1.71.118-2.498.118-.419 0-.738-.067-.738-.285 0-.201.285-.352.654-.436 1.123-.268 1.408-.486 1.492-1.66.067-.922.185-2.582.185-5.298s.017-3.605-.017-4.225c-.05-.788-.218-1.224-1.157-1.408-.469-.084-.704-.168-.704-.386 0-.201.369-.335.687-.335 1.023 0 2.834.067 3.974.067h3.286v-.017zm15.726-.018c.52.134 1.073.268 1.576.335.151 0 .335.268.335.587.017.603.067 1.374.101 2.011.017.453-.134.839-.369.839-.117 0-.302-.268-.419-.587-.218-.687-.553-1.274-.922-1.56-.939-.787-2.062-1.273-3.253-1.273-3.487 0-5.13 2.766-5.13 6.102 0 1.476.268 2.75.754 3.705 1.208 2.415 3.203 3.27 4.913 3.27.285 0 1.358-.05 2.129-.503.805-.47 1.408-1.09 1.911-1.995.269-.486.419-.688.587-.688.252 0 .252.57.185.805-.118.553-.47 1.509-.654 1.911-.067.201-.453.554-.788.704-.302.118-1.828.638-3.84.638-3.235 0-5.549-1.442-6.438-2.482-.838-.972-1.844-2.498-1.844-4.929 0-2.649 1.492-4.51 2.414-5.264 1.861-1.543 4.125-1.979 5.919-1.979 1.006 0 2.062.151 2.85.353m14.921 0c.52.134 1.073.268 1.576.335.151 0 .335.268.335.587.017.603.068 1.374.101 2.011.034.453-.134.839-.369.839-.117 0-.302-.268-.419-.587-.218-.687-.553-1.274-.922-1.56-.939-.787-2.062-1.273-3.253-1.273-3.487 0-5.13 2.766-5.13 6.102 0 1.476.268 2.75.738 3.705 1.207 2.415 3.202 3.27 4.912 3.27.285 0 1.358-.05 2.129-.503.822-.47 1.409-1.09 1.912-1.995.268-.486.419-.688.586-.688.235 0 .235.57.185.805-.118.553-.47 1.509-.654 1.911-.067.201-.453.554-.788.704-.302.118-1.811.638-3.839.638-3.236 0-5.55-1.442-6.438-2.482-.839-.972-1.844-2.498-1.844-4.929 0-2.649 1.492-4.51 2.414-5.264 1.861-1.543 4.124-1.979 5.918-1.979 1.006 0 2.062.151 2.85.353z" fill="#010101"/><path d="M31.878 29.208c-.15 0-.385.084-.452.15-.05.051-.134.235-.151.604-.017.336-.017 2.381-.034 4.259 0 1.492.034 2.582.034 2.967 0 1.006.067 1.325 1.023 1.56.335.083.469.2.469.352 0 .15-.285.234-.503.234-.436 0-1.375-.084-2.096-.084-.486 0-1.29.05-1.81.05-.386 0-.604-.066-.604-.267 0-.118.235-.252.402-.302.805-.185 1.007-.436 1.074-1.19.05-.671.083-1.744.083-2.582 0-.554 0-4.242-.033-4.712-.034-.586-.134-.838-1.04-.955-.218-.034-.385-.151-.385-.252 0-.134.15-.235.352-.268h.536c1.056 0 2.415-.15 3.152-.15 1.593 0 2.666.3 3.337.971.77.755.955 1.66.955 2.23 0 1.358-.603 2.08-1.09 2.498-.435.37-1.34.738-1.978.738-.184 0-.654-.033-.855-.117-.235-.1-.352-.185-.352-.336 0-.067.117-.167.252-.167h.251c.687 0 1.727-.822 1.727-2.549 0-1.324-.889-2.716-2.247-2.716m6.254-.469c.402 0 1.19.084 1.71.084s1.459-.084 1.844-.084c.335 0 .52.1.52.235 0 .167-.252.251-.436.301-.637.185-.771.252-.822 1.006-.033.604 0 2.465 0 3.22 0 .083.05.167.118.167.888-.05 1.442-.352 2.029-1.308.469-.737.788-1.375 1.207-2.028.67-1.073 1.391-1.777 2.28-1.777.553 0 .922.251.922.704 0 .15-.151.72-.252.821-.134.151-.285.218-.486.151-.302-.1-.603-.168-.821-.168-.721 0-1.04.336-1.576 1.19-.47.722-.822 1.309-1.073 1.66a.185.185 0 000 .135c.385.72 1.844 3.051 2.582 4.023 1.09 1.442 1.525 1.56 2.397 1.744.1.034.268.1.268.184 0 .151-.1.252-.335.319-.235.067-.604.084-.99.084-1.458 0-2.162-.235-2.816-1.09-.62-.754-1.307-1.827-2.062-3.051-.553-.872-.754-1.157-1.29-1.174-.085 0-.102.117-.118.201 0 1.342.05 3.068.067 3.672 0 .352.1.587.821.771.302.084.486.201.486.335 0 .151-.285.252-.553.252-.369 0-1.509-.033-2.012-.033-.503 0-1.34.067-1.86.067-.252 0-.453-.135-.453-.252 0-.15.134-.235.503-.319.788-.184.972-.419 1.022-1.425.034-.821.034-1.961.034-3.738 0-1.928-.017-2.565-.05-3.152-.017-.771-.168-.99-.738-1.157-.436-.117-.553-.235-.553-.352 0-.151.268-.235.503-.235m26.355.084c.402.1.805.201 1.19.252.118 0 .252.2.252.435.017.487.05 1.057.084 1.543.017.352-.1.637-.285.637-.084 0-.218-.201-.319-.453-.168-.52-.419-.955-.687-1.173-.704-.604-1.56-.956-2.448-.956-2.632 0-3.873 2.062-3.873 4.594 0 1.106.201 2.062.57 2.8.905 1.81 2.414 2.464 3.705 2.464.218 0 1.023-.033 1.61-.385.62-.352 1.056-.822 1.442-1.51.2-.368.318-.52.452-.52.185 0 .185.437.135.605-.084.419-.353 1.14-.504 1.441-.05.151-.352.42-.603.537a8.8 8.8 0 01-2.9.486c-2.448 0-4.192-1.107-4.846-1.878-.637-.72-1.391-1.86-1.391-3.705 0-1.995 1.106-3.403 1.81-3.973 1.409-1.157 3.102-1.493 4.46-1.493.755 0 1.56.118 2.146.269m8.701 3.975c.537 0 .922-.05 1.375-.05.285 0 .453.083.453.2 0 .168-.134.235-.37.302-.586.168-.552.335-.603.67v1.895c0 .906 0 1.744.05 2.28.034.47.219.554.654.688.269.084.386.184.386.318 0 .135-.218.252-.402.252-.37 0-1.241-.067-1.61-.067-.436 0-.838.033-1.341.033-.184 0-.47-.05-.47-.234 0-.168.252-.252.537-.319.335-.084.436-.268.453-.553v-2.465c0-.754 0-1.844-.05-2.163 0-.117-.05-.2-.152-.217-.653-.017-1.307.016-1.961.016-.134 0-.168.067-.184.218-.017.218-.05 1.459-.067 2.297-.017.771 0 1.945.016 2.213 0 .403.118.57.403.637.268.067.385.201.385.302 0 .084-.084.268-.453.268-.117 0-.871-.05-1.24-.05-.537 0-1.207.05-1.492.05-.285 0-.42-.15-.42-.285 0-.117.168-.218.436-.285.386-.1.453-.218.487-.402.067-.235.117-1.375.134-2.448.017-.922.033-1.727.017-1.995-.017-.436-.118-.553-.587-.67-.252-.068-.37-.185-.37-.286 0-.184.202-.234.437-.234.419 0 1.073.05 1.442.05h4.124l-.017.034zm10.093 3.2c0 1.409-.855 2.415-1.475 2.817-.67.47-1.526.67-2.28.67-.755 0-1.677-.352-2.28-.855-.704-.57-1.24-1.626-1.24-2.548 0-1.157.519-2.029 1.14-2.565a4.084 4.084 0 012.648-.956c1.66 0 3.487 1.291 3.487 3.437zm-4.61-2.531c-.386.352-.67 1.073-.67 2.162 0 .537.066 1.174.2 1.593.352 1.157 1.107 1.727 1.794 1.727.168 0 .487-.134.721-.436.352-.436.604-1.308.604-2.246 0-.705-.151-1.778-.654-2.498-.302-.386-.721-.654-1.19-.654-.285 0-.537.117-.805.368m12.188.036c.453.52.805 1.275.805 2.163 0 1.207-.536 2.18-1.425 2.884-.922.72-1.962.838-2.548.838-.302 0-.62-.017-.805-.05-.067 0-.134.15-.134.234-.017.738.017 2.13.067 2.498.05.453.134.688.788.89.335.1.453.234.453.351 0 .151-.269.218-.453.218-.47 0-1.61-.084-2.196-.084-.42 0-.637.05-1.342.05-.285 0-.486-.1-.486-.25 0-.101.168-.236.436-.303.771-.167.872-.368.922-1.34.017-.571.05-1.896.05-3.572v-3.588c0-.352-.067-.419-.117-.47-.302-.234-.637-.519-.637-.586 0-.067.184-.319.352-.386.335-.1 1.24-.385 1.693-.637.168-.1.302-.15.336-.15.067 0 .2.15.2.234-.033.302-.033.52-.05.771 0 .067.084.134.135.118.302-.202.754-.436.972-.537a2.97 2.97 0 011.14-.235c.67 0 1.425.42 1.861.922m-3.89.252s-.167.252-.184.436c-.1.72-.1 2.062-.067 2.95 0 .302.067.587.168.755.352.604 1.006.939 1.358.939a.91.91 0 00.57-.201c.855-.637.989-2.046.989-2.498 0-.453-.084-1.291-.687-1.962-.37-.419-.973-.603-1.241-.603-.319 0-.67.083-.889.2m7.008 5.564c-.2 0-.419-.05-.419-.2 0-.135.117-.235.402-.32.453-.116.688-.234.721-.552.034-.503.084-1.56.084-2.767v-1.944s-.033-.151-.134-.168a14.46 14.46 0 00-.754-.034c-.486 0-.704.486-.872.94-.134.318-.268.469-.402.469-.151 0-.219-.302-.202-.554 0-.553.118-1.022.118-1.391-.017-.1.117-.252.2-.252.085 0 .185.067.303.118.117.05.653.083 1.04.083h3.235c.402 0 1.006-.05 1.14-.1.117-.05.235-.1.318-.1.084 0 .151.15.151.25-.05.487-.033.873 0 1.443 0 .335-.15.536-.302.536-.117 0-.2-.1-.284-.436-.135-.62-.42-1.006-.839-1.006-.335 0-.72.017-.821.034-.084.017-.118.15-.134.251-.017.47 0 1.325 0 2.08 0 1.206.016 1.894.067 2.363.05.486.167.587.637.704.268.084.385.202.385.269 0 .134-.234.268-.419.268-.57 0-1.224-.05-1.593-.05-.368 0-1.056.05-1.609.05M53.74 33.317c.084 0 .202.101.202.185.017.385-.134 1.09-.386 1.106-.637.05-2.347.168-3.386.269-.151.016-.269-.151-.269-.252 0-.369.168-.889.352-.905.604-.118 3.152-.386 3.488-.403z" fill="#221E20"/></svg>