<svg width="81" height="60" fill="none" xmlns="http://www.w3.org/2000/svg"><path d="M6.488 51.719L5.415 49.27l-.034-.067-.033-.084v2.532h-.889v-4.594h.889l1.039 2.448s.05.1.05.134c.017.05.034.084.05.134l.05-.151c0-.05.034-.084.051-.134l1.073-2.448h.822v4.594h-.889v-2.532l-.033.084-.034.084-1.073 2.448h.034zm2.832-.084V47.04h.873v2.833c.017-.05.05-.117.084-.184.033-.067.067-.117.083-.15l1.61-2.499h.821v4.594h-.871v-2.867c-.017.05-.05.117-.101.201a.485.485 0 01-.1.168l-1.644 2.498h-.788.034zm4.276 0v-4.611h.889v1.794h1.743v-1.794h.889v4.61h-.889v-1.91h-1.744v1.91h-.888zm4.326 0V47.04h.871v2.833c.017-.05.05-.117.084-.184.034-.067.067-.117.084-.15l1.61-2.499h.82v4.594h-.87v-2.867a1.1 1.1 0 01-.102.201.484.484 0 01-.1.168l-1.643 2.498h-.788.034zm5.918.068c-.335 0-.62-.067-.855-.201a1.46 1.46 0 01-.553-.554 2.388 2.388 0 01-.302-.77 3.547 3.547 0 010-1.677 2.42 2.42 0 01.318-.772 1.65 1.65 0 01.554-.57c.234-.15.52-.218.855-.218.268 0 .503.05.72.151.202.1.386.235.52.403.134.167.252.335.319.52l-.788.385a.984.984 0 00-.218-.285.604.604 0 00-.235-.184.574.574 0 00-.302-.067.748.748 0 00-.435.134.823.823 0 00-.269.352c-.067.15-.117.301-.15.47-.034.167-.05.334-.05.502 0 .168.016.335.05.52.033.168.083.335.167.47.067.15.168.268.285.351a.682.682 0 00.402.135c.151 0 .302-.05.42-.168.117-.117.234-.252.335-.42l.805.336c-.1.218-.218.436-.37.604a1.79 1.79 0 01-.519.419c-.201.1-.419.15-.687.15m3.168-.084v-3.706h-1.223v-.905h3.336v.905h-1.224v3.706h-.889zm2.649 0v-4.611h3.018v.905h-2.13v.872h1.225v.905h-1.224v1.023h2.263v.906h-3.152zm4.594-2.565h1.023a.498.498 0 00.302-.084.43.43 0 00.167-.218.76.76 0 00.05-.268c0-.084 0-.168-.05-.252a.43.43 0 00-.167-.218.483.483 0 00-.319-.1h-1.023v1.156l.017-.016zm-.888 2.565V47.04h1.877c.37 0 .654.067.872.218.218.15.369.335.47.553a1.757 1.757 0 01.05 1.207c-.05.168-.151.336-.268.47a1.632 1.632 0 01-.453.352c-.184.084-.42.134-.67.134h-.99v1.677h-.888v-.017zm5.566.068c-.336 0-.62-.067-.855-.201a1.46 1.46 0 01-.554-.554 2.39 2.39 0 01-.301-.77c-.05-.286-.101-.57-.101-.856 0-.268.034-.536.1-.821.068-.285.168-.537.302-.772a1.65 1.65 0 01.554-.57c.234-.15.52-.218.855-.218a1.547 1.547 0 011.24.553c.135.168.252.336.319.52l-.788.386a.984.984 0 00-.218-.285.603.603 0 00-.235-.184.574.574 0 00-.302-.067.747.747 0 00-.435.134.824.824 0 00-.269.352c-.067.15-.117.301-.15.47a2.562 2.562 0 000 1.022c.033.168.083.335.167.47.067.15.168.268.285.351a.682.682 0 00.402.135c.151 0 .302-.05.42-.168a2.16 2.16 0 00.335-.42l.805.336c-.1.218-.218.436-.37.604a1.722 1.722 0 01-.502.419c-.201.1-.436.15-.688.15m3.169-.084v-3.706h-1.224v-.905h3.353v.905h-1.24v3.706h-.889zm3.538-.889h1.207a.555.555 0 00.318-.084.435.435 0 00.168-.184.517.517 0 00.05-.218c0-.1-.017-.184-.05-.268a.391.391 0 00-.201-.201c-.1-.05-.252-.084-.436-.084h-1.04v1.04h-.017zm0-1.894h.989c.2 0 .368-.05.452-.134a.423.423 0 00.151-.336c0-.084 0-.15-.033-.218-.017-.067-.067-.117-.134-.167-.068-.05-.185-.067-.319-.067h-1.09v.938l-.017-.016zm-.89 2.783V47.04h1.962c.353 0 .638.067.839.184a.983.983 0 01.436.47c.084.184.134.386.134.603 0 .218-.034.386-.117.57a.785.785 0 01-.386.386c.15.067.285.151.369.268a.89.89 0 01.2.37c.051.133.068.267.068.401 0 .168-.034.32-.084.487a1.14 1.14 0 01-.251.436 1.293 1.293 0 01-.453.318c-.184.084-.42.118-.687.118h-2.046l.017-.017zm5.886-.838a.76.76 0 00.452-.134c.118-.083.218-.2.302-.352.067-.15.134-.318.168-.486.033-.168.05-.335.05-.486 0-.168 0-.335-.05-.52a1.514 1.514 0 00-.168-.486.997.997 0 00-.302-.352.818.818 0 00-.47-.134.857.857 0 00-.468.134.89.89 0 00-.302.352 2.09 2.09 0 00-.168.486c-.034.168-.05.335-.05.503 0 .168 0 .335.05.503.034.168.084.335.168.47.084.15.184.268.301.352a.802.802 0 00.453.134m0 .905c-.352 0-.637-.067-.872-.201a1.85 1.85 0 01-.586-.553 2.419 2.419 0 01-.319-.772c-.067-.285-.1-.57-.1-.838s.033-.57.1-.855c.067-.285.168-.536.319-.771.15-.235.352-.42.586-.553.235-.135.537-.202.872-.202.336 0 .637.067.889.202.234.134.436.318.586.553.151.235.252.486.32.771.066.285.1.57.1.855 0 .285-.034.57-.1.838a2.419 2.419 0 01-.32.772 1.55 1.55 0 01-.586.553c-.235.134-.537.201-.889.201zm5.952.017c-.335 0-.62-.067-.855-.201a1.46 1.46 0 01-.553-.554 2.39 2.39 0 01-.302-.77 3.552 3.552 0 010-1.677c.067-.285.167-.537.302-.772.134-.234.318-.419.553-.57.235-.15.52-.218.855-.218a1.549 1.549 0 011.24.553c.135.168.235.336.302.52l-.788.386a1.4 1.4 0 00-.218-.285.604.604 0 00-.234-.184.574.574 0 00-.302-.067.66.66 0 00-.42.134.824.824 0 00-.267.352c-.068.15-.118.301-.151.47a2.562 2.562 0 000 1.022c.033.168.083.335.167.47.067.15.168.268.285.351a.682.682 0 00.403.135c.15 0 .301-.05.419-.168a2.16 2.16 0 00.335-.42l.805.336c-.1.218-.218.436-.369.604a1.79 1.79 0 01-.52.419c-.2.1-.419.15-.687.15m2.096-.084v-4.611h3.453v4.61h-.888V47.93h-1.677v3.706h-.888zm5.985-.838c.184 0 .335-.05.453-.134.117-.083.218-.2.301-.352.067-.15.134-.318.168-.486.034-.168.05-.335.05-.486 0-.168 0-.335-.05-.52a1.52 1.52 0 00-.168-.486.996.996 0 00-.301-.352.817.817 0 00-.47-.134.857.857 0 00-.47.134.775.775 0 00-.301.352 1.52 1.52 0 00-.168.486 2.562 2.562 0 000 1.006c.034.168.084.335.168.47.084.15.184.268.302.352a.801.801 0 00.452.134m0 .905c-.352 0-.637-.067-.871-.201a1.851 1.851 0 01-.587-.553 2.416 2.416 0 01-.319-.772c-.067-.285-.1-.57-.1-.838s.033-.57.1-.855c.067-.285.168-.536.319-.771.15-.235.335-.42.587-.553.234-.135.536-.202.871-.202.336 0 .638.067.889.202.235.134.436.318.587.553.15.235.251.486.318.771.067.285.1.57.1.855 0 .285-.033.57-.1.838a2.416 2.416 0 01-.318.772 1.553 1.553 0 01-.587.553c-.235.134-.537.201-.889.201zm3.42-2.616h1.023a.498.498 0 00.302-.084.429.429 0 00.168-.218.758.758 0 00.05-.268c0-.084 0-.168-.05-.252a.429.429 0 00-.168-.218.484.484 0 00-.318-.1h-1.023v1.156l.017-.016zm-.888 2.565V47.04h1.878c.369 0 .654.067.872.218.218.15.368.335.47.553a1.757 1.757 0 01.05 1.207c-.05.168-.135.336-.252.47a1.63 1.63 0 01-.453.352 1.643 1.643 0 01-.67.134h-.99v1.677h-.888l-.017-.017zm4.929 0v-3.706h-1.24v-.905h3.353v.905h-1.24v3.706h-.873zm3.387-1.795h1.04l-.386-1.072s-.017-.067-.05-.117c-.017-.05-.034-.084-.05-.135 0-.05-.034-.083-.034-.117 0 .034-.017.067-.034.117 0 .05-.034.084-.05.135-.017.05-.034.083-.05.117l-.386 1.073zm-1.576 1.795l1.676-4.594h.839l1.676 4.594h-.955l-.336-.922h-1.626l-.319.922h-.955zM1.273 55.927h1.023a.498.498 0 00.302-.084.43.43 0 00.167-.218.695.695 0 00.05-.268c0-.084 0-.168-.05-.252a.43.43 0 00-.167-.217.483.483 0 00-.319-.101H1.257v1.14h.016zm-.888 2.565v-4.594h1.878c.368 0 .653.067.871.218.218.151.37.336.47.554.1.218.134.452.134.704 0 .167-.034.335-.084.52-.05.167-.15.335-.268.469-.118.15-.268.252-.453.352a1.643 1.643 0 01-.67.134h-.99v1.677H.385v-.034zm5.633-.838c.184 0 .335-.05.453-.134.117-.084.218-.218.301-.352.084-.151.135-.302.168-.486a2.53 2.53 0 00.05-.503c0-.168 0-.336-.05-.52a1.422 1.422 0 00-.168-.47.776.776 0 00-.301-.352.817.817 0 00-.47-.134.857.857 0 00-.47.134.872.872 0 00-.301.353c-.084.15-.134.301-.168.486a2.558 2.558 0 000 1.006c.034.167.084.335.168.47.084.15.168.267.302.351a.843.843 0 00.452.134m0 .906c-.352 0-.637-.067-.871-.201a1.683 1.683 0 01-.587-.554 2.418 2.418 0 01-.319-.771 3.722 3.722 0 010-1.71c.067-.285.185-.537.319-.771.15-.235.335-.42.587-.554.234-.134.536-.2.871-.2.336 0 .638.066.889.2.235.135.436.319.587.554.15.234.251.486.318.77a3.721 3.721 0 010 1.711 2.418 2.418 0 01-.318.771c-.151.235-.335.42-.587.554-.235.134-.536.2-.889.2zm4.259.017c-.335 0-.62-.068-.855-.202a1.461 1.461 0 01-.553-.553 2.389 2.389 0 01-.302-.771 3.548 3.548 0 010-1.676c.067-.286.168-.537.302-.772.134-.235.318-.436.553-.57.235-.151.52-.218.855-.218.268 0 .52.05.721.15.201.101.386.236.52.403.134.168.251.335.318.52l-.788.386a1.28 1.28 0 00-.218-.285.603.603 0 00-.234-.185.574.574 0 00-.302-.067.748.748 0 00-.436.134.824.824 0 00-.268.352 2.558 2.558 0 00-.201.99c0 .167.016.351.05.52.033.167.084.334.167.468a.924.924 0 00.285.336.682.682 0 00.403.134.58.58 0 00.419-.168 2.13 2.13 0 00.335-.419l.805.319c-.1.234-.218.436-.369.603a1.496 1.496 0 01-.503.42c-.201.1-.436.15-.687.15m3.738.001c-.335 0-.62-.068-.855-.202a1.461 1.461 0 01-.553-.553 2.39 2.39 0 01-.302-.771 3.552 3.552 0 010-1.676 2.42 2.42 0 01.319-.772c.134-.235.318-.436.553-.57.235-.151.52-.218.855-.218.268 0 .503.05.721.15.201.101.386.236.52.403.134.168.251.335.318.52l-.788.386a1.279 1.279 0 00-.217-.285.604.604 0 00-.235-.185.574.574 0 00-.302-.067.747.747 0 00-.436.134.824.824 0 00-.268.352 2.56 2.56 0 00-.201.99c0 .167.016.351.05.52.033.167.084.334.168.468a.923.923 0 00.285.336.682.682 0 00.402.134c.15 0 .302-.05.42-.168.117-.117.234-.251.334-.419l.805.319c-.1.234-.218.436-.369.603a1.495 1.495 0 01-.503.42c-.2.1-.436.15-.687.15m2.062-.084V53.88h.872v2.85c.017-.05.05-.117.084-.184a.97.97 0 01.084-.151l1.609-2.498h.822v4.593h-.872v-2.867a1.1 1.1 0 01-.1.202.484.484 0 01-.101.167l-1.643 2.498h-.788l.033-.016zm6.036-4.979c-.285 0-.52-.05-.704-.15a.923.923 0 01-.42-.42 1.042 1.042 0 01-.134-.553h.637s.017.15.068.235c.05.067.117.134.2.184.101.05.219.067.37.067.15 0 .285-.017.385-.067.1-.05.168-.117.201-.184a.385.385 0 00.067-.235h.638c0 .201-.05.386-.135.553-.1.168-.234.302-.436.42-.184.1-.419.15-.704.15m-1.743 4.996V53.9h.872v2.849c.016-.05.05-.116.083-.184a.968.968 0 01.084-.15l1.61-2.498h.821v4.593h-.872v-2.867c-.016.05-.05.118-.1.201-.05.084-.067.135-.1.168l-1.644 2.498h-.788l.034-.017zm5.868.068c-.336 0-.62-.068-.855-.202a1.461 1.461 0 01-.554-.553 2.39 2.39 0 01-.301-.771 3.551 3.551 0 010-1.676c.067-.286.167-.537.301-.772.134-.235.319-.436.554-.57.234-.151.52-.218.855-.218.268 0 .503.05.72.15.202.101.386.236.52.403.135.168.235.335.302.52l-.788.386c-.067-.118-.15-.202-.218-.285a.603.603 0 00-.235-.185.574.574 0 00-.301-.067.748.748 0 00-.436.134.823.823 0 00-.268.352 2.56 2.56 0 00-.201.99c0 .167.016.351.05.52.033.167.084.334.167.468a.924.924 0 00.285.336.682.682 0 00.403.134.58.58 0 00.419-.168 2.13 2.13 0 00.335-.419l.805.319c-.1.234-.218.436-.369.603a1.484 1.484 0 01-1.207.57m2.112-.084V53.88h.889v2.196l1.61-2.196h1.056l-1.258 1.66 1.51 2.934h-1.04l-1.073-2.146-.805 1.09v1.056h-.889zm5.767-.821a.76.76 0 00.453-.134c.118-.084.218-.218.302-.352.084-.151.134-.302.168-.486.033-.168.05-.336.05-.503 0-.168 0-.336-.05-.52a1.422 1.422 0 00-.168-.47.776.776 0 00-.302-.352.817.817 0 00-.47-.134.858.858 0 00-.469.134c-.134.084-.218.218-.301.353-.068.15-.135.301-.168.486a2.56 2.56 0 00-.05.503c0 .167 0 .335.05.503.033.167.084.335.168.47.083.15.184.267.301.351a.844.844 0 00.453.134m0 .906c-.352 0-.637-.067-.872-.201a1.684 1.684 0 01-.587-.554 2.416 2.416 0 01-.318-.771 3.72 3.72 0 010-1.71c.067-.285.167-.537.318-.771.151-.235.336-.42.587-.554.235-.134.537-.2.872-.2.335 0 .637.066.889.2.234.135.435.319.586.554.151.234.252.486.319.77a3.72 3.72 0 010 1.711 2.416 2.416 0 01-.319.771c-.15.235-.335.42-.586.554-.235.134-.537.2-.889.2zm4.293-5.047c-.286 0-.52-.05-.705-.15a.923.923 0 01-.42-.42 1.042 1.042 0 01-.133-.553h.637s.017.15.067.235a.43.43 0 00.201.184c.1.05.218.067.369.067.15 0 .285-.017.386-.067.1-.05.167-.117.2-.184a.385.385 0 00.068-.235h.637c0 .201-.05.386-.134.553-.1.168-.235.302-.42.42-.184.1-.418.15-.703.15m-1.744 4.996V53.9h.872v2.849c.017-.05.05-.116.084-.184a.947.947 0 01.083-.15l1.61-2.498h.821v4.593h-.871v-2.867c-.017.05-.05.118-.101.201-.05.084-.067.135-.1.168L37.47 58.51h-.788l.034-.017zm9.975-3.235a1.428 1.428 0 00-.654-.604 2.136 2.136 0 00-.972-.218v-.637h-.889v.637c-.368 0-.687.084-.955.218a1.428 1.428 0 00-.654.604c-.15.268-.235.57-.235.922 0 .352.084.653.235.922.15.251.369.47.654.603.268.134.587.218.956.218v.637h.888v-.637c.369 0 .688-.084.973-.218a1.63 1.63 0 00.653-.603c.151-.269.235-.57.235-.922a1.79 1.79 0 00-.235-.922zm-2.565 1.777a.85.85 0 01-.47-.118.658.658 0 01-.301-.301.882.882 0 01-.1-.436c0-.168.033-.319.1-.436a.657.657 0 01.302-.302c.134-.067.285-.117.47-.117h.066v1.71h-.067zm1.777-.403a.657.657 0 01-.301.302 1.022 1.022 0 01-.47.117h-.067v-1.71h.067a.85.85 0 01.47.118.657.657 0 01.301.301c.067.135.1.269.1.436a.881.881 0 01-.1.436zm1.543 1.844V53.88h3.018v.905h-2.146v.872h1.224v.905h-1.224v1.006h2.263v.906h-3.135zm7.964-.888v-3.689h-3.303l-.302 2.985c-.034.251-.1.436-.235.586-.05.05-.1.084-.15.118H51v1.911l.889-.436v-.57h3.118v1.006l.889-.436v-1.475h-.503.016zm-2.901 0a1.51 1.51 0 00.15-.587l.236-2.196h1.626v2.8h-2.012v-.017zm3.923.888V53.88h3.018v.905h-2.13v.872h1.208v.905H57.32v1.006h2.263v.906h-3.152zm4.594-2.548h1.023a.498.498 0 00.301-.084.43.43 0 00.168-.218.696.696 0 00.05-.268c0-.084 0-.168-.05-.252a.43.43 0 00-.168-.217.483.483 0 00-.318-.101h-1.023v1.14h.017zm-.889 2.565v-4.594h1.878c.369 0 .654.067.872.218.218.151.369.336.47.554.1.218.134.452.134.704 0 .167-.034.335-.084.52-.05.167-.134.335-.252.469-.117.15-.268.252-.452.352-.185.084-.42.134-.671.134h-.99v1.677h-.888l-.017-.034zm4.728-1.794h1.04l-.386-1.073s-.033-.067-.05-.117-.034-.084-.05-.134a.242.242 0 00-.034-.118c0 .034-.017.068-.034.118 0 .05-.033.084-.05.134-.017.033-.033.084-.05.117l-.386 1.073zm-1.576 1.794l1.677-4.594h.838l1.677 4.594h-.956l-.335-.922h-1.626l-.32.922h-.955zm8.165-.906v-3.705h-.889v3.705h-1.693v-3.705H68v4.61h3.135v1.14l.889-.452v-1.593h-.57zm1.09.889V53.88h.872v2.85c.016-.05.05-.117.083-.184.034-.067.068-.134.084-.151l1.61-2.498h.821v4.593h-.871v-2.867c-.017.05-.05.118-.101.202-.05.084-.067.134-.1.167l-1.644 2.498h-.788l.034-.016zm4.275 0V53.88h.872v2.85c.016-.05.05-.117.084-.184a.961.961 0 01.083-.151l1.61-2.498h.821v4.593h-.871v-2.867c-.017.05-.05.118-.101.202-.05.084-.067.134-.1.167l-1.644 2.498h-.788l.034-.016zM55.711 11.816h-.369l-.318 3.101c0 .168-.05.302-.084.403a.639.639 0 01-.184.268 1.142 1.142 0 01-.319.184l.436.839c.369-.118.637-.285.821-.503.168-.235.285-.57.336-1.006l.251-2.28h1.51v3.705h.988v-4.728h-3.051l-.017.017zm4.812 2.8h1.224v-1.023h-1.224v-.771h2.23v-1.006h-3.22v4.728h3.337V15.52h-2.347v-.905zm2.682-2.8v1.023h1.258v3.705h1.006v-3.705h1.257v-1.023h-3.52z" fill="#0B72B8"/><mask id="a" style="mask-type:luminance" maskUnits="userSpaceOnUse" x="15" y="0" width="50" height="34"><path d="M59.534 18.79v7.813a4.26 4.26 0 01-1.308 3.102 4.362 4.362 0 01-1.962 1.123c.671.201 1.325.42 1.979.654a5.28 5.28 0 001.073-.855 5.809 5.809 0 001.76-4.175v-7.679h-1.542v.017zm1.877 0v7.679a6.23 6.23 0 01-1.844 4.426 5.663 5.663 0 01-.922.755c.587.2 1.157.435 1.727.653.05-.05.117-.1.168-.15a7.468 7.468 0 002.246-5.365v-7.98h-1.375v-.018zm1.71 0v7.98a7.838 7.838 0 01-2.347 5.6l-.05.05c.302.118.604.252.922.386a9 9 0 002.599-6.337V18.79h-1.123zM32.609 6.434a3.982 3.982 0 00-1.207 2.867v17.017c0 .687.184 1.358.52 1.962.285-.436.603-.855.939-1.241a2.255 2.255 0 01-.084-.587V9.385c0-1.392 1.324-2.767 2.682-2.767 1.425 0 2.767 1.342 2.767 2.767v14.519a9.59 9.59 0 011.391-.201V9.318c0-1.09-.436-2.113-1.207-2.867a4.161 4.161 0 00-2.934-1.19 4.016 4.016 0 00-2.883 1.19m-1.325-1.19a5.837 5.837 0 00-1.76 4.174v16.766c0 1.022.268 2.012.77 2.883.42-.067.84-.134 1.258-.184.05-.1.1-.184.168-.285a4.33 4.33 0 01-.637-2.28V9.318c0-1.174.47-2.264 1.308-3.102a4.375 4.375 0 013.118-1.29c1.174 0 2.33.452 3.169 1.29a4.324 4.324 0 011.307 3.102v14.368h.47c.369 0 .72.017 1.073.05v-14.3c0-1.577-.62-3.069-1.76-4.176a6.036 6.036 0 00-4.276-1.743c-1.626 0-3.068.62-4.208 1.743zM30.06 4.086a7.522 7.522 0 00-2.263 5.382v17.05c0 1.023.2 2.012.586 2.934.503-.1 1.023-.201 1.526-.285a6.128 6.128 0 01-.755-2.95V9.452c0-1.66.654-3.236 1.861-4.41a6.214 6.214 0 014.427-1.827c1.66 0 3.302.654 4.51 1.828a6.163 6.163 0 011.844 4.409v14.334c.47.067.922.168 1.374.285V9.452c0-2.028-.804-3.94-2.263-5.38-1.458-1.443-3.403-2.23-5.482-2.23-2.08 0-3.94.787-5.399 2.23M15.608.884v.888h8.03v16.263h-.335V2.109h-7.695v1.374h6.32v16.28h-.335V3.819h-5.985v1.425h4.577v15.793h-.335V5.562h-4.242v1.643h2.967v25.82a56.601 56.601 0 016.489-2.163V.884h-9.456zm13.345 2.062c-1.743 1.727-2.716 4.024-2.716 6.455v17.067c0 1.14.218 2.246.62 3.286.386-.084.789-.168 1.174-.252a7.91 7.91 0 01-.587-3V9.452c0-2.113.839-4.108 2.348-5.6a7.928 7.928 0 015.633-2.33c2.112 0 4.191.821 5.717 2.33a7.838 7.838 0 012.347 5.6v14.72c.403.134.805.285 1.174.47V9.418a9.03 9.03 0 00-2.7-6.454C40.22 1.237 37.89.298 35.408.298s-4.728.955-6.455 2.682m19.515 0c-1.743 1.727-2.716 4.024-2.716 6.455v15.81c.453.285.872.587 1.275.939V9.754c0-2.113.838-4.108 2.347-5.6a7.918 7.918 0 015.616-2.33v.335c-2.028 0-3.94.788-5.398 2.23a7.522 7.522 0 00-2.264 5.381v16.716a9.749 9.749 0 011.76 2.196 6.25 6.25 0 01-.385-2.163V9.754c0-1.66.654-3.236 1.861-4.41a6.234 6.234 0 012.046-1.358l.134.302a5.994 5.994 0 00-1.928 1.291 5.837 5.837 0 00-1.76 4.175v16.765c0 .99.25 1.928.703 2.783.705.134 1.425.269 2.13.436a4.38 4.38 0 01-1.275-3.085V9.636c0-1.173.47-2.263 1.308-3.101l.235.234a3.982 3.982 0 00-1.207 2.867v17.017c0 1.073.419 2.096 1.207 2.867.134.134.268.252.419.37 1.006.234 1.995.502 3.001.804a4.2 4.2 0 002.398-1.157 4.051 4.051 0 001.207-2.867v-7.813h-1.476v7.679c0 1.425-1.34 2.766-2.766 2.766-1.425 0-2.682-1.375-2.682-2.766V9.469c0-1.392 1.324-2.767 2.682-2.767 1.425 0 2.766 1.342 2.766 2.767v.47h6.489v-.47a9.03 9.03 0 00-2.7-6.455C59.752 1.287 57.421.348 54.94.348s-4.728.956-6.455 2.683" fill="#fff"/></mask><g mask="url(#a)"><path d="M64.212.265h-48.57v32.743h48.57V.265z" fill="url(#paint0_linear_233_3432)"/></g><path d="M63.39 36.293c-14.737-6.84-31.235-6.84-45.971 0-.386-.99-.788-1.978-1.174-2.968 15.474-7.192 32.844-7.192 48.318 0-.385.99-.788 1.979-1.173 2.968z" fill="#fff"/><path d="M60.842 42.781c-13.128-6.07-27.748-6.07-40.892 0-.385-.99-.788-1.978-1.173-2.968 13.865-6.42 29.356-6.42 43.221 0-.385.99-.788 1.979-1.173 2.968" fill="#E73A2B"/><path d="M61.998 39.83c-13.865-6.42-29.34-6.42-43.205 0-.47-1.19-.939-2.38-1.408-3.587 14.754-6.84 31.268-6.84 46.022 0-.47 1.19-.94 2.38-1.409 3.588z" fill="#0B72B8"/><path d="M59.232 37.72a.573.573 0 01-.402-.035c-.252-.1-.386-.301-.403-.586h-.47c0 .251.068.452.185.637.117.184.302.302.537.402.184.067.368.1.536.084a.759.759 0 00.436-.15c.134-.085.218-.219.285-.37a.924.924 0 00.05-.47.603.603 0 00-.218-.385.668.668 0 00.352-.15.724.724 0 00.219-.32c.05-.15.067-.301.05-.435a.951.951 0 00-.201-.386.999.999 0 00-.403-.268.898.898 0 00-.587-.05 1.005 1.005 0 00-.52.285l.353.318a.529.529 0 01.285-.15c.1-.017.201 0 .302.016.117.05.2.118.234.218.05.1.05.201 0 .319a.43.43 0 01-.218.234.515.515 0 01-.318 0l-.235-.083-.168.435.235.084a.71.71 0 01.319.252c.067.1.067.218.016.352a.462.462 0 01-.251.251m-5.801-1.909l-1.408-.352a.848.848 0 01.453-.369c.1-.05.234-.084.368-.134.151-.05.285-.101.42-.151.134-.067.234-.134.335-.235.1-.1.168-.235.201-.402a1.031 1.031 0 000-.453.77.77 0 00-.252-.369c-.117-.117-.285-.184-.469-.235a1.032 1.032 0 00-.637.017.903.903 0 00-.47.352l.37.302a.672.672 0 01.268-.218c.1-.05.218-.05.368 0 .135.034.235.1.302.184a.36.36 0 01.05.319.373.373 0 01-.134.218.783.783 0 01-.234.134c-.084.034-.185.067-.285.1-.151.051-.285.101-.42.152a1.822 1.822 0 00-.385.234c-.117.1-.218.218-.319.352-.1.151-.167.319-.218.52l1.945.486.118-.452h.033zm2.247 1.156l1.91.637.152-.453-1.375-.453s.117-.15.201-.2c.084-.051.185-.101.285-.135.1-.033.235-.067.37-.1.15-.034.3-.068.418-.118.134-.05.252-.117.352-.201a.797.797 0 00.235-.386.838.838 0 00.034-.452.688.688 0 00-.218-.386 1.204 1.204 0 00-.453-.268 1.187 1.187 0 00-.637-.034 1 1 0 00-.503.319l.352.318a.53.53 0 01.285-.184.567.567 0 01.369.017c.134.05.235.117.285.218.05.1.067.2.017.318a.457.457 0 01-.151.201c-.067.05-.151.084-.235.118a1.47 1.47 0 01-.285.067c-.15.033-.302.067-.436.117s-.285.117-.402.201a1.589 1.589 0 00-.336.336c-.1.134-.184.301-.251.503m-1.358-1.543c.017-.134.05-.252.084-.386.033-.117.084-.235.134-.352a1.32 1.32 0 01.184-.302.603.603 0 01.235-.184.376.376 0 01.302 0c.1.033.184.084.251.167a.84.84 0 01.101.286v.352c-.017.117-.05.251-.084.385-.033.118-.084.235-.134.352a1.32 1.32 0 01-.184.302.605.605 0 01-.235.184.463.463 0 01-.302 0 .516.516 0 01-.251-.167.718.718 0 01-.101-.285v-.352zm-.252.972c.101.134.252.218.453.268.168.05.302.05.436.034a1.42 1.42 0 00.369-.151c.1-.084.201-.168.285-.285.084-.117.15-.235.218-.369.067-.134.117-.268.15-.402a2.9 2.9 0 00.101-.537c.017-.184 0-.352-.033-.52a.897.897 0 00-.67-.704.998.998 0 00-.437-.033.785.785 0 00-.369.15c-.1.085-.2.168-.285.286-.083.117-.15.234-.218.369a1.974 1.974 0 00-.15.402c-.05.168-.084.352-.101.536-.017.185 0 .353.034.52.033.168.1.302.217.436zm-25.517-1.694a.915.915 0 00-.402-.2.647.647 0 00.201-.32.752.752 0 000-.385.777.777 0 00-.201-.386 1.04 1.04 0 00-.369-.218 1.186 1.186 0 00-.486 0c-.201.05-.386.135-.52.286-.134.15-.235.318-.268.536l.47.067a.658.658 0 01.15-.285.486.486 0 01.252-.15.499.499 0 01.318.033c.084.05.151.134.168.268a.448.448 0 01-.05.302.413.413 0 01-.285.167l-.235.05.1.453.252-.05a.645.645 0 01.402.034c.1.05.168.15.201.268a.378.378 0 01-.067.335c-.067.1-.184.168-.352.201-.268.05-.486-.033-.67-.268l-.403.268c.134.202.302.336.503.42.201.083.42.083.654.033a1.3 1.3 0 00.486-.218.85.85 0 00.285-.369.886.886 0 00.034-.47.68.68 0 00-.218-.402m-3.219 1.592c0-.1.017-.184.067-.285.034-.084.1-.184.168-.268a3.95 3.95 0 01.268-.285c.1-.1.201-.218.285-.335a1.09 1.09 0 00.184-.369 1.03 1.03 0 000-.453.945.945 0 00-.218-.402.928.928 0 00-.402-.218 1.102 1.102 0 00-.52.017 1.3 1.3 0 00-.553.318 1.07 1.07 0 00-.252.537l.47.084c0-.118.05-.235.134-.319a.54.54 0 01.319-.184c.134-.034.251-.034.352.033.1.05.167.134.2.252a.638.638 0 010 .251.84.84 0 01-.133.235c-.067.067-.134.15-.201.218-.101.1-.202.218-.302.335-.1.117-.168.252-.218.386-.05.134-.1.302-.1.452 0 .168 0 .352.066.554l1.945-.52-.117-.453-1.392.37-.05.05zm-1.626-.905s-.067.151-.134.218a.631.631 0 01-.252.151c-.1.034-.201.034-.302.034-.084 0-.167-.05-.235-.117a.57.57 0 01-.15-.235.37.37 0 010-.268.373.373 0 01.134-.218.63.63 0 01.251-.151.551.551 0 01.285-.017c.084 0 .168.05.235.117.067.05.117.134.134.218a.37.37 0 010 .268m.268-.77a.914.914 0 00-.452-.286c-.168-.05-.37-.033-.604.034-.201.05-.352.15-.486.268a1.03 1.03 0 00-.252.436c-.05.168-.033.335.017.52a.84.84 0 00.268.436.78.78 0 00.42.218c.167.033.335.016.503-.034a.85.85 0 00.301-.15c.084-.068.134-.135.185-.202 0 .201 0 .369-.067.52-.067.15-.151.285-.268.385-.118.1-.252.201-.386.252l.134.436c.319-.134.587-.319.754-.554.185-.234.285-.503.319-.804.034-.302 0-.62-.1-.956a1.373 1.373 0 00-.286-.536m-2.749.386a.42.42 0 01-.05.218.33.33 0 01-.152.151c-.067.05-.15.084-.234.118l.117.352.436-.151.72 2.13.454-.152-.956-2.8-.352.118.017.016zm19.213-11.972c-5.616 0-10.177 4.56-10.177 10.177S34.72 43.42 40.337 43.42s10.177-4.56 10.177-10.177c0-5.616-4.56-10.177-10.177-10.177z" fill="#fff"/><path d="M46.524 33.226c-.604.1-1.895-.201-1.895-.201-.033.05-.05.117-.084.167.839.487 2.029.436 2.213.42v.033c0 .587-.57.755-1.073.688-.436-.068-1.04-.353-1.458-.671-.05.05-.084.1-.134.134.402.67 1.374.956 1.676.972v.034c-.184.352-.654.47-1.157.235-.301-.151-.67-.537-.939-.956a.813.813 0 01-.184.067c.151.805.956 1.308 1.09 1.375v.033c-.235.269-.788.269-1.107-.117-.2-.235-.369-.687-.452-1.224-.084 0-.202 0-.319.05 0-.251-.033-.503-.117-.737.1 0 .201 0 .285-.017.436-.084.771-.436.771-.872a.84.84 0 00-.285-.637c-.033-.034-.033-.1 0-.117l.05-.034c1.526-.972 2.934-3.252 3.068-3.487h.034c.47.419.52 1.224.017 1.86-.319.42-1.006.89-1.727 1.292 0 .067.017.15.017.235 1.441-.319 2.38-1.325 2.514-1.493h.034c.268.537.033 1.241-.503 1.526-.47.268-1.19.42-2.096.52a.604.604 0 01-.033.184c1.341.185 2.397-.318 2.582-.402l.033.033c.067.57-.285 1.006-.888 1.124m-2.448 3.286l.318-.336.319.336-.319.301-.318-.301zm.419 1.86a.906.906 0 01-.838-.385c-.269-.268-.94-.453-1.476-.453-.083 0-.117-.067-.1-.15.218-.52-.252-.906-.738-.604-.201.134-.436.402-.587.855.788.201 1.777.721 1.979 1.308.083.234-.168.536-.487.603h-.033c-.168-.888-1.09-1.525-1.576-1.643-.017.067-.017.05-.034.118.52.251 1.023.77 1.174 1.408.067.285-.252.553-.52.62h-.033c-.05-.805-.403-1.475-.704-1.794 0 .067 0 .118-.017.185 0 0 .318.888.318 1.542 0 .302-.452.503-.536.537-.067-.034-.52-.235-.52-.537 0-.654.319-1.542.319-1.542 0-.067 0-.118-.017-.185-.319.319-.654.973-.704 1.778h-.034c-.268-.05-.587-.302-.52-.604.151-.62.654-1.157 1.174-1.408-.017-.067-.017-.05-.033-.118-.487.118-1.409.755-1.576 1.627h-.034c-.319-.05-.57-.352-.486-.57.201-.57 1.19-1.107 1.978-1.308-.168-.453-.369-.721-.587-.855-.486-.302-.955.067-.737.603.033.067 0 .151-.1.151-.47 0-1.057.151-1.359.37l.386.351s.05.067.05.1c0 .085-.067.168-.15.168-.051 0-.102 0-.135-.05l-.369-.352c-.117.067-.251.1-.402.067a.5.5 0 01-.336-.754l-1.425-1.358-.067.033c-.15.084-.335-.017-.318-.1-.1.1-.604.134-.755-.37h.302s-.251-.368-.067-.586c.201-.184.604.033.604.033s0-.2-.017-.301c.52.117.503.603.419.72.084 0 .201.151.117.32v.033l1.459 1.391a.585.585 0 01.604.134c.368.05 1.156-.134 1.09-.251-.688-.973-.386-1.61.15-1.794a2.35 2.35 0 002.113 1.308c.938 0 1.71-.52 2.095-1.291.52.2.771.838.118 1.794-.067.117.687.285.972.251a.852.852 0 01.369-.503l.47.369.469-.369a.866.866 0 01.419.788c-.05.369-.369.67-.771.721M33.16 32.153h.034c.184.084 1.224.57 2.582.386 0-.068-.034-.135-.034-.185-.905-.1-1.626-.251-2.095-.52-.537-.301-.755-1.006-.503-1.525h.033c.151.167 1.073 1.173 2.515 1.475 0-.067 0-.15.017-.218-.704-.402-1.392-.872-1.71-1.29-.503-.638-.436-1.46.017-1.879h.033c.151.252 1.543 2.532 3.085 3.504l.05.034s.05.084 0 .117a.84.84 0 00-.285.637c0 .436.336.788.772.872.1.017.217.034.335.017a2.191 2.191 0 00-.118.738 1.88 1.88 0 00-.368-.05c-.084.536-.252.972-.453 1.206-.335.386-.889.386-1.123.118v-.034c.15-.084.938-.57 1.106-1.374-.067-.017-.117-.05-.184-.068-.252.436-.637.805-.94.956-.502.235-.972.134-1.173-.235v-.033c.336-.017 1.291-.302 1.694-.972-.05-.05-.101-.084-.135-.135-.436.319-1.039.62-1.458.671-.503.067-1.09-.1-1.09-.687h.017c.168-.017 1.375.033 2.213-.453-.034-.05-.05-.117-.084-.168 0 0-1.274.302-1.878.185-.603-.1-.955-.554-.888-1.124m2.112-3.604c.034-.235.553-.168.738-.268.318-.202.72-1.006.972-.202-.47.436-.2 1.09.403 1.09v.1c-.721-.033-.973-.57-.839-.988.017-.084-.737-.084-.737.402 0 .319.452.47.452.805 0 .15-.167.268-.218.268.118-.537-.368-.252-.502-.151.25-.72-.32-.72-.269-1.04m2.498-.2l.352.318.352-.319c.269 0 .453.185.319.587-.017.05-.067.117-.1.185.318-.05.754-.269.838-.755 0 0-.252-.386-.302-.553-.218-.57.067-.805.47-.805l.52.62.519-.62c.419 0 .687.235.47.805-.068.15-.302.553-.302.553.083.486.52.704.838.755-.034-.067-.084-.134-.1-.185-.152-.402.033-.587.318-.587l.352.319.352-.319c.268 0 .452.185.318.587-.033.117-.2.335-.2.335h-.923c-.771 0-1.123-.486-1.24-.905h-.788c-.101.42-.453.905-1.241.905h-.94s-.15-.217-.2-.335c-.151-.402.05-.587.318-.587zm.352-.89l.252.303-.252.301-.251-.301.251-.302zm2.096-1.424l.352.419-.352.453-.352-.453.352-.42zm2.096 1.425l.251.302-.251.301-.252-.301.252-.302zm-1.56 7.695s.068-.1.05-.184c0-.067 0-.134.051-.151.034 0 .034.017.201-.1.168-.101.436-.269.503-.336s.084-.1.084-.168c0-.067-.1-.167-.134-.167 0 0 .201 0 .302.033.084.017.168.084.15.168 0 .067-.133.218-.502.402-.336.168-.336.185-.403.252-.067.05-.2.285-.234.318-.017.034-.101-.017-.084-.084m.453-2.498s.318-.067.368.034c.05.1 0 .168.05.218.034.05 0 .218 0 .218h-.15s-.05.067-.067.1c0 .05.05.352 0 .42-.034.067-.235.335-.235.335h-.268s.184-.252.2-.352c.018-.118-.016-.37-.016-.37h.151s.067-.167.084-.267c0-.118-.117-.37-.134-.37m-2.917-1.877c-.185-.05-.503-.067-.738.134 0-.218.184-.402.251-.419.084.017.37.134.486.285zm-.94-.453c-.25.034-.335.202-.352.269-.083-.084-.167-.336-.134-.503.151-.788 1.979-.268 2.9-.604.018.235-.284.604-.57.738.386.352.755.955.923 1.727a2.258 2.258 0 00-1.006.285c.1-.906-.771-2.08-1.76-1.912zm2.013 5.198c.1-.017.77-.62.77-.62l-.117.385-.536.335s-.05.118-.067.168c0 .084-.034.201-.084.201-.034 0-.084-.033-.1-.117-.034-.151.033-.117.033-.201 0-.05-.017-.135.1-.168m1.023-1.056s-.084.017-.1.05c-.101.117-.403.42-.47.486-.1.1-.771.487-.805.537-.033.05-.033.184-.083.301-.034.135-.05.135-.101.135-.033 0-.1-.168-.067-.202.067-.067-.034-.167.034-.251.033-.05.134-.033.167-.1.034-.068.369-.436.436-.47.034-.034.084-.05.134-.067.034 0 .067-.034.084-.067.067-.168.285-.67.47-.771.301-.151.25-.604.25-.604l-1.19-.134-.05.05c-.017.034 0 .034-.05.034-.034 0-.034-.034-.084-.067-.05-.017-.167 0-.167 0-.068-.034.117-.118.167-.118.168.034.805 0 .872 0 .084.017.587-.067.604-.067.016 0-.436-.184-.37-.335.235 0 .621-.117.755-.15.134-.035.252 0 .285.133l.034.134v.201h-.201s-.05.084-.034.135c0 .05.1.251.067.352-.033.134-.252.385-.302.419-.017.017.587.033.67.05.051 0 .101.067.085.134 0 .05-.084.134-.57.436-.235.134-.42.336-.487.402h-.067s0-.1.05-.167c.068-.084 0-.201.068-.235.017-.017.084-.017.15 0 .101-.084.269-.234.269-.234h-.402l-.05.05zm2.465-3.538c-.218-.201-.553-.201-.738-.134.117-.15.402-.268.486-.285.067.017.252.218.252.42zm-1.543 1.308a2.245 2.245 0 00-1.006-.268c.185-.772.537-1.392.922-1.727-.284-.134-.586-.503-.57-.738.923.335 2.767-.184 2.918.604.033.167-.05.436-.135.503a.417.417 0 00-.352-.269c-.989-.15-1.86.99-1.777 1.895zm1.727-3.068c.604 0 .872-.654.403-1.09.251-.805.637 0 .972.201.184.118.687.05.738.268.05.336-.537.336-.269 1.04-.134-.1-.62-.369-.503.15-.05 0-.218-.116-.218-.267 0-.336.453-.487.453-.805 0-.486-.754-.47-.738-.402.135.435-.117.955-.838.989v-.1.016zm-2.85-4.678c-4.879 0-8.836 3.974-8.836 8.836s3.957 8.835 8.836 8.835a8.837 8.837 0 000-17.67z" fill="#0B72B8"/><path d="M40.337 42.245c-4.963 0-9.003-4.04-9.003-9.003 0-4.962 4.04-9.003 9.003-9.003s9.003 4.04 9.003 9.003-4.04 9.003-9.003 9.003zm0-19.18c-5.616 0-10.177 4.56-10.177 10.177S34.72 43.42 40.337 43.42s10.177-4.56 10.177-10.177c0-5.616-4.56-10.177-10.177-10.177z" fill="#0B72B8"/><path d="M40.337 42.245c-4.963 0-9.003-4.04-9.003-9.003 0-4.962 4.04-9.003 9.003-9.003s9.003 4.04 9.003 9.003-4.04 9.003-9.003 9.003zm0-19.18c-5.616 0-10.177 4.56-10.177 10.177S34.72 43.42 40.337 43.42s10.177-4.56 10.177-10.177c0-5.616-4.56-10.177-10.177-10.177z" fill="#0B72B8"/><defs><linearGradient id="paint0_linear_233_3432" x1="17.363" y1="19.967" x2="65.933" y2="19.967" gradientUnits="userSpaceOnUse"><stop stop-color="#939597"/><stop offset=".06" stop-color="#9D9FA1"/><stop offset=".15" stop-color="#B9BBBC"/><stop offset=".23" stop-color="#D4D6D5"/><stop offset=".25" stop-color="#CED0D0"/><stop offset=".39" stop-color="#B0B3B3"/><stop offset=".47" stop-color="#A5A8A9"/><stop offset=".57" stop-color="#909394"/><stop offset=".66" stop-color="#838687"/><stop offset=".75" stop-color="#7F8283"/><stop offset=".83" stop-color="#838687"/><stop offset=".92" stop-color="#909293"/><stop offset="1" stop-color="#A2A3A4"/></linearGradient></defs></svg>