<svg width="1180" height="460" fill="none" xmlns="http://www.w3.org/2000/svg"><path d="M75.693 498.332l600.052-6.104H1202.5v-58.33L1184.8 86.33c2.33-3.414-372.929 205.597-631.953 283.53C342.426 433.169 0 467.693 0 474.563" fill="#103B52"/><path d="M960.625 179.065l2.667 2.558s-1.388 3.211-3.851 4.707c-2.557-1.17-3.85-3.632-3.85-3.632l5.02-3.633h.014zm-21.713-13.033s-2.775.544-14.544 8.857c-11.768 8.313-14.203 2.435-14.203 2.435s-2.435-1.755-4.53 1.823c.612 6.15 5.605 6.83 5.605 6.83s5.074 1.619 16.911-6.558c11.836-8.176 14.203-8.244 14.203-8.244l-3.442-5.143z" fill="#0C4A97"/><path d="M919.811 143.721s-3.197 7.265-9.36 10.707c-.858 4.68-1.728 4.802-1.728 4.802l-3.32-2.217s-2.326 3.006-7.455 1.578c-5.143-1.415-4.939-10.476-4.939-10.476l-2.231-12.108 6.83-10.204 14.747-.34 7.456 18.258z" fill="#F5B0C1"/><path d="M914.097 134.865l-5.81 5.414-4.598-8.925-1.551 1.892s4.258 5.741 4.054 8.652c-1.224 3.782-6.965 10.34-8.924 13.591.748 2.096-.205 5.81-.205 5.81s10.408-18.122 16.435-22.788l.612-3.66-.013.014z" fill="#0C4A97"/><path d="M919.811 143.72l-4.572-11.169-1.809 2.381s.408 9.401-.408 12.639c-.816 3.237-2.571 6.856-2.571 6.856 6.149-3.442 9.36-10.707 9.36-10.707z" fill="#92C027"/><path d="M908.083 153.516l-2.68 3.496 3.32 2.218s.163-3.81-.64-5.714z" fill="#fff"/><path d="M908.083 153.516l-2.68 3.496 3.32 2.218s.163-3.81-.64-5.714z" stroke="#fff" stroke-width=".85" stroke-miterlimit="2.61"/><path d="M815.108 85.439s-24.611 15.142-14.34 41.93c10.272 26.774 51.114 39.494 51.114 39.494l9.197 3.51 6.353-5.006-28.271-60.446-24.067-19.469.014-.013z" fill="#FABA3D"/><path d="M825.529 147.774c-4.816-2.204-15.006-8.435-19.931-11.509 14.557 20.693 46.297 30.57 46.297 30.57l9.197 3.51 2.98-2.354-1.769-2.109s-30.298-15.142-36.787-18.121" fill="#FABA3D"/><path d="M971.428 264.817c-8.748-16.108-18.517-28.543-25.891-33.536 9.728 13.823 22.789 33.876 22.789 33.876s1.891-.639 3.088-.34" fill="#141727"/><path d="M972.325 265.498c-.149-.381-.489-.585-.898-.681.286.531.572 1.075.858 1.606.122-.3.163-.612.027-.925" fill="#0C4A97"/><path d="M935.266 234.058s-.15-.368-.395-.994c-.353 1.225-.544 2.708-.571 4.408l14.285 32.965s1.959 6.027 3.592 6.027c1.632 0 0-4.054 0-4.054l-16.911-38.339v-.013zm36.162 30.759c-1.211-.299-3.089.34-3.089.34s-13.06-20.053-22.788-33.876c-3.251-4.612-6.122-8.516-8.013-10.775-.708-.83-1.401-1.673-2.109-2.517a680.023 680.023 0 01-13.074-16.258l1.496 7.687 4.504 13.183c.449-1.51 1.115-2.693 2-3.51-.15-1.143.04-1.646.802-1.007.082.069.177.164.286.259 1.619 1.524 5.265 5.972 8.938 10.625 5.034 6.381 10.122 13.115 10.122 13.115l18.802 26.979.68-.476s1.864-1.021 2.34-2.177c-.285-.544-.571-1.075-.857-1.606" fill="#FFDE37"/><path d="M951.36 272.939l16.163-7.306 1.755 3.455-16.707 6.83s-1.483-.34-1.211-2.979z" fill="#92C027"/><path d="M881.731 252.328c-21.251-51.154-68.365-80.214-105.234-64.895-36.869 15.319-49.521 69.208-28.27 120.362 21.25 51.155 68.364 80.214 105.233 64.895 36.869-15.319 49.522-69.207 28.271-120.362z" stroke="#141727" stroke-width="11" stroke-miterlimit="10"/><path d="M837.012 245.689l-9.333-3.374s-5.687 7.714-11.224 17.714c-5.551 10.013-3.782 14.203 9.605 17.305 13.387 3.116 85.601 10.68 85.601 10.68l-17.985-13.387-59.644-6.49s-7.306-1.755-.803-14.339c2.98-5.823 3.783-8.122 3.783-8.122" fill="#3F91AF"/><path d="M859.473 181.72l-11.904 70.051 4.871 1.891 9.196-67.344-2.163-4.598zm-3.251-8.109l-34.625 77.888 5.959 2.163 29.754-77.615-1.088-2.436zm-2.68-98.159c-1.851 2.72-1.429 3.007-4.15 1.17L749.057 11.713a5.952 5.952 0 01-1.579-8.272 5.953 5.953 0 018.272-1.578L859.473 70.5c2.721 1.85-4.081 2.244-5.918 4.965" fill="#FFDE37"/><path d="M842.114 46.623a.668.668 0 01-.926.136l-36.501-27.237a.667.667 0 01-.136-.925.667.667 0 01.925-.137l36.501 27.237a.653.653 0 01.137.912m-80.65-14.245a1.973 1.973 0 01-2.707.667L716.595 7.522a1.98 1.98 0 01-.666-2.707 1.98 1.98 0 012.707-.667l42.161 25.495a1.982 1.982 0 01.667 2.708" fill="#3DB5A4"/><path d="M824.972 79.845a4.046 4.046 0 01-5.415 1.864l-46.052-22.475a4.045 4.045 0 01-1.864-5.415 4.045 4.045 0 015.414-1.864l46.053 22.475a4.047 4.047 0 011.864 5.415zm7.06 38.055a2.815 2.815 0 01-3.687 1.523l-48.106-20.774a2.816 2.816 0 01-1.524-3.687 2.817 2.817 0 013.687-1.524l48.107 20.775a2.815 2.815 0 011.523 3.687z" fill="#FFDE37"/><path d="M764.498 97.275a.871.871 0 01-1.129.517l-26.951-9.932a.871.871 0 01-.517-1.129.876.876 0 011.129-.517l26.951 9.932a.871.871 0 01.517 1.129z" fill="#92C027"/><path d="M744.417 164.005a.873.873 0 01-1.034.681l-28.121-5.837a.872.872 0 01-.68-1.034.879.879 0 011.034-.68l28.121 5.836a.873.873 0 01.68 1.034z" fill="#FFDE37"/><path d="M734.227 355.506a2.68 2.68 0 01-2 3.211l-54.623 12.707a2.67 2.67 0 01-3.211-2 2.67 2.67 0 012-3.211l54.637-12.706c1.428-.341 2.871.557 3.211 1.999" fill="#3DB5A4"/><path d="M841.814 135.83a2.86 2.86 0 01-3.714 1.605l-55.821-22.121a2.86 2.86 0 01-1.605-3.714 2.86 2.86 0 013.714-1.606l55.821 22.122a2.86 2.86 0 011.605 3.714z" fill="#FFDE37"/><path d="M755.07 361.426c.612 2.109-.612 4.299-2.708 4.911l-29.699 8.585a3.958 3.958 0 01-4.911-2.708 3.958 3.958 0 012.707-4.911l29.7-8.585a3.958 3.958 0 014.911 2.708zm223.514 5.468a3.97 3.97 0 01-1.402 5.429l-26.638 15.7a3.957 3.957 0 01-5.428-1.402 3.968 3.968 0 011.401-5.428l26.638-15.7a3.97 3.97 0 015.429 1.401z" fill="#92C027"/><path d="M757.763 176.726c-.421 2.244-2.585 3.741-4.829 3.319l-31.768-5.891c-2.244-.408-3.727-2.585-3.319-4.829a4.153 4.153 0 014.83-3.32l31.767 5.877c2.245.422 3.741 2.585 3.319 4.83" fill="#3DB5A4"/><path d="M796.184 168.686a2.905 2.905 0 01-3.497 2.163l-104.009-25.114a2.907 2.907 0 111.333-5.66L794.02 165.19a2.905 2.905 0 012.164 3.496zm220.906 213.596a3.442 3.442 0 01-.75 4.789l-102.271 73.901a3.42 3.42 0 01-4.788-.748 3.42 3.42 0 01.748-4.789l102.271-73.902c1.52-1.115 3.67-.775 4.79.749z" fill="#92C027"/><path d="M814.128 134.715a2.185 2.185 0 01-2.843 1.224l-15.85-6.34a2.186 2.186 0 01-1.224-2.843 2.186 2.186 0 012.843-1.225l15.864 6.34c1.115.449 1.673 1.728 1.224 2.844" fill="#FFDE37"/><path d="M818.291 63.764a2.192 2.192 0 01-3.006.749l-14.625-8.83a2.194 2.194 0 01-.749-3.006 2.193 2.193 0 013.007-.749l14.625 8.816a2.192 2.192 0 01.748 3.007" fill="#92C027"/><path d="M746.444 109.314a.886.886 0 01-1.102.571l-43.766-14.121a.887.887 0 01-.572-1.102.887.887 0 011.102-.572l43.767 14.122c.463.15.707.639.571 1.102zm47.386-18.448a2.185 2.185 0 01-2.898 1.088l-5.374-2.448a2.186 2.186 0 01-1.088-2.898 2.186 2.186 0 012.898-1.089l5.374 2.45a2.186 2.186 0 011.088 2.897z" fill="#3DB5A4"/><path d="M737.234 217.188a3.034 3.034 0 01-3.32 2.694l-57.439-5.973a3.033 3.033 0 01-2.694-3.319 3.032 3.032 0 013.319-2.694l57.44 5.972a3.034 3.034 0 012.694 3.32z" fill="#92C027"/><path d="M730.05 394.593c-2.122-1.823-7.999-1.877-13.115-.136l-183.311 62.46c-5.116 1.741-7.537 4.626-5.415 6.449 2.122 1.823 8 1.877 13.115.136l183.312-62.447c5.115-1.741 7.537-4.625 5.414-6.448" fill="#FFDE37"/><path d="M803.095 426.294a3.77 3.77 0 01-2.055 4.925l-76.867 31.237c-2.34 0-20.53.041-18.149.041l92.159-38.257a3.774 3.774 0 014.925 2.054m7.415-31.237a8.407 8.407 0 01-4.503 11.007l-65.439 27.509a8.407 8.407 0 01-11.007-4.504 8.406 8.406 0 014.504-11.006l65.439-27.509a8.406 8.406 0 0111.006 4.503zm-27.019-11.319a4.102 4.102 0 01-2.571 5.197l-18.367 6.231a4.111 4.111 0 01-5.197-2.558 4.111 4.111 0 012.558-5.197l18.366-6.231a4.105 4.105 0 015.197 2.558" fill="#92C027"/><path d="M803.435 155.856a.939.939 0 01-1.17.64l-44.393-13.116a.959.959 0 01-.639-1.17.948.948 0 011.17-.639l44.393 13.115c.503.15.775.667.639 1.17z" fill="#FFDE37"/><path d="M884.248 181.488a2.337 2.337 0 01-2.762 1.851l-101.56-20.067a2.337 2.337 0 01-1.851-2.762 2.337 2.337 0 012.762-1.851l101.56 20.068a2.345 2.345 0 011.851 2.761z" fill="#3DB5A4"/><path d="M925.906 232.452a1.881 1.881 0 01-1.878 1.877zm-1.878 1.877H912.75zm-11.278 0a1.872 1.872 0 01-1.878-1.877zm-1.878-1.877c0-1.034.844-1.878 1.878-1.878zm1.878-1.878h11.278zm11.278 0c1.034 0 1.878.844 1.878 1.878z" stroke="#fff" stroke-width="1.53" stroke-miterlimit="10"/><path d="M869.446 324.216a.936.936 0 001.156.653l44.828-12.449a.936.936 0 00.653-1.156.936.936 0 00-1.156-.653l-44.828 12.448a.935.935 0 00-.653 1.157zm-8.844 126.171a.933.933 0 001.293.313l39.767-24.148a.934.934 0 00.313-1.293.934.934 0 00-1.293-.313l-39.767 24.149a.933.933 0 00-.313 1.292z" fill="#3DB5A4"/><path d="M955.904 347.48a2.235 2.235 0 002.966 1.088l31.577-14.584a2.235 2.235 0 00-1.877-4.054l-31.577 14.584a2.235 2.235 0 00-1.089 2.966zm-108.362 2.49a2.878 2.878 0 003.605 1.905l42.978-13.292c1.523-.476 2.381-2.095 1.904-3.605a2.878 2.878 0 00-3.605-1.905l-42.978 13.292c-1.523.476-2.38 2.095-1.904 3.605z" fill="#92C027"/><path d="M937.511 349.93a.582.582 0 00.775.299l25.754-11.469c.299-.136.435-.476.299-.775-.136-.299-.476-.435-.775-.299l-25.754 11.482a.579.579 0 00-.299.776m-20.87 80.975c.449.667 1.36.844 2.027.381l58.025-39.672a1.466 1.466 0 00.38-2.04 1.466 1.466 0 00-2.04-.381l-58.025 39.671a1.466 1.466 0 00-.381 2.041" fill="#FFDE37"/><path d="M925.253 340.938a1.39 1.39 0 001.796.843l13.931-4.992a1.402 1.402 0 00.843-1.81 1.418 1.418 0 00-1.809-.857l-13.931 5.007a1.42 1.42 0 00-.858 1.809" fill="#2061AA"/><path d="M958.027 333.549c.34.708 1.183.994 1.877.653l13.333-6.421a1.4 1.4 0 00.653-1.878 1.4 1.4 0 00-1.878-.653l-13.332 6.422a1.397 1.397 0 00-.653 1.877z" fill="#FFDE37"/><path d="M877.064 313.754a1.426 1.426 0 001.728 1.007l14.312-3.782a1.425 1.425 0 001.007-1.728 1.425 1.425 0 00-1.728-1.007l-14.312 3.782a1.426 1.426 0 00-1.007 1.728zm86.064-30.679a1.83 1.83 0 002.395.966l13.156-5.564a1.83 1.83 0 00.966-2.395 1.83 1.83 0 00-2.395-.966l-13.156 5.565c-.925.394-1.374 1.469-.966 2.394zm12.721 3.21a1.989 1.989 0 002.558 1.211l2.952-1.061c1.048-.367 1.578-1.524 1.211-2.558a1.99 1.99 0 00-2.558-1.21l-2.952 1.061a1.999 1.999 0 00-1.211 2.557z" fill="#92C027"/><path d="M846.209 157.651l57.616 116.58-77.275-33.06s-6.136.64-6.136 12.272c22.992 7.034 101.533 39.985 101.533 39.985l-67.888-132.797-7.837-2.98h-.013z" fill="#53C2EC"/><path d="M933.47 277.374c4 13.048 1.837 25.278-4.83 27.319-6.666 2.041-15.305-6.87-19.305-19.917-4-13.048-1.837-25.278 4.83-27.319 6.666-2.041 15.305 6.87 19.305 19.917z" fill="#3F91AF"/><path d="M918.137 276.571c1.511-2.095 3.429-1.483 5.143-.109s11.999 12.449 11.999 12.449l-2.054 6.625-12.68-13.713s-3.877-3.198-2.394-5.252" fill="#53C2EC"/><path d="M950.408 170.087s3.115.816 5.143.272c2.027-.544 7.986 2.299 7.986 4.802 0 2.504-1.225 4.803-3.456 5.878-2.231 1.075-2.639 3.51-2.639 3.51s-1.279.68-5.946-2.708c-4.666-3.387-8.897-1.265-8.557-5.727.34-4.463 7.469-6.041 7.469-6.041" fill="#92C027"/><path d="M896.696 149.98s1.605 7.85 3.034 15.945c0 0 4.149 12.353 10.639 20.053 6.476 7.701 14.489 15.183 16.503 27.441 2.027 12.258 8.611 41.617 13.264 49.916l.817 3.238-13.061 2.64s-7.496-20.666-15.292-29.06c-7.795-8.408-19.237-21.972-18.829-32.094.408-10.122-11.034-22.788-19.741-30.584-8.707-7.795-12.448-13.972-12.448-13.972s28.57-20.149 35.155-13.523" fill="#F5B0C1"/><path d="M904.818 102.742s-10.816-7.21-45.794-32.815c-26.788-11.21-40.216 7.62-45.141 17.401l10.258 6.177a2.194 2.194 0 01.749 3.006 2.193 2.193 0 01-3.007.749l-9.809-5.905c-.313.816-.476 1.292-.476 1.292-5.769 14.612 21.278 37.863 21.278 37.863s22.543 27.413 30.651 37.331c19.659-16.053 33.183-17.849 33.183-17.849l-.354-2.884s3.605-14.068 7.931-14.966c4.327-.898 11.537 7.755 11.537 7.755 2.395-7.619 6.667-9.156 12.762-9.959-9.605-17.305-23.754-27.182-23.754-27.182" fill="#FFDE37"/><path d="M926.178 130.117s-6.612-5.687-10.966-10.176c-4.367-4.49-11.36-14.013-12.149-14.408-.789-.394-2.639 5.157-2.639 5.157l-1.714-8.327-.273 6.34-1.455-7.129-2.912 10.177-1.986-10.83-1.592 3.959-20.611-10.04-2.245-9.904.259 7.537-1.184-1.184s.258 2.775 1.456 4.231c1.197 1.456 19.482 22.598 28.175 51.603 0 0 3.606-14.067 7.932-14.965 4.326-.898 11.537 7.755 11.537 7.755 2.054-6.558 5.51-8.599 10.312-9.565l.055-.204v-.027z" fill="#FABA3D"/><path d="M928.572 129.925s7.85 11.769 10.408 14.34c2.571 2.571 8.517 7.836 8.789 10.68.272 2.843 2.843 15.958 2.843 15.958l2.095 3.85s-5.809 6.218-8.857 2.163c-2.299-6.761-4.122-7.904-4.734-8.788-.612-.885-4.326-3.184-5.891-10.476-8.04-6.626-17.509-18.258-17.509-18.258s1.483-12.775 12.843-9.469" fill="#F5B0C1"/><path d="M919.511 210.589a1.658 1.658 0 01-1.836 1.429l-66.433-8.49a1.638 1.638 0 01-1.415-1.836 1.651 1.651 0 011.837-1.429l66.432 8.489a1.651 1.651 0 011.429 1.837" fill="#FFDE37"/><path d="M921.443 223.976a2.242 2.242 0 01-2.272 2.191l-28.189-.585a2.245 2.245 0 01-2.19-2.286 2.25 2.25 0 012.272-2.19l28.189.585a2.25 2.25 0 012.19 2.272" fill="#3DB5A4"/><path d="M907.798 245.975c.095.979.966 1.7 1.945 1.605l16.53-1.537a1.784 1.784 0 00-.34-3.551l-16.516 1.537a1.785 1.785 0 00-1.606 1.946" fill="#FFDE37"/><path d="M900.614 252.219c.096.98.966 1.701 1.946 1.619l8.707-.843a1.784 1.784 0 00-.34-3.551l-8.707.843a1.786 1.786 0 00-1.606 1.946" fill="#92C027"/><path d="M887.935 196.344a3.42 3.42 0 01-4.082 2.571L824.74 185.46a3.42 3.42 0 01-2.571-4.081 3.421 3.421 0 014.081-2.572l59.113 13.455a3.422 3.422 0 012.572 4.082zm-21.346-33.237a2.86 2.86 0 01-3.714 1.606l-55.821-22.122a2.86 2.86 0 01-1.605-3.714 2.86 2.86 0 013.714-1.605l55.82 22.121a2.86 2.86 0 011.606 3.714zm20.23 138.662a2.586 2.586 0 003.088 1.959l45.645-10.163a2.587 2.587 0 00-1.13-5.047l-45.644 10.163a2.586 2.586 0 00-1.959 3.088z" fill="#FFDE37"/><path d="M980.434 280.436c-13.387-27.101-29.536-46.461-36.094-43.223-6.557 3.238-1.007 27.835 12.367 54.936 13.387 27.101 29.536 46.461 36.094 43.223 6.544-3.238 1.006-27.822-12.367-54.936z" stroke="#141727" stroke-width="7" stroke-miterlimit="10"/><path d="M942.776 304.91s3.156 6.816 4.163 8.653c1.02 1.837 21.577-1.837 23.808-3.456 2.245-1.619 2.653-11.7 2.653-11.7l-30.624 6.517v-.014z" fill="#53C2EC"/><path d="M926.164 267.498l15.088-3.741s2.735 4.653 7.905 12.652c5.169 8 10.121 11.755 19.033 14.381 8.911 2.639 10.435 8.707 6.476 9.918-3.946 1.21-21.265.911-25.822 3.142-4.558 2.231-11.85 4.245-13.265 1.116-1.415-3.143-3.946-5.061-3.646-13.972.299-8.911-5.565-16.707-5.769-23.496z" fill="#FFDE37"/></svg>