<?xml version="1.0" encoding="utf-8"?><svg viewBox="0 0 50 57" xmlns="http://www.w3.org/2000/svg" xmlns:xlink="http://www.w3.org/1999/xlink"><style>:root>svg{display:none}:root>svg:target{display:block}</style><svg fill="none" viewBox="0 0 24 24" id="icon-accordeon-blue" xmlns="http://www.w3.org/2000/svg"><path d="M13.601 12l-4.6-4.6 1.4-1.4 6 6-6 6-1.4-1.4 4.6-4.6z" fill="#004F9F"/></svg><svg fill="none" viewBox="0 0 24 24" id="icon-accordeon-white" xmlns="http://www.w3.org/2000/svg"><path d="M13.601 12l-4.6-4.6 1.4-1.4 6 6-6 6-1.4-1.4 4.6-4.6z" fill="#fff"/></svg><svg fill="none" viewBox="0 0 24 24" id="icon-arrow-breadcrumb" xmlns="http://www.w3.org/2000/svg"><path d="M12.6 12L8 7.4 9.4 6l6 6-6 6L8 16.6l4.6-4.6z" fill="#FABA3D"/></svg><svg fill="none" viewBox="0 0 24 24" id="icon-arrow-more" xmlns="http://www.w3.org/2000/svg"><path d="M12.6 12L8 7.4 9.4 6l6 6-6 6L8 16.6l4.6-4.6z" fill="currentColor"/></svg><svg fill="none" viewBox="0 0 24 24" id="icon-arrow-next" xmlns="http://www.w3.org/2000/svg"><path d="M8.025 22L6.25 20.225 14.475 12 6.25 3.775 8.025 2l10 10-10 10z" fill="currentColor"/></svg><svg fill="none" viewBox="0 0 24 24" id="icon-arrow-prev" xmlns="http://www.w3.org/2000/svg"><path d="M15.975 22l1.775-1.775L9.525 12l8.225-8.225L15.975 2l-10 10 10 10z" fill="currentColor"/></svg><svg fill="none" viewBox="0 0 24 24" id="icon-caret" xmlns="http://www.w3.org/2000/svg"><path d="M12 15.375l-6-6 1.4-1.4 4.6 4.6 4.6-4.6 1.4 1.4-6 6z" fill="currentColor"/></svg><svg fill="none" viewBox="0 0 24 24" id="icon-close" xmlns="http://www.w3.org/2000/svg"><path d="M6.4 19L5 17.6l5.6-5.6L5 6.4 6.4 5l5.6 5.6L17.6 5 19 6.4 13.4 12l5.6 5.6-1.4 1.4-5.6-5.6L6.4 19z" fill="currentColor"/></svg><svg fill="none" viewBox="0 0 24 25" id="icon-location" xmlns="http://www.w3.org/2000/svg"><mask id="ia" style="mask-type:alpha" maskUnits="userSpaceOnUse" x="0" y="0" width="24" height="25"><path fill="#D9D9D9" d="M0 .226h24v24H0z"/></mask><g mask="url(#ia)"><path d="M12 12.226c.55 0 1.02-.196 1.412-.588.392-.391.588-.862.588-1.412 0-.55-.196-1.02-.588-1.413A1.926 1.926 0 0012 8.226c-.55 0-1.02.196-1.412.587A1.926 1.926 0 0010 10.226c0 .55.196 1.02.588 1.412.391.392.862.588 1.412.588zm0 7.35c2.033-1.867 3.542-3.563 4.525-5.088C17.508 12.965 18 11.61 18 10.427c0-1.817-.58-3.304-1.738-4.463C15.104 4.805 13.683 4.226 12 4.226c-1.683 0-3.104.58-4.263 1.737C6.58 7.122 6 8.61 6 10.426c0 1.183.492 2.537 1.475 4.063.983 1.524 2.492 3.22 4.525 5.087zm0 2.65c-2.683-2.283-4.688-4.404-6.013-6.362C4.662 13.905 4 12.093 4 10.425c0-2.5.804-4.492 2.412-5.975C8.021 2.968 9.883 2.226 12 2.226s3.98.742 5.587 2.225C19.197 5.934 20 7.926 20 10.426c0 1.667-.663 3.48-1.988 5.438-1.325 1.958-3.329 4.079-6.012 6.362z" fill="#D43B2C"/></g></svg><svg fill="none" viewBox="0 0 36 37" id="icon-ok-default" xmlns="http://www.w3.org/2000/svg"><path fill-rule="evenodd" clip-rule="evenodd" d="M17.25 8.957c-.808 0-1.582.305-2.152.846a2.815 2.815 0 00-.893 2.04c0 1.589 1.365 2.883 3.044 2.883.807-.001 1.58-.305 2.15-.846.571-.54.893-1.273.894-2.038a2.815 2.815 0 00-.892-2.04 3.135 3.135 0 00-2.152-.845zm0 9.85c-1.95-.001-3.818-.735-5.196-2.041-1.378-1.306-2.153-3.077-2.155-4.924.001-1.847.776-3.619 2.154-4.926C13.431 5.61 15.3 4.875 17.25 4.873c1.95.001 3.819.736 5.197 2.043 1.379 1.306 2.154 3.078 2.155 4.926-.002 1.848-.778 3.618-2.156 4.924-1.378 1.306-3.247 2.04-5.196 2.042zm-2.975 5.684a14.194 14.194 0 01-4.268-1.675 2.048 2.048 0 01-.953-1.275 1.952 1.952 0 01.277-1.54 2.154 2.154 0 011.345-.904 2.254 2.254 0 011.625.263 9.715 9.715 0 004.949 1.346c1.75 0 3.465-.466 4.95-1.346a2.254 2.254 0 011.624-.263c.557.12 1.041.446 1.345.904.304.458.404 1.012.277 1.54s-.47.987-.953 1.275a14.219 14.219 0 01-4.268 1.675l4.11 3.898c.2.19.358.415.466.662a1.95 1.95 0 01-.001 1.563 2.04 2.04 0 01-.468.662c-.2.19-.437.34-.698.442a2.255 2.255 0 01-1.649 0 2.166 2.166 0 01-.698-.444l-4.036-3.829-4.04 3.83a2.215 2.215 0 01-1.522.597 2.215 2.215 0 01-1.523-.598 1.989 1.989 0 01-.631-1.443c0-.542.227-1.061.63-1.444l4.11-3.896z" fill="currentColor"/></svg><svg fill="none" viewBox="0 0 50 50" id="icon-person-white" xmlns="http://www.w3.org/2000/svg"><path d="M25 25c-2.292 0-4.253-.816-5.885-2.448-1.632-1.632-2.448-3.594-2.448-5.885 0-2.292.816-4.254 2.448-5.886C20.747 9.15 22.708 8.333 25 8.333s4.253.816 5.885 2.448c1.632 1.632 2.448 3.594 2.448 5.886 0 2.291-.816 4.253-2.448 5.885C29.253 24.184 27.292 25 25 25zM8.333 41.667v-5.834c0-1.18.304-2.265.912-3.255a6.075 6.075 0 012.422-2.266 30.93 30.93 0 016.562-2.421A28.664 28.664 0 0125 27.083c2.292 0 4.549.27 6.77.808a30.93 30.93 0 016.563 2.422 6.075 6.075 0 012.422 2.265c.608.99.912 2.075.912 3.255v5.834H8.333z" fill="#CE8F29"/></svg><svg fill="none" viewBox="0 0 50 57" id="icon-play" xmlns="http://www.w3.org/2000/svg"><path d="M48 25.274c2.667 1.54 2.667 5.389 0 6.928L6 56.452c-2.667 1.539-6-.386-6-3.465V4.49C0 1.41 3.333-.514 6 1.025l42 24.25z" fill="currentColor"/></svg><svg fill="none" viewBox="0 0 24 24" id="icon-route" xmlns="http://www.w3.org/2000/svg"><path d="M9.333 20c-.977 0-1.814-.348-2.51-1.044-.697-.697-1.045-1.534-1.045-2.512V9.178A2.747 2.747 0 014.5 8.21 2.535 2.535 0 014 6.667c0-.741.26-1.37.778-1.89A2.572 2.572 0 016.667 4c.74 0 1.37.26 1.889.778.518.518.777 1.148.777 1.889 0 .577-.166 1.092-.5 1.544-.333.452-.759.774-1.277.967v7.266c0 .49.174.908.522 1.256.348.348.766.522 1.255.522.49 0 .908-.174 1.256-.522.348-.348.522-.767.522-1.256V7.556c0-.978.348-1.815 1.045-2.512C12.852 4.348 13.689 4 14.666 4c.978 0 1.816.348 2.512 1.044.696.697 1.044 1.534 1.044 2.512v7.266c.519.193.945.515 1.278.967.333.452.5.967.5 1.544 0 .741-.26 1.37-.778 1.89a2.572 2.572 0 01-1.889.777c-.74 0-1.37-.26-1.889-.778a2.572 2.572 0 01-.777-1.889c0-.577.166-1.096.5-1.555.333-.46.759-.778 1.277-.956V7.556c0-.49-.174-.908-.522-1.256a1.712 1.712 0 00-1.255-.522c-.49 0-.908.174-1.256.522a1.712 1.712 0 00-.522 1.256v8.888c0 .978-.348 1.815-1.045 2.512-.696.696-1.533 1.044-2.51 1.044zM6.667 7.556A.86.86 0 007.3 7.3a.86.86 0 00.256-.633.86.86 0 00-.256-.634.86.86 0 00-.633-.255.86.86 0 00-.634.255.86.86 0 00-.255.634.86.86 0 00.255.633.86.86 0 00.634.256zm10.666 10.666a.86.86 0 00.634-.255.86.86 0 00.255-.634.86.86 0 00-.255-.633.86.86 0 00-.634-.256.86.86 0 00-.633.256.86.86 0 00-.256.633.86.86 0 00.256.634.86.86 0 00.633.255z" fill="currentColor" fill-opacity=".85"/></svg><svg fill="none" viewBox="0 0 24 24" id="icon-target" xmlns="http://www.w3.org/2000/svg"><path d="M12 20a7.79 7.79 0 01-3.12-.63 8.079 8.079 0 01-2.54-1.71 8.08 8.08 0 01-1.71-2.54A7.79 7.79 0 014 12c0-1.107.21-2.147.63-3.12.42-.973.99-1.82 1.71-2.54a8.079 8.079 0 012.54-1.71A7.79 7.79 0 0112 4a7.79 7.79 0 013.12.63c.973.42 1.82.99 2.54 1.71s1.29 1.567 1.71 2.54c.42.973.63 2.013.63 3.12a7.79 7.79 0 01-.63 3.12 8.08 8.08 0 01-1.71 2.54 8.08 8.08 0 01-2.54 1.71A7.79 7.79 0 0112 20zm0-1.6c1.787 0 3.3-.62 4.54-1.86 1.24-1.24 1.86-2.753 1.86-4.54s-.62-3.3-1.86-4.54C15.3 6.22 13.787 5.6 12 5.6s-3.3.62-4.54 1.86C6.22 8.7 5.6 10.213 5.6 12s.62 3.3 1.86 4.54C8.7 17.78 10.213 18.4 12 18.4zm0-1.6c-1.333 0-2.467-.467-3.4-1.4-.933-.933-1.4-2.067-1.4-3.4 0-1.333.467-2.467 1.4-3.4.933-.933 2.067-1.4 3.4-1.4 1.333 0 2.467.467 3.4 1.4.933.933 1.4 2.067 1.4 3.4 0 1.333-.467 2.467-1.4 3.4-.933.933-2.067 1.4-3.4 1.4zm0-1.6c.88 0 1.633-.313 2.26-.94.627-.627.94-1.38.94-2.26 0-.88-.313-1.633-.94-2.26A3.081 3.081 0 0012 8.8c-.88 0-1.633.313-2.26.94A3.081 3.081 0 008.8 12c0 .88.313 1.633.94 2.26.627.627 1.38.94 2.26.94zm0-1.6a1.54 1.54 0 01-1.13-.47A1.54 1.54 0 0110.4 12c0-.44.157-.817.47-1.13A1.54 1.54 0 0112 10.4c.44 0 .817.157 1.13.47.313.313.47.69.47 1.13 0 .44-.157.817-.47 1.13a1.54 1.54 0 01-1.13.47z" fill="currentColor"/></svg><svg fill="none" viewBox="0 0 36 37" id="icon-tg" xmlns="http://www.w3.org/2000/svg"><rect y=".891" width="36" height="36" rx="8" fill="#2AABED"/><path fill-rule="evenodd" clip-rule="evenodd" d="M8.375 18.61c5.369-2.34 8.949-3.881 10.74-4.626 5.114-2.128 6.177-2.497 6.87-2.51.152-.002.493.036.713.215.186.15.238.355.262.498.025.144.055.47.031.726-.277 2.912-1.476 9.978-2.086 13.24-.259 1.38-.767 1.843-1.259 1.888-1.07.098-1.881-.707-2.917-1.386-1.621-1.062-2.537-1.724-4.11-2.76-1.819-1.199-.64-1.857.396-2.934.272-.281 4.984-4.567 5.075-4.956.011-.049.022-.23-.086-.326-.108-.095-.266-.063-.381-.037-.163.037-2.752 1.749-7.768 5.135-.735.505-1.4.75-1.997.738-.658-.015-1.923-.372-2.863-.678-1.153-.375-2.07-.573-1.99-1.21.041-.331.498-.67 1.37-1.017z" fill="#fff"/></svg><svg fill="none" viewBox="0 0 36 37" id="icon-tg-default" xmlns="http://www.w3.org/2000/svg"><path fill-rule="evenodd" clip-rule="evenodd" d="M29.677 7.272L5.76 16.437c-1.631.65-1.623 1.556-.297 1.958l5.964 1.851 2.283 6.952c.277.76.14 1.063.945 1.063.621 0 .895-.282 1.242-.617.22-.213 1.524-1.476 2.982-2.883l6.205 4.556c1.14.625 1.966.302 2.25-1.053l4.073-19.07c.417-1.66-.638-2.415-1.73-1.922zM12.364 19.82l13.444-8.427c.671-.406 1.287-.188.781.258l-11.512 10.32-.447 4.75-2.266-6.9z" fill="currentColor"/></svg><svg fill="none" viewBox="0 0 25 24" id="icon-timer" xmlns="http://www.w3.org/2000/svg"><path d="M10.214 5.524V4h4.572v1.524h-4.572zm1.524 8.38h1.524v-4.57h-1.524v4.57zM12.5 20c-.94 0-1.825-.181-2.657-.543a7.004 7.004 0 01-2.18-1.476A7.006 7.006 0 016.185 15.8a6.587 6.587 0 01-.543-2.657c0-.94.181-1.825.543-2.657a7.004 7.004 0 011.476-2.181 7.004 7.004 0 012.181-1.476 6.587 6.587 0 012.657-.543c.787 0 1.543.127 2.267.38a7.407 7.407 0 012.038 1.105l1.067-1.066 1.066 1.066-1.066 1.067c.482.635.85 1.314 1.104 2.038.254.724.381 1.48.381 2.267 0 .94-.18 1.825-.543 2.657a7.006 7.006 0 01-1.476 2.181 7.004 7.004 0 01-2.18 1.476A6.588 6.588 0 0112.5 20zm0-1.524c1.473 0 2.73-.52 3.772-1.562 1.04-1.041 1.562-2.298 1.562-3.771 0-1.473-.521-2.73-1.562-3.772C15.23 8.331 13.973 7.81 12.5 7.81c-1.473 0-2.73.52-3.771 1.561-1.041 1.042-1.562 2.299-1.562 3.772 0 1.473.52 2.73 1.562 3.771 1.041 1.042 2.298 1.562 3.771 1.562z" fill="currentColor"/></svg><svg fill="none" viewBox="0 0 36 37" id="icon-vk" xmlns="http://www.w3.org/2000/svg"><rect y=".891" width="36" height="36" rx="8" fill="#07F"/><path d="M18.44 25.384c-6.533 0-10.258-4.47-10.414-11.91h3.272c.108 5.46 2.52 7.774 4.43 8.25v-8.25h3.082v4.71c1.886-.203 3.869-2.349 4.537-4.71h3.081c-.513 2.91-2.663 5.055-4.191 5.938 1.528.715 3.977 2.587 4.908 5.973h-3.392c-.728-2.266-2.543-4.018-4.943-4.257v4.256h-.37z" fill="#fff"/></svg><svg fill="none" viewBox="0 0 36 37" id="icon-vk-default" xmlns="http://www.w3.org/2000/svg"><path d="M19.523 29.09C7.871 29.09 1.224 21.267.947 8.248h5.837c.192 9.555 4.495 13.603 7.903 14.437V8.248h5.497v8.24c3.365-.354 6.901-4.11 8.094-8.24h5.496c-.916 5.09-4.75 8.846-7.477 10.39 2.727 1.252 7.094 4.527 8.756 10.452h-6.05c-1.3-3.964-4.538-7.03-8.82-7.448v7.448h-.66z" fill="currentColor"/></svg></svg>